G04 #@! TF.GenerationSoftware,KiCad,Pcbnew,(5.1.0-0)*
G04 #@! TF.CreationDate,2019-05-11T20:48:41+09:00*
G04 #@! TF.ProjectId,USBi_Programmer,55534269-5f50-4726-9f67-72616d6d6572,rev?*
G04 #@! TF.SameCoordinates,Original*
G04 #@! TF.FileFunction,Copper,L2,Bot*
G04 #@! TF.FilePolarity,Positive*
%FSLAX46Y46*%
G04 Gerber Fmt 4.6, Leading zero omitted, Abs format (unit mm)*
G04 Created by KiCad (PCBNEW (5.1.0-0)) date 2019-05-11 20:48:41*
%MOMM*%
%LPD*%
G04 APERTURE LIST*
%ADD10C,0.300000*%
%ADD11O,1.500000X0.900000*%
%ADD12R,1.500000X0.900000*%
%ADD13C,1.501140*%
%ADD14O,1.727200X1.727200*%
%ADD15R,1.727200X1.727200*%
%ADD16R,2.032000X2.032000*%
%ADD17O,2.032000X2.032000*%
%ADD18C,1.800000*%
%ADD19R,1.800000X1.800000*%
%ADD20C,0.150000*%
%ADD21C,1.998980*%
%ADD22C,0.250000*%
%ADD23C,0.254000*%
G04 APERTURE END LIST*
D10*
X108565000Y-170961857D02*
X108350714Y-171033285D01*
X108279285Y-171104714D01*
X108207857Y-171247571D01*
X108207857Y-171461857D01*
X108279285Y-171604714D01*
X108350714Y-171676142D01*
X108493571Y-171747571D01*
X109065000Y-171747571D01*
X109065000Y-170247571D01*
X108565000Y-170247571D01*
X108422142Y-170319000D01*
X108350714Y-170390428D01*
X108279285Y-170533285D01*
X108279285Y-170676142D01*
X108350714Y-170819000D01*
X108422142Y-170890428D01*
X108565000Y-170961857D01*
X109065000Y-170961857D01*
X107279285Y-170247571D02*
X106993571Y-170247571D01*
X106850714Y-170319000D01*
X106707857Y-170461857D01*
X106636428Y-170747571D01*
X106636428Y-171247571D01*
X106707857Y-171533285D01*
X106850714Y-171676142D01*
X106993571Y-171747571D01*
X107279285Y-171747571D01*
X107422142Y-171676142D01*
X107565000Y-171533285D01*
X107636428Y-171247571D01*
X107636428Y-170747571D01*
X107565000Y-170461857D01*
X107422142Y-170319000D01*
X107279285Y-170247571D01*
X106207857Y-170247571D02*
X105350714Y-170247571D01*
X105779285Y-171747571D02*
X105779285Y-170247571D01*
D11*
X124206000Y-161798000D03*
X124206000Y-160528000D03*
D12*
X124206000Y-163068000D03*
D13*
X109220000Y-139065000D03*
X109220000Y-136525000D03*
X115062000Y-165544000D03*
X112522000Y-165544000D03*
D14*
X107315000Y-167640000D03*
X104775000Y-167640000D03*
X107315000Y-165100000D03*
X104775000Y-165100000D03*
X107315000Y-162560000D03*
X104775000Y-162560000D03*
X107315000Y-160020000D03*
X104775000Y-160020000D03*
X107315000Y-157480000D03*
X104775000Y-157480000D03*
X107315000Y-154940000D03*
X104775000Y-154940000D03*
X107315000Y-152400000D03*
X104775000Y-152400000D03*
X107315000Y-149860000D03*
X104775000Y-149860000D03*
X107315000Y-147320000D03*
X104775000Y-147320000D03*
X107315000Y-144780000D03*
D15*
X104775000Y-144780000D03*
D16*
X103205000Y-136935000D03*
D17*
X103205000Y-139475000D03*
D15*
X132715000Y-144780000D03*
D14*
X135255000Y-144780000D03*
X132715000Y-147320000D03*
X135255000Y-147320000D03*
X132715000Y-149860000D03*
X135255000Y-149860000D03*
X132715000Y-152400000D03*
X135255000Y-152400000D03*
X132715000Y-154940000D03*
X135255000Y-154940000D03*
X132715000Y-157480000D03*
X135255000Y-157480000D03*
X132715000Y-160020000D03*
X135255000Y-160020000D03*
X132715000Y-162560000D03*
X135255000Y-162560000D03*
X132715000Y-165100000D03*
X135255000Y-165100000D03*
X132715000Y-167640000D03*
X135255000Y-167640000D03*
D12*
X123444000Y-154432000D03*
D11*
X123444000Y-156972000D03*
X123444000Y-155702000D03*
D18*
X127239000Y-137811000D03*
D19*
X129779000Y-137811000D03*
X123739000Y-137811000D03*
D18*
X121199000Y-137811000D03*
X115199000Y-137811000D03*
D19*
X117739000Y-137811000D03*
X135739000Y-137811000D03*
D18*
X133199000Y-137811000D03*
D15*
X115062000Y-175260000D03*
D14*
X115062000Y-172720000D03*
X117602000Y-175260000D03*
X117602000Y-172720000D03*
X120142000Y-175260000D03*
X120142000Y-172720000D03*
X122682000Y-175260000D03*
X122682000Y-172720000D03*
X125222000Y-175260000D03*
X125222000Y-172720000D03*
D20*
G36*
X112308729Y-149183916D02*
G01*
X112357240Y-149191112D01*
X112404813Y-149203029D01*
X112450989Y-149219551D01*
X112495323Y-149240519D01*
X112537388Y-149265732D01*
X112576780Y-149294947D01*
X112613118Y-149327882D01*
X112646053Y-149364220D01*
X112675268Y-149403612D01*
X112700481Y-149445677D01*
X112721449Y-149490011D01*
X112737971Y-149536187D01*
X112749888Y-149583760D01*
X112757084Y-149632271D01*
X112759490Y-149681255D01*
X112759490Y-150680745D01*
X112757084Y-150729729D01*
X112749888Y-150778240D01*
X112737971Y-150825813D01*
X112721449Y-150871989D01*
X112700481Y-150916323D01*
X112675268Y-150958388D01*
X112646053Y-150997780D01*
X112613118Y-151034118D01*
X112576780Y-151067053D01*
X112537388Y-151096268D01*
X112495323Y-151121481D01*
X112450989Y-151142449D01*
X112404813Y-151158971D01*
X112357240Y-151170888D01*
X112308729Y-151178084D01*
X112259745Y-151180490D01*
X111260255Y-151180490D01*
X111211271Y-151178084D01*
X111162760Y-151170888D01*
X111115187Y-151158971D01*
X111069011Y-151142449D01*
X111024677Y-151121481D01*
X110982612Y-151096268D01*
X110943220Y-151067053D01*
X110906882Y-151034118D01*
X110873947Y-150997780D01*
X110844732Y-150958388D01*
X110819519Y-150916323D01*
X110798551Y-150871989D01*
X110782029Y-150825813D01*
X110770112Y-150778240D01*
X110762916Y-150729729D01*
X110760510Y-150680745D01*
X110760510Y-149681255D01*
X110762916Y-149632271D01*
X110770112Y-149583760D01*
X110782029Y-149536187D01*
X110798551Y-149490011D01*
X110819519Y-149445677D01*
X110844732Y-149403612D01*
X110873947Y-149364220D01*
X110906882Y-149327882D01*
X110943220Y-149294947D01*
X110982612Y-149265732D01*
X111024677Y-149240519D01*
X111069011Y-149219551D01*
X111115187Y-149203029D01*
X111162760Y-149191112D01*
X111211271Y-149183916D01*
X111260255Y-149181510D01*
X112259745Y-149181510D01*
X112308729Y-149183916D01*
X112308729Y-149183916D01*
G37*
D21*
X111760000Y-150181000D03*
D20*
G36*
X112308729Y-141683916D02*
G01*
X112357240Y-141691112D01*
X112404813Y-141703029D01*
X112450989Y-141719551D01*
X112495323Y-141740519D01*
X112537388Y-141765732D01*
X112576780Y-141794947D01*
X112613118Y-141827882D01*
X112646053Y-141864220D01*
X112675268Y-141903612D01*
X112700481Y-141945677D01*
X112721449Y-141990011D01*
X112737971Y-142036187D01*
X112749888Y-142083760D01*
X112757084Y-142132271D01*
X112759490Y-142181255D01*
X112759490Y-143180745D01*
X112757084Y-143229729D01*
X112749888Y-143278240D01*
X112737971Y-143325813D01*
X112721449Y-143371989D01*
X112700481Y-143416323D01*
X112675268Y-143458388D01*
X112646053Y-143497780D01*
X112613118Y-143534118D01*
X112576780Y-143567053D01*
X112537388Y-143596268D01*
X112495323Y-143621481D01*
X112450989Y-143642449D01*
X112404813Y-143658971D01*
X112357240Y-143670888D01*
X112308729Y-143678084D01*
X112259745Y-143680490D01*
X111260255Y-143680490D01*
X111211271Y-143678084D01*
X111162760Y-143670888D01*
X111115187Y-143658971D01*
X111069011Y-143642449D01*
X111024677Y-143621481D01*
X110982612Y-143596268D01*
X110943220Y-143567053D01*
X110906882Y-143534118D01*
X110873947Y-143497780D01*
X110844732Y-143458388D01*
X110819519Y-143416323D01*
X110798551Y-143371989D01*
X110782029Y-143325813D01*
X110770112Y-143278240D01*
X110762916Y-143229729D01*
X110760510Y-143180745D01*
X110760510Y-142181255D01*
X110762916Y-142132271D01*
X110770112Y-142083760D01*
X110782029Y-142036187D01*
X110798551Y-141990011D01*
X110819519Y-141945677D01*
X110844732Y-141903612D01*
X110873947Y-141864220D01*
X110906882Y-141827882D01*
X110943220Y-141794947D01*
X110982612Y-141765732D01*
X111024677Y-141740519D01*
X111069011Y-141719551D01*
X111115187Y-141703029D01*
X111162760Y-141691112D01*
X111211271Y-141683916D01*
X111260255Y-141681510D01*
X112259745Y-141681510D01*
X112308729Y-141683916D01*
X112308729Y-141683916D01*
G37*
D21*
X111760000Y-142681000D03*
D20*
G36*
X112749729Y-159784916D02*
G01*
X112798240Y-159792112D01*
X112845813Y-159804029D01*
X112891989Y-159820551D01*
X112936323Y-159841519D01*
X112978388Y-159866732D01*
X113017780Y-159895947D01*
X113054118Y-159928882D01*
X113087053Y-159965220D01*
X113116268Y-160004612D01*
X113141481Y-160046677D01*
X113162449Y-160091011D01*
X113178971Y-160137187D01*
X113190888Y-160184760D01*
X113198084Y-160233271D01*
X113200490Y-160282255D01*
X113200490Y-161281745D01*
X113198084Y-161330729D01*
X113190888Y-161379240D01*
X113178971Y-161426813D01*
X113162449Y-161472989D01*
X113141481Y-161517323D01*
X113116268Y-161559388D01*
X113087053Y-161598780D01*
X113054118Y-161635118D01*
X113017780Y-161668053D01*
X112978388Y-161697268D01*
X112936323Y-161722481D01*
X112891989Y-161743449D01*
X112845813Y-161759971D01*
X112798240Y-161771888D01*
X112749729Y-161779084D01*
X112700745Y-161781490D01*
X111701255Y-161781490D01*
X111652271Y-161779084D01*
X111603760Y-161771888D01*
X111556187Y-161759971D01*
X111510011Y-161743449D01*
X111465677Y-161722481D01*
X111423612Y-161697268D01*
X111384220Y-161668053D01*
X111347882Y-161635118D01*
X111314947Y-161598780D01*
X111285732Y-161559388D01*
X111260519Y-161517323D01*
X111239551Y-161472989D01*
X111223029Y-161426813D01*
X111211112Y-161379240D01*
X111203916Y-161330729D01*
X111201510Y-161281745D01*
X111201510Y-160282255D01*
X111203916Y-160233271D01*
X111211112Y-160184760D01*
X111223029Y-160137187D01*
X111239551Y-160091011D01*
X111260519Y-160046677D01*
X111285732Y-160004612D01*
X111314947Y-159965220D01*
X111347882Y-159928882D01*
X111384220Y-159895947D01*
X111423612Y-159866732D01*
X111465677Y-159841519D01*
X111510011Y-159820551D01*
X111556187Y-159804029D01*
X111603760Y-159792112D01*
X111652271Y-159784916D01*
X111701255Y-159782510D01*
X112700745Y-159782510D01*
X112749729Y-159784916D01*
X112749729Y-159784916D01*
G37*
D21*
X112201000Y-160782000D03*
D20*
G36*
X120249729Y-159784916D02*
G01*
X120298240Y-159792112D01*
X120345813Y-159804029D01*
X120391989Y-159820551D01*
X120436323Y-159841519D01*
X120478388Y-159866732D01*
X120517780Y-159895947D01*
X120554118Y-159928882D01*
X120587053Y-159965220D01*
X120616268Y-160004612D01*
X120641481Y-160046677D01*
X120662449Y-160091011D01*
X120678971Y-160137187D01*
X120690888Y-160184760D01*
X120698084Y-160233271D01*
X120700490Y-160282255D01*
X120700490Y-161281745D01*
X120698084Y-161330729D01*
X120690888Y-161379240D01*
X120678971Y-161426813D01*
X120662449Y-161472989D01*
X120641481Y-161517323D01*
X120616268Y-161559388D01*
X120587053Y-161598780D01*
X120554118Y-161635118D01*
X120517780Y-161668053D01*
X120478388Y-161697268D01*
X120436323Y-161722481D01*
X120391989Y-161743449D01*
X120345813Y-161759971D01*
X120298240Y-161771888D01*
X120249729Y-161779084D01*
X120200745Y-161781490D01*
X119201255Y-161781490D01*
X119152271Y-161779084D01*
X119103760Y-161771888D01*
X119056187Y-161759971D01*
X119010011Y-161743449D01*
X118965677Y-161722481D01*
X118923612Y-161697268D01*
X118884220Y-161668053D01*
X118847882Y-161635118D01*
X118814947Y-161598780D01*
X118785732Y-161559388D01*
X118760519Y-161517323D01*
X118739551Y-161472989D01*
X118723029Y-161426813D01*
X118711112Y-161379240D01*
X118703916Y-161330729D01*
X118701510Y-161281745D01*
X118701510Y-160282255D01*
X118703916Y-160233271D01*
X118711112Y-160184760D01*
X118723029Y-160137187D01*
X118739551Y-160091011D01*
X118760519Y-160046677D01*
X118785732Y-160004612D01*
X118814947Y-159965220D01*
X118847882Y-159928882D01*
X118884220Y-159895947D01*
X118923612Y-159866732D01*
X118965677Y-159841519D01*
X119010011Y-159820551D01*
X119056187Y-159804029D01*
X119103760Y-159792112D01*
X119152271Y-159784916D01*
X119201255Y-159782510D01*
X120200745Y-159782510D01*
X120249729Y-159784916D01*
X120249729Y-159784916D01*
G37*
D21*
X119701000Y-160782000D03*
D20*
G36*
X120122729Y-152799916D02*
G01*
X120171240Y-152807112D01*
X120218813Y-152819029D01*
X120264989Y-152835551D01*
X120309323Y-152856519D01*
X120351388Y-152881732D01*
X120390780Y-152910947D01*
X120427118Y-152943882D01*
X120460053Y-152980220D01*
X120489268Y-153019612D01*
X120514481Y-153061677D01*
X120535449Y-153106011D01*
X120551971Y-153152187D01*
X120563888Y-153199760D01*
X120571084Y-153248271D01*
X120573490Y-153297255D01*
X120573490Y-154296745D01*
X120571084Y-154345729D01*
X120563888Y-154394240D01*
X120551971Y-154441813D01*
X120535449Y-154487989D01*
X120514481Y-154532323D01*
X120489268Y-154574388D01*
X120460053Y-154613780D01*
X120427118Y-154650118D01*
X120390780Y-154683053D01*
X120351388Y-154712268D01*
X120309323Y-154737481D01*
X120264989Y-154758449D01*
X120218813Y-154774971D01*
X120171240Y-154786888D01*
X120122729Y-154794084D01*
X120073745Y-154796490D01*
X119074255Y-154796490D01*
X119025271Y-154794084D01*
X118976760Y-154786888D01*
X118929187Y-154774971D01*
X118883011Y-154758449D01*
X118838677Y-154737481D01*
X118796612Y-154712268D01*
X118757220Y-154683053D01*
X118720882Y-154650118D01*
X118687947Y-154613780D01*
X118658732Y-154574388D01*
X118633519Y-154532323D01*
X118612551Y-154487989D01*
X118596029Y-154441813D01*
X118584112Y-154394240D01*
X118576916Y-154345729D01*
X118574510Y-154296745D01*
X118574510Y-153297255D01*
X118576916Y-153248271D01*
X118584112Y-153199760D01*
X118596029Y-153152187D01*
X118612551Y-153106011D01*
X118633519Y-153061677D01*
X118658732Y-153019612D01*
X118687947Y-152980220D01*
X118720882Y-152943882D01*
X118757220Y-152910947D01*
X118796612Y-152881732D01*
X118838677Y-152856519D01*
X118883011Y-152835551D01*
X118929187Y-152819029D01*
X118976760Y-152807112D01*
X119025271Y-152799916D01*
X119074255Y-152797510D01*
X120073745Y-152797510D01*
X120122729Y-152799916D01*
X120122729Y-152799916D01*
G37*
D21*
X119574000Y-153797000D03*
D20*
G36*
X112622729Y-152799916D02*
G01*
X112671240Y-152807112D01*
X112718813Y-152819029D01*
X112764989Y-152835551D01*
X112809323Y-152856519D01*
X112851388Y-152881732D01*
X112890780Y-152910947D01*
X112927118Y-152943882D01*
X112960053Y-152980220D01*
X112989268Y-153019612D01*
X113014481Y-153061677D01*
X113035449Y-153106011D01*
X113051971Y-153152187D01*
X113063888Y-153199760D01*
X113071084Y-153248271D01*
X113073490Y-153297255D01*
X113073490Y-154296745D01*
X113071084Y-154345729D01*
X113063888Y-154394240D01*
X113051971Y-154441813D01*
X113035449Y-154487989D01*
X113014481Y-154532323D01*
X112989268Y-154574388D01*
X112960053Y-154613780D01*
X112927118Y-154650118D01*
X112890780Y-154683053D01*
X112851388Y-154712268D01*
X112809323Y-154737481D01*
X112764989Y-154758449D01*
X112718813Y-154774971D01*
X112671240Y-154786888D01*
X112622729Y-154794084D01*
X112573745Y-154796490D01*
X111574255Y-154796490D01*
X111525271Y-154794084D01*
X111476760Y-154786888D01*
X111429187Y-154774971D01*
X111383011Y-154758449D01*
X111338677Y-154737481D01*
X111296612Y-154712268D01*
X111257220Y-154683053D01*
X111220882Y-154650118D01*
X111187947Y-154613780D01*
X111158732Y-154574388D01*
X111133519Y-154532323D01*
X111112551Y-154487989D01*
X111096029Y-154441813D01*
X111084112Y-154394240D01*
X111076916Y-154345729D01*
X111074510Y-154296745D01*
X111074510Y-153297255D01*
X111076916Y-153248271D01*
X111084112Y-153199760D01*
X111096029Y-153152187D01*
X111112551Y-153106011D01*
X111133519Y-153061677D01*
X111158732Y-153019612D01*
X111187947Y-152980220D01*
X111220882Y-152943882D01*
X111257220Y-152910947D01*
X111296612Y-152881732D01*
X111338677Y-152856519D01*
X111383011Y-152835551D01*
X111429187Y-152819029D01*
X111476760Y-152807112D01*
X111525271Y-152799916D01*
X111574255Y-152797510D01*
X112573745Y-152797510D01*
X112622729Y-152799916D01*
X112622729Y-152799916D01*
G37*
D21*
X112074000Y-153797000D03*
D20*
G36*
X120138729Y-156355916D02*
G01*
X120187240Y-156363112D01*
X120234813Y-156375029D01*
X120280989Y-156391551D01*
X120325323Y-156412519D01*
X120367388Y-156437732D01*
X120406780Y-156466947D01*
X120443118Y-156499882D01*
X120476053Y-156536220D01*
X120505268Y-156575612D01*
X120530481Y-156617677D01*
X120551449Y-156662011D01*
X120567971Y-156708187D01*
X120579888Y-156755760D01*
X120587084Y-156804271D01*
X120589490Y-156853255D01*
X120589490Y-157852745D01*
X120587084Y-157901729D01*
X120579888Y-157950240D01*
X120567971Y-157997813D01*
X120551449Y-158043989D01*
X120530481Y-158088323D01*
X120505268Y-158130388D01*
X120476053Y-158169780D01*
X120443118Y-158206118D01*
X120406780Y-158239053D01*
X120367388Y-158268268D01*
X120325323Y-158293481D01*
X120280989Y-158314449D01*
X120234813Y-158330971D01*
X120187240Y-158342888D01*
X120138729Y-158350084D01*
X120089745Y-158352490D01*
X119090255Y-158352490D01*
X119041271Y-158350084D01*
X118992760Y-158342888D01*
X118945187Y-158330971D01*
X118899011Y-158314449D01*
X118854677Y-158293481D01*
X118812612Y-158268268D01*
X118773220Y-158239053D01*
X118736882Y-158206118D01*
X118703947Y-158169780D01*
X118674732Y-158130388D01*
X118649519Y-158088323D01*
X118628551Y-158043989D01*
X118612029Y-157997813D01*
X118600112Y-157950240D01*
X118592916Y-157901729D01*
X118590510Y-157852745D01*
X118590510Y-156853255D01*
X118592916Y-156804271D01*
X118600112Y-156755760D01*
X118612029Y-156708187D01*
X118628551Y-156662011D01*
X118649519Y-156617677D01*
X118674732Y-156575612D01*
X118703947Y-156536220D01*
X118736882Y-156499882D01*
X118773220Y-156466947D01*
X118812612Y-156437732D01*
X118854677Y-156412519D01*
X118899011Y-156391551D01*
X118945187Y-156375029D01*
X118992760Y-156363112D01*
X119041271Y-156355916D01*
X119090255Y-156353510D01*
X120089745Y-156353510D01*
X120138729Y-156355916D01*
X120138729Y-156355916D01*
G37*
D21*
X119590000Y-157353000D03*
D20*
G36*
X112638729Y-156355916D02*
G01*
X112687240Y-156363112D01*
X112734813Y-156375029D01*
X112780989Y-156391551D01*
X112825323Y-156412519D01*
X112867388Y-156437732D01*
X112906780Y-156466947D01*
X112943118Y-156499882D01*
X112976053Y-156536220D01*
X113005268Y-156575612D01*
X113030481Y-156617677D01*
X113051449Y-156662011D01*
X113067971Y-156708187D01*
X113079888Y-156755760D01*
X113087084Y-156804271D01*
X113089490Y-156853255D01*
X113089490Y-157852745D01*
X113087084Y-157901729D01*
X113079888Y-157950240D01*
X113067971Y-157997813D01*
X113051449Y-158043989D01*
X113030481Y-158088323D01*
X113005268Y-158130388D01*
X112976053Y-158169780D01*
X112943118Y-158206118D01*
X112906780Y-158239053D01*
X112867388Y-158268268D01*
X112825323Y-158293481D01*
X112780989Y-158314449D01*
X112734813Y-158330971D01*
X112687240Y-158342888D01*
X112638729Y-158350084D01*
X112589745Y-158352490D01*
X111590255Y-158352490D01*
X111541271Y-158350084D01*
X111492760Y-158342888D01*
X111445187Y-158330971D01*
X111399011Y-158314449D01*
X111354677Y-158293481D01*
X111312612Y-158268268D01*
X111273220Y-158239053D01*
X111236882Y-158206118D01*
X111203947Y-158169780D01*
X111174732Y-158130388D01*
X111149519Y-158088323D01*
X111128551Y-158043989D01*
X111112029Y-157997813D01*
X111100112Y-157950240D01*
X111092916Y-157901729D01*
X111090510Y-157852745D01*
X111090510Y-156853255D01*
X111092916Y-156804271D01*
X111100112Y-156755760D01*
X111112029Y-156708187D01*
X111128551Y-156662011D01*
X111149519Y-156617677D01*
X111174732Y-156575612D01*
X111203947Y-156536220D01*
X111236882Y-156499882D01*
X111273220Y-156466947D01*
X111312612Y-156437732D01*
X111354677Y-156412519D01*
X111399011Y-156391551D01*
X111445187Y-156375029D01*
X111492760Y-156363112D01*
X111541271Y-156355916D01*
X111590255Y-156353510D01*
X112589745Y-156353510D01*
X112638729Y-156355916D01*
X112638729Y-156355916D01*
G37*
D21*
X112090000Y-157353000D03*
D20*
G36*
X121325729Y-149120916D02*
G01*
X121374240Y-149128112D01*
X121421813Y-149140029D01*
X121467989Y-149156551D01*
X121512323Y-149177519D01*
X121554388Y-149202732D01*
X121593780Y-149231947D01*
X121630118Y-149264882D01*
X121663053Y-149301220D01*
X121692268Y-149340612D01*
X121717481Y-149382677D01*
X121738449Y-149427011D01*
X121754971Y-149473187D01*
X121766888Y-149520760D01*
X121774084Y-149569271D01*
X121776490Y-149618255D01*
X121776490Y-150617745D01*
X121774084Y-150666729D01*
X121766888Y-150715240D01*
X121754971Y-150762813D01*
X121738449Y-150808989D01*
X121717481Y-150853323D01*
X121692268Y-150895388D01*
X121663053Y-150934780D01*
X121630118Y-150971118D01*
X121593780Y-151004053D01*
X121554388Y-151033268D01*
X121512323Y-151058481D01*
X121467989Y-151079449D01*
X121421813Y-151095971D01*
X121374240Y-151107888D01*
X121325729Y-151115084D01*
X121276745Y-151117490D01*
X120277255Y-151117490D01*
X120228271Y-151115084D01*
X120179760Y-151107888D01*
X120132187Y-151095971D01*
X120086011Y-151079449D01*
X120041677Y-151058481D01*
X119999612Y-151033268D01*
X119960220Y-151004053D01*
X119923882Y-150971118D01*
X119890947Y-150934780D01*
X119861732Y-150895388D01*
X119836519Y-150853323D01*
X119815551Y-150808989D01*
X119799029Y-150762813D01*
X119787112Y-150715240D01*
X119779916Y-150666729D01*
X119777510Y-150617745D01*
X119777510Y-149618255D01*
X119779916Y-149569271D01*
X119787112Y-149520760D01*
X119799029Y-149473187D01*
X119815551Y-149427011D01*
X119836519Y-149382677D01*
X119861732Y-149340612D01*
X119890947Y-149301220D01*
X119923882Y-149264882D01*
X119960220Y-149231947D01*
X119999612Y-149202732D01*
X120041677Y-149177519D01*
X120086011Y-149156551D01*
X120132187Y-149140029D01*
X120179760Y-149128112D01*
X120228271Y-149120916D01*
X120277255Y-149118510D01*
X121276745Y-149118510D01*
X121325729Y-149120916D01*
X121325729Y-149120916D01*
G37*
D21*
X120777000Y-150118000D03*
D20*
G36*
X121325729Y-141620916D02*
G01*
X121374240Y-141628112D01*
X121421813Y-141640029D01*
X121467989Y-141656551D01*
X121512323Y-141677519D01*
X121554388Y-141702732D01*
X121593780Y-141731947D01*
X121630118Y-141764882D01*
X121663053Y-141801220D01*
X121692268Y-141840612D01*
X121717481Y-141882677D01*
X121738449Y-141927011D01*
X121754971Y-141973187D01*
X121766888Y-142020760D01*
X121774084Y-142069271D01*
X121776490Y-142118255D01*
X121776490Y-143117745D01*
X121774084Y-143166729D01*
X121766888Y-143215240D01*
X121754971Y-143262813D01*
X121738449Y-143308989D01*
X121717481Y-143353323D01*
X121692268Y-143395388D01*
X121663053Y-143434780D01*
X121630118Y-143471118D01*
X121593780Y-143504053D01*
X121554388Y-143533268D01*
X121512323Y-143558481D01*
X121467989Y-143579449D01*
X121421813Y-143595971D01*
X121374240Y-143607888D01*
X121325729Y-143615084D01*
X121276745Y-143617490D01*
X120277255Y-143617490D01*
X120228271Y-143615084D01*
X120179760Y-143607888D01*
X120132187Y-143595971D01*
X120086011Y-143579449D01*
X120041677Y-143558481D01*
X119999612Y-143533268D01*
X119960220Y-143504053D01*
X119923882Y-143471118D01*
X119890947Y-143434780D01*
X119861732Y-143395388D01*
X119836519Y-143353323D01*
X119815551Y-143308989D01*
X119799029Y-143262813D01*
X119787112Y-143215240D01*
X119779916Y-143166729D01*
X119777510Y-143117745D01*
X119777510Y-142118255D01*
X119779916Y-142069271D01*
X119787112Y-142020760D01*
X119799029Y-141973187D01*
X119815551Y-141927011D01*
X119836519Y-141882677D01*
X119861732Y-141840612D01*
X119890947Y-141801220D01*
X119923882Y-141764882D01*
X119960220Y-141731947D01*
X119999612Y-141702732D01*
X120041677Y-141677519D01*
X120086011Y-141656551D01*
X120132187Y-141640029D01*
X120179760Y-141628112D01*
X120228271Y-141620916D01*
X120277255Y-141618510D01*
X121276745Y-141618510D01*
X121325729Y-141620916D01*
X121325729Y-141620916D01*
G37*
D21*
X120777000Y-142618000D03*
D20*
G36*
X117134729Y-141556916D02*
G01*
X117183240Y-141564112D01*
X117230813Y-141576029D01*
X117276989Y-141592551D01*
X117321323Y-141613519D01*
X117363388Y-141638732D01*
X117402780Y-141667947D01*
X117439118Y-141700882D01*
X117472053Y-141737220D01*
X117501268Y-141776612D01*
X117526481Y-141818677D01*
X117547449Y-141863011D01*
X117563971Y-141909187D01*
X117575888Y-141956760D01*
X117583084Y-142005271D01*
X117585490Y-142054255D01*
X117585490Y-143053745D01*
X117583084Y-143102729D01*
X117575888Y-143151240D01*
X117563971Y-143198813D01*
X117547449Y-143244989D01*
X117526481Y-143289323D01*
X117501268Y-143331388D01*
X117472053Y-143370780D01*
X117439118Y-143407118D01*
X117402780Y-143440053D01*
X117363388Y-143469268D01*
X117321323Y-143494481D01*
X117276989Y-143515449D01*
X117230813Y-143531971D01*
X117183240Y-143543888D01*
X117134729Y-143551084D01*
X117085745Y-143553490D01*
X116086255Y-143553490D01*
X116037271Y-143551084D01*
X115988760Y-143543888D01*
X115941187Y-143531971D01*
X115895011Y-143515449D01*
X115850677Y-143494481D01*
X115808612Y-143469268D01*
X115769220Y-143440053D01*
X115732882Y-143407118D01*
X115699947Y-143370780D01*
X115670732Y-143331388D01*
X115645519Y-143289323D01*
X115624551Y-143244989D01*
X115608029Y-143198813D01*
X115596112Y-143151240D01*
X115588916Y-143102729D01*
X115586510Y-143053745D01*
X115586510Y-142054255D01*
X115588916Y-142005271D01*
X115596112Y-141956760D01*
X115608029Y-141909187D01*
X115624551Y-141863011D01*
X115645519Y-141818677D01*
X115670732Y-141776612D01*
X115699947Y-141737220D01*
X115732882Y-141700882D01*
X115769220Y-141667947D01*
X115808612Y-141638732D01*
X115850677Y-141613519D01*
X115895011Y-141592551D01*
X115941187Y-141576029D01*
X115988760Y-141564112D01*
X116037271Y-141556916D01*
X116086255Y-141554510D01*
X117085745Y-141554510D01*
X117134729Y-141556916D01*
X117134729Y-141556916D01*
G37*
D21*
X116586000Y-142554000D03*
D20*
G36*
X117134729Y-149056916D02*
G01*
X117183240Y-149064112D01*
X117230813Y-149076029D01*
X117276989Y-149092551D01*
X117321323Y-149113519D01*
X117363388Y-149138732D01*
X117402780Y-149167947D01*
X117439118Y-149200882D01*
X117472053Y-149237220D01*
X117501268Y-149276612D01*
X117526481Y-149318677D01*
X117547449Y-149363011D01*
X117563971Y-149409187D01*
X117575888Y-149456760D01*
X117583084Y-149505271D01*
X117585490Y-149554255D01*
X117585490Y-150553745D01*
X117583084Y-150602729D01*
X117575888Y-150651240D01*
X117563971Y-150698813D01*
X117547449Y-150744989D01*
X117526481Y-150789323D01*
X117501268Y-150831388D01*
X117472053Y-150870780D01*
X117439118Y-150907118D01*
X117402780Y-150940053D01*
X117363388Y-150969268D01*
X117321323Y-150994481D01*
X117276989Y-151015449D01*
X117230813Y-151031971D01*
X117183240Y-151043888D01*
X117134729Y-151051084D01*
X117085745Y-151053490D01*
X116086255Y-151053490D01*
X116037271Y-151051084D01*
X115988760Y-151043888D01*
X115941187Y-151031971D01*
X115895011Y-151015449D01*
X115850677Y-150994481D01*
X115808612Y-150969268D01*
X115769220Y-150940053D01*
X115732882Y-150907118D01*
X115699947Y-150870780D01*
X115670732Y-150831388D01*
X115645519Y-150789323D01*
X115624551Y-150744989D01*
X115608029Y-150698813D01*
X115596112Y-150651240D01*
X115588916Y-150602729D01*
X115586510Y-150553745D01*
X115586510Y-149554255D01*
X115588916Y-149505271D01*
X115596112Y-149456760D01*
X115608029Y-149409187D01*
X115624551Y-149363011D01*
X115645519Y-149318677D01*
X115670732Y-149276612D01*
X115699947Y-149237220D01*
X115732882Y-149200882D01*
X115769220Y-149167947D01*
X115808612Y-149138732D01*
X115850677Y-149113519D01*
X115895011Y-149092551D01*
X115941187Y-149076029D01*
X115988760Y-149064112D01*
X116037271Y-149056916D01*
X116086255Y-149054510D01*
X117085745Y-149054510D01*
X117134729Y-149056916D01*
X117134729Y-149056916D01*
G37*
D21*
X116586000Y-150054000D03*
D20*
G36*
X125262729Y-149183916D02*
G01*
X125311240Y-149191112D01*
X125358813Y-149203029D01*
X125404989Y-149219551D01*
X125449323Y-149240519D01*
X125491388Y-149265732D01*
X125530780Y-149294947D01*
X125567118Y-149327882D01*
X125600053Y-149364220D01*
X125629268Y-149403612D01*
X125654481Y-149445677D01*
X125675449Y-149490011D01*
X125691971Y-149536187D01*
X125703888Y-149583760D01*
X125711084Y-149632271D01*
X125713490Y-149681255D01*
X125713490Y-150680745D01*
X125711084Y-150729729D01*
X125703888Y-150778240D01*
X125691971Y-150825813D01*
X125675449Y-150871989D01*
X125654481Y-150916323D01*
X125629268Y-150958388D01*
X125600053Y-150997780D01*
X125567118Y-151034118D01*
X125530780Y-151067053D01*
X125491388Y-151096268D01*
X125449323Y-151121481D01*
X125404989Y-151142449D01*
X125358813Y-151158971D01*
X125311240Y-151170888D01*
X125262729Y-151178084D01*
X125213745Y-151180490D01*
X124214255Y-151180490D01*
X124165271Y-151178084D01*
X124116760Y-151170888D01*
X124069187Y-151158971D01*
X124023011Y-151142449D01*
X123978677Y-151121481D01*
X123936612Y-151096268D01*
X123897220Y-151067053D01*
X123860882Y-151034118D01*
X123827947Y-150997780D01*
X123798732Y-150958388D01*
X123773519Y-150916323D01*
X123752551Y-150871989D01*
X123736029Y-150825813D01*
X123724112Y-150778240D01*
X123716916Y-150729729D01*
X123714510Y-150680745D01*
X123714510Y-149681255D01*
X123716916Y-149632271D01*
X123724112Y-149583760D01*
X123736029Y-149536187D01*
X123752551Y-149490011D01*
X123773519Y-149445677D01*
X123798732Y-149403612D01*
X123827947Y-149364220D01*
X123860882Y-149327882D01*
X123897220Y-149294947D01*
X123936612Y-149265732D01*
X123978677Y-149240519D01*
X124023011Y-149219551D01*
X124069187Y-149203029D01*
X124116760Y-149191112D01*
X124165271Y-149183916D01*
X124214255Y-149181510D01*
X125213745Y-149181510D01*
X125262729Y-149183916D01*
X125262729Y-149183916D01*
G37*
D21*
X124714000Y-150181000D03*
D20*
G36*
X125262729Y-141683916D02*
G01*
X125311240Y-141691112D01*
X125358813Y-141703029D01*
X125404989Y-141719551D01*
X125449323Y-141740519D01*
X125491388Y-141765732D01*
X125530780Y-141794947D01*
X125567118Y-141827882D01*
X125600053Y-141864220D01*
X125629268Y-141903612D01*
X125654481Y-141945677D01*
X125675449Y-141990011D01*
X125691971Y-142036187D01*
X125703888Y-142083760D01*
X125711084Y-142132271D01*
X125713490Y-142181255D01*
X125713490Y-143180745D01*
X125711084Y-143229729D01*
X125703888Y-143278240D01*
X125691971Y-143325813D01*
X125675449Y-143371989D01*
X125654481Y-143416323D01*
X125629268Y-143458388D01*
X125600053Y-143497780D01*
X125567118Y-143534118D01*
X125530780Y-143567053D01*
X125491388Y-143596268D01*
X125449323Y-143621481D01*
X125404989Y-143642449D01*
X125358813Y-143658971D01*
X125311240Y-143670888D01*
X125262729Y-143678084D01*
X125213745Y-143680490D01*
X124214255Y-143680490D01*
X124165271Y-143678084D01*
X124116760Y-143670888D01*
X124069187Y-143658971D01*
X124023011Y-143642449D01*
X123978677Y-143621481D01*
X123936612Y-143596268D01*
X123897220Y-143567053D01*
X123860882Y-143534118D01*
X123827947Y-143497780D01*
X123798732Y-143458388D01*
X123773519Y-143416323D01*
X123752551Y-143371989D01*
X123736029Y-143325813D01*
X123724112Y-143278240D01*
X123716916Y-143229729D01*
X123714510Y-143180745D01*
X123714510Y-142181255D01*
X123716916Y-142132271D01*
X123724112Y-142083760D01*
X123736029Y-142036187D01*
X123752551Y-141990011D01*
X123773519Y-141945677D01*
X123798732Y-141903612D01*
X123827947Y-141864220D01*
X123860882Y-141827882D01*
X123897220Y-141794947D01*
X123936612Y-141765732D01*
X123978677Y-141740519D01*
X124023011Y-141719551D01*
X124069187Y-141703029D01*
X124116760Y-141691112D01*
X124165271Y-141683916D01*
X124214255Y-141681510D01*
X125213745Y-141681510D01*
X125262729Y-141683916D01*
X125262729Y-141683916D01*
G37*
D21*
X124714000Y-142681000D03*
D20*
G36*
X121068729Y-166007916D02*
G01*
X121117240Y-166015112D01*
X121164813Y-166027029D01*
X121210989Y-166043551D01*
X121255323Y-166064519D01*
X121297388Y-166089732D01*
X121336780Y-166118947D01*
X121373118Y-166151882D01*
X121406053Y-166188220D01*
X121435268Y-166227612D01*
X121460481Y-166269677D01*
X121481449Y-166314011D01*
X121497971Y-166360187D01*
X121509888Y-166407760D01*
X121517084Y-166456271D01*
X121519490Y-166505255D01*
X121519490Y-167504745D01*
X121517084Y-167553729D01*
X121509888Y-167602240D01*
X121497971Y-167649813D01*
X121481449Y-167695989D01*
X121460481Y-167740323D01*
X121435268Y-167782388D01*
X121406053Y-167821780D01*
X121373118Y-167858118D01*
X121336780Y-167891053D01*
X121297388Y-167920268D01*
X121255323Y-167945481D01*
X121210989Y-167966449D01*
X121164813Y-167982971D01*
X121117240Y-167994888D01*
X121068729Y-168002084D01*
X121019745Y-168004490D01*
X120020255Y-168004490D01*
X119971271Y-168002084D01*
X119922760Y-167994888D01*
X119875187Y-167982971D01*
X119829011Y-167966449D01*
X119784677Y-167945481D01*
X119742612Y-167920268D01*
X119703220Y-167891053D01*
X119666882Y-167858118D01*
X119633947Y-167821780D01*
X119604732Y-167782388D01*
X119579519Y-167740323D01*
X119558551Y-167695989D01*
X119542029Y-167649813D01*
X119530112Y-167602240D01*
X119522916Y-167553729D01*
X119520510Y-167504745D01*
X119520510Y-166505255D01*
X119522916Y-166456271D01*
X119530112Y-166407760D01*
X119542029Y-166360187D01*
X119558551Y-166314011D01*
X119579519Y-166269677D01*
X119604732Y-166227612D01*
X119633947Y-166188220D01*
X119666882Y-166151882D01*
X119703220Y-166118947D01*
X119742612Y-166089732D01*
X119784677Y-166064519D01*
X119829011Y-166043551D01*
X119875187Y-166027029D01*
X119922760Y-166015112D01*
X119971271Y-166007916D01*
X120020255Y-166005510D01*
X121019745Y-166005510D01*
X121068729Y-166007916D01*
X121068729Y-166007916D01*
G37*
D21*
X120520000Y-167005000D03*
D20*
G36*
X128568729Y-166007916D02*
G01*
X128617240Y-166015112D01*
X128664813Y-166027029D01*
X128710989Y-166043551D01*
X128755323Y-166064519D01*
X128797388Y-166089732D01*
X128836780Y-166118947D01*
X128873118Y-166151882D01*
X128906053Y-166188220D01*
X128935268Y-166227612D01*
X128960481Y-166269677D01*
X128981449Y-166314011D01*
X128997971Y-166360187D01*
X129009888Y-166407760D01*
X129017084Y-166456271D01*
X129019490Y-166505255D01*
X129019490Y-167504745D01*
X129017084Y-167553729D01*
X129009888Y-167602240D01*
X128997971Y-167649813D01*
X128981449Y-167695989D01*
X128960481Y-167740323D01*
X128935268Y-167782388D01*
X128906053Y-167821780D01*
X128873118Y-167858118D01*
X128836780Y-167891053D01*
X128797388Y-167920268D01*
X128755323Y-167945481D01*
X128710989Y-167966449D01*
X128664813Y-167982971D01*
X128617240Y-167994888D01*
X128568729Y-168002084D01*
X128519745Y-168004490D01*
X127520255Y-168004490D01*
X127471271Y-168002084D01*
X127422760Y-167994888D01*
X127375187Y-167982971D01*
X127329011Y-167966449D01*
X127284677Y-167945481D01*
X127242612Y-167920268D01*
X127203220Y-167891053D01*
X127166882Y-167858118D01*
X127133947Y-167821780D01*
X127104732Y-167782388D01*
X127079519Y-167740323D01*
X127058551Y-167695989D01*
X127042029Y-167649813D01*
X127030112Y-167602240D01*
X127022916Y-167553729D01*
X127020510Y-167504745D01*
X127020510Y-166505255D01*
X127022916Y-166456271D01*
X127030112Y-166407760D01*
X127042029Y-166360187D01*
X127058551Y-166314011D01*
X127079519Y-166269677D01*
X127104732Y-166227612D01*
X127133947Y-166188220D01*
X127166882Y-166151882D01*
X127203220Y-166118947D01*
X127242612Y-166089732D01*
X127284677Y-166064519D01*
X127329011Y-166043551D01*
X127375187Y-166027029D01*
X127422760Y-166015112D01*
X127471271Y-166007916D01*
X127520255Y-166005510D01*
X128519745Y-166005510D01*
X128568729Y-166007916D01*
X128568729Y-166007916D01*
G37*
D21*
X128020000Y-167005000D03*
D20*
G36*
X129072729Y-141683916D02*
G01*
X129121240Y-141691112D01*
X129168813Y-141703029D01*
X129214989Y-141719551D01*
X129259323Y-141740519D01*
X129301388Y-141765732D01*
X129340780Y-141794947D01*
X129377118Y-141827882D01*
X129410053Y-141864220D01*
X129439268Y-141903612D01*
X129464481Y-141945677D01*
X129485449Y-141990011D01*
X129501971Y-142036187D01*
X129513888Y-142083760D01*
X129521084Y-142132271D01*
X129523490Y-142181255D01*
X129523490Y-143180745D01*
X129521084Y-143229729D01*
X129513888Y-143278240D01*
X129501971Y-143325813D01*
X129485449Y-143371989D01*
X129464481Y-143416323D01*
X129439268Y-143458388D01*
X129410053Y-143497780D01*
X129377118Y-143534118D01*
X129340780Y-143567053D01*
X129301388Y-143596268D01*
X129259323Y-143621481D01*
X129214989Y-143642449D01*
X129168813Y-143658971D01*
X129121240Y-143670888D01*
X129072729Y-143678084D01*
X129023745Y-143680490D01*
X128024255Y-143680490D01*
X127975271Y-143678084D01*
X127926760Y-143670888D01*
X127879187Y-143658971D01*
X127833011Y-143642449D01*
X127788677Y-143621481D01*
X127746612Y-143596268D01*
X127707220Y-143567053D01*
X127670882Y-143534118D01*
X127637947Y-143497780D01*
X127608732Y-143458388D01*
X127583519Y-143416323D01*
X127562551Y-143371989D01*
X127546029Y-143325813D01*
X127534112Y-143278240D01*
X127526916Y-143229729D01*
X127524510Y-143180745D01*
X127524510Y-142181255D01*
X127526916Y-142132271D01*
X127534112Y-142083760D01*
X127546029Y-142036187D01*
X127562551Y-141990011D01*
X127583519Y-141945677D01*
X127608732Y-141903612D01*
X127637947Y-141864220D01*
X127670882Y-141827882D01*
X127707220Y-141794947D01*
X127746612Y-141765732D01*
X127788677Y-141740519D01*
X127833011Y-141719551D01*
X127879187Y-141703029D01*
X127926760Y-141691112D01*
X127975271Y-141683916D01*
X128024255Y-141681510D01*
X129023745Y-141681510D01*
X129072729Y-141683916D01*
X129072729Y-141683916D01*
G37*
D21*
X128524000Y-142681000D03*
D20*
G36*
X129072729Y-149183916D02*
G01*
X129121240Y-149191112D01*
X129168813Y-149203029D01*
X129214989Y-149219551D01*
X129259323Y-149240519D01*
X129301388Y-149265732D01*
X129340780Y-149294947D01*
X129377118Y-149327882D01*
X129410053Y-149364220D01*
X129439268Y-149403612D01*
X129464481Y-149445677D01*
X129485449Y-149490011D01*
X129501971Y-149536187D01*
X129513888Y-149583760D01*
X129521084Y-149632271D01*
X129523490Y-149681255D01*
X129523490Y-150680745D01*
X129521084Y-150729729D01*
X129513888Y-150778240D01*
X129501971Y-150825813D01*
X129485449Y-150871989D01*
X129464481Y-150916323D01*
X129439268Y-150958388D01*
X129410053Y-150997780D01*
X129377118Y-151034118D01*
X129340780Y-151067053D01*
X129301388Y-151096268D01*
X129259323Y-151121481D01*
X129214989Y-151142449D01*
X129168813Y-151158971D01*
X129121240Y-151170888D01*
X129072729Y-151178084D01*
X129023745Y-151180490D01*
X128024255Y-151180490D01*
X127975271Y-151178084D01*
X127926760Y-151170888D01*
X127879187Y-151158971D01*
X127833011Y-151142449D01*
X127788677Y-151121481D01*
X127746612Y-151096268D01*
X127707220Y-151067053D01*
X127670882Y-151034118D01*
X127637947Y-150997780D01*
X127608732Y-150958388D01*
X127583519Y-150916323D01*
X127562551Y-150871989D01*
X127546029Y-150825813D01*
X127534112Y-150778240D01*
X127526916Y-150729729D01*
X127524510Y-150680745D01*
X127524510Y-149681255D01*
X127526916Y-149632271D01*
X127534112Y-149583760D01*
X127546029Y-149536187D01*
X127562551Y-149490011D01*
X127583519Y-149445677D01*
X127608732Y-149403612D01*
X127637947Y-149364220D01*
X127670882Y-149327882D01*
X127707220Y-149294947D01*
X127746612Y-149265732D01*
X127788677Y-149240519D01*
X127833011Y-149219551D01*
X127879187Y-149203029D01*
X127926760Y-149191112D01*
X127975271Y-149183916D01*
X128024255Y-149181510D01*
X129023745Y-149181510D01*
X129072729Y-149183916D01*
X129072729Y-149183916D01*
G37*
D21*
X128524000Y-150181000D03*
D22*
X103205000Y-136935000D02*
X108810000Y-136935000D01*
X108810000Y-136935000D02*
X109220000Y-136525000D01*
X129779000Y-137811000D02*
X128553700Y-137811000D01*
X120777000Y-142618000D02*
X124358700Y-139036300D01*
X124358700Y-139036300D02*
X127788000Y-139036300D01*
X127788000Y-139036300D02*
X128553700Y-138270600D01*
X128553700Y-138270600D02*
X128553700Y-137811000D01*
X116424400Y-139036400D02*
X115199000Y-137811000D01*
X121199000Y-137811000D02*
X119973600Y-139036400D01*
X119973600Y-139036400D02*
X116424400Y-139036400D01*
X116424400Y-139036400D02*
X114211500Y-141249300D01*
X114211500Y-141249300D02*
X114211500Y-144645000D01*
X114211500Y-144645000D02*
X107726500Y-151130000D01*
X107726500Y-151130000D02*
X104306700Y-151130000D01*
X104306700Y-151130000D02*
X103085700Y-152351000D01*
X103085700Y-152351000D02*
X103085700Y-165103900D01*
X103085700Y-165103900D02*
X104432900Y-166451100D01*
X104432900Y-166451100D02*
X105308800Y-166451100D01*
X105308800Y-166451100D02*
X106126100Y-167268400D01*
X106126100Y-167268400D02*
X106126100Y-167640000D01*
X107315000Y-167640000D02*
X106126100Y-167640000D01*
X127239000Y-137811000D02*
X126013600Y-136585600D01*
X126013600Y-136585600D02*
X122424400Y-136585600D01*
X122424400Y-136585600D02*
X121199000Y-137811000D01*
X107315000Y-167640000D02*
X110426000Y-167640000D01*
X110426000Y-167640000D02*
X112522000Y-165544000D01*
X123739000Y-137811000D02*
X122513700Y-137811000D01*
X116586000Y-142554000D02*
X118199200Y-142554000D01*
X118199200Y-142554000D02*
X122513700Y-138239500D01*
X122513700Y-138239500D02*
X122513700Y-137811000D01*
X135739000Y-137811000D02*
X134513700Y-137811000D01*
X128524000Y-142681000D02*
X130103200Y-142681000D01*
X130103200Y-142681000D02*
X134513700Y-138270500D01*
X134513700Y-138270500D02*
X134513700Y-137811000D01*
X123444000Y-154432000D02*
X122368700Y-154432000D01*
X119590000Y-157353000D02*
X122368700Y-154574300D01*
X122368700Y-154574300D02*
X122368700Y-154432000D01*
X104775000Y-162560000D02*
X105963900Y-162560000D01*
X112201000Y-160782000D02*
X109234100Y-163748900D01*
X109234100Y-163748900D02*
X106781200Y-163748900D01*
X106781200Y-163748900D02*
X105963900Y-162931600D01*
X105963900Y-162931600D02*
X105963900Y-162560000D01*
X107315000Y-162560000D02*
X108503900Y-162560000D01*
X120777000Y-150118000D02*
X113964100Y-156930900D01*
X113964100Y-156930900D02*
X113964100Y-157650200D01*
X113964100Y-157650200D02*
X112491300Y-159123000D01*
X112491300Y-159123000D02*
X111643700Y-159123000D01*
X111643700Y-159123000D02*
X108503900Y-162262800D01*
X108503900Y-162262800D02*
X108503900Y-162560000D01*
X104775000Y-165100000D02*
X104775000Y-163911100D01*
X116586000Y-150054000D02*
X116586000Y-151476800D01*
X116586000Y-151476800D02*
X112349500Y-155713300D01*
X112349500Y-155713300D02*
X111478900Y-155713300D01*
X111478900Y-155713300D02*
X108361200Y-158831000D01*
X108361200Y-158831000D02*
X106800700Y-158831000D01*
X106800700Y-158831000D02*
X105964000Y-159667700D01*
X105964000Y-159667700D02*
X105964000Y-160534300D01*
X105964000Y-160534300D02*
X105208300Y-161290000D01*
X105208300Y-161290000D02*
X104282900Y-161290000D01*
X104282900Y-161290000D02*
X103586100Y-161986800D01*
X103586100Y-161986800D02*
X103586100Y-163093800D01*
X103586100Y-163093800D02*
X104403400Y-163911100D01*
X104403400Y-163911100D02*
X104775000Y-163911100D01*
X124714000Y-150181000D02*
X124714000Y-150845600D01*
X124714000Y-150845600D02*
X120276100Y-155283500D01*
X120276100Y-155283500D02*
X119467600Y-155283500D01*
X119467600Y-155283500D02*
X114435500Y-160315600D01*
X114435500Y-160315600D02*
X114435500Y-160759500D01*
X114435500Y-160759500D02*
X110095000Y-165100000D01*
X110095000Y-165100000D02*
X107315000Y-165100000D01*
X124206000Y-160528000D02*
X123130700Y-160528000D01*
X115062000Y-175260000D02*
X115062000Y-174071100D01*
X115062000Y-174071100D02*
X115433600Y-174071100D01*
X115433600Y-174071100D02*
X116250900Y-173253800D01*
X116250900Y-173253800D02*
X116250900Y-167407800D01*
X116250900Y-167407800D02*
X123130700Y-160528000D01*
X123444000Y-156972000D02*
X123444000Y-157747300D01*
X117602000Y-175260000D02*
X117602000Y-174071100D01*
X117602000Y-174071100D02*
X117973600Y-174071100D01*
X117973600Y-174071100D02*
X118790900Y-173253800D01*
X118790900Y-173253800D02*
X118790900Y-171139100D01*
X118790900Y-171139100D02*
X125296000Y-164634000D01*
X125296000Y-164634000D02*
X125296000Y-159599300D01*
X125296000Y-159599300D02*
X123444000Y-157747300D01*
X135255000Y-157480000D02*
X134066100Y-157480000D01*
X120142000Y-175260000D02*
X120142000Y-174071100D01*
X120142000Y-174071100D02*
X120513600Y-174071100D01*
X120513600Y-174071100D02*
X121330900Y-173253800D01*
X121330900Y-173253800D02*
X121330900Y-169722600D01*
X121330900Y-169722600D02*
X132384600Y-158668900D01*
X132384600Y-158668900D02*
X133248800Y-158668900D01*
X133248800Y-158668900D02*
X134066100Y-157851600D01*
X134066100Y-157851600D02*
X134066100Y-157480000D01*
X135255000Y-149860000D02*
X135255000Y-151048900D01*
X122682000Y-175260000D02*
X122682000Y-174071100D01*
X122682000Y-174071100D02*
X123053600Y-174071100D01*
X123053600Y-174071100D02*
X123870900Y-173253800D01*
X123870900Y-173253800D02*
X123870900Y-172325700D01*
X123870900Y-172325700D02*
X126869900Y-169326700D01*
X126869900Y-169326700D02*
X127876200Y-169326700D01*
X127876200Y-169326700D02*
X130653600Y-166549300D01*
X130653600Y-166549300D02*
X130653600Y-165477400D01*
X130653600Y-165477400D02*
X132220000Y-163911000D01*
X132220000Y-163911000D02*
X133046400Y-163911000D01*
X133046400Y-163911000D02*
X134066000Y-162891400D01*
X134066000Y-162891400D02*
X134066000Y-162045700D01*
X134066000Y-162045700D02*
X134821700Y-161290000D01*
X134821700Y-161290000D02*
X135734300Y-161290000D01*
X135734300Y-161290000D02*
X136446800Y-160577500D01*
X136446800Y-160577500D02*
X136446800Y-151871200D01*
X136446800Y-151871200D02*
X135624500Y-151048900D01*
X135624500Y-151048900D02*
X135255000Y-151048900D01*
X132715000Y-160020000D02*
X132715000Y-161208900D01*
X122682000Y-172720000D02*
X122682000Y-170127300D01*
X122682000Y-170127300D02*
X131600400Y-161208900D01*
X131600400Y-161208900D02*
X132715000Y-161208900D01*
X124206000Y-161798000D02*
X123130700Y-161798000D01*
X123130700Y-161798000D02*
X123130700Y-164394300D01*
X123130700Y-164394300D02*
X120520000Y-167005000D01*
D23*
G36*
X138249899Y-133737907D02*
G01*
X138490285Y-133810484D01*
X138711991Y-133928368D01*
X138906577Y-134087068D01*
X139066635Y-134280545D01*
X139186064Y-134501424D01*
X139260317Y-134741297D01*
X139290001Y-135023726D01*
X139290000Y-177965279D01*
X139262093Y-178249899D01*
X139189517Y-178490282D01*
X139071633Y-178711989D01*
X138912929Y-178906580D01*
X138719455Y-179066635D01*
X138498576Y-179186064D01*
X138258701Y-179260317D01*
X137976291Y-179290000D01*
X102034721Y-179290000D01*
X101750101Y-179262093D01*
X101509718Y-179189517D01*
X101288011Y-179071633D01*
X101093420Y-178912929D01*
X100933365Y-178719455D01*
X100813936Y-178498576D01*
X100739683Y-178258701D01*
X100710000Y-177976291D01*
X100710000Y-176285249D01*
X101274000Y-176285249D01*
X101274000Y-176774751D01*
X101369497Y-177254848D01*
X101556821Y-177707089D01*
X101828774Y-178114095D01*
X102174905Y-178460226D01*
X102581911Y-178732179D01*
X103034152Y-178919503D01*
X103514249Y-179015000D01*
X104003751Y-179015000D01*
X104483848Y-178919503D01*
X104936089Y-178732179D01*
X105343095Y-178460226D01*
X105689226Y-178114095D01*
X105961179Y-177707089D01*
X106148503Y-177254848D01*
X106244000Y-176774751D01*
X106244000Y-176285249D01*
X106148503Y-175805152D01*
X105961179Y-175352911D01*
X105689226Y-174945905D01*
X105343095Y-174599774D01*
X104936089Y-174327821D01*
X104483848Y-174140497D01*
X104003751Y-174045000D01*
X103514249Y-174045000D01*
X103034152Y-174140497D01*
X102581911Y-174327821D01*
X102174905Y-174599774D01*
X101828774Y-174945905D01*
X101556821Y-175352911D01*
X101369497Y-175805152D01*
X101274000Y-176285249D01*
X100710000Y-176285249D01*
X100710000Y-169279000D01*
X104422857Y-169279000D01*
X104422857Y-173099000D01*
X110207143Y-173099000D01*
X110207143Y-169279000D01*
X104422857Y-169279000D01*
X100710000Y-169279000D01*
X100710000Y-152351000D01*
X102322024Y-152351000D01*
X102325700Y-152388322D01*
X102325701Y-165066568D01*
X102322024Y-165103900D01*
X102336698Y-165252885D01*
X102380154Y-165396146D01*
X102450726Y-165528176D01*
X102521901Y-165614902D01*
X102545700Y-165643901D01*
X102574698Y-165667699D01*
X103607430Y-166700432D01*
X103522931Y-166803394D01*
X103383775Y-167063736D01*
X103298084Y-167346223D01*
X103269149Y-167640000D01*
X103298084Y-167933777D01*
X103383775Y-168216264D01*
X103522931Y-168476606D01*
X103710203Y-168704797D01*
X103938394Y-168892069D01*
X104198736Y-169031225D01*
X104481223Y-169116916D01*
X104701381Y-169138600D01*
X104848619Y-169138600D01*
X105068777Y-169116916D01*
X105351264Y-169031225D01*
X105611606Y-168892069D01*
X105839797Y-168704797D01*
X106027069Y-168476606D01*
X106045000Y-168443060D01*
X106062931Y-168476606D01*
X106250203Y-168704797D01*
X106478394Y-168892069D01*
X106738736Y-169031225D01*
X107021223Y-169116916D01*
X107241381Y-169138600D01*
X107388619Y-169138600D01*
X107608777Y-169116916D01*
X107891264Y-169031225D01*
X108151606Y-168892069D01*
X108379797Y-168704797D01*
X108567069Y-168476606D01*
X108608016Y-168400000D01*
X110388678Y-168400000D01*
X110426000Y-168403676D01*
X110463322Y-168400000D01*
X110463333Y-168400000D01*
X110574986Y-168389003D01*
X110718247Y-168345546D01*
X110850276Y-168274974D01*
X110966001Y-168180001D01*
X110989804Y-168150997D01*
X112240150Y-166900651D01*
X112385533Y-166929570D01*
X112658467Y-166929570D01*
X112926156Y-166876323D01*
X113178313Y-166771876D01*
X113405249Y-166620242D01*
X113524090Y-166501401D01*
X114284204Y-166501401D01*
X114349799Y-166740326D01*
X114596875Y-166856283D01*
X114861827Y-166921809D01*
X115134470Y-166934387D01*
X115404329Y-166893533D01*
X115661032Y-166800817D01*
X115774201Y-166740326D01*
X115839796Y-166501401D01*
X115062000Y-165723605D01*
X114284204Y-166501401D01*
X113524090Y-166501401D01*
X113598242Y-166427249D01*
X113749876Y-166200313D01*
X113790473Y-166102304D01*
X113805183Y-166143032D01*
X113865674Y-166256201D01*
X114104599Y-166321796D01*
X114882395Y-165544000D01*
X115241605Y-165544000D01*
X116019401Y-166321796D01*
X116258326Y-166256201D01*
X116374283Y-166009125D01*
X116439809Y-165744173D01*
X116452387Y-165471530D01*
X116411533Y-165201671D01*
X116318817Y-164944968D01*
X116258326Y-164831799D01*
X116019401Y-164766204D01*
X115241605Y-165544000D01*
X114882395Y-165544000D01*
X114104599Y-164766204D01*
X113865674Y-164831799D01*
X113791867Y-164989063D01*
X113749876Y-164887687D01*
X113598242Y-164660751D01*
X113524090Y-164586599D01*
X114284204Y-164586599D01*
X115062000Y-165364395D01*
X115839796Y-164586599D01*
X115774201Y-164347674D01*
X115527125Y-164231717D01*
X115262173Y-164166191D01*
X114989530Y-164153613D01*
X114719671Y-164194467D01*
X114462968Y-164287183D01*
X114349799Y-164347674D01*
X114284204Y-164586599D01*
X113524090Y-164586599D01*
X113405249Y-164467758D01*
X113178313Y-164316124D01*
X112926156Y-164211677D01*
X112658467Y-164158430D01*
X112385533Y-164158430D01*
X112117844Y-164211677D01*
X112015896Y-164253905D01*
X114946503Y-161323299D01*
X114975501Y-161299501D01*
X115038183Y-161223123D01*
X115070474Y-161183777D01*
X115141046Y-161051747D01*
X115148529Y-161027078D01*
X115184503Y-160908486D01*
X115195500Y-160796832D01*
X115195500Y-160796823D01*
X115199176Y-160759500D01*
X115195500Y-160722177D01*
X115195500Y-160630401D01*
X117954296Y-157871606D01*
X117974301Y-158074722D01*
X118039049Y-158288169D01*
X118144195Y-158484882D01*
X118285697Y-158657303D01*
X118458118Y-158798805D01*
X118654831Y-158903951D01*
X118868278Y-158968699D01*
X119090255Y-158990562D01*
X120089745Y-158990562D01*
X120311722Y-158968699D01*
X120525169Y-158903951D01*
X120721882Y-158798805D01*
X120894303Y-158657303D01*
X121035805Y-158484882D01*
X121140951Y-158288169D01*
X121205699Y-158074722D01*
X121227562Y-157852745D01*
X121227562Y-156853255D01*
X121221912Y-156795889D01*
X122081311Y-155936491D01*
X122136741Y-156119220D01*
X122237491Y-156307710D01*
X122261529Y-156337000D01*
X122237491Y-156366290D01*
X122136741Y-156554780D01*
X122074700Y-156759303D01*
X122053751Y-156972000D01*
X122074700Y-157184697D01*
X122136741Y-157389220D01*
X122237491Y-157577710D01*
X122373078Y-157742922D01*
X122538290Y-157878509D01*
X122718887Y-157975040D01*
X122720167Y-157979259D01*
X122738454Y-158039546D01*
X122809026Y-158171576D01*
X122877445Y-158254944D01*
X122904000Y-158287301D01*
X122932998Y-158311099D01*
X124064898Y-159443000D01*
X123852706Y-159443000D01*
X123693303Y-159458700D01*
X123488780Y-159520741D01*
X123300290Y-159621491D01*
X123135078Y-159757078D01*
X123128993Y-159764492D01*
X123093376Y-159768000D01*
X123093367Y-159768000D01*
X122981714Y-159778997D01*
X122838453Y-159822454D01*
X122706424Y-159893026D01*
X122706422Y-159893027D01*
X122706423Y-159893027D01*
X122619696Y-159964201D01*
X122619692Y-159964205D01*
X122590699Y-159987999D01*
X122566905Y-160016992D01*
X121338562Y-161245335D01*
X121338562Y-160282255D01*
X121316699Y-160060278D01*
X121251951Y-159846831D01*
X121146805Y-159650118D01*
X121005303Y-159477697D01*
X120832882Y-159336195D01*
X120636169Y-159231049D01*
X120422722Y-159166301D01*
X120200745Y-159144438D01*
X119201255Y-159144438D01*
X118979278Y-159166301D01*
X118765831Y-159231049D01*
X118569118Y-159336195D01*
X118396697Y-159477697D01*
X118255195Y-159650118D01*
X118150049Y-159846831D01*
X118085301Y-160060278D01*
X118063438Y-160282255D01*
X118063438Y-161281745D01*
X118085301Y-161503722D01*
X118150049Y-161717169D01*
X118255195Y-161913882D01*
X118396697Y-162086303D01*
X118569118Y-162227805D01*
X118765831Y-162332951D01*
X118979278Y-162397699D01*
X119201255Y-162419562D01*
X120164336Y-162419562D01*
X115739898Y-166844001D01*
X115710900Y-166867799D01*
X115687102Y-166896797D01*
X115687101Y-166896798D01*
X115615926Y-166983524D01*
X115545354Y-167115554D01*
X115501898Y-167258815D01*
X115487224Y-167407800D01*
X115490901Y-167445132D01*
X115490900Y-171284073D01*
X115355777Y-171243084D01*
X115135619Y-171221400D01*
X114988381Y-171221400D01*
X114768223Y-171243084D01*
X114485736Y-171328775D01*
X114225394Y-171467931D01*
X113997203Y-171655203D01*
X113809931Y-171883394D01*
X113670775Y-172143736D01*
X113585084Y-172426223D01*
X113556149Y-172720000D01*
X113585084Y-173013777D01*
X113670775Y-173296264D01*
X113809931Y-173556606D01*
X113997203Y-173784797D01*
X114005265Y-173791414D01*
X113954220Y-173806898D01*
X113843906Y-173865863D01*
X113747215Y-173945215D01*
X113667863Y-174041906D01*
X113608898Y-174152220D01*
X113572588Y-174271918D01*
X113560328Y-174396400D01*
X113560328Y-176123600D01*
X113572588Y-176248082D01*
X113608898Y-176367780D01*
X113667863Y-176478094D01*
X113747215Y-176574785D01*
X113843906Y-176654137D01*
X113954220Y-176713102D01*
X114073918Y-176749412D01*
X114198400Y-176761672D01*
X115925600Y-176761672D01*
X116050082Y-176749412D01*
X116169780Y-176713102D01*
X116280094Y-176654137D01*
X116376785Y-176574785D01*
X116456137Y-176478094D01*
X116515102Y-176367780D01*
X116530586Y-176316735D01*
X116537203Y-176324797D01*
X116765394Y-176512069D01*
X117025736Y-176651225D01*
X117308223Y-176736916D01*
X117528381Y-176758600D01*
X117675619Y-176758600D01*
X117895777Y-176736916D01*
X118178264Y-176651225D01*
X118438606Y-176512069D01*
X118666797Y-176324797D01*
X118854069Y-176096606D01*
X118872000Y-176063060D01*
X118889931Y-176096606D01*
X119077203Y-176324797D01*
X119305394Y-176512069D01*
X119565736Y-176651225D01*
X119848223Y-176736916D01*
X120068381Y-176758600D01*
X120215619Y-176758600D01*
X120435777Y-176736916D01*
X120718264Y-176651225D01*
X120978606Y-176512069D01*
X121206797Y-176324797D01*
X121394069Y-176096606D01*
X121412000Y-176063060D01*
X121429931Y-176096606D01*
X121617203Y-176324797D01*
X121845394Y-176512069D01*
X122105736Y-176651225D01*
X122388223Y-176736916D01*
X122608381Y-176758600D01*
X122755619Y-176758600D01*
X122975777Y-176736916D01*
X123258264Y-176651225D01*
X123518606Y-176512069D01*
X123746797Y-176324797D01*
X123934069Y-176096606D01*
X123952000Y-176063060D01*
X123969931Y-176096606D01*
X124157203Y-176324797D01*
X124385394Y-176512069D01*
X124645736Y-176651225D01*
X124928223Y-176736916D01*
X125148381Y-176758600D01*
X125295619Y-176758600D01*
X125515777Y-176736916D01*
X125798264Y-176651225D01*
X126058606Y-176512069D01*
X126286797Y-176324797D01*
X126319253Y-176285249D01*
X133786000Y-176285249D01*
X133786000Y-176774751D01*
X133881497Y-177254848D01*
X134068821Y-177707089D01*
X134340774Y-178114095D01*
X134686905Y-178460226D01*
X135093911Y-178732179D01*
X135546152Y-178919503D01*
X136026249Y-179015000D01*
X136515751Y-179015000D01*
X136995848Y-178919503D01*
X137448089Y-178732179D01*
X137855095Y-178460226D01*
X138201226Y-178114095D01*
X138473179Y-177707089D01*
X138660503Y-177254848D01*
X138756000Y-176774751D01*
X138756000Y-176285249D01*
X138660503Y-175805152D01*
X138473179Y-175352911D01*
X138201226Y-174945905D01*
X137855095Y-174599774D01*
X137448089Y-174327821D01*
X136995848Y-174140497D01*
X136515751Y-174045000D01*
X136026249Y-174045000D01*
X135546152Y-174140497D01*
X135093911Y-174327821D01*
X134686905Y-174599774D01*
X134340774Y-174945905D01*
X134068821Y-175352911D01*
X133881497Y-175805152D01*
X133786000Y-176285249D01*
X126319253Y-176285249D01*
X126474069Y-176096606D01*
X126613225Y-175836264D01*
X126698916Y-175553777D01*
X126727851Y-175260000D01*
X126698916Y-174966223D01*
X126613225Y-174683736D01*
X126474069Y-174423394D01*
X126286797Y-174195203D01*
X126058606Y-174007931D01*
X126014090Y-173984137D01*
X126110488Y-173926817D01*
X126328854Y-173730293D01*
X126504684Y-173494944D01*
X126631222Y-173229814D01*
X126676958Y-173079026D01*
X126555817Y-172847000D01*
X125349000Y-172847000D01*
X125349000Y-172867000D01*
X125095000Y-172867000D01*
X125095000Y-172847000D01*
X125075000Y-172847000D01*
X125075000Y-172593000D01*
X125095000Y-172593000D01*
X125095000Y-172573000D01*
X125349000Y-172573000D01*
X125349000Y-172593000D01*
X126555817Y-172593000D01*
X126676958Y-172360974D01*
X126631222Y-172210186D01*
X126504684Y-171945056D01*
X126328854Y-171709707D01*
X126110488Y-171513183D01*
X125889577Y-171381825D01*
X127184703Y-170086700D01*
X127838878Y-170086700D01*
X127876200Y-170090376D01*
X127913522Y-170086700D01*
X127913533Y-170086700D01*
X128025186Y-170075703D01*
X128168447Y-170032246D01*
X128300476Y-169961674D01*
X128416201Y-169866701D01*
X128440004Y-169837697D01*
X131164604Y-167113098D01*
X131193601Y-167089301D01*
X131288574Y-166973576D01*
X131359146Y-166841547D01*
X131402603Y-166698286D01*
X131413600Y-166586633D01*
X131413600Y-166586625D01*
X131417276Y-166549300D01*
X131413600Y-166511975D01*
X131413600Y-165844314D01*
X131462931Y-165936606D01*
X131650203Y-166164797D01*
X131878394Y-166352069D01*
X131911940Y-166370000D01*
X131878394Y-166387931D01*
X131650203Y-166575203D01*
X131462931Y-166803394D01*
X131323775Y-167063736D01*
X131238084Y-167346223D01*
X131209149Y-167640000D01*
X131238084Y-167933777D01*
X131323775Y-168216264D01*
X131462931Y-168476606D01*
X131650203Y-168704797D01*
X131878394Y-168892069D01*
X132138736Y-169031225D01*
X132421223Y-169116916D01*
X132641381Y-169138600D01*
X132788619Y-169138600D01*
X133008777Y-169116916D01*
X133291264Y-169031225D01*
X133551606Y-168892069D01*
X133779797Y-168704797D01*
X133967069Y-168476606D01*
X133985000Y-168443060D01*
X134002931Y-168476606D01*
X134190203Y-168704797D01*
X134418394Y-168892069D01*
X134678736Y-169031225D01*
X134961223Y-169116916D01*
X135181381Y-169138600D01*
X135328619Y-169138600D01*
X135548777Y-169116916D01*
X135831264Y-169031225D01*
X136091606Y-168892069D01*
X136319797Y-168704797D01*
X136507069Y-168476606D01*
X136646225Y-168216264D01*
X136731916Y-167933777D01*
X136760851Y-167640000D01*
X136731916Y-167346223D01*
X136646225Y-167063736D01*
X136507069Y-166803394D01*
X136319797Y-166575203D01*
X136091606Y-166387931D01*
X136058060Y-166370000D01*
X136091606Y-166352069D01*
X136319797Y-166164797D01*
X136507069Y-165936606D01*
X136646225Y-165676264D01*
X136731916Y-165393777D01*
X136760851Y-165100000D01*
X136731916Y-164806223D01*
X136646225Y-164523736D01*
X136507069Y-164263394D01*
X136319797Y-164035203D01*
X136091606Y-163847931D01*
X136058060Y-163830000D01*
X136091606Y-163812069D01*
X136319797Y-163624797D01*
X136507069Y-163396606D01*
X136646225Y-163136264D01*
X136731916Y-162853777D01*
X136760851Y-162560000D01*
X136731916Y-162266223D01*
X136646225Y-161983736D01*
X136507069Y-161723394D01*
X136447857Y-161651244D01*
X136957804Y-161141298D01*
X136986801Y-161117501D01*
X137081774Y-161001776D01*
X137152346Y-160869747D01*
X137195803Y-160726486D01*
X137206800Y-160614833D01*
X137206800Y-160614824D01*
X137210476Y-160577501D01*
X137206800Y-160540178D01*
X137206800Y-151908523D01*
X137210476Y-151871200D01*
X137206800Y-151833877D01*
X137206800Y-151833867D01*
X137195803Y-151722214D01*
X137152346Y-151578953D01*
X137081774Y-151446924D01*
X136986801Y-151331199D01*
X136957802Y-151307401D01*
X136434920Y-150784519D01*
X136507069Y-150696606D01*
X136646225Y-150436264D01*
X136731916Y-150153777D01*
X136760851Y-149860000D01*
X136731916Y-149566223D01*
X136646225Y-149283736D01*
X136507069Y-149023394D01*
X136319797Y-148795203D01*
X136091606Y-148607931D01*
X136058060Y-148590000D01*
X136091606Y-148572069D01*
X136319797Y-148384797D01*
X136507069Y-148156606D01*
X136646225Y-147896264D01*
X136731916Y-147613777D01*
X136760851Y-147320000D01*
X136731916Y-147026223D01*
X136646225Y-146743736D01*
X136507069Y-146483394D01*
X136319797Y-146255203D01*
X136091606Y-146067931D01*
X136058060Y-146050000D01*
X136091606Y-146032069D01*
X136319797Y-145844797D01*
X136507069Y-145616606D01*
X136646225Y-145356264D01*
X136731916Y-145073777D01*
X136760851Y-144780000D01*
X136731916Y-144486223D01*
X136646225Y-144203736D01*
X136507069Y-143943394D01*
X136319797Y-143715203D01*
X136091606Y-143527931D01*
X135831264Y-143388775D01*
X135548777Y-143303084D01*
X135328619Y-143281400D01*
X135181381Y-143281400D01*
X134961223Y-143303084D01*
X134678736Y-143388775D01*
X134418394Y-143527931D01*
X134190203Y-143715203D01*
X134183586Y-143723265D01*
X134168102Y-143672220D01*
X134109137Y-143561906D01*
X134029785Y-143465215D01*
X133933094Y-143385863D01*
X133822780Y-143326898D01*
X133703082Y-143290588D01*
X133578600Y-143278328D01*
X131851400Y-143278328D01*
X131726918Y-143290588D01*
X131607220Y-143326898D01*
X131496906Y-143385863D01*
X131400215Y-143465215D01*
X131320863Y-143561906D01*
X131261898Y-143672220D01*
X131225588Y-143791918D01*
X131213328Y-143916400D01*
X131213328Y-145643600D01*
X131225588Y-145768082D01*
X131261898Y-145887780D01*
X131320863Y-145998094D01*
X131400215Y-146094785D01*
X131496906Y-146174137D01*
X131607220Y-146233102D01*
X131658265Y-146248586D01*
X131650203Y-146255203D01*
X131462931Y-146483394D01*
X131323775Y-146743736D01*
X131238084Y-147026223D01*
X131209149Y-147320000D01*
X131238084Y-147613777D01*
X131323775Y-147896264D01*
X131462931Y-148156606D01*
X131650203Y-148384797D01*
X131878394Y-148572069D01*
X131911940Y-148590000D01*
X131878394Y-148607931D01*
X131650203Y-148795203D01*
X131462931Y-149023394D01*
X131323775Y-149283736D01*
X131238084Y-149566223D01*
X131209149Y-149860000D01*
X131238084Y-150153777D01*
X131323775Y-150436264D01*
X131462931Y-150696606D01*
X131650203Y-150924797D01*
X131878394Y-151112069D01*
X131911940Y-151130000D01*
X131878394Y-151147931D01*
X131650203Y-151335203D01*
X131462931Y-151563394D01*
X131323775Y-151823736D01*
X131238084Y-152106223D01*
X131209149Y-152400000D01*
X131238084Y-152693777D01*
X131323775Y-152976264D01*
X131462931Y-153236606D01*
X131650203Y-153464797D01*
X131878394Y-153652069D01*
X131911940Y-153670000D01*
X131878394Y-153687931D01*
X131650203Y-153875203D01*
X131462931Y-154103394D01*
X131323775Y-154363736D01*
X131238084Y-154646223D01*
X131209149Y-154940000D01*
X131238084Y-155233777D01*
X131323775Y-155516264D01*
X131462931Y-155776606D01*
X131650203Y-156004797D01*
X131878394Y-156192069D01*
X131911940Y-156210000D01*
X131878394Y-156227931D01*
X131650203Y-156415203D01*
X131462931Y-156643394D01*
X131323775Y-156903736D01*
X131238084Y-157186223D01*
X131209149Y-157480000D01*
X131238084Y-157773777D01*
X131323775Y-158056264D01*
X131462931Y-158316606D01*
X131552703Y-158425994D01*
X126056000Y-163922698D01*
X126056000Y-159636633D01*
X126059677Y-159599300D01*
X126045003Y-159450314D01*
X126001546Y-159307053D01*
X125930974Y-159175024D01*
X125859799Y-159088297D01*
X125836001Y-159059299D01*
X125807003Y-159035501D01*
X124514648Y-157743147D01*
X124514922Y-157742922D01*
X124650509Y-157577710D01*
X124751259Y-157389220D01*
X124813300Y-157184697D01*
X124834249Y-156972000D01*
X124813300Y-156759303D01*
X124751259Y-156554780D01*
X124650509Y-156366290D01*
X124626471Y-156337000D01*
X124650509Y-156307710D01*
X124751259Y-156119220D01*
X124813300Y-155914697D01*
X124834249Y-155702000D01*
X124813300Y-155489303D01*
X124751259Y-155284780D01*
X124724993Y-155235640D01*
X124783502Y-155126180D01*
X124819812Y-155006482D01*
X124832072Y-154882000D01*
X124832072Y-153982000D01*
X124819812Y-153857518D01*
X124783502Y-153737820D01*
X124724537Y-153627506D01*
X124645185Y-153530815D01*
X124548494Y-153451463D01*
X124438180Y-153392498D01*
X124318482Y-153356188D01*
X124194000Y-153343928D01*
X123290474Y-153343928D01*
X124815840Y-151818562D01*
X125213745Y-151818562D01*
X125435722Y-151796699D01*
X125649169Y-151731951D01*
X125845882Y-151626805D01*
X126018303Y-151485303D01*
X126159805Y-151312882D01*
X126230570Y-151180490D01*
X126886438Y-151180490D01*
X126898698Y-151304972D01*
X126935008Y-151424670D01*
X126993973Y-151534984D01*
X127073325Y-151631675D01*
X127170016Y-151711027D01*
X127280330Y-151769992D01*
X127400028Y-151806302D01*
X127524510Y-151818562D01*
X128238250Y-151815490D01*
X128397000Y-151656740D01*
X128397000Y-150308000D01*
X128651000Y-150308000D01*
X128651000Y-151656740D01*
X128809750Y-151815490D01*
X129523490Y-151818562D01*
X129647972Y-151806302D01*
X129767670Y-151769992D01*
X129877984Y-151711027D01*
X129974675Y-151631675D01*
X130054027Y-151534984D01*
X130112992Y-151424670D01*
X130149302Y-151304972D01*
X130161562Y-151180490D01*
X130158490Y-150466750D01*
X129999740Y-150308000D01*
X128651000Y-150308000D01*
X128397000Y-150308000D01*
X127048260Y-150308000D01*
X126889510Y-150466750D01*
X126886438Y-151180490D01*
X126230570Y-151180490D01*
X126264951Y-151116169D01*
X126329699Y-150902722D01*
X126351562Y-150680745D01*
X126351562Y-149681255D01*
X126329699Y-149459278D01*
X126264951Y-149245831D01*
X126230571Y-149181510D01*
X126886438Y-149181510D01*
X126889510Y-149895250D01*
X127048260Y-150054000D01*
X128397000Y-150054000D01*
X128397000Y-148705260D01*
X128651000Y-148705260D01*
X128651000Y-150054000D01*
X129999740Y-150054000D01*
X130158490Y-149895250D01*
X130161562Y-149181510D01*
X130149302Y-149057028D01*
X130112992Y-148937330D01*
X130054027Y-148827016D01*
X129974675Y-148730325D01*
X129877984Y-148650973D01*
X129767670Y-148592008D01*
X129647972Y-148555698D01*
X129523490Y-148543438D01*
X128809750Y-148546510D01*
X128651000Y-148705260D01*
X128397000Y-148705260D01*
X128238250Y-148546510D01*
X127524510Y-148543438D01*
X127400028Y-148555698D01*
X127280330Y-148592008D01*
X127170016Y-148650973D01*
X127073325Y-148730325D01*
X126993973Y-148827016D01*
X126935008Y-148937330D01*
X126898698Y-149057028D01*
X126886438Y-149181510D01*
X126230571Y-149181510D01*
X126159805Y-149049118D01*
X126018303Y-148876697D01*
X125845882Y-148735195D01*
X125649169Y-148630049D01*
X125435722Y-148565301D01*
X125213745Y-148543438D01*
X124214255Y-148543438D01*
X123992278Y-148565301D01*
X123778831Y-148630049D01*
X123582118Y-148735195D01*
X123409697Y-148876697D01*
X123268195Y-149049118D01*
X123163049Y-149245831D01*
X123098301Y-149459278D01*
X123076438Y-149681255D01*
X123076438Y-150680745D01*
X123098301Y-150902722D01*
X123163049Y-151116169D01*
X123234658Y-151250140D01*
X121209408Y-153275390D01*
X121189699Y-153075278D01*
X121124951Y-152861831D01*
X121019805Y-152665118D01*
X120878303Y-152492697D01*
X120705882Y-152351195D01*
X120509169Y-152246049D01*
X120295722Y-152181301D01*
X120073745Y-152159438D01*
X119810364Y-152159438D01*
X120219890Y-151749912D01*
X120277255Y-151755562D01*
X121276745Y-151755562D01*
X121498722Y-151733699D01*
X121712169Y-151668951D01*
X121908882Y-151563805D01*
X122081303Y-151422303D01*
X122222805Y-151249882D01*
X122327951Y-151053169D01*
X122392699Y-150839722D01*
X122414562Y-150617745D01*
X122414562Y-149618255D01*
X122392699Y-149396278D01*
X122327951Y-149182831D01*
X122222805Y-148986118D01*
X122081303Y-148813697D01*
X121908882Y-148672195D01*
X121712169Y-148567049D01*
X121498722Y-148502301D01*
X121276745Y-148480438D01*
X120277255Y-148480438D01*
X120055278Y-148502301D01*
X119841831Y-148567049D01*
X119645118Y-148672195D01*
X119472697Y-148813697D01*
X119331195Y-148986118D01*
X119226049Y-149182831D01*
X119161301Y-149396278D01*
X119139438Y-149618255D01*
X119139438Y-150617745D01*
X119145088Y-150675110D01*
X113557846Y-156262353D01*
X113535805Y-156221118D01*
X113394303Y-156048697D01*
X113226564Y-155911037D01*
X117097003Y-152040599D01*
X117126001Y-152016801D01*
X117220974Y-151901076D01*
X117291546Y-151769047D01*
X117323097Y-151665035D01*
X117521169Y-151604951D01*
X117717882Y-151499805D01*
X117890303Y-151358303D01*
X118031805Y-151185882D01*
X118136951Y-150989169D01*
X118201699Y-150775722D01*
X118223562Y-150553745D01*
X118223562Y-149554255D01*
X118201699Y-149332278D01*
X118136951Y-149118831D01*
X118031805Y-148922118D01*
X117890303Y-148749697D01*
X117717882Y-148608195D01*
X117521169Y-148503049D01*
X117307722Y-148438301D01*
X117085745Y-148416438D01*
X116086255Y-148416438D01*
X115864278Y-148438301D01*
X115650831Y-148503049D01*
X115454118Y-148608195D01*
X115281697Y-148749697D01*
X115140195Y-148922118D01*
X115035049Y-149118831D01*
X114970301Y-149332278D01*
X114948438Y-149554255D01*
X114948438Y-150553745D01*
X114970301Y-150775722D01*
X115035049Y-150989169D01*
X115140195Y-151185882D01*
X115281697Y-151358303D01*
X115454118Y-151499805D01*
X115476324Y-151511674D01*
X113709695Y-153278303D01*
X113689699Y-153075278D01*
X113624951Y-152861831D01*
X113519805Y-152665118D01*
X113378303Y-152492697D01*
X113205882Y-152351195D01*
X113009169Y-152246049D01*
X112795722Y-152181301D01*
X112573745Y-152159438D01*
X111574255Y-152159438D01*
X111352278Y-152181301D01*
X111138831Y-152246049D01*
X110942118Y-152351195D01*
X110769697Y-152492697D01*
X110628195Y-152665118D01*
X110523049Y-152861831D01*
X110458301Y-153075278D01*
X110436438Y-153297255D01*
X110436438Y-154296745D01*
X110458301Y-154518722D01*
X110523049Y-154732169D01*
X110628195Y-154928882D01*
X110769697Y-155101303D01*
X110905030Y-155212368D01*
X108804402Y-157312996D01*
X108791916Y-157186223D01*
X108706225Y-156903736D01*
X108567069Y-156643394D01*
X108379797Y-156415203D01*
X108151606Y-156227931D01*
X108118060Y-156210000D01*
X108151606Y-156192069D01*
X108379797Y-156004797D01*
X108567069Y-155776606D01*
X108706225Y-155516264D01*
X108791916Y-155233777D01*
X108820851Y-154940000D01*
X108791916Y-154646223D01*
X108706225Y-154363736D01*
X108567069Y-154103394D01*
X108379797Y-153875203D01*
X108151606Y-153687931D01*
X108118060Y-153670000D01*
X108151606Y-153652069D01*
X108379797Y-153464797D01*
X108567069Y-153236606D01*
X108706225Y-152976264D01*
X108791916Y-152693777D01*
X108820851Y-152400000D01*
X108791916Y-152106223D01*
X108706225Y-151823736D01*
X108567069Y-151563394D01*
X108477296Y-151454005D01*
X110122438Y-149808863D01*
X110122438Y-150680745D01*
X110144301Y-150902722D01*
X110209049Y-151116169D01*
X110314195Y-151312882D01*
X110455697Y-151485303D01*
X110628118Y-151626805D01*
X110824831Y-151731951D01*
X111038278Y-151796699D01*
X111260255Y-151818562D01*
X112259745Y-151818562D01*
X112481722Y-151796699D01*
X112695169Y-151731951D01*
X112891882Y-151626805D01*
X113064303Y-151485303D01*
X113205805Y-151312882D01*
X113310951Y-151116169D01*
X113375699Y-150902722D01*
X113397562Y-150680745D01*
X113397562Y-149681255D01*
X113375699Y-149459278D01*
X113310951Y-149245831D01*
X113205805Y-149049118D01*
X113064303Y-148876697D01*
X112891882Y-148735195D01*
X112695169Y-148630049D01*
X112481722Y-148565301D01*
X112259745Y-148543438D01*
X111387863Y-148543438D01*
X114722503Y-145208799D01*
X114751501Y-145185001D01*
X114777832Y-145152917D01*
X114846474Y-145069277D01*
X114917046Y-144937247D01*
X114960503Y-144793986D01*
X114971500Y-144682333D01*
X114971500Y-144682323D01*
X114975176Y-144645000D01*
X114971500Y-144607677D01*
X114971500Y-143279675D01*
X115035049Y-143489169D01*
X115140195Y-143685882D01*
X115281697Y-143858303D01*
X115454118Y-143999805D01*
X115650831Y-144104951D01*
X115864278Y-144169699D01*
X116086255Y-144191562D01*
X117085745Y-144191562D01*
X117307722Y-144169699D01*
X117521169Y-144104951D01*
X117717882Y-143999805D01*
X117890303Y-143858303D01*
X118031805Y-143685882D01*
X118136951Y-143489169D01*
X118189269Y-143316698D01*
X118199200Y-143317676D01*
X118236522Y-143314000D01*
X118236533Y-143314000D01*
X118348186Y-143303003D01*
X118491447Y-143259546D01*
X118623476Y-143188974D01*
X118739201Y-143094001D01*
X118763004Y-143064997D01*
X119139438Y-142688563D01*
X119139438Y-143117745D01*
X119161301Y-143339722D01*
X119226049Y-143553169D01*
X119331195Y-143749882D01*
X119472697Y-143922303D01*
X119645118Y-144063805D01*
X119841831Y-144168951D01*
X120055278Y-144233699D01*
X120277255Y-144255562D01*
X121276745Y-144255562D01*
X121498722Y-144233699D01*
X121712169Y-144168951D01*
X121908882Y-144063805D01*
X122081303Y-143922303D01*
X122222805Y-143749882D01*
X122327951Y-143553169D01*
X122392699Y-143339722D01*
X122414562Y-143117745D01*
X122414562Y-142181255D01*
X123076438Y-142181255D01*
X123076438Y-143180745D01*
X123098301Y-143402722D01*
X123163049Y-143616169D01*
X123268195Y-143812882D01*
X123409697Y-143985303D01*
X123582118Y-144126805D01*
X123778831Y-144231951D01*
X123992278Y-144296699D01*
X124214255Y-144318562D01*
X125213745Y-144318562D01*
X125435722Y-144296699D01*
X125649169Y-144231951D01*
X125845882Y-144126805D01*
X126018303Y-143985303D01*
X126159805Y-143812882D01*
X126264951Y-143616169D01*
X126329699Y-143402722D01*
X126351562Y-143180745D01*
X126351562Y-142181255D01*
X126886438Y-142181255D01*
X126886438Y-143180745D01*
X126908301Y-143402722D01*
X126973049Y-143616169D01*
X127078195Y-143812882D01*
X127219697Y-143985303D01*
X127392118Y-144126805D01*
X127588831Y-144231951D01*
X127802278Y-144296699D01*
X128024255Y-144318562D01*
X129023745Y-144318562D01*
X129245722Y-144296699D01*
X129459169Y-144231951D01*
X129655882Y-144126805D01*
X129828303Y-143985303D01*
X129969805Y-143812882D01*
X130074951Y-143616169D01*
X130127705Y-143442262D01*
X130140522Y-143441000D01*
X130140533Y-143441000D01*
X130252186Y-143430003D01*
X130395447Y-143386546D01*
X130527476Y-143315974D01*
X130643201Y-143221001D01*
X130667004Y-143191997D01*
X134571151Y-139287851D01*
X134594820Y-139300502D01*
X134714518Y-139336812D01*
X134839000Y-139349072D01*
X136639000Y-139349072D01*
X136763482Y-139336812D01*
X136883180Y-139300502D01*
X136993494Y-139241537D01*
X137090185Y-139162185D01*
X137169537Y-139065494D01*
X137228502Y-138955180D01*
X137264812Y-138835482D01*
X137277072Y-138711000D01*
X137277072Y-136911000D01*
X137264812Y-136786518D01*
X137228502Y-136666820D01*
X137169537Y-136556506D01*
X137090185Y-136459815D01*
X136993494Y-136380463D01*
X136883180Y-136321498D01*
X136763482Y-136285188D01*
X136639000Y-136272928D01*
X134839000Y-136272928D01*
X134714518Y-136285188D01*
X134594820Y-136321498D01*
X134484506Y-136380463D01*
X134387815Y-136459815D01*
X134308463Y-136556506D01*
X134249498Y-136666820D01*
X134243944Y-136685127D01*
X134177505Y-136618688D01*
X133926095Y-136450701D01*
X133646743Y-136334989D01*
X133350184Y-136276000D01*
X133047816Y-136276000D01*
X132751257Y-136334989D01*
X132471905Y-136450701D01*
X132220495Y-136618688D01*
X132006688Y-136832495D01*
X131838701Y-137083905D01*
X131722989Y-137363257D01*
X131664000Y-137659816D01*
X131664000Y-137962184D01*
X131722989Y-138258743D01*
X131838701Y-138538095D01*
X132006688Y-138789505D01*
X132220495Y-139003312D01*
X132471905Y-139171299D01*
X132518711Y-139190687D01*
X130036153Y-141673246D01*
X129969805Y-141549118D01*
X129828303Y-141376697D01*
X129655882Y-141235195D01*
X129459169Y-141130049D01*
X129245722Y-141065301D01*
X129023745Y-141043438D01*
X128024255Y-141043438D01*
X127802278Y-141065301D01*
X127588831Y-141130049D01*
X127392118Y-141235195D01*
X127219697Y-141376697D01*
X127078195Y-141549118D01*
X126973049Y-141745831D01*
X126908301Y-141959278D01*
X126886438Y-142181255D01*
X126351562Y-142181255D01*
X126329699Y-141959278D01*
X126264951Y-141745831D01*
X126159805Y-141549118D01*
X126018303Y-141376697D01*
X125845882Y-141235195D01*
X125649169Y-141130049D01*
X125435722Y-141065301D01*
X125213745Y-141043438D01*
X124214255Y-141043438D01*
X123992278Y-141065301D01*
X123778831Y-141130049D01*
X123582118Y-141235195D01*
X123409697Y-141376697D01*
X123268195Y-141549118D01*
X123163049Y-141745831D01*
X123098301Y-141959278D01*
X123076438Y-142181255D01*
X122414562Y-142181255D01*
X122414562Y-142118255D01*
X122408912Y-142060889D01*
X124673502Y-139796300D01*
X127750678Y-139796300D01*
X127788000Y-139799976D01*
X127825322Y-139796300D01*
X127825333Y-139796300D01*
X127936986Y-139785303D01*
X128080247Y-139741846D01*
X128212276Y-139671274D01*
X128328001Y-139576301D01*
X128351803Y-139547298D01*
X128611216Y-139287885D01*
X128634820Y-139300502D01*
X128754518Y-139336812D01*
X128879000Y-139349072D01*
X130679000Y-139349072D01*
X130803482Y-139336812D01*
X130923180Y-139300502D01*
X131033494Y-139241537D01*
X131130185Y-139162185D01*
X131209537Y-139065494D01*
X131268502Y-138955180D01*
X131304812Y-138835482D01*
X131317072Y-138711000D01*
X131317072Y-136911000D01*
X131304812Y-136786518D01*
X131268502Y-136666820D01*
X131209537Y-136556506D01*
X131130185Y-136459815D01*
X131033494Y-136380463D01*
X130923180Y-136321498D01*
X130803482Y-136285188D01*
X130679000Y-136272928D01*
X128879000Y-136272928D01*
X128754518Y-136285188D01*
X128634820Y-136321498D01*
X128524506Y-136380463D01*
X128427815Y-136459815D01*
X128348463Y-136556506D01*
X128289498Y-136666820D01*
X128283944Y-136685127D01*
X128217505Y-136618688D01*
X127966095Y-136450701D01*
X127686743Y-136334989D01*
X127390184Y-136276000D01*
X127087816Y-136276000D01*
X126830070Y-136327269D01*
X126577404Y-136074603D01*
X126553601Y-136045599D01*
X126437876Y-135950626D01*
X126305847Y-135880054D01*
X126162586Y-135836597D01*
X126050933Y-135825600D01*
X126050922Y-135825600D01*
X126013600Y-135821924D01*
X125976278Y-135825600D01*
X122461722Y-135825600D01*
X122424399Y-135821924D01*
X122387076Y-135825600D01*
X122387067Y-135825600D01*
X122275414Y-135836597D01*
X122132153Y-135880054D01*
X122000124Y-135950626D01*
X121884399Y-136045599D01*
X121860601Y-136074597D01*
X121607930Y-136327269D01*
X121350184Y-136276000D01*
X121047816Y-136276000D01*
X120751257Y-136334989D01*
X120471905Y-136450701D01*
X120220495Y-136618688D01*
X120006688Y-136832495D01*
X119838701Y-137083905D01*
X119722989Y-137363257D01*
X119664000Y-137659816D01*
X119664000Y-137962184D01*
X119715269Y-138219930D01*
X119658799Y-138276400D01*
X119277072Y-138276400D01*
X119277072Y-136911000D01*
X119264812Y-136786518D01*
X119228502Y-136666820D01*
X119169537Y-136556506D01*
X119090185Y-136459815D01*
X118993494Y-136380463D01*
X118883180Y-136321498D01*
X118763482Y-136285188D01*
X118639000Y-136272928D01*
X116839000Y-136272928D01*
X116714518Y-136285188D01*
X116594820Y-136321498D01*
X116484506Y-136380463D01*
X116387815Y-136459815D01*
X116308463Y-136556506D01*
X116249498Y-136666820D01*
X116243944Y-136685127D01*
X116177505Y-136618688D01*
X115926095Y-136450701D01*
X115646743Y-136334989D01*
X115350184Y-136276000D01*
X115047816Y-136276000D01*
X114751257Y-136334989D01*
X114471905Y-136450701D01*
X114220495Y-136618688D01*
X114006688Y-136832495D01*
X113838701Y-137083905D01*
X113722989Y-137363257D01*
X113664000Y-137659816D01*
X113664000Y-137962184D01*
X113722989Y-138258743D01*
X113838701Y-138538095D01*
X114006688Y-138789505D01*
X114220495Y-139003312D01*
X114471905Y-139171299D01*
X114751257Y-139287011D01*
X115041295Y-139344703D01*
X113700503Y-140685496D01*
X113671499Y-140709299D01*
X113616371Y-140776474D01*
X113576526Y-140825024D01*
X113527664Y-140916438D01*
X113505954Y-140957054D01*
X113462497Y-141100315D01*
X113451500Y-141211968D01*
X113451500Y-141211978D01*
X113447824Y-141249300D01*
X113451500Y-141286623D01*
X113451501Y-144330197D01*
X108629655Y-149152044D01*
X108597684Y-149085056D01*
X108421854Y-148849707D01*
X108203488Y-148653183D01*
X108097230Y-148590000D01*
X108203488Y-148526817D01*
X108421854Y-148330293D01*
X108597684Y-148094944D01*
X108724222Y-147829814D01*
X108769958Y-147679026D01*
X108648817Y-147447000D01*
X107442000Y-147447000D01*
X107442000Y-149733000D01*
X107462000Y-149733000D01*
X107462000Y-149987000D01*
X107442000Y-149987000D01*
X107442000Y-150007000D01*
X107188000Y-150007000D01*
X107188000Y-149987000D01*
X107168000Y-149987000D01*
X107168000Y-149733000D01*
X107188000Y-149733000D01*
X107188000Y-147447000D01*
X107168000Y-147447000D01*
X107168000Y-147193000D01*
X107188000Y-147193000D01*
X107188000Y-147173000D01*
X107442000Y-147173000D01*
X107442000Y-147193000D01*
X108648817Y-147193000D01*
X108769958Y-146960974D01*
X108724222Y-146810186D01*
X108597684Y-146545056D01*
X108421854Y-146309707D01*
X108203488Y-146113183D01*
X108107090Y-146055863D01*
X108151606Y-146032069D01*
X108379797Y-145844797D01*
X108567069Y-145616606D01*
X108706225Y-145356264D01*
X108791916Y-145073777D01*
X108820851Y-144780000D01*
X108791916Y-144486223D01*
X108706225Y-144203736D01*
X108567069Y-143943394D01*
X108379797Y-143715203D01*
X108151606Y-143527931D01*
X107891264Y-143388775D01*
X107608777Y-143303084D01*
X107388619Y-143281400D01*
X107241381Y-143281400D01*
X107021223Y-143303084D01*
X106738736Y-143388775D01*
X106478394Y-143527931D01*
X106250203Y-143715203D01*
X106243586Y-143723265D01*
X106228102Y-143672220D01*
X106169137Y-143561906D01*
X106089785Y-143465215D01*
X105993094Y-143385863D01*
X105882780Y-143326898D01*
X105763082Y-143290588D01*
X105638600Y-143278328D01*
X103911400Y-143278328D01*
X103786918Y-143290588D01*
X103667220Y-143326898D01*
X103556906Y-143385863D01*
X103460215Y-143465215D01*
X103380863Y-143561906D01*
X103321898Y-143672220D01*
X103285588Y-143791918D01*
X103273328Y-143916400D01*
X103273328Y-145643600D01*
X103285588Y-145768082D01*
X103321898Y-145887780D01*
X103380863Y-145998094D01*
X103460215Y-146094785D01*
X103556906Y-146174137D01*
X103667220Y-146233102D01*
X103718265Y-146248586D01*
X103710203Y-146255203D01*
X103522931Y-146483394D01*
X103383775Y-146743736D01*
X103298084Y-147026223D01*
X103269149Y-147320000D01*
X103298084Y-147613777D01*
X103383775Y-147896264D01*
X103522931Y-148156606D01*
X103710203Y-148384797D01*
X103938394Y-148572069D01*
X103971940Y-148590000D01*
X103938394Y-148607931D01*
X103710203Y-148795203D01*
X103522931Y-149023394D01*
X103383775Y-149283736D01*
X103298084Y-149566223D01*
X103269149Y-149860000D01*
X103298084Y-150153777D01*
X103383775Y-150436264D01*
X103522931Y-150696606D01*
X103587101Y-150774797D01*
X102574703Y-151787196D01*
X102545699Y-151810999D01*
X102496294Y-151871200D01*
X102450726Y-151926724D01*
X102402579Y-152016801D01*
X102380154Y-152058754D01*
X102336697Y-152202015D01*
X102325700Y-152313668D01*
X102325700Y-152313678D01*
X102322024Y-152351000D01*
X100710000Y-152351000D01*
X100710000Y-142181255D01*
X110122438Y-142181255D01*
X110122438Y-143180745D01*
X110144301Y-143402722D01*
X110209049Y-143616169D01*
X110314195Y-143812882D01*
X110455697Y-143985303D01*
X110628118Y-144126805D01*
X110824831Y-144231951D01*
X111038278Y-144296699D01*
X111260255Y-144318562D01*
X112259745Y-144318562D01*
X112481722Y-144296699D01*
X112695169Y-144231951D01*
X112891882Y-144126805D01*
X113064303Y-143985303D01*
X113205805Y-143812882D01*
X113310951Y-143616169D01*
X113375699Y-143402722D01*
X113397562Y-143180745D01*
X113397562Y-142181255D01*
X113375699Y-141959278D01*
X113310951Y-141745831D01*
X113205805Y-141549118D01*
X113064303Y-141376697D01*
X112891882Y-141235195D01*
X112695169Y-141130049D01*
X112481722Y-141065301D01*
X112259745Y-141043438D01*
X111260255Y-141043438D01*
X111038278Y-141065301D01*
X110824831Y-141130049D01*
X110628118Y-141235195D01*
X110455697Y-141376697D01*
X110314195Y-141549118D01*
X110209049Y-141745831D01*
X110144301Y-141959278D01*
X110122438Y-142181255D01*
X100710000Y-142181255D01*
X100710000Y-139857944D01*
X101599025Y-139857944D01*
X101656924Y-140048826D01*
X101798618Y-140339815D01*
X101994358Y-140597569D01*
X102236623Y-140812184D01*
X102516102Y-140975411D01*
X102822055Y-141080978D01*
X103078000Y-140962362D01*
X103078000Y-139602000D01*
X103332000Y-139602000D01*
X103332000Y-140962362D01*
X103587945Y-141080978D01*
X103893898Y-140975411D01*
X104173377Y-140812184D01*
X104415642Y-140597569D01*
X104611382Y-140339815D01*
X104753076Y-140048826D01*
X104761091Y-140022401D01*
X108442204Y-140022401D01*
X108507799Y-140261326D01*
X108754875Y-140377283D01*
X109019827Y-140442809D01*
X109292470Y-140455387D01*
X109562329Y-140414533D01*
X109819032Y-140321817D01*
X109932201Y-140261326D01*
X109997796Y-140022401D01*
X109220000Y-139244605D01*
X108442204Y-140022401D01*
X104761091Y-140022401D01*
X104810975Y-139857944D01*
X104691836Y-139602000D01*
X103332000Y-139602000D01*
X103078000Y-139602000D01*
X101718164Y-139602000D01*
X101599025Y-139857944D01*
X100710000Y-139857944D01*
X100710000Y-135919000D01*
X101550928Y-135919000D01*
X101550928Y-137951000D01*
X101563188Y-138075482D01*
X101599498Y-138195180D01*
X101658463Y-138305494D01*
X101737815Y-138402185D01*
X101834506Y-138481537D01*
X101878469Y-138505036D01*
X101798618Y-138610185D01*
X101656924Y-138901174D01*
X101599025Y-139092056D01*
X101718164Y-139348000D01*
X103078000Y-139348000D01*
X103078000Y-139328000D01*
X103332000Y-139328000D01*
X103332000Y-139348000D01*
X104691836Y-139348000D01*
X104789835Y-139137470D01*
X107829613Y-139137470D01*
X107870467Y-139407329D01*
X107963183Y-139664032D01*
X108023674Y-139777201D01*
X108262599Y-139842796D01*
X109040395Y-139065000D01*
X109399605Y-139065000D01*
X110177401Y-139842796D01*
X110416326Y-139777201D01*
X110532283Y-139530125D01*
X110597809Y-139265173D01*
X110610387Y-138992530D01*
X110569533Y-138722671D01*
X110476817Y-138465968D01*
X110416326Y-138352799D01*
X110177401Y-138287204D01*
X109399605Y-139065000D01*
X109040395Y-139065000D01*
X108262599Y-138287204D01*
X108023674Y-138352799D01*
X107907717Y-138599875D01*
X107842191Y-138864827D01*
X107829613Y-139137470D01*
X104789835Y-139137470D01*
X104810975Y-139092056D01*
X104753076Y-138901174D01*
X104611382Y-138610185D01*
X104531531Y-138505036D01*
X104575494Y-138481537D01*
X104672185Y-138402185D01*
X104751537Y-138305494D01*
X104810502Y-138195180D01*
X104846812Y-138075482D01*
X104859072Y-137951000D01*
X104859072Y-137695000D01*
X108477070Y-137695000D01*
X108563687Y-137752876D01*
X108661696Y-137793473D01*
X108620968Y-137808183D01*
X108507799Y-137868674D01*
X108442204Y-138107599D01*
X109220000Y-138885395D01*
X109997796Y-138107599D01*
X109932201Y-137868674D01*
X109774937Y-137794867D01*
X109876313Y-137752876D01*
X110103249Y-137601242D01*
X110296242Y-137408249D01*
X110447876Y-137181313D01*
X110552323Y-136929156D01*
X110605570Y-136661467D01*
X110605570Y-136388533D01*
X110552323Y-136120844D01*
X110447876Y-135868687D01*
X110296242Y-135641751D01*
X110103249Y-135448758D01*
X109876313Y-135297124D01*
X109624156Y-135192677D01*
X109356467Y-135139430D01*
X109083533Y-135139430D01*
X108815844Y-135192677D01*
X108563687Y-135297124D01*
X108336751Y-135448758D01*
X108143758Y-135641751D01*
X107992124Y-135868687D01*
X107887677Y-136120844D01*
X107876905Y-136175000D01*
X104859072Y-136175000D01*
X104859072Y-135919000D01*
X104846812Y-135794518D01*
X104810502Y-135674820D01*
X104751537Y-135564506D01*
X104672185Y-135467815D01*
X104575494Y-135388463D01*
X104465180Y-135329498D01*
X104345482Y-135293188D01*
X104221000Y-135280928D01*
X102189000Y-135280928D01*
X102064518Y-135293188D01*
X101944820Y-135329498D01*
X101834506Y-135388463D01*
X101737815Y-135467815D01*
X101658463Y-135564506D01*
X101599498Y-135674820D01*
X101563188Y-135794518D01*
X101550928Y-135919000D01*
X100710000Y-135919000D01*
X100710000Y-135035721D01*
X100737907Y-134751101D01*
X100810484Y-134510715D01*
X100928368Y-134289009D01*
X101087068Y-134094423D01*
X101280545Y-133934365D01*
X101501424Y-133814936D01*
X101741297Y-133740683D01*
X102033231Y-133710000D01*
X137965279Y-133710000D01*
X138249899Y-133737907D01*
X138249899Y-133737907D01*
G37*
X138249899Y-133737907D02*
X138490285Y-133810484D01*
X138711991Y-133928368D01*
X138906577Y-134087068D01*
X139066635Y-134280545D01*
X139186064Y-134501424D01*
X139260317Y-134741297D01*
X139290001Y-135023726D01*
X139290000Y-177965279D01*
X139262093Y-178249899D01*
X139189517Y-178490282D01*
X139071633Y-178711989D01*
X138912929Y-178906580D01*
X138719455Y-179066635D01*
X138498576Y-179186064D01*
X138258701Y-179260317D01*
X137976291Y-179290000D01*
X102034721Y-179290000D01*
X101750101Y-179262093D01*
X101509718Y-179189517D01*
X101288011Y-179071633D01*
X101093420Y-178912929D01*
X100933365Y-178719455D01*
X100813936Y-178498576D01*
X100739683Y-178258701D01*
X100710000Y-177976291D01*
X100710000Y-176285249D01*
X101274000Y-176285249D01*
X101274000Y-176774751D01*
X101369497Y-177254848D01*
X101556821Y-177707089D01*
X101828774Y-178114095D01*
X102174905Y-178460226D01*
X102581911Y-178732179D01*
X103034152Y-178919503D01*
X103514249Y-179015000D01*
X104003751Y-179015000D01*
X104483848Y-178919503D01*
X104936089Y-178732179D01*
X105343095Y-178460226D01*
X105689226Y-178114095D01*
X105961179Y-177707089D01*
X106148503Y-177254848D01*
X106244000Y-176774751D01*
X106244000Y-176285249D01*
X106148503Y-175805152D01*
X105961179Y-175352911D01*
X105689226Y-174945905D01*
X105343095Y-174599774D01*
X104936089Y-174327821D01*
X104483848Y-174140497D01*
X104003751Y-174045000D01*
X103514249Y-174045000D01*
X103034152Y-174140497D01*
X102581911Y-174327821D01*
X102174905Y-174599774D01*
X101828774Y-174945905D01*
X101556821Y-175352911D01*
X101369497Y-175805152D01*
X101274000Y-176285249D01*
X100710000Y-176285249D01*
X100710000Y-169279000D01*
X104422857Y-169279000D01*
X104422857Y-173099000D01*
X110207143Y-173099000D01*
X110207143Y-169279000D01*
X104422857Y-169279000D01*
X100710000Y-169279000D01*
X100710000Y-152351000D01*
X102322024Y-152351000D01*
X102325700Y-152388322D01*
X102325701Y-165066568D01*
X102322024Y-165103900D01*
X102336698Y-165252885D01*
X102380154Y-165396146D01*
X102450726Y-165528176D01*
X102521901Y-165614902D01*
X102545700Y-165643901D01*
X102574698Y-165667699D01*
X103607430Y-166700432D01*
X103522931Y-166803394D01*
X103383775Y-167063736D01*
X103298084Y-167346223D01*
X103269149Y-167640000D01*
X103298084Y-167933777D01*
X103383775Y-168216264D01*
X103522931Y-168476606D01*
X103710203Y-168704797D01*
X103938394Y-168892069D01*
X104198736Y-169031225D01*
X104481223Y-169116916D01*
X104701381Y-169138600D01*
X104848619Y-169138600D01*
X105068777Y-169116916D01*
X105351264Y-169031225D01*
X105611606Y-168892069D01*
X105839797Y-168704797D01*
X106027069Y-168476606D01*
X106045000Y-168443060D01*
X106062931Y-168476606D01*
X106250203Y-168704797D01*
X106478394Y-168892069D01*
X106738736Y-169031225D01*
X107021223Y-169116916D01*
X107241381Y-169138600D01*
X107388619Y-169138600D01*
X107608777Y-169116916D01*
X107891264Y-169031225D01*
X108151606Y-168892069D01*
X108379797Y-168704797D01*
X108567069Y-168476606D01*
X108608016Y-168400000D01*
X110388678Y-168400000D01*
X110426000Y-168403676D01*
X110463322Y-168400000D01*
X110463333Y-168400000D01*
X110574986Y-168389003D01*
X110718247Y-168345546D01*
X110850276Y-168274974D01*
X110966001Y-168180001D01*
X110989804Y-168150997D01*
X112240150Y-166900651D01*
X112385533Y-166929570D01*
X112658467Y-166929570D01*
X112926156Y-166876323D01*
X113178313Y-166771876D01*
X113405249Y-166620242D01*
X113524090Y-166501401D01*
X114284204Y-166501401D01*
X114349799Y-166740326D01*
X114596875Y-166856283D01*
X114861827Y-166921809D01*
X115134470Y-166934387D01*
X115404329Y-166893533D01*
X115661032Y-166800817D01*
X115774201Y-166740326D01*
X115839796Y-166501401D01*
X115062000Y-165723605D01*
X114284204Y-166501401D01*
X113524090Y-166501401D01*
X113598242Y-166427249D01*
X113749876Y-166200313D01*
X113790473Y-166102304D01*
X113805183Y-166143032D01*
X113865674Y-166256201D01*
X114104599Y-166321796D01*
X114882395Y-165544000D01*
X115241605Y-165544000D01*
X116019401Y-166321796D01*
X116258326Y-166256201D01*
X116374283Y-166009125D01*
X116439809Y-165744173D01*
X116452387Y-165471530D01*
X116411533Y-165201671D01*
X116318817Y-164944968D01*
X116258326Y-164831799D01*
X116019401Y-164766204D01*
X115241605Y-165544000D01*
X114882395Y-165544000D01*
X114104599Y-164766204D01*
X113865674Y-164831799D01*
X113791867Y-164989063D01*
X113749876Y-164887687D01*
X113598242Y-164660751D01*
X113524090Y-164586599D01*
X114284204Y-164586599D01*
X115062000Y-165364395D01*
X115839796Y-164586599D01*
X115774201Y-164347674D01*
X115527125Y-164231717D01*
X115262173Y-164166191D01*
X114989530Y-164153613D01*
X114719671Y-164194467D01*
X114462968Y-164287183D01*
X114349799Y-164347674D01*
X114284204Y-164586599D01*
X113524090Y-164586599D01*
X113405249Y-164467758D01*
X113178313Y-164316124D01*
X112926156Y-164211677D01*
X112658467Y-164158430D01*
X112385533Y-164158430D01*
X112117844Y-164211677D01*
X112015896Y-164253905D01*
X114946503Y-161323299D01*
X114975501Y-161299501D01*
X115038183Y-161223123D01*
X115070474Y-161183777D01*
X115141046Y-161051747D01*
X115148529Y-161027078D01*
X115184503Y-160908486D01*
X115195500Y-160796832D01*
X115195500Y-160796823D01*
X115199176Y-160759500D01*
X115195500Y-160722177D01*
X115195500Y-160630401D01*
X117954296Y-157871606D01*
X117974301Y-158074722D01*
X118039049Y-158288169D01*
X118144195Y-158484882D01*
X118285697Y-158657303D01*
X118458118Y-158798805D01*
X118654831Y-158903951D01*
X118868278Y-158968699D01*
X119090255Y-158990562D01*
X120089745Y-158990562D01*
X120311722Y-158968699D01*
X120525169Y-158903951D01*
X120721882Y-158798805D01*
X120894303Y-158657303D01*
X121035805Y-158484882D01*
X121140951Y-158288169D01*
X121205699Y-158074722D01*
X121227562Y-157852745D01*
X121227562Y-156853255D01*
X121221912Y-156795889D01*
X122081311Y-155936491D01*
X122136741Y-156119220D01*
X122237491Y-156307710D01*
X122261529Y-156337000D01*
X122237491Y-156366290D01*
X122136741Y-156554780D01*
X122074700Y-156759303D01*
X122053751Y-156972000D01*
X122074700Y-157184697D01*
X122136741Y-157389220D01*
X122237491Y-157577710D01*
X122373078Y-157742922D01*
X122538290Y-157878509D01*
X122718887Y-157975040D01*
X122720167Y-157979259D01*
X122738454Y-158039546D01*
X122809026Y-158171576D01*
X122877445Y-158254944D01*
X122904000Y-158287301D01*
X122932998Y-158311099D01*
X124064898Y-159443000D01*
X123852706Y-159443000D01*
X123693303Y-159458700D01*
X123488780Y-159520741D01*
X123300290Y-159621491D01*
X123135078Y-159757078D01*
X123128993Y-159764492D01*
X123093376Y-159768000D01*
X123093367Y-159768000D01*
X122981714Y-159778997D01*
X122838453Y-159822454D01*
X122706424Y-159893026D01*
X122706422Y-159893027D01*
X122706423Y-159893027D01*
X122619696Y-159964201D01*
X122619692Y-159964205D01*
X122590699Y-159987999D01*
X122566905Y-160016992D01*
X121338562Y-161245335D01*
X121338562Y-160282255D01*
X121316699Y-160060278D01*
X121251951Y-159846831D01*
X121146805Y-159650118D01*
X121005303Y-159477697D01*
X120832882Y-159336195D01*
X120636169Y-159231049D01*
X120422722Y-159166301D01*
X120200745Y-159144438D01*
X119201255Y-159144438D01*
X118979278Y-159166301D01*
X118765831Y-159231049D01*
X118569118Y-159336195D01*
X118396697Y-159477697D01*
X118255195Y-159650118D01*
X118150049Y-159846831D01*
X118085301Y-160060278D01*
X118063438Y-160282255D01*
X118063438Y-161281745D01*
X118085301Y-161503722D01*
X118150049Y-161717169D01*
X118255195Y-161913882D01*
X118396697Y-162086303D01*
X118569118Y-162227805D01*
X118765831Y-162332951D01*
X118979278Y-162397699D01*
X119201255Y-162419562D01*
X120164336Y-162419562D01*
X115739898Y-166844001D01*
X115710900Y-166867799D01*
X115687102Y-166896797D01*
X115687101Y-166896798D01*
X115615926Y-166983524D01*
X115545354Y-167115554D01*
X115501898Y-167258815D01*
X115487224Y-167407800D01*
X115490901Y-167445132D01*
X115490900Y-171284073D01*
X115355777Y-171243084D01*
X115135619Y-171221400D01*
X114988381Y-171221400D01*
X114768223Y-171243084D01*
X114485736Y-171328775D01*
X114225394Y-171467931D01*
X113997203Y-171655203D01*
X113809931Y-171883394D01*
X113670775Y-172143736D01*
X113585084Y-172426223D01*
X113556149Y-172720000D01*
X113585084Y-173013777D01*
X113670775Y-173296264D01*
X113809931Y-173556606D01*
X113997203Y-173784797D01*
X114005265Y-173791414D01*
X113954220Y-173806898D01*
X113843906Y-173865863D01*
X113747215Y-173945215D01*
X113667863Y-174041906D01*
X113608898Y-174152220D01*
X113572588Y-174271918D01*
X113560328Y-174396400D01*
X113560328Y-176123600D01*
X113572588Y-176248082D01*
X113608898Y-176367780D01*
X113667863Y-176478094D01*
X113747215Y-176574785D01*
X113843906Y-176654137D01*
X113954220Y-176713102D01*
X114073918Y-176749412D01*
X114198400Y-176761672D01*
X115925600Y-176761672D01*
X116050082Y-176749412D01*
X116169780Y-176713102D01*
X116280094Y-176654137D01*
X116376785Y-176574785D01*
X116456137Y-176478094D01*
X116515102Y-176367780D01*
X116530586Y-176316735D01*
X116537203Y-176324797D01*
X116765394Y-176512069D01*
X117025736Y-176651225D01*
X117308223Y-176736916D01*
X117528381Y-176758600D01*
X117675619Y-176758600D01*
X117895777Y-176736916D01*
X118178264Y-176651225D01*
X118438606Y-176512069D01*
X118666797Y-176324797D01*
X118854069Y-176096606D01*
X118872000Y-176063060D01*
X118889931Y-176096606D01*
X119077203Y-176324797D01*
X119305394Y-176512069D01*
X119565736Y-176651225D01*
X119848223Y-176736916D01*
X120068381Y-176758600D01*
X120215619Y-176758600D01*
X120435777Y-176736916D01*
X120718264Y-176651225D01*
X120978606Y-176512069D01*
X121206797Y-176324797D01*
X121394069Y-176096606D01*
X121412000Y-176063060D01*
X121429931Y-176096606D01*
X121617203Y-176324797D01*
X121845394Y-176512069D01*
X122105736Y-176651225D01*
X122388223Y-176736916D01*
X122608381Y-176758600D01*
X122755619Y-176758600D01*
X122975777Y-176736916D01*
X123258264Y-176651225D01*
X123518606Y-176512069D01*
X123746797Y-176324797D01*
X123934069Y-176096606D01*
X123952000Y-176063060D01*
X123969931Y-176096606D01*
X124157203Y-176324797D01*
X124385394Y-176512069D01*
X124645736Y-176651225D01*
X124928223Y-176736916D01*
X125148381Y-176758600D01*
X125295619Y-176758600D01*
X125515777Y-176736916D01*
X125798264Y-176651225D01*
X126058606Y-176512069D01*
X126286797Y-176324797D01*
X126319253Y-176285249D01*
X133786000Y-176285249D01*
X133786000Y-176774751D01*
X133881497Y-177254848D01*
X134068821Y-177707089D01*
X134340774Y-178114095D01*
X134686905Y-178460226D01*
X135093911Y-178732179D01*
X135546152Y-178919503D01*
X136026249Y-179015000D01*
X136515751Y-179015000D01*
X136995848Y-178919503D01*
X137448089Y-178732179D01*
X137855095Y-178460226D01*
X138201226Y-178114095D01*
X138473179Y-177707089D01*
X138660503Y-177254848D01*
X138756000Y-176774751D01*
X138756000Y-176285249D01*
X138660503Y-175805152D01*
X138473179Y-175352911D01*
X138201226Y-174945905D01*
X137855095Y-174599774D01*
X137448089Y-174327821D01*
X136995848Y-174140497D01*
X136515751Y-174045000D01*
X136026249Y-174045000D01*
X135546152Y-174140497D01*
X135093911Y-174327821D01*
X134686905Y-174599774D01*
X134340774Y-174945905D01*
X134068821Y-175352911D01*
X133881497Y-175805152D01*
X133786000Y-176285249D01*
X126319253Y-176285249D01*
X126474069Y-176096606D01*
X126613225Y-175836264D01*
X126698916Y-175553777D01*
X126727851Y-175260000D01*
X126698916Y-174966223D01*
X126613225Y-174683736D01*
X126474069Y-174423394D01*
X126286797Y-174195203D01*
X126058606Y-174007931D01*
X126014090Y-173984137D01*
X126110488Y-173926817D01*
X126328854Y-173730293D01*
X126504684Y-173494944D01*
X126631222Y-173229814D01*
X126676958Y-173079026D01*
X126555817Y-172847000D01*
X125349000Y-172847000D01*
X125349000Y-172867000D01*
X125095000Y-172867000D01*
X125095000Y-172847000D01*
X125075000Y-172847000D01*
X125075000Y-172593000D01*
X125095000Y-172593000D01*
X125095000Y-172573000D01*
X125349000Y-172573000D01*
X125349000Y-172593000D01*
X126555817Y-172593000D01*
X126676958Y-172360974D01*
X126631222Y-172210186D01*
X126504684Y-171945056D01*
X126328854Y-171709707D01*
X126110488Y-171513183D01*
X125889577Y-171381825D01*
X127184703Y-170086700D01*
X127838878Y-170086700D01*
X127876200Y-170090376D01*
X127913522Y-170086700D01*
X127913533Y-170086700D01*
X128025186Y-170075703D01*
X128168447Y-170032246D01*
X128300476Y-169961674D01*
X128416201Y-169866701D01*
X128440004Y-169837697D01*
X131164604Y-167113098D01*
X131193601Y-167089301D01*
X131288574Y-166973576D01*
X131359146Y-166841547D01*
X131402603Y-166698286D01*
X131413600Y-166586633D01*
X131413600Y-166586625D01*
X131417276Y-166549300D01*
X131413600Y-166511975D01*
X131413600Y-165844314D01*
X131462931Y-165936606D01*
X131650203Y-166164797D01*
X131878394Y-166352069D01*
X131911940Y-166370000D01*
X131878394Y-166387931D01*
X131650203Y-166575203D01*
X131462931Y-166803394D01*
X131323775Y-167063736D01*
X131238084Y-167346223D01*
X131209149Y-167640000D01*
X131238084Y-167933777D01*
X131323775Y-168216264D01*
X131462931Y-168476606D01*
X131650203Y-168704797D01*
X131878394Y-168892069D01*
X132138736Y-169031225D01*
X132421223Y-169116916D01*
X132641381Y-169138600D01*
X132788619Y-169138600D01*
X133008777Y-169116916D01*
X133291264Y-169031225D01*
X133551606Y-168892069D01*
X133779797Y-168704797D01*
X133967069Y-168476606D01*
X133985000Y-168443060D01*
X134002931Y-168476606D01*
X134190203Y-168704797D01*
X134418394Y-168892069D01*
X134678736Y-169031225D01*
X134961223Y-169116916D01*
X135181381Y-169138600D01*
X135328619Y-169138600D01*
X135548777Y-169116916D01*
X135831264Y-169031225D01*
X136091606Y-168892069D01*
X136319797Y-168704797D01*
X136507069Y-168476606D01*
X136646225Y-168216264D01*
X136731916Y-167933777D01*
X136760851Y-167640000D01*
X136731916Y-167346223D01*
X136646225Y-167063736D01*
X136507069Y-166803394D01*
X136319797Y-166575203D01*
X136091606Y-166387931D01*
X136058060Y-166370000D01*
X136091606Y-166352069D01*
X136319797Y-166164797D01*
X136507069Y-165936606D01*
X136646225Y-165676264D01*
X136731916Y-165393777D01*
X136760851Y-165100000D01*
X136731916Y-164806223D01*
X136646225Y-164523736D01*
X136507069Y-164263394D01*
X136319797Y-164035203D01*
X136091606Y-163847931D01*
X136058060Y-163830000D01*
X136091606Y-163812069D01*
X136319797Y-163624797D01*
X136507069Y-163396606D01*
X136646225Y-163136264D01*
X136731916Y-162853777D01*
X136760851Y-162560000D01*
X136731916Y-162266223D01*
X136646225Y-161983736D01*
X136507069Y-161723394D01*
X136447857Y-161651244D01*
X136957804Y-161141298D01*
X136986801Y-161117501D01*
X137081774Y-161001776D01*
X137152346Y-160869747D01*
X137195803Y-160726486D01*
X137206800Y-160614833D01*
X137206800Y-160614824D01*
X137210476Y-160577501D01*
X137206800Y-160540178D01*
X137206800Y-151908523D01*
X137210476Y-151871200D01*
X137206800Y-151833877D01*
X137206800Y-151833867D01*
X137195803Y-151722214D01*
X137152346Y-151578953D01*
X137081774Y-151446924D01*
X136986801Y-151331199D01*
X136957802Y-151307401D01*
X136434920Y-150784519D01*
X136507069Y-150696606D01*
X136646225Y-150436264D01*
X136731916Y-150153777D01*
X136760851Y-149860000D01*
X136731916Y-149566223D01*
X136646225Y-149283736D01*
X136507069Y-149023394D01*
X136319797Y-148795203D01*
X136091606Y-148607931D01*
X136058060Y-148590000D01*
X136091606Y-148572069D01*
X136319797Y-148384797D01*
X136507069Y-148156606D01*
X136646225Y-147896264D01*
X136731916Y-147613777D01*
X136760851Y-147320000D01*
X136731916Y-147026223D01*
X136646225Y-146743736D01*
X136507069Y-146483394D01*
X136319797Y-146255203D01*
X136091606Y-146067931D01*
X136058060Y-146050000D01*
X136091606Y-146032069D01*
X136319797Y-145844797D01*
X136507069Y-145616606D01*
X136646225Y-145356264D01*
X136731916Y-145073777D01*
X136760851Y-144780000D01*
X136731916Y-144486223D01*
X136646225Y-144203736D01*
X136507069Y-143943394D01*
X136319797Y-143715203D01*
X136091606Y-143527931D01*
X135831264Y-143388775D01*
X135548777Y-143303084D01*
X135328619Y-143281400D01*
X135181381Y-143281400D01*
X134961223Y-143303084D01*
X134678736Y-143388775D01*
X134418394Y-143527931D01*
X134190203Y-143715203D01*
X134183586Y-143723265D01*
X134168102Y-143672220D01*
X134109137Y-143561906D01*
X134029785Y-143465215D01*
X133933094Y-143385863D01*
X133822780Y-143326898D01*
X133703082Y-143290588D01*
X133578600Y-143278328D01*
X131851400Y-143278328D01*
X131726918Y-143290588D01*
X131607220Y-143326898D01*
X131496906Y-143385863D01*
X131400215Y-143465215D01*
X131320863Y-143561906D01*
X131261898Y-143672220D01*
X131225588Y-143791918D01*
X131213328Y-143916400D01*
X131213328Y-145643600D01*
X131225588Y-145768082D01*
X131261898Y-145887780D01*
X131320863Y-145998094D01*
X131400215Y-146094785D01*
X131496906Y-146174137D01*
X131607220Y-146233102D01*
X131658265Y-146248586D01*
X131650203Y-146255203D01*
X131462931Y-146483394D01*
X131323775Y-146743736D01*
X131238084Y-147026223D01*
X131209149Y-147320000D01*
X131238084Y-147613777D01*
X131323775Y-147896264D01*
X131462931Y-148156606D01*
X131650203Y-148384797D01*
X131878394Y-148572069D01*
X131911940Y-148590000D01*
X131878394Y-148607931D01*
X131650203Y-148795203D01*
X131462931Y-149023394D01*
X131323775Y-149283736D01*
X131238084Y-149566223D01*
X131209149Y-149860000D01*
X131238084Y-150153777D01*
X131323775Y-150436264D01*
X131462931Y-150696606D01*
X131650203Y-150924797D01*
X131878394Y-151112069D01*
X131911940Y-151130000D01*
X131878394Y-151147931D01*
X131650203Y-151335203D01*
X131462931Y-151563394D01*
X131323775Y-151823736D01*
X131238084Y-152106223D01*
X131209149Y-152400000D01*
X131238084Y-152693777D01*
X131323775Y-152976264D01*
X131462931Y-153236606D01*
X131650203Y-153464797D01*
X131878394Y-153652069D01*
X131911940Y-153670000D01*
X131878394Y-153687931D01*
X131650203Y-153875203D01*
X131462931Y-154103394D01*
X131323775Y-154363736D01*
X131238084Y-154646223D01*
X131209149Y-154940000D01*
X131238084Y-155233777D01*
X131323775Y-155516264D01*
X131462931Y-155776606D01*
X131650203Y-156004797D01*
X131878394Y-156192069D01*
X131911940Y-156210000D01*
X131878394Y-156227931D01*
X131650203Y-156415203D01*
X131462931Y-156643394D01*
X131323775Y-156903736D01*
X131238084Y-157186223D01*
X131209149Y-157480000D01*
X131238084Y-157773777D01*
X131323775Y-158056264D01*
X131462931Y-158316606D01*
X131552703Y-158425994D01*
X126056000Y-163922698D01*
X126056000Y-159636633D01*
X126059677Y-159599300D01*
X126045003Y-159450314D01*
X126001546Y-159307053D01*
X125930974Y-159175024D01*
X125859799Y-159088297D01*
X125836001Y-159059299D01*
X125807003Y-159035501D01*
X124514648Y-157743147D01*
X124514922Y-157742922D01*
X124650509Y-157577710D01*
X124751259Y-157389220D01*
X124813300Y-157184697D01*
X124834249Y-156972000D01*
X124813300Y-156759303D01*
X124751259Y-156554780D01*
X124650509Y-156366290D01*
X124626471Y-156337000D01*
X124650509Y-156307710D01*
X124751259Y-156119220D01*
X124813300Y-155914697D01*
X124834249Y-155702000D01*
X124813300Y-155489303D01*
X124751259Y-155284780D01*
X124724993Y-155235640D01*
X124783502Y-155126180D01*
X124819812Y-155006482D01*
X124832072Y-154882000D01*
X124832072Y-153982000D01*
X124819812Y-153857518D01*
X124783502Y-153737820D01*
X124724537Y-153627506D01*
X124645185Y-153530815D01*
X124548494Y-153451463D01*
X124438180Y-153392498D01*
X124318482Y-153356188D01*
X124194000Y-153343928D01*
X123290474Y-153343928D01*
X124815840Y-151818562D01*
X125213745Y-151818562D01*
X125435722Y-151796699D01*
X125649169Y-151731951D01*
X125845882Y-151626805D01*
X126018303Y-151485303D01*
X126159805Y-151312882D01*
X126230570Y-151180490D01*
X126886438Y-151180490D01*
X126898698Y-151304972D01*
X126935008Y-151424670D01*
X126993973Y-151534984D01*
X127073325Y-151631675D01*
X127170016Y-151711027D01*
X127280330Y-151769992D01*
X127400028Y-151806302D01*
X127524510Y-151818562D01*
X128238250Y-151815490D01*
X128397000Y-151656740D01*
X128397000Y-150308000D01*
X128651000Y-150308000D01*
X128651000Y-151656740D01*
X128809750Y-151815490D01*
X129523490Y-151818562D01*
X129647972Y-151806302D01*
X129767670Y-151769992D01*
X129877984Y-151711027D01*
X129974675Y-151631675D01*
X130054027Y-151534984D01*
X130112992Y-151424670D01*
X130149302Y-151304972D01*
X130161562Y-151180490D01*
X130158490Y-150466750D01*
X129999740Y-150308000D01*
X128651000Y-150308000D01*
X128397000Y-150308000D01*
X127048260Y-150308000D01*
X126889510Y-150466750D01*
X126886438Y-151180490D01*
X126230570Y-151180490D01*
X126264951Y-151116169D01*
X126329699Y-150902722D01*
X126351562Y-150680745D01*
X126351562Y-149681255D01*
X126329699Y-149459278D01*
X126264951Y-149245831D01*
X126230571Y-149181510D01*
X126886438Y-149181510D01*
X126889510Y-149895250D01*
X127048260Y-150054000D01*
X128397000Y-150054000D01*
X128397000Y-148705260D01*
X128651000Y-148705260D01*
X128651000Y-150054000D01*
X129999740Y-150054000D01*
X130158490Y-149895250D01*
X130161562Y-149181510D01*
X130149302Y-149057028D01*
X130112992Y-148937330D01*
X130054027Y-148827016D01*
X129974675Y-148730325D01*
X129877984Y-148650973D01*
X129767670Y-148592008D01*
X129647972Y-148555698D01*
X129523490Y-148543438D01*
X128809750Y-148546510D01*
X128651000Y-148705260D01*
X128397000Y-148705260D01*
X128238250Y-148546510D01*
X127524510Y-148543438D01*
X127400028Y-148555698D01*
X127280330Y-148592008D01*
X127170016Y-148650973D01*
X127073325Y-148730325D01*
X126993973Y-148827016D01*
X126935008Y-148937330D01*
X126898698Y-149057028D01*
X126886438Y-149181510D01*
X126230571Y-149181510D01*
X126159805Y-149049118D01*
X126018303Y-148876697D01*
X125845882Y-148735195D01*
X125649169Y-148630049D01*
X125435722Y-148565301D01*
X125213745Y-148543438D01*
X124214255Y-148543438D01*
X123992278Y-148565301D01*
X123778831Y-148630049D01*
X123582118Y-148735195D01*
X123409697Y-148876697D01*
X123268195Y-149049118D01*
X123163049Y-149245831D01*
X123098301Y-149459278D01*
X123076438Y-149681255D01*
X123076438Y-150680745D01*
X123098301Y-150902722D01*
X123163049Y-151116169D01*
X123234658Y-151250140D01*
X121209408Y-153275390D01*
X121189699Y-153075278D01*
X121124951Y-152861831D01*
X121019805Y-152665118D01*
X120878303Y-152492697D01*
X120705882Y-152351195D01*
X120509169Y-152246049D01*
X120295722Y-152181301D01*
X120073745Y-152159438D01*
X119810364Y-152159438D01*
X120219890Y-151749912D01*
X120277255Y-151755562D01*
X121276745Y-151755562D01*
X121498722Y-151733699D01*
X121712169Y-151668951D01*
X121908882Y-151563805D01*
X122081303Y-151422303D01*
X122222805Y-151249882D01*
X122327951Y-151053169D01*
X122392699Y-150839722D01*
X122414562Y-150617745D01*
X122414562Y-149618255D01*
X122392699Y-149396278D01*
X122327951Y-149182831D01*
X122222805Y-148986118D01*
X122081303Y-148813697D01*
X121908882Y-148672195D01*
X121712169Y-148567049D01*
X121498722Y-148502301D01*
X121276745Y-148480438D01*
X120277255Y-148480438D01*
X120055278Y-148502301D01*
X119841831Y-148567049D01*
X119645118Y-148672195D01*
X119472697Y-148813697D01*
X119331195Y-148986118D01*
X119226049Y-149182831D01*
X119161301Y-149396278D01*
X119139438Y-149618255D01*
X119139438Y-150617745D01*
X119145088Y-150675110D01*
X113557846Y-156262353D01*
X113535805Y-156221118D01*
X113394303Y-156048697D01*
X113226564Y-155911037D01*
X117097003Y-152040599D01*
X117126001Y-152016801D01*
X117220974Y-151901076D01*
X117291546Y-151769047D01*
X117323097Y-151665035D01*
X117521169Y-151604951D01*
X117717882Y-151499805D01*
X117890303Y-151358303D01*
X118031805Y-151185882D01*
X118136951Y-150989169D01*
X118201699Y-150775722D01*
X118223562Y-150553745D01*
X118223562Y-149554255D01*
X118201699Y-149332278D01*
X118136951Y-149118831D01*
X118031805Y-148922118D01*
X117890303Y-148749697D01*
X117717882Y-148608195D01*
X117521169Y-148503049D01*
X117307722Y-148438301D01*
X117085745Y-148416438D01*
X116086255Y-148416438D01*
X115864278Y-148438301D01*
X115650831Y-148503049D01*
X115454118Y-148608195D01*
X115281697Y-148749697D01*
X115140195Y-148922118D01*
X115035049Y-149118831D01*
X114970301Y-149332278D01*
X114948438Y-149554255D01*
X114948438Y-150553745D01*
X114970301Y-150775722D01*
X115035049Y-150989169D01*
X115140195Y-151185882D01*
X115281697Y-151358303D01*
X115454118Y-151499805D01*
X115476324Y-151511674D01*
X113709695Y-153278303D01*
X113689699Y-153075278D01*
X113624951Y-152861831D01*
X113519805Y-152665118D01*
X113378303Y-152492697D01*
X113205882Y-152351195D01*
X113009169Y-152246049D01*
X112795722Y-152181301D01*
X112573745Y-152159438D01*
X111574255Y-152159438D01*
X111352278Y-152181301D01*
X111138831Y-152246049D01*
X110942118Y-152351195D01*
X110769697Y-152492697D01*
X110628195Y-152665118D01*
X110523049Y-152861831D01*
X110458301Y-153075278D01*
X110436438Y-153297255D01*
X110436438Y-154296745D01*
X110458301Y-154518722D01*
X110523049Y-154732169D01*
X110628195Y-154928882D01*
X110769697Y-155101303D01*
X110905030Y-155212368D01*
X108804402Y-157312996D01*
X108791916Y-157186223D01*
X108706225Y-156903736D01*
X108567069Y-156643394D01*
X108379797Y-156415203D01*
X108151606Y-156227931D01*
X108118060Y-156210000D01*
X108151606Y-156192069D01*
X108379797Y-156004797D01*
X108567069Y-155776606D01*
X108706225Y-155516264D01*
X108791916Y-155233777D01*
X108820851Y-154940000D01*
X108791916Y-154646223D01*
X108706225Y-154363736D01*
X108567069Y-154103394D01*
X108379797Y-153875203D01*
X108151606Y-153687931D01*
X108118060Y-153670000D01*
X108151606Y-153652069D01*
X108379797Y-153464797D01*
X108567069Y-153236606D01*
X108706225Y-152976264D01*
X108791916Y-152693777D01*
X108820851Y-152400000D01*
X108791916Y-152106223D01*
X108706225Y-151823736D01*
X108567069Y-151563394D01*
X108477296Y-151454005D01*
X110122438Y-149808863D01*
X110122438Y-150680745D01*
X110144301Y-150902722D01*
X110209049Y-151116169D01*
X110314195Y-151312882D01*
X110455697Y-151485303D01*
X110628118Y-151626805D01*
X110824831Y-151731951D01*
X111038278Y-151796699D01*
X111260255Y-151818562D01*
X112259745Y-151818562D01*
X112481722Y-151796699D01*
X112695169Y-151731951D01*
X112891882Y-151626805D01*
X113064303Y-151485303D01*
X113205805Y-151312882D01*
X113310951Y-151116169D01*
X113375699Y-150902722D01*
X113397562Y-150680745D01*
X113397562Y-149681255D01*
X113375699Y-149459278D01*
X113310951Y-149245831D01*
X113205805Y-149049118D01*
X113064303Y-148876697D01*
X112891882Y-148735195D01*
X112695169Y-148630049D01*
X112481722Y-148565301D01*
X112259745Y-148543438D01*
X111387863Y-148543438D01*
X114722503Y-145208799D01*
X114751501Y-145185001D01*
X114777832Y-145152917D01*
X114846474Y-145069277D01*
X114917046Y-144937247D01*
X114960503Y-144793986D01*
X114971500Y-144682333D01*
X114971500Y-144682323D01*
X114975176Y-144645000D01*
X114971500Y-144607677D01*
X114971500Y-143279675D01*
X115035049Y-143489169D01*
X115140195Y-143685882D01*
X115281697Y-143858303D01*
X115454118Y-143999805D01*
X115650831Y-144104951D01*
X115864278Y-144169699D01*
X116086255Y-144191562D01*
X117085745Y-144191562D01*
X117307722Y-144169699D01*
X117521169Y-144104951D01*
X117717882Y-143999805D01*
X117890303Y-143858303D01*
X118031805Y-143685882D01*
X118136951Y-143489169D01*
X118189269Y-143316698D01*
X118199200Y-143317676D01*
X118236522Y-143314000D01*
X118236533Y-143314000D01*
X118348186Y-143303003D01*
X118491447Y-143259546D01*
X118623476Y-143188974D01*
X118739201Y-143094001D01*
X118763004Y-143064997D01*
X119139438Y-142688563D01*
X119139438Y-143117745D01*
X119161301Y-143339722D01*
X119226049Y-143553169D01*
X119331195Y-143749882D01*
X119472697Y-143922303D01*
X119645118Y-144063805D01*
X119841831Y-144168951D01*
X120055278Y-144233699D01*
X120277255Y-144255562D01*
X121276745Y-144255562D01*
X121498722Y-144233699D01*
X121712169Y-144168951D01*
X121908882Y-144063805D01*
X122081303Y-143922303D01*
X122222805Y-143749882D01*
X122327951Y-143553169D01*
X122392699Y-143339722D01*
X122414562Y-143117745D01*
X122414562Y-142181255D01*
X123076438Y-142181255D01*
X123076438Y-143180745D01*
X123098301Y-143402722D01*
X123163049Y-143616169D01*
X123268195Y-143812882D01*
X123409697Y-143985303D01*
X123582118Y-144126805D01*
X123778831Y-144231951D01*
X123992278Y-144296699D01*
X124214255Y-144318562D01*
X125213745Y-144318562D01*
X125435722Y-144296699D01*
X125649169Y-144231951D01*
X125845882Y-144126805D01*
X126018303Y-143985303D01*
X126159805Y-143812882D01*
X126264951Y-143616169D01*
X126329699Y-143402722D01*
X126351562Y-143180745D01*
X126351562Y-142181255D01*
X126886438Y-142181255D01*
X126886438Y-143180745D01*
X126908301Y-143402722D01*
X126973049Y-143616169D01*
X127078195Y-143812882D01*
X127219697Y-143985303D01*
X127392118Y-144126805D01*
X127588831Y-144231951D01*
X127802278Y-144296699D01*
X128024255Y-144318562D01*
X129023745Y-144318562D01*
X129245722Y-144296699D01*
X129459169Y-144231951D01*
X129655882Y-144126805D01*
X129828303Y-143985303D01*
X129969805Y-143812882D01*
X130074951Y-143616169D01*
X130127705Y-143442262D01*
X130140522Y-143441000D01*
X130140533Y-143441000D01*
X130252186Y-143430003D01*
X130395447Y-143386546D01*
X130527476Y-143315974D01*
X130643201Y-143221001D01*
X130667004Y-143191997D01*
X134571151Y-139287851D01*
X134594820Y-139300502D01*
X134714518Y-139336812D01*
X134839000Y-139349072D01*
X136639000Y-139349072D01*
X136763482Y-139336812D01*
X136883180Y-139300502D01*
X136993494Y-139241537D01*
X137090185Y-139162185D01*
X137169537Y-139065494D01*
X137228502Y-138955180D01*
X137264812Y-138835482D01*
X137277072Y-138711000D01*
X137277072Y-136911000D01*
X137264812Y-136786518D01*
X137228502Y-136666820D01*
X137169537Y-136556506D01*
X137090185Y-136459815D01*
X136993494Y-136380463D01*
X136883180Y-136321498D01*
X136763482Y-136285188D01*
X136639000Y-136272928D01*
X134839000Y-136272928D01*
X134714518Y-136285188D01*
X134594820Y-136321498D01*
X134484506Y-136380463D01*
X134387815Y-136459815D01*
X134308463Y-136556506D01*
X134249498Y-136666820D01*
X134243944Y-136685127D01*
X134177505Y-136618688D01*
X133926095Y-136450701D01*
X133646743Y-136334989D01*
X133350184Y-136276000D01*
X133047816Y-136276000D01*
X132751257Y-136334989D01*
X132471905Y-136450701D01*
X132220495Y-136618688D01*
X132006688Y-136832495D01*
X131838701Y-137083905D01*
X131722989Y-137363257D01*
X131664000Y-137659816D01*
X131664000Y-137962184D01*
X131722989Y-138258743D01*
X131838701Y-138538095D01*
X132006688Y-138789505D01*
X132220495Y-139003312D01*
X132471905Y-139171299D01*
X132518711Y-139190687D01*
X130036153Y-141673246D01*
X129969805Y-141549118D01*
X129828303Y-141376697D01*
X129655882Y-141235195D01*
X129459169Y-141130049D01*
X129245722Y-141065301D01*
X129023745Y-141043438D01*
X128024255Y-141043438D01*
X127802278Y-141065301D01*
X127588831Y-141130049D01*
X127392118Y-141235195D01*
X127219697Y-141376697D01*
X127078195Y-141549118D01*
X126973049Y-141745831D01*
X126908301Y-141959278D01*
X126886438Y-142181255D01*
X126351562Y-142181255D01*
X126329699Y-141959278D01*
X126264951Y-141745831D01*
X126159805Y-141549118D01*
X126018303Y-141376697D01*
X125845882Y-141235195D01*
X125649169Y-141130049D01*
X125435722Y-141065301D01*
X125213745Y-141043438D01*
X124214255Y-141043438D01*
X123992278Y-141065301D01*
X123778831Y-141130049D01*
X123582118Y-141235195D01*
X123409697Y-141376697D01*
X123268195Y-141549118D01*
X123163049Y-141745831D01*
X123098301Y-141959278D01*
X123076438Y-142181255D01*
X122414562Y-142181255D01*
X122414562Y-142118255D01*
X122408912Y-142060889D01*
X124673502Y-139796300D01*
X127750678Y-139796300D01*
X127788000Y-139799976D01*
X127825322Y-139796300D01*
X127825333Y-139796300D01*
X127936986Y-139785303D01*
X128080247Y-139741846D01*
X128212276Y-139671274D01*
X128328001Y-139576301D01*
X128351803Y-139547298D01*
X128611216Y-139287885D01*
X128634820Y-139300502D01*
X128754518Y-139336812D01*
X128879000Y-139349072D01*
X130679000Y-139349072D01*
X130803482Y-139336812D01*
X130923180Y-139300502D01*
X131033494Y-139241537D01*
X131130185Y-139162185D01*
X131209537Y-139065494D01*
X131268502Y-138955180D01*
X131304812Y-138835482D01*
X131317072Y-138711000D01*
X131317072Y-136911000D01*
X131304812Y-136786518D01*
X131268502Y-136666820D01*
X131209537Y-136556506D01*
X131130185Y-136459815D01*
X131033494Y-136380463D01*
X130923180Y-136321498D01*
X130803482Y-136285188D01*
X130679000Y-136272928D01*
X128879000Y-136272928D01*
X128754518Y-136285188D01*
X128634820Y-136321498D01*
X128524506Y-136380463D01*
X128427815Y-136459815D01*
X128348463Y-136556506D01*
X128289498Y-136666820D01*
X128283944Y-136685127D01*
X128217505Y-136618688D01*
X127966095Y-136450701D01*
X127686743Y-136334989D01*
X127390184Y-136276000D01*
X127087816Y-136276000D01*
X126830070Y-136327269D01*
X126577404Y-136074603D01*
X126553601Y-136045599D01*
X126437876Y-135950626D01*
X126305847Y-135880054D01*
X126162586Y-135836597D01*
X126050933Y-135825600D01*
X126050922Y-135825600D01*
X126013600Y-135821924D01*
X125976278Y-135825600D01*
X122461722Y-135825600D01*
X122424399Y-135821924D01*
X122387076Y-135825600D01*
X122387067Y-135825600D01*
X122275414Y-135836597D01*
X122132153Y-135880054D01*
X122000124Y-135950626D01*
X121884399Y-136045599D01*
X121860601Y-136074597D01*
X121607930Y-136327269D01*
X121350184Y-136276000D01*
X121047816Y-136276000D01*
X120751257Y-136334989D01*
X120471905Y-136450701D01*
X120220495Y-136618688D01*
X120006688Y-136832495D01*
X119838701Y-137083905D01*
X119722989Y-137363257D01*
X119664000Y-137659816D01*
X119664000Y-137962184D01*
X119715269Y-138219930D01*
X119658799Y-138276400D01*
X119277072Y-138276400D01*
X119277072Y-136911000D01*
X119264812Y-136786518D01*
X119228502Y-136666820D01*
X119169537Y-136556506D01*
X119090185Y-136459815D01*
X118993494Y-136380463D01*
X118883180Y-136321498D01*
X118763482Y-136285188D01*
X118639000Y-136272928D01*
X116839000Y-136272928D01*
X116714518Y-136285188D01*
X116594820Y-136321498D01*
X116484506Y-136380463D01*
X116387815Y-136459815D01*
X116308463Y-136556506D01*
X116249498Y-136666820D01*
X116243944Y-136685127D01*
X116177505Y-136618688D01*
X115926095Y-136450701D01*
X115646743Y-136334989D01*
X115350184Y-136276000D01*
X115047816Y-136276000D01*
X114751257Y-136334989D01*
X114471905Y-136450701D01*
X114220495Y-136618688D01*
X114006688Y-136832495D01*
X113838701Y-137083905D01*
X113722989Y-137363257D01*
X113664000Y-137659816D01*
X113664000Y-137962184D01*
X113722989Y-138258743D01*
X113838701Y-138538095D01*
X114006688Y-138789505D01*
X114220495Y-139003312D01*
X114471905Y-139171299D01*
X114751257Y-139287011D01*
X115041295Y-139344703D01*
X113700503Y-140685496D01*
X113671499Y-140709299D01*
X113616371Y-140776474D01*
X113576526Y-140825024D01*
X113527664Y-140916438D01*
X113505954Y-140957054D01*
X113462497Y-141100315D01*
X113451500Y-141211968D01*
X113451500Y-141211978D01*
X113447824Y-141249300D01*
X113451500Y-141286623D01*
X113451501Y-144330197D01*
X108629655Y-149152044D01*
X108597684Y-149085056D01*
X108421854Y-148849707D01*
X108203488Y-148653183D01*
X108097230Y-148590000D01*
X108203488Y-148526817D01*
X108421854Y-148330293D01*
X108597684Y-148094944D01*
X108724222Y-147829814D01*
X108769958Y-147679026D01*
X108648817Y-147447000D01*
X107442000Y-147447000D01*
X107442000Y-149733000D01*
X107462000Y-149733000D01*
X107462000Y-149987000D01*
X107442000Y-149987000D01*
X107442000Y-150007000D01*
X107188000Y-150007000D01*
X107188000Y-149987000D01*
X107168000Y-149987000D01*
X107168000Y-149733000D01*
X107188000Y-149733000D01*
X107188000Y-147447000D01*
X107168000Y-147447000D01*
X107168000Y-147193000D01*
X107188000Y-147193000D01*
X107188000Y-147173000D01*
X107442000Y-147173000D01*
X107442000Y-147193000D01*
X108648817Y-147193000D01*
X108769958Y-146960974D01*
X108724222Y-146810186D01*
X108597684Y-146545056D01*
X108421854Y-146309707D01*
X108203488Y-146113183D01*
X108107090Y-146055863D01*
X108151606Y-146032069D01*
X108379797Y-145844797D01*
X108567069Y-145616606D01*
X108706225Y-145356264D01*
X108791916Y-145073777D01*
X108820851Y-144780000D01*
X108791916Y-144486223D01*
X108706225Y-144203736D01*
X108567069Y-143943394D01*
X108379797Y-143715203D01*
X108151606Y-143527931D01*
X107891264Y-143388775D01*
X107608777Y-143303084D01*
X107388619Y-143281400D01*
X107241381Y-143281400D01*
X107021223Y-143303084D01*
X106738736Y-143388775D01*
X106478394Y-143527931D01*
X106250203Y-143715203D01*
X106243586Y-143723265D01*
X106228102Y-143672220D01*
X106169137Y-143561906D01*
X106089785Y-143465215D01*
X105993094Y-143385863D01*
X105882780Y-143326898D01*
X105763082Y-143290588D01*
X105638600Y-143278328D01*
X103911400Y-143278328D01*
X103786918Y-143290588D01*
X103667220Y-143326898D01*
X103556906Y-143385863D01*
X103460215Y-143465215D01*
X103380863Y-143561906D01*
X103321898Y-143672220D01*
X103285588Y-143791918D01*
X103273328Y-143916400D01*
X103273328Y-145643600D01*
X103285588Y-145768082D01*
X103321898Y-145887780D01*
X103380863Y-145998094D01*
X103460215Y-146094785D01*
X103556906Y-146174137D01*
X103667220Y-146233102D01*
X103718265Y-146248586D01*
X103710203Y-146255203D01*
X103522931Y-146483394D01*
X103383775Y-146743736D01*
X103298084Y-147026223D01*
X103269149Y-147320000D01*
X103298084Y-147613777D01*
X103383775Y-147896264D01*
X103522931Y-148156606D01*
X103710203Y-148384797D01*
X103938394Y-148572069D01*
X103971940Y-148590000D01*
X103938394Y-148607931D01*
X103710203Y-148795203D01*
X103522931Y-149023394D01*
X103383775Y-149283736D01*
X103298084Y-149566223D01*
X103269149Y-149860000D01*
X103298084Y-150153777D01*
X103383775Y-150436264D01*
X103522931Y-150696606D01*
X103587101Y-150774797D01*
X102574703Y-151787196D01*
X102545699Y-151810999D01*
X102496294Y-151871200D01*
X102450726Y-151926724D01*
X102402579Y-152016801D01*
X102380154Y-152058754D01*
X102336697Y-152202015D01*
X102325700Y-152313668D01*
X102325700Y-152313678D01*
X102322024Y-152351000D01*
X100710000Y-152351000D01*
X100710000Y-142181255D01*
X110122438Y-142181255D01*
X110122438Y-143180745D01*
X110144301Y-143402722D01*
X110209049Y-143616169D01*
X110314195Y-143812882D01*
X110455697Y-143985303D01*
X110628118Y-144126805D01*
X110824831Y-144231951D01*
X111038278Y-144296699D01*
X111260255Y-144318562D01*
X112259745Y-144318562D01*
X112481722Y-144296699D01*
X112695169Y-144231951D01*
X112891882Y-144126805D01*
X113064303Y-143985303D01*
X113205805Y-143812882D01*
X113310951Y-143616169D01*
X113375699Y-143402722D01*
X113397562Y-143180745D01*
X113397562Y-142181255D01*
X113375699Y-141959278D01*
X113310951Y-141745831D01*
X113205805Y-141549118D01*
X113064303Y-141376697D01*
X112891882Y-141235195D01*
X112695169Y-141130049D01*
X112481722Y-141065301D01*
X112259745Y-141043438D01*
X111260255Y-141043438D01*
X111038278Y-141065301D01*
X110824831Y-141130049D01*
X110628118Y-141235195D01*
X110455697Y-141376697D01*
X110314195Y-141549118D01*
X110209049Y-141745831D01*
X110144301Y-141959278D01*
X110122438Y-142181255D01*
X100710000Y-142181255D01*
X100710000Y-139857944D01*
X101599025Y-139857944D01*
X101656924Y-140048826D01*
X101798618Y-140339815D01*
X101994358Y-140597569D01*
X102236623Y-140812184D01*
X102516102Y-140975411D01*
X102822055Y-141080978D01*
X103078000Y-140962362D01*
X103078000Y-139602000D01*
X103332000Y-139602000D01*
X103332000Y-140962362D01*
X103587945Y-141080978D01*
X103893898Y-140975411D01*
X104173377Y-140812184D01*
X104415642Y-140597569D01*
X104611382Y-140339815D01*
X104753076Y-140048826D01*
X104761091Y-140022401D01*
X108442204Y-140022401D01*
X108507799Y-140261326D01*
X108754875Y-140377283D01*
X109019827Y-140442809D01*
X109292470Y-140455387D01*
X109562329Y-140414533D01*
X109819032Y-140321817D01*
X109932201Y-140261326D01*
X109997796Y-140022401D01*
X109220000Y-139244605D01*
X108442204Y-140022401D01*
X104761091Y-140022401D01*
X104810975Y-139857944D01*
X104691836Y-139602000D01*
X103332000Y-139602000D01*
X103078000Y-139602000D01*
X101718164Y-139602000D01*
X101599025Y-139857944D01*
X100710000Y-139857944D01*
X100710000Y-135919000D01*
X101550928Y-135919000D01*
X101550928Y-137951000D01*
X101563188Y-138075482D01*
X101599498Y-138195180D01*
X101658463Y-138305494D01*
X101737815Y-138402185D01*
X101834506Y-138481537D01*
X101878469Y-138505036D01*
X101798618Y-138610185D01*
X101656924Y-138901174D01*
X101599025Y-139092056D01*
X101718164Y-139348000D01*
X103078000Y-139348000D01*
X103078000Y-139328000D01*
X103332000Y-139328000D01*
X103332000Y-139348000D01*
X104691836Y-139348000D01*
X104789835Y-139137470D01*
X107829613Y-139137470D01*
X107870467Y-139407329D01*
X107963183Y-139664032D01*
X108023674Y-139777201D01*
X108262599Y-139842796D01*
X109040395Y-139065000D01*
X109399605Y-139065000D01*
X110177401Y-139842796D01*
X110416326Y-139777201D01*
X110532283Y-139530125D01*
X110597809Y-139265173D01*
X110610387Y-138992530D01*
X110569533Y-138722671D01*
X110476817Y-138465968D01*
X110416326Y-138352799D01*
X110177401Y-138287204D01*
X109399605Y-139065000D01*
X109040395Y-139065000D01*
X108262599Y-138287204D01*
X108023674Y-138352799D01*
X107907717Y-138599875D01*
X107842191Y-138864827D01*
X107829613Y-139137470D01*
X104789835Y-139137470D01*
X104810975Y-139092056D01*
X104753076Y-138901174D01*
X104611382Y-138610185D01*
X104531531Y-138505036D01*
X104575494Y-138481537D01*
X104672185Y-138402185D01*
X104751537Y-138305494D01*
X104810502Y-138195180D01*
X104846812Y-138075482D01*
X104859072Y-137951000D01*
X104859072Y-137695000D01*
X108477070Y-137695000D01*
X108563687Y-137752876D01*
X108661696Y-137793473D01*
X108620968Y-137808183D01*
X108507799Y-137868674D01*
X108442204Y-138107599D01*
X109220000Y-138885395D01*
X109997796Y-138107599D01*
X109932201Y-137868674D01*
X109774937Y-137794867D01*
X109876313Y-137752876D01*
X110103249Y-137601242D01*
X110296242Y-137408249D01*
X110447876Y-137181313D01*
X110552323Y-136929156D01*
X110605570Y-136661467D01*
X110605570Y-136388533D01*
X110552323Y-136120844D01*
X110447876Y-135868687D01*
X110296242Y-135641751D01*
X110103249Y-135448758D01*
X109876313Y-135297124D01*
X109624156Y-135192677D01*
X109356467Y-135139430D01*
X109083533Y-135139430D01*
X108815844Y-135192677D01*
X108563687Y-135297124D01*
X108336751Y-135448758D01*
X108143758Y-135641751D01*
X107992124Y-135868687D01*
X107887677Y-136120844D01*
X107876905Y-136175000D01*
X104859072Y-136175000D01*
X104859072Y-135919000D01*
X104846812Y-135794518D01*
X104810502Y-135674820D01*
X104751537Y-135564506D01*
X104672185Y-135467815D01*
X104575494Y-135388463D01*
X104465180Y-135329498D01*
X104345482Y-135293188D01*
X104221000Y-135280928D01*
X102189000Y-135280928D01*
X102064518Y-135293188D01*
X101944820Y-135329498D01*
X101834506Y-135388463D01*
X101737815Y-135467815D01*
X101658463Y-135564506D01*
X101599498Y-135674820D01*
X101563188Y-135794518D01*
X101550928Y-135919000D01*
X100710000Y-135919000D01*
X100710000Y-135035721D01*
X100737907Y-134751101D01*
X100810484Y-134510715D01*
X100928368Y-134289009D01*
X101087068Y-134094423D01*
X101280545Y-133934365D01*
X101501424Y-133814936D01*
X101741297Y-133740683D01*
X102033231Y-133710000D01*
X137965279Y-133710000D01*
X138249899Y-133737907D01*
G36*
X128147000Y-166878000D02*
G01*
X128167000Y-166878000D01*
X128167000Y-167132000D01*
X128147000Y-167132000D01*
X128147000Y-167152000D01*
X127893000Y-167152000D01*
X127893000Y-167132000D01*
X127873000Y-167132000D01*
X127873000Y-166878000D01*
X127893000Y-166878000D01*
X127893000Y-166858000D01*
X128147000Y-166858000D01*
X128147000Y-166878000D01*
X128147000Y-166878000D01*
G37*
X128147000Y-166878000D02*
X128167000Y-166878000D01*
X128167000Y-167132000D01*
X128147000Y-167132000D01*
X128147000Y-167152000D01*
X127893000Y-167152000D01*
X127893000Y-167132000D01*
X127873000Y-167132000D01*
X127873000Y-166878000D01*
X127893000Y-166878000D01*
X127893000Y-166858000D01*
X128147000Y-166858000D01*
X128147000Y-166878000D01*
G36*
X104902000Y-154813000D02*
G01*
X104922000Y-154813000D01*
X104922000Y-155067000D01*
X104902000Y-155067000D01*
X104902000Y-157353000D01*
X104922000Y-157353000D01*
X104922000Y-157607000D01*
X104902000Y-157607000D01*
X104902000Y-157627000D01*
X104648000Y-157627000D01*
X104648000Y-157607000D01*
X104628000Y-157607000D01*
X104628000Y-157353000D01*
X104648000Y-157353000D01*
X104648000Y-155067000D01*
X104628000Y-155067000D01*
X104628000Y-154813000D01*
X104648000Y-154813000D01*
X104648000Y-154793000D01*
X104902000Y-154793000D01*
X104902000Y-154813000D01*
X104902000Y-154813000D01*
G37*
X104902000Y-154813000D02*
X104922000Y-154813000D01*
X104922000Y-155067000D01*
X104902000Y-155067000D01*
X104902000Y-157353000D01*
X104922000Y-157353000D01*
X104922000Y-157607000D01*
X104902000Y-157607000D01*
X104902000Y-157627000D01*
X104648000Y-157627000D01*
X104648000Y-157607000D01*
X104628000Y-157607000D01*
X104628000Y-157353000D01*
X104648000Y-157353000D01*
X104648000Y-155067000D01*
X104628000Y-155067000D01*
X104628000Y-154813000D01*
X104648000Y-154813000D01*
X104648000Y-154793000D01*
X104902000Y-154793000D01*
X104902000Y-154813000D01*
M02*
