G04 #@! TF.GenerationSoftware,KiCad,Pcbnew,(5.0.0)*
G04 #@! TF.CreationDate,2019-04-22T16:32:08+09:00*
G04 #@! TF.ProjectId,USBi_Programmer,555342695F50726F6772616D6D65722E,rev?*
G04 #@! TF.SameCoordinates,Original*
G04 #@! TF.FileFunction,Copper,L2,Bot,Signal*
G04 #@! TF.FilePolarity,Positive*
%FSLAX46Y46*%
G04 Gerber Fmt 4.6, Leading zero omitted, Abs format (unit mm)*
G04 Created by KiCad (PCBNEW (5.0.0)) date 04/22/19 16:32:08*
%MOMM*%
%LPD*%
G01*
G04 APERTURE LIST*
G04 #@! TA.AperFunction,NonConductor*
%ADD10C,0.300000*%
G04 #@! TD*
G04 #@! TA.AperFunction,ComponentPad*
%ADD11O,1.500000X0.900000*%
G04 #@! TD*
G04 #@! TA.AperFunction,ComponentPad*
%ADD12R,1.500000X0.900000*%
G04 #@! TD*
G04 #@! TA.AperFunction,ComponentPad*
%ADD13C,1.501140*%
G04 #@! TD*
G04 #@! TA.AperFunction,ComponentPad*
%ADD14R,2.000000X2.000000*%
G04 #@! TD*
G04 #@! TA.AperFunction,ComponentPad*
%ADD15C,2.000000*%
G04 #@! TD*
G04 #@! TA.AperFunction,ComponentPad*
%ADD16O,1.727200X1.727200*%
G04 #@! TD*
G04 #@! TA.AperFunction,ComponentPad*
%ADD17R,1.727200X1.727200*%
G04 #@! TD*
G04 #@! TA.AperFunction,ComponentPad*
%ADD18R,2.032000X2.032000*%
G04 #@! TD*
G04 #@! TA.AperFunction,ComponentPad*
%ADD19O,2.032000X2.032000*%
G04 #@! TD*
G04 #@! TA.AperFunction,ComponentPad*
%ADD20O,1.400000X1.400000*%
G04 #@! TD*
G04 #@! TA.AperFunction,ComponentPad*
%ADD21C,1.400000*%
G04 #@! TD*
G04 #@! TA.AperFunction,ViaPad*
%ADD22C,0.800000*%
G04 #@! TD*
G04 #@! TA.AperFunction,Conductor*
%ADD23C,0.250000*%
G04 #@! TD*
G04 #@! TA.AperFunction,Conductor*
%ADD24C,0.254000*%
G04 #@! TD*
G04 APERTURE END LIST*
D10*
X108565000Y-170961857D02*
X108350714Y-171033285D01*
X108279285Y-171104714D01*
X108207857Y-171247571D01*
X108207857Y-171461857D01*
X108279285Y-171604714D01*
X108350714Y-171676142D01*
X108493571Y-171747571D01*
X109065000Y-171747571D01*
X109065000Y-170247571D01*
X108565000Y-170247571D01*
X108422142Y-170319000D01*
X108350714Y-170390428D01*
X108279285Y-170533285D01*
X108279285Y-170676142D01*
X108350714Y-170819000D01*
X108422142Y-170890428D01*
X108565000Y-170961857D01*
X109065000Y-170961857D01*
X107279285Y-170247571D02*
X106993571Y-170247571D01*
X106850714Y-170319000D01*
X106707857Y-170461857D01*
X106636428Y-170747571D01*
X106636428Y-171247571D01*
X106707857Y-171533285D01*
X106850714Y-171676142D01*
X106993571Y-171747571D01*
X107279285Y-171747571D01*
X107422142Y-171676142D01*
X107565000Y-171533285D01*
X107636428Y-171247571D01*
X107636428Y-170747571D01*
X107565000Y-170461857D01*
X107422142Y-170319000D01*
X107279285Y-170247571D01*
X106207857Y-170247571D02*
X105350714Y-170247571D01*
X105779285Y-171747571D02*
X105779285Y-170247571D01*
D11*
G04 #@! TO.P,Q1,2*
G04 #@! TO.N,USB_PWR_ON*
X124206000Y-161798000D03*
G04 #@! TO.P,Q1,3*
G04 #@! TO.N,Net-(P2-Pad1)*
X124206000Y-160528000D03*
D12*
G04 #@! TO.P,Q1,1*
G04 #@! TO.N,SCL*
X124206000Y-163068000D03*
G04 #@! TD*
D13*
G04 #@! TO.P,C1,2*
G04 #@! TO.N,GND*
X109220000Y-139065000D03*
G04 #@! TO.P,C1,1*
G04 #@! TO.N,+5VD*
X109220000Y-136525000D03*
G04 #@! TD*
D14*
G04 #@! TO.P,D1,1*
G04 #@! TO.N,Net-(D1-Pad1)*
X129779000Y-137811000D03*
D15*
G04 #@! TO.P,D1,2*
G04 #@! TO.N,+3V3*
X127239000Y-137811000D03*
G04 #@! TD*
D14*
G04 #@! TO.P,D2,1*
G04 #@! TO.N,Net-(D2-Pad1)*
X123739000Y-137811000D03*
D15*
G04 #@! TO.P,D2,2*
G04 #@! TO.N,+3V3*
X121199000Y-137811000D03*
G04 #@! TD*
D14*
G04 #@! TO.P,D3,1*
G04 #@! TO.N,Net-(D3-Pad1)*
X117739000Y-137811000D03*
D15*
G04 #@! TO.P,D3,2*
G04 #@! TO.N,+3V3*
X115199000Y-137811000D03*
G04 #@! TD*
D14*
G04 #@! TO.P,D4,1*
G04 #@! TO.N,Net-(D4-Pad1)*
X135739000Y-137811000D03*
D15*
G04 #@! TO.P,D4,2*
G04 #@! TO.N,+3V3*
X133199000Y-137811000D03*
G04 #@! TD*
D13*
G04 #@! TO.P,C2,2*
G04 #@! TO.N,GND*
X115062000Y-165862000D03*
G04 #@! TO.P,C2,1*
G04 #@! TO.N,+3V3*
X112522000Y-165862000D03*
G04 #@! TD*
D16*
G04 #@! TO.P,P1,20*
G04 #@! TO.N,+3V3*
X107315000Y-167640000D03*
G04 #@! TO.P,P1,19*
G04 #@! TO.N,N/C*
X104775000Y-167640000D03*
G04 #@! TO.P,P1,18*
G04 #@! TO.N,LED_3*
X107315000Y-165100000D03*
G04 #@! TO.P,P1,17*
G04 #@! TO.N,LED_2*
X104775000Y-165100000D03*
G04 #@! TO.P,P1,16*
G04 #@! TO.N,LED_1*
X107315000Y-162560000D03*
G04 #@! TO.P,P1,15*
G04 #@! TO.N,Net-(P1-Pad15)*
X104775000Y-162560000D03*
G04 #@! TO.P,P1,14*
G04 #@! TO.N,SDA*
X107315000Y-160020000D03*
G04 #@! TO.P,P1,13*
G04 #@! TO.N,SCL*
X104775000Y-160020000D03*
G04 #@! TO.P,P1,12*
G04 #@! TO.N,N/C*
X107315000Y-157480000D03*
G04 #@! TO.P,P1,11*
G04 #@! TO.N,GND*
X104775000Y-157480000D03*
G04 #@! TO.P,P1,10*
G04 #@! TO.N,N/C*
X107315000Y-154940000D03*
G04 #@! TO.P,P1,9*
G04 #@! TO.N,GND*
X104775000Y-154940000D03*
G04 #@! TO.P,P1,8*
G04 #@! TO.N,N/C*
X107315000Y-152400000D03*
G04 #@! TO.P,P1,7*
X104775000Y-152400000D03*
G04 #@! TO.P,P1,6*
G04 #@! TO.N,GND*
X107315000Y-149860000D03*
G04 #@! TO.P,P1,5*
G04 #@! TO.N,Net-(P1-Pad5)*
X104775000Y-149860000D03*
G04 #@! TO.P,P1,4*
G04 #@! TO.N,GND*
X107315000Y-147320000D03*
G04 #@! TO.P,P1,3*
G04 #@! TO.N,N/C*
X104775000Y-147320000D03*
G04 #@! TO.P,P1,2*
X107315000Y-144780000D03*
D17*
G04 #@! TO.P,P1,1*
X104775000Y-144780000D03*
G04 #@! TD*
G04 #@! TO.P,P2,1*
G04 #@! TO.N,Net-(P2-Pad1)*
X115062000Y-175768000D03*
D16*
G04 #@! TO.P,P2,2*
G04 #@! TO.N,USB_CLK*
X115062000Y-173228000D03*
G04 #@! TO.P,P2,3*
G04 #@! TO.N,Net-(P2-Pad3)*
X117602000Y-175768000D03*
G04 #@! TO.P,P2,4*
G04 #@! TO.N,+5VD*
X117602000Y-173228000D03*
G04 #@! TO.P,P2,5*
G04 #@! TO.N,COUT*
X120142000Y-175768000D03*
G04 #@! TO.P,P2,6*
G04 #@! TO.N,BRD_~RESET*
X120142000Y-173228000D03*
G04 #@! TO.P,P2,7*
G04 #@! TO.N,CCLK*
X122682000Y-175768000D03*
G04 #@! TO.P,P2,8*
G04 #@! TO.N,CDATA*
X122682000Y-173228000D03*
G04 #@! TO.P,P2,9*
G04 #@! TO.N,~CLATCH1*
X125222000Y-175768000D03*
G04 #@! TO.P,P2,10*
G04 #@! TO.N,GND*
X125222000Y-173228000D03*
G04 #@! TD*
D18*
G04 #@! TO.P,P3,1*
G04 #@! TO.N,+5VD*
X103205000Y-136935000D03*
D19*
G04 #@! TO.P,P3,2*
G04 #@! TO.N,GND*
X103205000Y-139475000D03*
G04 #@! TD*
D17*
G04 #@! TO.P,P4,1*
G04 #@! TO.N,N/C*
X132715000Y-144780000D03*
D16*
G04 #@! TO.P,P4,2*
X135255000Y-144780000D03*
G04 #@! TO.P,P4,3*
X132715000Y-147320000D03*
G04 #@! TO.P,P4,4*
X135255000Y-147320000D03*
G04 #@! TO.P,P4,5*
X132715000Y-149860000D03*
G04 #@! TO.P,P4,6*
G04 #@! TO.N,CCLK*
X135255000Y-149860000D03*
G04 #@! TO.P,P4,7*
G04 #@! TO.N,N/C*
X132715000Y-152400000D03*
G04 #@! TO.P,P4,8*
X135255000Y-152400000D03*
G04 #@! TO.P,P4,9*
X132715000Y-154940000D03*
G04 #@! TO.P,P4,10*
X135255000Y-154940000D03*
G04 #@! TO.P,P4,11*
G04 #@! TO.N,~CLATCH1*
X132715000Y-157480000D03*
G04 #@! TO.P,P4,12*
G04 #@! TO.N,COUT*
X135255000Y-157480000D03*
G04 #@! TO.P,P4,13*
G04 #@! TO.N,CDATA*
X132715000Y-160020000D03*
G04 #@! TO.P,P4,14*
G04 #@! TO.N,N/C*
X135255000Y-160020000D03*
G04 #@! TO.P,P4,15*
X132715000Y-162560000D03*
G04 #@! TO.P,P4,16*
X135255000Y-162560000D03*
G04 #@! TO.P,P4,17*
X132715000Y-165100000D03*
G04 #@! TO.P,P4,18*
X135255000Y-165100000D03*
G04 #@! TO.P,P4,19*
X132715000Y-167640000D03*
G04 #@! TO.P,P4,20*
G04 #@! TO.N,USB_PWR_ON*
X135255000Y-167640000D03*
G04 #@! TD*
D20*
G04 #@! TO.P,R1,2*
G04 #@! TO.N,USB_CLK*
X111760000Y-150495000D03*
D21*
G04 #@! TO.P,R1,1*
G04 #@! TO.N,Net-(P1-Pad5)*
X111760000Y-142875000D03*
G04 #@! TD*
G04 #@! TO.P,R2,1*
G04 #@! TO.N,Net-(P1-Pad15)*
X111887000Y-161370000D03*
D20*
G04 #@! TO.P,R2,2*
G04 #@! TO.N,BRD_~RESET*
X119507000Y-161370000D03*
G04 #@! TD*
D21*
G04 #@! TO.P,R3,1*
G04 #@! TO.N,SCL*
X112149000Y-153797000D03*
D20*
G04 #@! TO.P,R3,2*
G04 #@! TO.N,USB_PWR_ON*
X119769000Y-153797000D03*
G04 #@! TD*
G04 #@! TO.P,R4,2*
G04 #@! TO.N,SDA*
X112171000Y-157622000D03*
D21*
G04 #@! TO.P,R4,1*
G04 #@! TO.N,USB_PWR_ON*
X119791000Y-157622000D03*
G04 #@! TD*
D20*
G04 #@! TO.P,R5,2*
G04 #@! TO.N,LED_1*
X120487000Y-150444000D03*
D21*
G04 #@! TO.P,R5,1*
G04 #@! TO.N,Net-(D1-Pad1)*
X120487000Y-142824000D03*
G04 #@! TD*
D20*
G04 #@! TO.P,R6,2*
G04 #@! TO.N,LED_2*
X116784000Y-150340000D03*
D21*
G04 #@! TO.P,R6,1*
G04 #@! TO.N,Net-(D2-Pad1)*
X116784000Y-142720000D03*
G04 #@! TD*
G04 #@! TO.P,R7,1*
G04 #@! TO.N,Net-(D3-Pad1)*
X124841000Y-142875000D03*
D20*
G04 #@! TO.P,R7,2*
G04 #@! TO.N,LED_3*
X124841000Y-150495000D03*
G04 #@! TD*
D21*
G04 #@! TO.P,R8,1*
G04 #@! TO.N,GND*
X121539000Y-167132000D03*
D20*
G04 #@! TO.P,R8,2*
G04 #@! TO.N,USB_PWR_ON*
X129159000Y-167132000D03*
G04 #@! TD*
G04 #@! TO.P,R9,2*
G04 #@! TO.N,GND*
X128735000Y-150495000D03*
D21*
G04 #@! TO.P,R9,1*
G04 #@! TO.N,Net-(D4-Pad1)*
X128735000Y-142875000D03*
G04 #@! TD*
D12*
G04 #@! TO.P,Q2,1*
G04 #@! TO.N,SDA*
X123444000Y-154432000D03*
D11*
G04 #@! TO.P,Q2,3*
G04 #@! TO.N,Net-(P2-Pad3)*
X123444000Y-156972000D03*
G04 #@! TO.P,Q2,2*
G04 #@! TO.N,USB_PWR_ON*
X123444000Y-155702000D03*
G04 #@! TD*
D22*
G04 #@! TO.N,COUT*
X137922000Y-158369000D03*
G04 #@! TD*
D23*
G04 #@! TO.N,+5VD*
X103205000Y-136935000D02*
X108810000Y-136935000D01*
X108810000Y-136935000D02*
X109220000Y-136525000D01*
G04 #@! TO.N,Net-(D1-Pad1)*
X120487000Y-142824000D02*
X123132000Y-140179000D01*
X123132000Y-140179000D02*
X127411000Y-140179000D01*
X127411000Y-140179000D02*
X129779000Y-137811000D01*
G04 #@! TO.N,+3V3*
X127239000Y-137811000D02*
X125913600Y-136485600D01*
X125913600Y-136485600D02*
X122524400Y-136485600D01*
X122524400Y-136485600D02*
X121199000Y-137811000D01*
X133199000Y-137811000D02*
X131873600Y-136485600D01*
X131873600Y-136485600D02*
X128564400Y-136485600D01*
X128564400Y-136485600D02*
X127239000Y-137811000D01*
X115199000Y-137811000D02*
X116524400Y-136485600D01*
X116524400Y-136485600D02*
X119873600Y-136485600D01*
X119873600Y-136485600D02*
X121199000Y-137811000D01*
X107315000Y-167640000D02*
X110744000Y-167640000D01*
X110744000Y-167640000D02*
X112522000Y-165862000D01*
G04 #@! TO.N,Net-(D2-Pad1)*
X116784000Y-142720000D02*
X118830000Y-142720000D01*
X118830000Y-142720000D02*
X123739000Y-137811000D01*
G04 #@! TO.N,Net-(D4-Pad1)*
X128735000Y-142875000D02*
X130675000Y-142875000D01*
X130675000Y-142875000D02*
X135739000Y-137811000D01*
G04 #@! TO.N,SCL*
X105029000Y-160020000D02*
X104775000Y-160020000D01*
X106299000Y-158750000D02*
X105029000Y-160020000D01*
X107753300Y-158750000D02*
X106299000Y-158750000D01*
X112149000Y-153797000D02*
X112149000Y-154354300D01*
X112149000Y-154354300D02*
X107753300Y-158750000D01*
G04 #@! TO.N,SDA*
X112171000Y-157622000D02*
X112171000Y-156596700D01*
X123444000Y-154432000D02*
X123444000Y-151892000D01*
X123444000Y-151892000D02*
X120962600Y-149410600D01*
X120962600Y-149410600D02*
X119357100Y-149410600D01*
X119357100Y-149410600D02*
X112171000Y-156596700D01*
X107315000Y-160020000D02*
X108503900Y-160020000D01*
X112171000Y-157622000D02*
X110901900Y-157622000D01*
X110901900Y-157622000D02*
X108503900Y-160020000D01*
G04 #@! TO.N,Net-(P1-Pad15)*
X106045000Y-161290000D02*
X104775000Y-162560000D01*
X111887000Y-161370000D02*
X111807000Y-161290000D01*
X111807000Y-161290000D02*
X106045000Y-161290000D01*
G04 #@! TO.N,LED_1*
X112395000Y-162560000D02*
X107315000Y-162560000D01*
X114070400Y-160884600D02*
X112395000Y-162560000D01*
X114070400Y-157885900D02*
X114070400Y-160884600D01*
X120487000Y-150444000D02*
X120487000Y-151469300D01*
X120487000Y-151469300D02*
X114070400Y-157885900D01*
G04 #@! TO.N,LED_2*
X114079100Y-150340000D02*
X116784000Y-150340000D01*
X104140000Y-165100000D02*
X103378000Y-164338000D01*
X104775000Y-165100000D02*
X104140000Y-165100000D01*
X103378000Y-164338000D02*
X103378000Y-156718000D01*
X103378000Y-156718000D02*
X103886000Y-156210000D01*
X103886000Y-156210000D02*
X108209100Y-156210000D01*
X108209100Y-156210000D02*
X114079100Y-150340000D01*
G04 #@! TO.N,LED_3*
X124841000Y-157492800D02*
X124841000Y-150495000D01*
X108503900Y-165100000D02*
X109692800Y-163911100D01*
X107315000Y-165100000D02*
X108503900Y-165100000D01*
X109692800Y-163911100D02*
X113583900Y-163911100D01*
X113583900Y-163911100D02*
X118364000Y-159131000D01*
X118364000Y-159131000D02*
X123202800Y-159131000D01*
X123202800Y-159131000D02*
X124841000Y-157492800D01*
G04 #@! TO.N,Net-(P2-Pad1)*
X122554854Y-159952154D02*
X123130700Y-160528000D01*
X119193846Y-159952154D02*
X122554854Y-159952154D01*
X113792000Y-165354000D02*
X119193846Y-159952154D01*
X123130700Y-160528000D02*
X124206000Y-160528000D01*
X113792000Y-166624000D02*
X113792000Y-165354000D01*
X113948400Y-175768000D02*
X113411000Y-175230600D01*
X113411000Y-175230600D02*
X113411000Y-171450000D01*
X115062000Y-175768000D02*
X113948400Y-175768000D01*
X113411000Y-171450000D02*
X113597571Y-171263429D01*
X113597571Y-171263429D02*
X113597571Y-166818429D01*
X113597571Y-166818429D02*
X113792000Y-166624000D01*
G04 #@! TO.N,COUT*
X137033000Y-157480000D02*
X135001000Y-157480000D01*
X137922000Y-158369000D02*
X137033000Y-157480000D01*
G04 #@! TO.N,USB_PWR_ON*
X121711000Y-155702000D02*
X119791000Y-157622000D01*
X123444000Y-155702000D02*
X121711000Y-155702000D01*
X121711000Y-155702000D02*
X120794300Y-154785300D01*
X120794300Y-154785300D02*
X120794300Y-153797000D01*
X119769000Y-153797000D02*
X120794300Y-153797000D01*
X133223000Y-169418000D02*
X135001000Y-167640000D01*
X131064000Y-169291000D02*
X131064000Y-169418000D01*
X131064000Y-169418000D02*
X133223000Y-169418000D01*
X130302000Y-166370000D02*
X130302000Y-168529000D01*
X130302000Y-168529000D02*
X131064000Y-169291000D01*
X129159000Y-165227000D02*
X130302000Y-166370000D01*
X130239999Y-166432001D02*
X130302000Y-166370000D01*
X129858999Y-166432001D02*
X130239999Y-166432001D01*
X129159000Y-167132000D02*
X129858999Y-166432001D01*
X128635000Y-165227000D02*
X129159000Y-165227000D01*
X125206000Y-161798000D02*
X128635000Y-165227000D01*
X124206000Y-161798000D02*
X125206000Y-161798000D01*
G04 #@! TD*
D24*
G04 #@! TO.N,GND*
G36*
X138360027Y-133768803D02*
X138691110Y-133919338D01*
X138966639Y-134156749D01*
X139164456Y-134461944D01*
X139275700Y-134833917D01*
X139290001Y-135026362D01*
X139290000Y-177949420D01*
X139231197Y-178360027D01*
X139080661Y-178691112D01*
X138843251Y-178966639D01*
X138538056Y-179164456D01*
X138166083Y-179275700D01*
X137973652Y-179290000D01*
X102050580Y-179290000D01*
X101639973Y-179231197D01*
X101308888Y-179080661D01*
X101033361Y-178843251D01*
X100835544Y-178538056D01*
X100724300Y-178166083D01*
X100710000Y-177973652D01*
X100710000Y-176035703D01*
X101274000Y-176035703D01*
X101274000Y-177024297D01*
X101652319Y-177937639D01*
X102351361Y-178636681D01*
X103264703Y-179015000D01*
X104253297Y-179015000D01*
X105166639Y-178636681D01*
X105865681Y-177937639D01*
X106244000Y-177024297D01*
X106244000Y-176035703D01*
X105865681Y-175122361D01*
X105166639Y-174423319D01*
X104253297Y-174045000D01*
X103264703Y-174045000D01*
X102351361Y-174423319D01*
X101652319Y-175122361D01*
X101274000Y-176035703D01*
X100710000Y-176035703D01*
X100710000Y-169279000D01*
X104422857Y-169279000D01*
X104422857Y-173099000D01*
X110207143Y-173099000D01*
X110207143Y-169279000D01*
X104422857Y-169279000D01*
X100710000Y-169279000D01*
X100710000Y-156718000D01*
X102603112Y-156718000D01*
X102618001Y-156792852D01*
X102618000Y-164263153D01*
X102603112Y-164338000D01*
X102618000Y-164412847D01*
X102618000Y-164412851D01*
X102662096Y-164634536D01*
X102830071Y-164885929D01*
X102893530Y-164928331D01*
X103292193Y-165326995D01*
X103363350Y-165684725D01*
X103694570Y-166180430D01*
X103978281Y-166370000D01*
X103694570Y-166559570D01*
X103363350Y-167055275D01*
X103247041Y-167640000D01*
X103363350Y-168224725D01*
X103694570Y-168720430D01*
X104190275Y-169051650D01*
X104627402Y-169138600D01*
X104922598Y-169138600D01*
X105359725Y-169051650D01*
X105855430Y-168720430D01*
X106045000Y-168436719D01*
X106234570Y-168720430D01*
X106730275Y-169051650D01*
X107167402Y-169138600D01*
X107462598Y-169138600D01*
X107899725Y-169051650D01*
X108395430Y-168720430D01*
X108609535Y-168400000D01*
X110669153Y-168400000D01*
X110744000Y-168414888D01*
X110818847Y-168400000D01*
X110818852Y-168400000D01*
X111040537Y-168355904D01*
X111291929Y-168187929D01*
X111334331Y-168124470D01*
X112221530Y-167237271D01*
X112246393Y-167247570D01*
X112797607Y-167247570D01*
X112837572Y-167231016D01*
X112837571Y-170940236D01*
X112820672Y-170965527D01*
X112820671Y-170965528D01*
X112695097Y-171153463D01*
X112636112Y-171450000D01*
X112651001Y-171524852D01*
X112651000Y-175155753D01*
X112636112Y-175230600D01*
X112651000Y-175305447D01*
X112651000Y-175305451D01*
X112695096Y-175527136D01*
X112863071Y-175778529D01*
X112926529Y-175820930D01*
X113358072Y-176252475D01*
X113400471Y-176315929D01*
X113463924Y-176358327D01*
X113463926Y-176358329D01*
X113550960Y-176416483D01*
X113550960Y-176631600D01*
X113600243Y-176879365D01*
X113740591Y-177089409D01*
X113950635Y-177229757D01*
X114198400Y-177279040D01*
X115925600Y-177279040D01*
X116173365Y-177229757D01*
X116383409Y-177089409D01*
X116523757Y-176879365D01*
X116528932Y-176853349D01*
X117017275Y-177179650D01*
X117454402Y-177266600D01*
X117749598Y-177266600D01*
X118186725Y-177179650D01*
X118682430Y-176848430D01*
X118872000Y-176564719D01*
X119061570Y-176848430D01*
X119557275Y-177179650D01*
X119994402Y-177266600D01*
X120289598Y-177266600D01*
X120726725Y-177179650D01*
X121222430Y-176848430D01*
X121412000Y-176564719D01*
X121601570Y-176848430D01*
X122097275Y-177179650D01*
X122534402Y-177266600D01*
X122829598Y-177266600D01*
X123266725Y-177179650D01*
X123762430Y-176848430D01*
X123952000Y-176564719D01*
X124141570Y-176848430D01*
X124637275Y-177179650D01*
X125074402Y-177266600D01*
X125369598Y-177266600D01*
X125806725Y-177179650D01*
X126302430Y-176848430D01*
X126633650Y-176352725D01*
X126696709Y-176035703D01*
X133786000Y-176035703D01*
X133786000Y-177024297D01*
X134164319Y-177937639D01*
X134863361Y-178636681D01*
X135776703Y-179015000D01*
X136765297Y-179015000D01*
X137678639Y-178636681D01*
X138377681Y-177937639D01*
X138756000Y-177024297D01*
X138756000Y-176035703D01*
X138377681Y-175122361D01*
X137678639Y-174423319D01*
X136765297Y-174045000D01*
X135776703Y-174045000D01*
X134863361Y-174423319D01*
X134164319Y-175122361D01*
X133786000Y-176035703D01*
X126696709Y-176035703D01*
X126749959Y-175768000D01*
X126633650Y-175183275D01*
X126302430Y-174687570D01*
X126014174Y-174494963D01*
X126428821Y-174116490D01*
X126676968Y-173587027D01*
X126556469Y-173355000D01*
X125349000Y-173355000D01*
X125349000Y-173375000D01*
X125095000Y-173375000D01*
X125095000Y-173355000D01*
X125075000Y-173355000D01*
X125075000Y-173101000D01*
X125095000Y-173101000D01*
X125095000Y-171894183D01*
X125349000Y-171894183D01*
X125349000Y-173101000D01*
X126556469Y-173101000D01*
X126676968Y-172868973D01*
X126428821Y-172339510D01*
X125996947Y-171945312D01*
X125581026Y-171773042D01*
X125349000Y-171894183D01*
X125095000Y-171894183D01*
X124862974Y-171773042D01*
X124447053Y-171945312D01*
X124015179Y-172339510D01*
X123963854Y-172449021D01*
X123762430Y-172147570D01*
X123266725Y-171816350D01*
X122829598Y-171729400D01*
X122534402Y-171729400D01*
X122097275Y-171816350D01*
X121601570Y-172147570D01*
X121412000Y-172431281D01*
X121222430Y-172147570D01*
X120726725Y-171816350D01*
X120289598Y-171729400D01*
X119994402Y-171729400D01*
X119557275Y-171816350D01*
X119061570Y-172147570D01*
X118872000Y-172431281D01*
X118682430Y-172147570D01*
X118186725Y-171816350D01*
X117749598Y-171729400D01*
X117454402Y-171729400D01*
X117017275Y-171816350D01*
X116521570Y-172147570D01*
X116332000Y-172431281D01*
X116142430Y-172147570D01*
X115646725Y-171816350D01*
X115209598Y-171729400D01*
X114914402Y-171729400D01*
X114477275Y-171816350D01*
X114171000Y-172020997D01*
X114171000Y-171773195D01*
X114313475Y-171559966D01*
X114357571Y-171338281D01*
X114357571Y-171338277D01*
X114372459Y-171263430D01*
X114357571Y-171188583D01*
X114357571Y-168067275D01*
X120783331Y-168067275D01*
X120845169Y-168303042D01*
X121346122Y-168479419D01*
X121876440Y-168450664D01*
X122232831Y-168303042D01*
X122294669Y-168067275D01*
X121539000Y-167311605D01*
X120783331Y-168067275D01*
X114357571Y-168067275D01*
X114357571Y-167145526D01*
X114391867Y-167094198D01*
X114857034Y-167259767D01*
X115407538Y-167231805D01*
X115786265Y-167074931D01*
X115824618Y-166939122D01*
X120191581Y-166939122D01*
X120220336Y-167469440D01*
X120367958Y-167825831D01*
X120603725Y-167887669D01*
X121359395Y-167132000D01*
X121718605Y-167132000D01*
X122474275Y-167887669D01*
X122710042Y-167825831D01*
X122886419Y-167324878D01*
X122857664Y-166794560D01*
X122710042Y-166438169D01*
X122474275Y-166376331D01*
X121718605Y-167132000D01*
X121359395Y-167132000D01*
X120603725Y-166376331D01*
X120367958Y-166438169D01*
X120191581Y-166939122D01*
X115824618Y-166939122D01*
X115854325Y-166833930D01*
X115062000Y-166041605D01*
X115047858Y-166055748D01*
X114868253Y-165876143D01*
X114882395Y-165862000D01*
X115241605Y-165862000D01*
X116033930Y-166654325D01*
X116274931Y-166586265D01*
X116413581Y-166196725D01*
X120783331Y-166196725D01*
X121539000Y-166952395D01*
X122294669Y-166196725D01*
X122232831Y-165960958D01*
X121731878Y-165784581D01*
X121201560Y-165813336D01*
X120845169Y-165960958D01*
X120783331Y-166196725D01*
X116413581Y-166196725D01*
X116459767Y-166066966D01*
X116431805Y-165516462D01*
X116274931Y-165137735D01*
X116033930Y-165069675D01*
X115241605Y-165862000D01*
X114882395Y-165862000D01*
X114868253Y-165847858D01*
X115047858Y-165668253D01*
X115062000Y-165682395D01*
X115854325Y-164890070D01*
X115786265Y-164649069D01*
X115628047Y-164592754D01*
X118281683Y-161939119D01*
X118544519Y-162332481D01*
X118986109Y-162627542D01*
X119375515Y-162705000D01*
X119638485Y-162705000D01*
X120027891Y-162627542D01*
X120469481Y-162332481D01*
X120764542Y-161890891D01*
X120868154Y-161370000D01*
X120764542Y-160849109D01*
X120673032Y-160712154D01*
X122240053Y-160712154D01*
X122540371Y-161012473D01*
X122582771Y-161075929D01*
X122834163Y-161243904D01*
X122955227Y-161267985D01*
X122883953Y-161374654D01*
X122799744Y-161798000D01*
X122883953Y-162221346D01*
X122920640Y-162276253D01*
X122857843Y-162370235D01*
X122808560Y-162618000D01*
X122808560Y-163518000D01*
X122857843Y-163765765D01*
X122998191Y-163975809D01*
X123208235Y-164116157D01*
X123456000Y-164165440D01*
X124956000Y-164165440D01*
X125203765Y-164116157D01*
X125413809Y-163975809D01*
X125554157Y-163765765D01*
X125603440Y-163518000D01*
X125603440Y-163270242D01*
X128044673Y-165711476D01*
X128087071Y-165774929D01*
X128150524Y-165817327D01*
X128150526Y-165817329D01*
X128236026Y-165874458D01*
X128338463Y-165942904D01*
X128490432Y-165973133D01*
X128196519Y-166169519D01*
X127901458Y-166611109D01*
X127797846Y-167132000D01*
X127901458Y-167652891D01*
X128196519Y-168094481D01*
X128638109Y-168389542D01*
X129027515Y-168467000D01*
X129290485Y-168467000D01*
X129542001Y-168416970D01*
X129542001Y-168454148D01*
X129527112Y-168529000D01*
X129586097Y-168825537D01*
X129698971Y-168994464D01*
X129754072Y-169076929D01*
X129817528Y-169119329D01*
X130332046Y-169633848D01*
X130348096Y-169714537D01*
X130516071Y-169965929D01*
X130767463Y-170133904D01*
X130989148Y-170178000D01*
X131064000Y-170192889D01*
X131138852Y-170178000D01*
X133148153Y-170178000D01*
X133223000Y-170192888D01*
X133297847Y-170178000D01*
X133297852Y-170178000D01*
X133519537Y-170133904D01*
X133770929Y-169965929D01*
X133813331Y-169902470D01*
X134666604Y-169049197D01*
X134670275Y-169051650D01*
X135107402Y-169138600D01*
X135402598Y-169138600D01*
X135839725Y-169051650D01*
X136335430Y-168720430D01*
X136666650Y-168224725D01*
X136782959Y-167640000D01*
X136666650Y-167055275D01*
X136335430Y-166559570D01*
X136051719Y-166370000D01*
X136335430Y-166180430D01*
X136666650Y-165684725D01*
X136782959Y-165100000D01*
X136666650Y-164515275D01*
X136335430Y-164019570D01*
X136051719Y-163830000D01*
X136335430Y-163640430D01*
X136666650Y-163144725D01*
X136782959Y-162560000D01*
X136666650Y-161975275D01*
X136335430Y-161479570D01*
X136051719Y-161290000D01*
X136335430Y-161100430D01*
X136666650Y-160604725D01*
X136782959Y-160020000D01*
X136666650Y-159435275D01*
X136335430Y-158939570D01*
X136051719Y-158750000D01*
X136335430Y-158560430D01*
X136549535Y-158240000D01*
X136718199Y-158240000D01*
X136887000Y-158408801D01*
X136887000Y-158574874D01*
X137044569Y-158955280D01*
X137335720Y-159246431D01*
X137716126Y-159404000D01*
X138127874Y-159404000D01*
X138508280Y-159246431D01*
X138799431Y-158955280D01*
X138957000Y-158574874D01*
X138957000Y-158163126D01*
X138799431Y-157782720D01*
X138508280Y-157491569D01*
X138127874Y-157334000D01*
X137961801Y-157334000D01*
X137623331Y-156995530D01*
X137580929Y-156932071D01*
X137329537Y-156764096D01*
X137107852Y-156720000D01*
X137107847Y-156720000D01*
X137033000Y-156705112D01*
X136958153Y-156720000D01*
X136549535Y-156720000D01*
X136335430Y-156399570D01*
X136051719Y-156210000D01*
X136335430Y-156020430D01*
X136666650Y-155524725D01*
X136782959Y-154940000D01*
X136666650Y-154355275D01*
X136335430Y-153859570D01*
X136051719Y-153670000D01*
X136335430Y-153480430D01*
X136666650Y-152984725D01*
X136782959Y-152400000D01*
X136666650Y-151815275D01*
X136335430Y-151319570D01*
X136051719Y-151130000D01*
X136335430Y-150940430D01*
X136666650Y-150444725D01*
X136782959Y-149860000D01*
X136666650Y-149275275D01*
X136335430Y-148779570D01*
X136051719Y-148590000D01*
X136335430Y-148400430D01*
X136666650Y-147904725D01*
X136782959Y-147320000D01*
X136666650Y-146735275D01*
X136335430Y-146239570D01*
X136051719Y-146050000D01*
X136335430Y-145860430D01*
X136666650Y-145364725D01*
X136782959Y-144780000D01*
X136666650Y-144195275D01*
X136335430Y-143699570D01*
X135839725Y-143368350D01*
X135402598Y-143281400D01*
X135107402Y-143281400D01*
X134670275Y-143368350D01*
X134181932Y-143694651D01*
X134176757Y-143668635D01*
X134036409Y-143458591D01*
X133826365Y-143318243D01*
X133578600Y-143268960D01*
X131851400Y-143268960D01*
X131603635Y-143318243D01*
X131393591Y-143458591D01*
X131253243Y-143668635D01*
X131203960Y-143916400D01*
X131203960Y-145643600D01*
X131253243Y-145891365D01*
X131393591Y-146101409D01*
X131603635Y-146241757D01*
X131629651Y-146246932D01*
X131303350Y-146735275D01*
X131187041Y-147320000D01*
X131303350Y-147904725D01*
X131634570Y-148400430D01*
X131918281Y-148590000D01*
X131634570Y-148779570D01*
X131303350Y-149275275D01*
X131187041Y-149860000D01*
X131303350Y-150444725D01*
X131634570Y-150940430D01*
X131918281Y-151130000D01*
X131634570Y-151319570D01*
X131303350Y-151815275D01*
X131187041Y-152400000D01*
X131303350Y-152984725D01*
X131634570Y-153480430D01*
X131918281Y-153670000D01*
X131634570Y-153859570D01*
X131303350Y-154355275D01*
X131187041Y-154940000D01*
X131303350Y-155524725D01*
X131634570Y-156020430D01*
X131918281Y-156210000D01*
X131634570Y-156399570D01*
X131303350Y-156895275D01*
X131187041Y-157480000D01*
X131303350Y-158064725D01*
X131634570Y-158560430D01*
X131918281Y-158750000D01*
X131634570Y-158939570D01*
X131303350Y-159435275D01*
X131187041Y-160020000D01*
X131303350Y-160604725D01*
X131634570Y-161100430D01*
X131918281Y-161290000D01*
X131634570Y-161479570D01*
X131303350Y-161975275D01*
X131187041Y-162560000D01*
X131303350Y-163144725D01*
X131634570Y-163640430D01*
X131918281Y-163830000D01*
X131634570Y-164019570D01*
X131303350Y-164515275D01*
X131187041Y-165100000D01*
X131303350Y-165684725D01*
X131634570Y-166180430D01*
X131918281Y-166370000D01*
X131634570Y-166559570D01*
X131303350Y-167055275D01*
X131187041Y-167640000D01*
X131303350Y-168224725D01*
X131592856Y-168658000D01*
X131505802Y-168658000D01*
X131062000Y-168214199D01*
X131062000Y-166444848D01*
X131076888Y-166370000D01*
X131062000Y-166295152D01*
X131062000Y-166295148D01*
X131017904Y-166073463D01*
X130849929Y-165822071D01*
X130786473Y-165779671D01*
X129749331Y-164742530D01*
X129706929Y-164679071D01*
X129455537Y-164511096D01*
X129233852Y-164467000D01*
X129233847Y-164467000D01*
X129159000Y-164452112D01*
X129084153Y-164467000D01*
X128949803Y-164467000D01*
X125796331Y-161313530D01*
X125753929Y-161250071D01*
X125502537Y-161082096D01*
X125447939Y-161071236D01*
X125528047Y-160951346D01*
X125612256Y-160528000D01*
X125528047Y-160104654D01*
X125288241Y-159745759D01*
X124929346Y-159505953D01*
X124612861Y-159443000D01*
X123965601Y-159443000D01*
X125325473Y-158083129D01*
X125388929Y-158040729D01*
X125470576Y-157918536D01*
X125556904Y-157789338D01*
X125575300Y-157696852D01*
X125601000Y-157567652D01*
X125601000Y-157567648D01*
X125615888Y-157492800D01*
X125601000Y-157417952D01*
X125601000Y-151592774D01*
X125803481Y-151457481D01*
X126098542Y-151015891D01*
X126135850Y-150828331D01*
X127442273Y-150828331D01*
X127668236Y-151297663D01*
X128056604Y-151644797D01*
X128401671Y-151787716D01*
X128608000Y-151664374D01*
X128608000Y-150622000D01*
X128862000Y-150622000D01*
X128862000Y-151664374D01*
X129068329Y-151787716D01*
X129413396Y-151644797D01*
X129801764Y-151297663D01*
X130027727Y-150828331D01*
X129905206Y-150622000D01*
X128862000Y-150622000D01*
X128608000Y-150622000D01*
X127564794Y-150622000D01*
X127442273Y-150828331D01*
X126135850Y-150828331D01*
X126202154Y-150495000D01*
X126135851Y-150161669D01*
X127442273Y-150161669D01*
X127564794Y-150368000D01*
X128608000Y-150368000D01*
X128608000Y-149325626D01*
X128862000Y-149325626D01*
X128862000Y-150368000D01*
X129905206Y-150368000D01*
X130027727Y-150161669D01*
X129801764Y-149692337D01*
X129413396Y-149345203D01*
X129068329Y-149202284D01*
X128862000Y-149325626D01*
X128608000Y-149325626D01*
X128401671Y-149202284D01*
X128056604Y-149345203D01*
X127668236Y-149692337D01*
X127442273Y-150161669D01*
X126135851Y-150161669D01*
X126098542Y-149974109D01*
X125803481Y-149532519D01*
X125361891Y-149237458D01*
X124972485Y-149160000D01*
X124709515Y-149160000D01*
X124320109Y-149237458D01*
X123878519Y-149532519D01*
X123583458Y-149974109D01*
X123479846Y-150495000D01*
X123568750Y-150941948D01*
X121552931Y-148926130D01*
X121510529Y-148862671D01*
X121259137Y-148694696D01*
X121037452Y-148650600D01*
X121037447Y-148650600D01*
X120962600Y-148635712D01*
X120887753Y-148650600D01*
X119431946Y-148650600D01*
X119357099Y-148635712D01*
X119282252Y-148650600D01*
X119282248Y-148650600D01*
X119060563Y-148694696D01*
X118809171Y-148862671D01*
X118766771Y-148926127D01*
X117974350Y-149718549D01*
X117746481Y-149377519D01*
X117304891Y-149082458D01*
X116915485Y-149005000D01*
X116652515Y-149005000D01*
X116263109Y-149082458D01*
X115821519Y-149377519D01*
X115686226Y-149580000D01*
X114153948Y-149580000D01*
X114079100Y-149565112D01*
X114004252Y-149580000D01*
X114004248Y-149580000D01*
X113782563Y-149624096D01*
X113531171Y-149792071D01*
X113488771Y-149855527D01*
X113076050Y-150268248D01*
X113017542Y-149974109D01*
X112722481Y-149532519D01*
X112280891Y-149237458D01*
X111891485Y-149160000D01*
X111628515Y-149160000D01*
X111239109Y-149237458D01*
X110797519Y-149532519D01*
X110502458Y-149974109D01*
X110398846Y-150495000D01*
X110502458Y-151015891D01*
X110797519Y-151457481D01*
X111239109Y-151752542D01*
X111533248Y-151811050D01*
X108770181Y-154574118D01*
X108726650Y-154355275D01*
X108395430Y-153859570D01*
X108111719Y-153670000D01*
X108395430Y-153480430D01*
X108726650Y-152984725D01*
X108842959Y-152400000D01*
X108726650Y-151815275D01*
X108395430Y-151319570D01*
X108093979Y-151118146D01*
X108203490Y-151066821D01*
X108597688Y-150634947D01*
X108769958Y-150219026D01*
X108648817Y-149987000D01*
X107442000Y-149987000D01*
X107442000Y-150007000D01*
X107188000Y-150007000D01*
X107188000Y-149987000D01*
X107168000Y-149987000D01*
X107168000Y-149733000D01*
X107188000Y-149733000D01*
X107188000Y-147447000D01*
X107442000Y-147447000D01*
X107442000Y-149733000D01*
X108648817Y-149733000D01*
X108769958Y-149500974D01*
X108597688Y-149085053D01*
X108203490Y-148653179D01*
X108068687Y-148590000D01*
X108203490Y-148526821D01*
X108597688Y-148094947D01*
X108769958Y-147679026D01*
X108648817Y-147447000D01*
X107442000Y-147447000D01*
X107188000Y-147447000D01*
X107168000Y-147447000D01*
X107168000Y-147193000D01*
X107188000Y-147193000D01*
X107188000Y-147173000D01*
X107442000Y-147173000D01*
X107442000Y-147193000D01*
X108648817Y-147193000D01*
X108769958Y-146960974D01*
X108597688Y-146545053D01*
X108203490Y-146113179D01*
X108093979Y-146061854D01*
X108395430Y-145860430D01*
X108726650Y-145364725D01*
X108842959Y-144780000D01*
X108726650Y-144195275D01*
X108395430Y-143699570D01*
X107899725Y-143368350D01*
X107462598Y-143281400D01*
X107167402Y-143281400D01*
X106730275Y-143368350D01*
X106241932Y-143694651D01*
X106236757Y-143668635D01*
X106096409Y-143458591D01*
X105886365Y-143318243D01*
X105638600Y-143268960D01*
X103911400Y-143268960D01*
X103663635Y-143318243D01*
X103453591Y-143458591D01*
X103313243Y-143668635D01*
X103263960Y-143916400D01*
X103263960Y-145643600D01*
X103313243Y-145891365D01*
X103453591Y-146101409D01*
X103663635Y-146241757D01*
X103689651Y-146246932D01*
X103363350Y-146735275D01*
X103247041Y-147320000D01*
X103363350Y-147904725D01*
X103694570Y-148400430D01*
X103978281Y-148590000D01*
X103694570Y-148779570D01*
X103363350Y-149275275D01*
X103247041Y-149860000D01*
X103363350Y-150444725D01*
X103694570Y-150940430D01*
X103978281Y-151130000D01*
X103694570Y-151319570D01*
X103363350Y-151815275D01*
X103247041Y-152400000D01*
X103363350Y-152984725D01*
X103694570Y-153480430D01*
X103996021Y-153681854D01*
X103886510Y-153733179D01*
X103492312Y-154165053D01*
X103320042Y-154580974D01*
X103441183Y-154813000D01*
X104648000Y-154813000D01*
X104648000Y-154793000D01*
X104902000Y-154793000D01*
X104902000Y-154813000D01*
X104922000Y-154813000D01*
X104922000Y-155067000D01*
X104902000Y-155067000D01*
X104902000Y-155087000D01*
X104648000Y-155087000D01*
X104648000Y-155067000D01*
X103441183Y-155067000D01*
X103320042Y-155299026D01*
X103441725Y-155592811D01*
X103401526Y-155619671D01*
X103401524Y-155619673D01*
X103338071Y-155662071D01*
X103295672Y-155725525D01*
X102893527Y-156127672D01*
X102830072Y-156170071D01*
X102787672Y-156233527D01*
X102787671Y-156233528D01*
X102662097Y-156421463D01*
X102603112Y-156718000D01*
X100710000Y-156718000D01*
X100710000Y-142609452D01*
X110425000Y-142609452D01*
X110425000Y-143140548D01*
X110628242Y-143631217D01*
X111003783Y-144006758D01*
X111494452Y-144210000D01*
X112025548Y-144210000D01*
X112516217Y-144006758D01*
X112891758Y-143631217D01*
X113095000Y-143140548D01*
X113095000Y-142609452D01*
X112891758Y-142118783D01*
X112516217Y-141743242D01*
X112025548Y-141540000D01*
X111494452Y-141540000D01*
X111003783Y-141743242D01*
X110628242Y-142118783D01*
X110425000Y-142609452D01*
X100710000Y-142609452D01*
X100710000Y-139857944D01*
X101599025Y-139857944D01*
X101798615Y-140339818D01*
X102236621Y-140812188D01*
X102822054Y-141080983D01*
X103078000Y-140962367D01*
X103078000Y-139602000D01*
X103332000Y-139602000D01*
X103332000Y-140962367D01*
X103587946Y-141080983D01*
X104173379Y-140812188D01*
X104611385Y-140339818D01*
X104736839Y-140036930D01*
X108427675Y-140036930D01*
X108495735Y-140277931D01*
X109015034Y-140462767D01*
X109565538Y-140434805D01*
X109944265Y-140277931D01*
X110012325Y-140036930D01*
X109220000Y-139244605D01*
X108427675Y-140036930D01*
X104736839Y-140036930D01*
X104810975Y-139857944D01*
X104691836Y-139602000D01*
X103332000Y-139602000D01*
X103078000Y-139602000D01*
X101718164Y-139602000D01*
X101599025Y-139857944D01*
X100710000Y-139857944D01*
X100710000Y-135919000D01*
X101541560Y-135919000D01*
X101541560Y-137951000D01*
X101590843Y-138198765D01*
X101731191Y-138408809D01*
X101888113Y-138513662D01*
X101798615Y-138610182D01*
X101599025Y-139092056D01*
X101718164Y-139348000D01*
X103078000Y-139348000D01*
X103078000Y-139328000D01*
X103332000Y-139328000D01*
X103332000Y-139348000D01*
X104691836Y-139348000D01*
X104810975Y-139092056D01*
X104714873Y-138860034D01*
X107822233Y-138860034D01*
X107850195Y-139410538D01*
X108007069Y-139789265D01*
X108248070Y-139857325D01*
X109040395Y-139065000D01*
X109399605Y-139065000D01*
X110191930Y-139857325D01*
X110432931Y-139789265D01*
X110617767Y-139269966D01*
X110589805Y-138719462D01*
X110432931Y-138340735D01*
X110191930Y-138272675D01*
X109399605Y-139065000D01*
X109040395Y-139065000D01*
X108248070Y-138272675D01*
X108007069Y-138340735D01*
X107822233Y-138860034D01*
X104714873Y-138860034D01*
X104611385Y-138610182D01*
X104521887Y-138513662D01*
X104678809Y-138408809D01*
X104819157Y-138198765D01*
X104868440Y-137951000D01*
X104868440Y-137695000D01*
X108430508Y-137695000D01*
X108435138Y-137699630D01*
X108649447Y-137788399D01*
X108495735Y-137852069D01*
X108427675Y-138093070D01*
X109220000Y-138885395D01*
X110012325Y-138093070D01*
X109944265Y-137852069D01*
X109778921Y-137793218D01*
X110004862Y-137699630D01*
X110218714Y-137485778D01*
X113564000Y-137485778D01*
X113564000Y-138136222D01*
X113812914Y-138737153D01*
X114272847Y-139197086D01*
X114873778Y-139446000D01*
X115524222Y-139446000D01*
X116125153Y-139197086D01*
X116189962Y-139132277D01*
X116281191Y-139268809D01*
X116491235Y-139409157D01*
X116739000Y-139458440D01*
X118739000Y-139458440D01*
X118986765Y-139409157D01*
X119196809Y-139268809D01*
X119337157Y-139058765D01*
X119386440Y-138811000D01*
X119386440Y-137245600D01*
X119558799Y-137245600D01*
X119632823Y-137319624D01*
X119564000Y-137485778D01*
X119564000Y-138136222D01*
X119812914Y-138737153D01*
X120272847Y-139197086D01*
X120873778Y-139446000D01*
X121029198Y-139446000D01*
X118515199Y-141960000D01*
X117911975Y-141960000D01*
X117540217Y-141588242D01*
X117049548Y-141385000D01*
X116518452Y-141385000D01*
X116027783Y-141588242D01*
X115652242Y-141963783D01*
X115449000Y-142454452D01*
X115449000Y-142985548D01*
X115652242Y-143476217D01*
X116027783Y-143851758D01*
X116518452Y-144055000D01*
X117049548Y-144055000D01*
X117540217Y-143851758D01*
X117911975Y-143480000D01*
X118755153Y-143480000D01*
X118830000Y-143494888D01*
X118904847Y-143480000D01*
X118904852Y-143480000D01*
X119126537Y-143435904D01*
X119258846Y-143347498D01*
X119355242Y-143580217D01*
X119730783Y-143955758D01*
X120221452Y-144159000D01*
X120752548Y-144159000D01*
X121243217Y-143955758D01*
X121618758Y-143580217D01*
X121822000Y-143089548D01*
X121822000Y-142609452D01*
X123506000Y-142609452D01*
X123506000Y-143140548D01*
X123709242Y-143631217D01*
X124084783Y-144006758D01*
X124575452Y-144210000D01*
X125106548Y-144210000D01*
X125597217Y-144006758D01*
X125972758Y-143631217D01*
X126176000Y-143140548D01*
X126176000Y-142609452D01*
X125972758Y-142118783D01*
X125597217Y-141743242D01*
X125106548Y-141540000D01*
X124575452Y-141540000D01*
X124084783Y-141743242D01*
X123709242Y-142118783D01*
X123506000Y-142609452D01*
X121822000Y-142609452D01*
X121822000Y-142563801D01*
X123446802Y-140939000D01*
X127336153Y-140939000D01*
X127411000Y-140953888D01*
X127485847Y-140939000D01*
X127485852Y-140939000D01*
X127707537Y-140894904D01*
X127958929Y-140726929D01*
X128001331Y-140663470D01*
X129206362Y-139458440D01*
X130779000Y-139458440D01*
X131026765Y-139409157D01*
X131236809Y-139268809D01*
X131377157Y-139058765D01*
X131426440Y-138811000D01*
X131426440Y-137245600D01*
X131558799Y-137245600D01*
X131632823Y-137319624D01*
X131564000Y-137485778D01*
X131564000Y-138136222D01*
X131812914Y-138737153D01*
X132272847Y-139197086D01*
X132873778Y-139446000D01*
X133029198Y-139446000D01*
X130360199Y-142115000D01*
X129862975Y-142115000D01*
X129491217Y-141743242D01*
X129000548Y-141540000D01*
X128469452Y-141540000D01*
X127978783Y-141743242D01*
X127603242Y-142118783D01*
X127400000Y-142609452D01*
X127400000Y-143140548D01*
X127603242Y-143631217D01*
X127978783Y-144006758D01*
X128469452Y-144210000D01*
X129000548Y-144210000D01*
X129491217Y-144006758D01*
X129862975Y-143635000D01*
X130600153Y-143635000D01*
X130675000Y-143649888D01*
X130749847Y-143635000D01*
X130749852Y-143635000D01*
X130971537Y-143590904D01*
X131222929Y-143422929D01*
X131265331Y-143359470D01*
X135166363Y-139458440D01*
X136739000Y-139458440D01*
X136986765Y-139409157D01*
X137196809Y-139268809D01*
X137337157Y-139058765D01*
X137386440Y-138811000D01*
X137386440Y-136811000D01*
X137337157Y-136563235D01*
X137196809Y-136353191D01*
X136986765Y-136212843D01*
X136739000Y-136163560D01*
X134739000Y-136163560D01*
X134491235Y-136212843D01*
X134281191Y-136353191D01*
X134189962Y-136489723D01*
X134125153Y-136424914D01*
X133524222Y-136176000D01*
X132873778Y-136176000D01*
X132707624Y-136244823D01*
X132463931Y-136001130D01*
X132421529Y-135937671D01*
X132170137Y-135769696D01*
X131948452Y-135725600D01*
X131948447Y-135725600D01*
X131873600Y-135710712D01*
X131798753Y-135725600D01*
X128639248Y-135725600D01*
X128564400Y-135710712D01*
X128489552Y-135725600D01*
X128489548Y-135725600D01*
X128316005Y-135760120D01*
X128267862Y-135769696D01*
X128080818Y-135894676D01*
X128016471Y-135937671D01*
X127974071Y-136001127D01*
X127730375Y-136244823D01*
X127564222Y-136176000D01*
X126913778Y-136176000D01*
X126747624Y-136244823D01*
X126503931Y-136001130D01*
X126461529Y-135937671D01*
X126210137Y-135769696D01*
X125988452Y-135725600D01*
X125988447Y-135725600D01*
X125913600Y-135710712D01*
X125838753Y-135725600D01*
X122599248Y-135725600D01*
X122524400Y-135710712D01*
X122449552Y-135725600D01*
X122449548Y-135725600D01*
X122276005Y-135760120D01*
X122227862Y-135769696D01*
X122040818Y-135894676D01*
X121976471Y-135937671D01*
X121934071Y-136001127D01*
X121690375Y-136244823D01*
X121524222Y-136176000D01*
X120873778Y-136176000D01*
X120707624Y-136244823D01*
X120463931Y-136001130D01*
X120421529Y-135937671D01*
X120170137Y-135769696D01*
X119948452Y-135725600D01*
X119948447Y-135725600D01*
X119873600Y-135710712D01*
X119798753Y-135725600D01*
X116599248Y-135725600D01*
X116524400Y-135710712D01*
X116449552Y-135725600D01*
X116449548Y-135725600D01*
X116276005Y-135760120D01*
X116227862Y-135769696D01*
X116040818Y-135894676D01*
X115976471Y-135937671D01*
X115934071Y-136001127D01*
X115690375Y-136244823D01*
X115524222Y-136176000D01*
X114873778Y-136176000D01*
X114272847Y-136424914D01*
X113812914Y-136884847D01*
X113564000Y-137485778D01*
X110218714Y-137485778D01*
X110394630Y-137309862D01*
X110605570Y-136800607D01*
X110605570Y-136249393D01*
X110394630Y-135740138D01*
X110004862Y-135350370D01*
X109495607Y-135139430D01*
X108944393Y-135139430D01*
X108435138Y-135350370D01*
X108045370Y-135740138D01*
X107865245Y-136175000D01*
X104868440Y-136175000D01*
X104868440Y-135919000D01*
X104819157Y-135671235D01*
X104678809Y-135461191D01*
X104468765Y-135320843D01*
X104221000Y-135271560D01*
X102189000Y-135271560D01*
X101941235Y-135320843D01*
X101731191Y-135461191D01*
X101590843Y-135671235D01*
X101541560Y-135919000D01*
X100710000Y-135919000D01*
X100710000Y-135051580D01*
X100768803Y-134640973D01*
X100919338Y-134309890D01*
X101156749Y-134034361D01*
X101461944Y-133836544D01*
X101833917Y-133725300D01*
X102039805Y-133710000D01*
X137949420Y-133710000D01*
X138360027Y-133768803D01*
X138360027Y-133768803D01*
G37*
X138360027Y-133768803D02*
X138691110Y-133919338D01*
X138966639Y-134156749D01*
X139164456Y-134461944D01*
X139275700Y-134833917D01*
X139290001Y-135026362D01*
X139290000Y-177949420D01*
X139231197Y-178360027D01*
X139080661Y-178691112D01*
X138843251Y-178966639D01*
X138538056Y-179164456D01*
X138166083Y-179275700D01*
X137973652Y-179290000D01*
X102050580Y-179290000D01*
X101639973Y-179231197D01*
X101308888Y-179080661D01*
X101033361Y-178843251D01*
X100835544Y-178538056D01*
X100724300Y-178166083D01*
X100710000Y-177973652D01*
X100710000Y-176035703D01*
X101274000Y-176035703D01*
X101274000Y-177024297D01*
X101652319Y-177937639D01*
X102351361Y-178636681D01*
X103264703Y-179015000D01*
X104253297Y-179015000D01*
X105166639Y-178636681D01*
X105865681Y-177937639D01*
X106244000Y-177024297D01*
X106244000Y-176035703D01*
X105865681Y-175122361D01*
X105166639Y-174423319D01*
X104253297Y-174045000D01*
X103264703Y-174045000D01*
X102351361Y-174423319D01*
X101652319Y-175122361D01*
X101274000Y-176035703D01*
X100710000Y-176035703D01*
X100710000Y-169279000D01*
X104422857Y-169279000D01*
X104422857Y-173099000D01*
X110207143Y-173099000D01*
X110207143Y-169279000D01*
X104422857Y-169279000D01*
X100710000Y-169279000D01*
X100710000Y-156718000D01*
X102603112Y-156718000D01*
X102618001Y-156792852D01*
X102618000Y-164263153D01*
X102603112Y-164338000D01*
X102618000Y-164412847D01*
X102618000Y-164412851D01*
X102662096Y-164634536D01*
X102830071Y-164885929D01*
X102893530Y-164928331D01*
X103292193Y-165326995D01*
X103363350Y-165684725D01*
X103694570Y-166180430D01*
X103978281Y-166370000D01*
X103694570Y-166559570D01*
X103363350Y-167055275D01*
X103247041Y-167640000D01*
X103363350Y-168224725D01*
X103694570Y-168720430D01*
X104190275Y-169051650D01*
X104627402Y-169138600D01*
X104922598Y-169138600D01*
X105359725Y-169051650D01*
X105855430Y-168720430D01*
X106045000Y-168436719D01*
X106234570Y-168720430D01*
X106730275Y-169051650D01*
X107167402Y-169138600D01*
X107462598Y-169138600D01*
X107899725Y-169051650D01*
X108395430Y-168720430D01*
X108609535Y-168400000D01*
X110669153Y-168400000D01*
X110744000Y-168414888D01*
X110818847Y-168400000D01*
X110818852Y-168400000D01*
X111040537Y-168355904D01*
X111291929Y-168187929D01*
X111334331Y-168124470D01*
X112221530Y-167237271D01*
X112246393Y-167247570D01*
X112797607Y-167247570D01*
X112837572Y-167231016D01*
X112837571Y-170940236D01*
X112820672Y-170965527D01*
X112820671Y-170965528D01*
X112695097Y-171153463D01*
X112636112Y-171450000D01*
X112651001Y-171524852D01*
X112651000Y-175155753D01*
X112636112Y-175230600D01*
X112651000Y-175305447D01*
X112651000Y-175305451D01*
X112695096Y-175527136D01*
X112863071Y-175778529D01*
X112926529Y-175820930D01*
X113358072Y-176252475D01*
X113400471Y-176315929D01*
X113463924Y-176358327D01*
X113463926Y-176358329D01*
X113550960Y-176416483D01*
X113550960Y-176631600D01*
X113600243Y-176879365D01*
X113740591Y-177089409D01*
X113950635Y-177229757D01*
X114198400Y-177279040D01*
X115925600Y-177279040D01*
X116173365Y-177229757D01*
X116383409Y-177089409D01*
X116523757Y-176879365D01*
X116528932Y-176853349D01*
X117017275Y-177179650D01*
X117454402Y-177266600D01*
X117749598Y-177266600D01*
X118186725Y-177179650D01*
X118682430Y-176848430D01*
X118872000Y-176564719D01*
X119061570Y-176848430D01*
X119557275Y-177179650D01*
X119994402Y-177266600D01*
X120289598Y-177266600D01*
X120726725Y-177179650D01*
X121222430Y-176848430D01*
X121412000Y-176564719D01*
X121601570Y-176848430D01*
X122097275Y-177179650D01*
X122534402Y-177266600D01*
X122829598Y-177266600D01*
X123266725Y-177179650D01*
X123762430Y-176848430D01*
X123952000Y-176564719D01*
X124141570Y-176848430D01*
X124637275Y-177179650D01*
X125074402Y-177266600D01*
X125369598Y-177266600D01*
X125806725Y-177179650D01*
X126302430Y-176848430D01*
X126633650Y-176352725D01*
X126696709Y-176035703D01*
X133786000Y-176035703D01*
X133786000Y-177024297D01*
X134164319Y-177937639D01*
X134863361Y-178636681D01*
X135776703Y-179015000D01*
X136765297Y-179015000D01*
X137678639Y-178636681D01*
X138377681Y-177937639D01*
X138756000Y-177024297D01*
X138756000Y-176035703D01*
X138377681Y-175122361D01*
X137678639Y-174423319D01*
X136765297Y-174045000D01*
X135776703Y-174045000D01*
X134863361Y-174423319D01*
X134164319Y-175122361D01*
X133786000Y-176035703D01*
X126696709Y-176035703D01*
X126749959Y-175768000D01*
X126633650Y-175183275D01*
X126302430Y-174687570D01*
X126014174Y-174494963D01*
X126428821Y-174116490D01*
X126676968Y-173587027D01*
X126556469Y-173355000D01*
X125349000Y-173355000D01*
X125349000Y-173375000D01*
X125095000Y-173375000D01*
X125095000Y-173355000D01*
X125075000Y-173355000D01*
X125075000Y-173101000D01*
X125095000Y-173101000D01*
X125095000Y-171894183D01*
X125349000Y-171894183D01*
X125349000Y-173101000D01*
X126556469Y-173101000D01*
X126676968Y-172868973D01*
X126428821Y-172339510D01*
X125996947Y-171945312D01*
X125581026Y-171773042D01*
X125349000Y-171894183D01*
X125095000Y-171894183D01*
X124862974Y-171773042D01*
X124447053Y-171945312D01*
X124015179Y-172339510D01*
X123963854Y-172449021D01*
X123762430Y-172147570D01*
X123266725Y-171816350D01*
X122829598Y-171729400D01*
X122534402Y-171729400D01*
X122097275Y-171816350D01*
X121601570Y-172147570D01*
X121412000Y-172431281D01*
X121222430Y-172147570D01*
X120726725Y-171816350D01*
X120289598Y-171729400D01*
X119994402Y-171729400D01*
X119557275Y-171816350D01*
X119061570Y-172147570D01*
X118872000Y-172431281D01*
X118682430Y-172147570D01*
X118186725Y-171816350D01*
X117749598Y-171729400D01*
X117454402Y-171729400D01*
X117017275Y-171816350D01*
X116521570Y-172147570D01*
X116332000Y-172431281D01*
X116142430Y-172147570D01*
X115646725Y-171816350D01*
X115209598Y-171729400D01*
X114914402Y-171729400D01*
X114477275Y-171816350D01*
X114171000Y-172020997D01*
X114171000Y-171773195D01*
X114313475Y-171559966D01*
X114357571Y-171338281D01*
X114357571Y-171338277D01*
X114372459Y-171263430D01*
X114357571Y-171188583D01*
X114357571Y-168067275D01*
X120783331Y-168067275D01*
X120845169Y-168303042D01*
X121346122Y-168479419D01*
X121876440Y-168450664D01*
X122232831Y-168303042D01*
X122294669Y-168067275D01*
X121539000Y-167311605D01*
X120783331Y-168067275D01*
X114357571Y-168067275D01*
X114357571Y-167145526D01*
X114391867Y-167094198D01*
X114857034Y-167259767D01*
X115407538Y-167231805D01*
X115786265Y-167074931D01*
X115824618Y-166939122D01*
X120191581Y-166939122D01*
X120220336Y-167469440D01*
X120367958Y-167825831D01*
X120603725Y-167887669D01*
X121359395Y-167132000D01*
X121718605Y-167132000D01*
X122474275Y-167887669D01*
X122710042Y-167825831D01*
X122886419Y-167324878D01*
X122857664Y-166794560D01*
X122710042Y-166438169D01*
X122474275Y-166376331D01*
X121718605Y-167132000D01*
X121359395Y-167132000D01*
X120603725Y-166376331D01*
X120367958Y-166438169D01*
X120191581Y-166939122D01*
X115824618Y-166939122D01*
X115854325Y-166833930D01*
X115062000Y-166041605D01*
X115047858Y-166055748D01*
X114868253Y-165876143D01*
X114882395Y-165862000D01*
X115241605Y-165862000D01*
X116033930Y-166654325D01*
X116274931Y-166586265D01*
X116413581Y-166196725D01*
X120783331Y-166196725D01*
X121539000Y-166952395D01*
X122294669Y-166196725D01*
X122232831Y-165960958D01*
X121731878Y-165784581D01*
X121201560Y-165813336D01*
X120845169Y-165960958D01*
X120783331Y-166196725D01*
X116413581Y-166196725D01*
X116459767Y-166066966D01*
X116431805Y-165516462D01*
X116274931Y-165137735D01*
X116033930Y-165069675D01*
X115241605Y-165862000D01*
X114882395Y-165862000D01*
X114868253Y-165847858D01*
X115047858Y-165668253D01*
X115062000Y-165682395D01*
X115854325Y-164890070D01*
X115786265Y-164649069D01*
X115628047Y-164592754D01*
X118281683Y-161939119D01*
X118544519Y-162332481D01*
X118986109Y-162627542D01*
X119375515Y-162705000D01*
X119638485Y-162705000D01*
X120027891Y-162627542D01*
X120469481Y-162332481D01*
X120764542Y-161890891D01*
X120868154Y-161370000D01*
X120764542Y-160849109D01*
X120673032Y-160712154D01*
X122240053Y-160712154D01*
X122540371Y-161012473D01*
X122582771Y-161075929D01*
X122834163Y-161243904D01*
X122955227Y-161267985D01*
X122883953Y-161374654D01*
X122799744Y-161798000D01*
X122883953Y-162221346D01*
X122920640Y-162276253D01*
X122857843Y-162370235D01*
X122808560Y-162618000D01*
X122808560Y-163518000D01*
X122857843Y-163765765D01*
X122998191Y-163975809D01*
X123208235Y-164116157D01*
X123456000Y-164165440D01*
X124956000Y-164165440D01*
X125203765Y-164116157D01*
X125413809Y-163975809D01*
X125554157Y-163765765D01*
X125603440Y-163518000D01*
X125603440Y-163270242D01*
X128044673Y-165711476D01*
X128087071Y-165774929D01*
X128150524Y-165817327D01*
X128150526Y-165817329D01*
X128236026Y-165874458D01*
X128338463Y-165942904D01*
X128490432Y-165973133D01*
X128196519Y-166169519D01*
X127901458Y-166611109D01*
X127797846Y-167132000D01*
X127901458Y-167652891D01*
X128196519Y-168094481D01*
X128638109Y-168389542D01*
X129027515Y-168467000D01*
X129290485Y-168467000D01*
X129542001Y-168416970D01*
X129542001Y-168454148D01*
X129527112Y-168529000D01*
X129586097Y-168825537D01*
X129698971Y-168994464D01*
X129754072Y-169076929D01*
X129817528Y-169119329D01*
X130332046Y-169633848D01*
X130348096Y-169714537D01*
X130516071Y-169965929D01*
X130767463Y-170133904D01*
X130989148Y-170178000D01*
X131064000Y-170192889D01*
X131138852Y-170178000D01*
X133148153Y-170178000D01*
X133223000Y-170192888D01*
X133297847Y-170178000D01*
X133297852Y-170178000D01*
X133519537Y-170133904D01*
X133770929Y-169965929D01*
X133813331Y-169902470D01*
X134666604Y-169049197D01*
X134670275Y-169051650D01*
X135107402Y-169138600D01*
X135402598Y-169138600D01*
X135839725Y-169051650D01*
X136335430Y-168720430D01*
X136666650Y-168224725D01*
X136782959Y-167640000D01*
X136666650Y-167055275D01*
X136335430Y-166559570D01*
X136051719Y-166370000D01*
X136335430Y-166180430D01*
X136666650Y-165684725D01*
X136782959Y-165100000D01*
X136666650Y-164515275D01*
X136335430Y-164019570D01*
X136051719Y-163830000D01*
X136335430Y-163640430D01*
X136666650Y-163144725D01*
X136782959Y-162560000D01*
X136666650Y-161975275D01*
X136335430Y-161479570D01*
X136051719Y-161290000D01*
X136335430Y-161100430D01*
X136666650Y-160604725D01*
X136782959Y-160020000D01*
X136666650Y-159435275D01*
X136335430Y-158939570D01*
X136051719Y-158750000D01*
X136335430Y-158560430D01*
X136549535Y-158240000D01*
X136718199Y-158240000D01*
X136887000Y-158408801D01*
X136887000Y-158574874D01*
X137044569Y-158955280D01*
X137335720Y-159246431D01*
X137716126Y-159404000D01*
X138127874Y-159404000D01*
X138508280Y-159246431D01*
X138799431Y-158955280D01*
X138957000Y-158574874D01*
X138957000Y-158163126D01*
X138799431Y-157782720D01*
X138508280Y-157491569D01*
X138127874Y-157334000D01*
X137961801Y-157334000D01*
X137623331Y-156995530D01*
X137580929Y-156932071D01*
X137329537Y-156764096D01*
X137107852Y-156720000D01*
X137107847Y-156720000D01*
X137033000Y-156705112D01*
X136958153Y-156720000D01*
X136549535Y-156720000D01*
X136335430Y-156399570D01*
X136051719Y-156210000D01*
X136335430Y-156020430D01*
X136666650Y-155524725D01*
X136782959Y-154940000D01*
X136666650Y-154355275D01*
X136335430Y-153859570D01*
X136051719Y-153670000D01*
X136335430Y-153480430D01*
X136666650Y-152984725D01*
X136782959Y-152400000D01*
X136666650Y-151815275D01*
X136335430Y-151319570D01*
X136051719Y-151130000D01*
X136335430Y-150940430D01*
X136666650Y-150444725D01*
X136782959Y-149860000D01*
X136666650Y-149275275D01*
X136335430Y-148779570D01*
X136051719Y-148590000D01*
X136335430Y-148400430D01*
X136666650Y-147904725D01*
X136782959Y-147320000D01*
X136666650Y-146735275D01*
X136335430Y-146239570D01*
X136051719Y-146050000D01*
X136335430Y-145860430D01*
X136666650Y-145364725D01*
X136782959Y-144780000D01*
X136666650Y-144195275D01*
X136335430Y-143699570D01*
X135839725Y-143368350D01*
X135402598Y-143281400D01*
X135107402Y-143281400D01*
X134670275Y-143368350D01*
X134181932Y-143694651D01*
X134176757Y-143668635D01*
X134036409Y-143458591D01*
X133826365Y-143318243D01*
X133578600Y-143268960D01*
X131851400Y-143268960D01*
X131603635Y-143318243D01*
X131393591Y-143458591D01*
X131253243Y-143668635D01*
X131203960Y-143916400D01*
X131203960Y-145643600D01*
X131253243Y-145891365D01*
X131393591Y-146101409D01*
X131603635Y-146241757D01*
X131629651Y-146246932D01*
X131303350Y-146735275D01*
X131187041Y-147320000D01*
X131303350Y-147904725D01*
X131634570Y-148400430D01*
X131918281Y-148590000D01*
X131634570Y-148779570D01*
X131303350Y-149275275D01*
X131187041Y-149860000D01*
X131303350Y-150444725D01*
X131634570Y-150940430D01*
X131918281Y-151130000D01*
X131634570Y-151319570D01*
X131303350Y-151815275D01*
X131187041Y-152400000D01*
X131303350Y-152984725D01*
X131634570Y-153480430D01*
X131918281Y-153670000D01*
X131634570Y-153859570D01*
X131303350Y-154355275D01*
X131187041Y-154940000D01*
X131303350Y-155524725D01*
X131634570Y-156020430D01*
X131918281Y-156210000D01*
X131634570Y-156399570D01*
X131303350Y-156895275D01*
X131187041Y-157480000D01*
X131303350Y-158064725D01*
X131634570Y-158560430D01*
X131918281Y-158750000D01*
X131634570Y-158939570D01*
X131303350Y-159435275D01*
X131187041Y-160020000D01*
X131303350Y-160604725D01*
X131634570Y-161100430D01*
X131918281Y-161290000D01*
X131634570Y-161479570D01*
X131303350Y-161975275D01*
X131187041Y-162560000D01*
X131303350Y-163144725D01*
X131634570Y-163640430D01*
X131918281Y-163830000D01*
X131634570Y-164019570D01*
X131303350Y-164515275D01*
X131187041Y-165100000D01*
X131303350Y-165684725D01*
X131634570Y-166180430D01*
X131918281Y-166370000D01*
X131634570Y-166559570D01*
X131303350Y-167055275D01*
X131187041Y-167640000D01*
X131303350Y-168224725D01*
X131592856Y-168658000D01*
X131505802Y-168658000D01*
X131062000Y-168214199D01*
X131062000Y-166444848D01*
X131076888Y-166370000D01*
X131062000Y-166295152D01*
X131062000Y-166295148D01*
X131017904Y-166073463D01*
X130849929Y-165822071D01*
X130786473Y-165779671D01*
X129749331Y-164742530D01*
X129706929Y-164679071D01*
X129455537Y-164511096D01*
X129233852Y-164467000D01*
X129233847Y-164467000D01*
X129159000Y-164452112D01*
X129084153Y-164467000D01*
X128949803Y-164467000D01*
X125796331Y-161313530D01*
X125753929Y-161250071D01*
X125502537Y-161082096D01*
X125447939Y-161071236D01*
X125528047Y-160951346D01*
X125612256Y-160528000D01*
X125528047Y-160104654D01*
X125288241Y-159745759D01*
X124929346Y-159505953D01*
X124612861Y-159443000D01*
X123965601Y-159443000D01*
X125325473Y-158083129D01*
X125388929Y-158040729D01*
X125470576Y-157918536D01*
X125556904Y-157789338D01*
X125575300Y-157696852D01*
X125601000Y-157567652D01*
X125601000Y-157567648D01*
X125615888Y-157492800D01*
X125601000Y-157417952D01*
X125601000Y-151592774D01*
X125803481Y-151457481D01*
X126098542Y-151015891D01*
X126135850Y-150828331D01*
X127442273Y-150828331D01*
X127668236Y-151297663D01*
X128056604Y-151644797D01*
X128401671Y-151787716D01*
X128608000Y-151664374D01*
X128608000Y-150622000D01*
X128862000Y-150622000D01*
X128862000Y-151664374D01*
X129068329Y-151787716D01*
X129413396Y-151644797D01*
X129801764Y-151297663D01*
X130027727Y-150828331D01*
X129905206Y-150622000D01*
X128862000Y-150622000D01*
X128608000Y-150622000D01*
X127564794Y-150622000D01*
X127442273Y-150828331D01*
X126135850Y-150828331D01*
X126202154Y-150495000D01*
X126135851Y-150161669D01*
X127442273Y-150161669D01*
X127564794Y-150368000D01*
X128608000Y-150368000D01*
X128608000Y-149325626D01*
X128862000Y-149325626D01*
X128862000Y-150368000D01*
X129905206Y-150368000D01*
X130027727Y-150161669D01*
X129801764Y-149692337D01*
X129413396Y-149345203D01*
X129068329Y-149202284D01*
X128862000Y-149325626D01*
X128608000Y-149325626D01*
X128401671Y-149202284D01*
X128056604Y-149345203D01*
X127668236Y-149692337D01*
X127442273Y-150161669D01*
X126135851Y-150161669D01*
X126098542Y-149974109D01*
X125803481Y-149532519D01*
X125361891Y-149237458D01*
X124972485Y-149160000D01*
X124709515Y-149160000D01*
X124320109Y-149237458D01*
X123878519Y-149532519D01*
X123583458Y-149974109D01*
X123479846Y-150495000D01*
X123568750Y-150941948D01*
X121552931Y-148926130D01*
X121510529Y-148862671D01*
X121259137Y-148694696D01*
X121037452Y-148650600D01*
X121037447Y-148650600D01*
X120962600Y-148635712D01*
X120887753Y-148650600D01*
X119431946Y-148650600D01*
X119357099Y-148635712D01*
X119282252Y-148650600D01*
X119282248Y-148650600D01*
X119060563Y-148694696D01*
X118809171Y-148862671D01*
X118766771Y-148926127D01*
X117974350Y-149718549D01*
X117746481Y-149377519D01*
X117304891Y-149082458D01*
X116915485Y-149005000D01*
X116652515Y-149005000D01*
X116263109Y-149082458D01*
X115821519Y-149377519D01*
X115686226Y-149580000D01*
X114153948Y-149580000D01*
X114079100Y-149565112D01*
X114004252Y-149580000D01*
X114004248Y-149580000D01*
X113782563Y-149624096D01*
X113531171Y-149792071D01*
X113488771Y-149855527D01*
X113076050Y-150268248D01*
X113017542Y-149974109D01*
X112722481Y-149532519D01*
X112280891Y-149237458D01*
X111891485Y-149160000D01*
X111628515Y-149160000D01*
X111239109Y-149237458D01*
X110797519Y-149532519D01*
X110502458Y-149974109D01*
X110398846Y-150495000D01*
X110502458Y-151015891D01*
X110797519Y-151457481D01*
X111239109Y-151752542D01*
X111533248Y-151811050D01*
X108770181Y-154574118D01*
X108726650Y-154355275D01*
X108395430Y-153859570D01*
X108111719Y-153670000D01*
X108395430Y-153480430D01*
X108726650Y-152984725D01*
X108842959Y-152400000D01*
X108726650Y-151815275D01*
X108395430Y-151319570D01*
X108093979Y-151118146D01*
X108203490Y-151066821D01*
X108597688Y-150634947D01*
X108769958Y-150219026D01*
X108648817Y-149987000D01*
X107442000Y-149987000D01*
X107442000Y-150007000D01*
X107188000Y-150007000D01*
X107188000Y-149987000D01*
X107168000Y-149987000D01*
X107168000Y-149733000D01*
X107188000Y-149733000D01*
X107188000Y-147447000D01*
X107442000Y-147447000D01*
X107442000Y-149733000D01*
X108648817Y-149733000D01*
X108769958Y-149500974D01*
X108597688Y-149085053D01*
X108203490Y-148653179D01*
X108068687Y-148590000D01*
X108203490Y-148526821D01*
X108597688Y-148094947D01*
X108769958Y-147679026D01*
X108648817Y-147447000D01*
X107442000Y-147447000D01*
X107188000Y-147447000D01*
X107168000Y-147447000D01*
X107168000Y-147193000D01*
X107188000Y-147193000D01*
X107188000Y-147173000D01*
X107442000Y-147173000D01*
X107442000Y-147193000D01*
X108648817Y-147193000D01*
X108769958Y-146960974D01*
X108597688Y-146545053D01*
X108203490Y-146113179D01*
X108093979Y-146061854D01*
X108395430Y-145860430D01*
X108726650Y-145364725D01*
X108842959Y-144780000D01*
X108726650Y-144195275D01*
X108395430Y-143699570D01*
X107899725Y-143368350D01*
X107462598Y-143281400D01*
X107167402Y-143281400D01*
X106730275Y-143368350D01*
X106241932Y-143694651D01*
X106236757Y-143668635D01*
X106096409Y-143458591D01*
X105886365Y-143318243D01*
X105638600Y-143268960D01*
X103911400Y-143268960D01*
X103663635Y-143318243D01*
X103453591Y-143458591D01*
X103313243Y-143668635D01*
X103263960Y-143916400D01*
X103263960Y-145643600D01*
X103313243Y-145891365D01*
X103453591Y-146101409D01*
X103663635Y-146241757D01*
X103689651Y-146246932D01*
X103363350Y-146735275D01*
X103247041Y-147320000D01*
X103363350Y-147904725D01*
X103694570Y-148400430D01*
X103978281Y-148590000D01*
X103694570Y-148779570D01*
X103363350Y-149275275D01*
X103247041Y-149860000D01*
X103363350Y-150444725D01*
X103694570Y-150940430D01*
X103978281Y-151130000D01*
X103694570Y-151319570D01*
X103363350Y-151815275D01*
X103247041Y-152400000D01*
X103363350Y-152984725D01*
X103694570Y-153480430D01*
X103996021Y-153681854D01*
X103886510Y-153733179D01*
X103492312Y-154165053D01*
X103320042Y-154580974D01*
X103441183Y-154813000D01*
X104648000Y-154813000D01*
X104648000Y-154793000D01*
X104902000Y-154793000D01*
X104902000Y-154813000D01*
X104922000Y-154813000D01*
X104922000Y-155067000D01*
X104902000Y-155067000D01*
X104902000Y-155087000D01*
X104648000Y-155087000D01*
X104648000Y-155067000D01*
X103441183Y-155067000D01*
X103320042Y-155299026D01*
X103441725Y-155592811D01*
X103401526Y-155619671D01*
X103401524Y-155619673D01*
X103338071Y-155662071D01*
X103295672Y-155725525D01*
X102893527Y-156127672D01*
X102830072Y-156170071D01*
X102787672Y-156233527D01*
X102787671Y-156233528D01*
X102662097Y-156421463D01*
X102603112Y-156718000D01*
X100710000Y-156718000D01*
X100710000Y-142609452D01*
X110425000Y-142609452D01*
X110425000Y-143140548D01*
X110628242Y-143631217D01*
X111003783Y-144006758D01*
X111494452Y-144210000D01*
X112025548Y-144210000D01*
X112516217Y-144006758D01*
X112891758Y-143631217D01*
X113095000Y-143140548D01*
X113095000Y-142609452D01*
X112891758Y-142118783D01*
X112516217Y-141743242D01*
X112025548Y-141540000D01*
X111494452Y-141540000D01*
X111003783Y-141743242D01*
X110628242Y-142118783D01*
X110425000Y-142609452D01*
X100710000Y-142609452D01*
X100710000Y-139857944D01*
X101599025Y-139857944D01*
X101798615Y-140339818D01*
X102236621Y-140812188D01*
X102822054Y-141080983D01*
X103078000Y-140962367D01*
X103078000Y-139602000D01*
X103332000Y-139602000D01*
X103332000Y-140962367D01*
X103587946Y-141080983D01*
X104173379Y-140812188D01*
X104611385Y-140339818D01*
X104736839Y-140036930D01*
X108427675Y-140036930D01*
X108495735Y-140277931D01*
X109015034Y-140462767D01*
X109565538Y-140434805D01*
X109944265Y-140277931D01*
X110012325Y-140036930D01*
X109220000Y-139244605D01*
X108427675Y-140036930D01*
X104736839Y-140036930D01*
X104810975Y-139857944D01*
X104691836Y-139602000D01*
X103332000Y-139602000D01*
X103078000Y-139602000D01*
X101718164Y-139602000D01*
X101599025Y-139857944D01*
X100710000Y-139857944D01*
X100710000Y-135919000D01*
X101541560Y-135919000D01*
X101541560Y-137951000D01*
X101590843Y-138198765D01*
X101731191Y-138408809D01*
X101888113Y-138513662D01*
X101798615Y-138610182D01*
X101599025Y-139092056D01*
X101718164Y-139348000D01*
X103078000Y-139348000D01*
X103078000Y-139328000D01*
X103332000Y-139328000D01*
X103332000Y-139348000D01*
X104691836Y-139348000D01*
X104810975Y-139092056D01*
X104714873Y-138860034D01*
X107822233Y-138860034D01*
X107850195Y-139410538D01*
X108007069Y-139789265D01*
X108248070Y-139857325D01*
X109040395Y-139065000D01*
X109399605Y-139065000D01*
X110191930Y-139857325D01*
X110432931Y-139789265D01*
X110617767Y-139269966D01*
X110589805Y-138719462D01*
X110432931Y-138340735D01*
X110191930Y-138272675D01*
X109399605Y-139065000D01*
X109040395Y-139065000D01*
X108248070Y-138272675D01*
X108007069Y-138340735D01*
X107822233Y-138860034D01*
X104714873Y-138860034D01*
X104611385Y-138610182D01*
X104521887Y-138513662D01*
X104678809Y-138408809D01*
X104819157Y-138198765D01*
X104868440Y-137951000D01*
X104868440Y-137695000D01*
X108430508Y-137695000D01*
X108435138Y-137699630D01*
X108649447Y-137788399D01*
X108495735Y-137852069D01*
X108427675Y-138093070D01*
X109220000Y-138885395D01*
X110012325Y-138093070D01*
X109944265Y-137852069D01*
X109778921Y-137793218D01*
X110004862Y-137699630D01*
X110218714Y-137485778D01*
X113564000Y-137485778D01*
X113564000Y-138136222D01*
X113812914Y-138737153D01*
X114272847Y-139197086D01*
X114873778Y-139446000D01*
X115524222Y-139446000D01*
X116125153Y-139197086D01*
X116189962Y-139132277D01*
X116281191Y-139268809D01*
X116491235Y-139409157D01*
X116739000Y-139458440D01*
X118739000Y-139458440D01*
X118986765Y-139409157D01*
X119196809Y-139268809D01*
X119337157Y-139058765D01*
X119386440Y-138811000D01*
X119386440Y-137245600D01*
X119558799Y-137245600D01*
X119632823Y-137319624D01*
X119564000Y-137485778D01*
X119564000Y-138136222D01*
X119812914Y-138737153D01*
X120272847Y-139197086D01*
X120873778Y-139446000D01*
X121029198Y-139446000D01*
X118515199Y-141960000D01*
X117911975Y-141960000D01*
X117540217Y-141588242D01*
X117049548Y-141385000D01*
X116518452Y-141385000D01*
X116027783Y-141588242D01*
X115652242Y-141963783D01*
X115449000Y-142454452D01*
X115449000Y-142985548D01*
X115652242Y-143476217D01*
X116027783Y-143851758D01*
X116518452Y-144055000D01*
X117049548Y-144055000D01*
X117540217Y-143851758D01*
X117911975Y-143480000D01*
X118755153Y-143480000D01*
X118830000Y-143494888D01*
X118904847Y-143480000D01*
X118904852Y-143480000D01*
X119126537Y-143435904D01*
X119258846Y-143347498D01*
X119355242Y-143580217D01*
X119730783Y-143955758D01*
X120221452Y-144159000D01*
X120752548Y-144159000D01*
X121243217Y-143955758D01*
X121618758Y-143580217D01*
X121822000Y-143089548D01*
X121822000Y-142609452D01*
X123506000Y-142609452D01*
X123506000Y-143140548D01*
X123709242Y-143631217D01*
X124084783Y-144006758D01*
X124575452Y-144210000D01*
X125106548Y-144210000D01*
X125597217Y-144006758D01*
X125972758Y-143631217D01*
X126176000Y-143140548D01*
X126176000Y-142609452D01*
X125972758Y-142118783D01*
X125597217Y-141743242D01*
X125106548Y-141540000D01*
X124575452Y-141540000D01*
X124084783Y-141743242D01*
X123709242Y-142118783D01*
X123506000Y-142609452D01*
X121822000Y-142609452D01*
X121822000Y-142563801D01*
X123446802Y-140939000D01*
X127336153Y-140939000D01*
X127411000Y-140953888D01*
X127485847Y-140939000D01*
X127485852Y-140939000D01*
X127707537Y-140894904D01*
X127958929Y-140726929D01*
X128001331Y-140663470D01*
X129206362Y-139458440D01*
X130779000Y-139458440D01*
X131026765Y-139409157D01*
X131236809Y-139268809D01*
X131377157Y-139058765D01*
X131426440Y-138811000D01*
X131426440Y-137245600D01*
X131558799Y-137245600D01*
X131632823Y-137319624D01*
X131564000Y-137485778D01*
X131564000Y-138136222D01*
X131812914Y-138737153D01*
X132272847Y-139197086D01*
X132873778Y-139446000D01*
X133029198Y-139446000D01*
X130360199Y-142115000D01*
X129862975Y-142115000D01*
X129491217Y-141743242D01*
X129000548Y-141540000D01*
X128469452Y-141540000D01*
X127978783Y-141743242D01*
X127603242Y-142118783D01*
X127400000Y-142609452D01*
X127400000Y-143140548D01*
X127603242Y-143631217D01*
X127978783Y-144006758D01*
X128469452Y-144210000D01*
X129000548Y-144210000D01*
X129491217Y-144006758D01*
X129862975Y-143635000D01*
X130600153Y-143635000D01*
X130675000Y-143649888D01*
X130749847Y-143635000D01*
X130749852Y-143635000D01*
X130971537Y-143590904D01*
X131222929Y-143422929D01*
X131265331Y-143359470D01*
X135166363Y-139458440D01*
X136739000Y-139458440D01*
X136986765Y-139409157D01*
X137196809Y-139268809D01*
X137337157Y-139058765D01*
X137386440Y-138811000D01*
X137386440Y-136811000D01*
X137337157Y-136563235D01*
X137196809Y-136353191D01*
X136986765Y-136212843D01*
X136739000Y-136163560D01*
X134739000Y-136163560D01*
X134491235Y-136212843D01*
X134281191Y-136353191D01*
X134189962Y-136489723D01*
X134125153Y-136424914D01*
X133524222Y-136176000D01*
X132873778Y-136176000D01*
X132707624Y-136244823D01*
X132463931Y-136001130D01*
X132421529Y-135937671D01*
X132170137Y-135769696D01*
X131948452Y-135725600D01*
X131948447Y-135725600D01*
X131873600Y-135710712D01*
X131798753Y-135725600D01*
X128639248Y-135725600D01*
X128564400Y-135710712D01*
X128489552Y-135725600D01*
X128489548Y-135725600D01*
X128316005Y-135760120D01*
X128267862Y-135769696D01*
X128080818Y-135894676D01*
X128016471Y-135937671D01*
X127974071Y-136001127D01*
X127730375Y-136244823D01*
X127564222Y-136176000D01*
X126913778Y-136176000D01*
X126747624Y-136244823D01*
X126503931Y-136001130D01*
X126461529Y-135937671D01*
X126210137Y-135769696D01*
X125988452Y-135725600D01*
X125988447Y-135725600D01*
X125913600Y-135710712D01*
X125838753Y-135725600D01*
X122599248Y-135725600D01*
X122524400Y-135710712D01*
X122449552Y-135725600D01*
X122449548Y-135725600D01*
X122276005Y-135760120D01*
X122227862Y-135769696D01*
X122040818Y-135894676D01*
X121976471Y-135937671D01*
X121934071Y-136001127D01*
X121690375Y-136244823D01*
X121524222Y-136176000D01*
X120873778Y-136176000D01*
X120707624Y-136244823D01*
X120463931Y-136001130D01*
X120421529Y-135937671D01*
X120170137Y-135769696D01*
X119948452Y-135725600D01*
X119948447Y-135725600D01*
X119873600Y-135710712D01*
X119798753Y-135725600D01*
X116599248Y-135725600D01*
X116524400Y-135710712D01*
X116449552Y-135725600D01*
X116449548Y-135725600D01*
X116276005Y-135760120D01*
X116227862Y-135769696D01*
X116040818Y-135894676D01*
X115976471Y-135937671D01*
X115934071Y-136001127D01*
X115690375Y-136244823D01*
X115524222Y-136176000D01*
X114873778Y-136176000D01*
X114272847Y-136424914D01*
X113812914Y-136884847D01*
X113564000Y-137485778D01*
X110218714Y-137485778D01*
X110394630Y-137309862D01*
X110605570Y-136800607D01*
X110605570Y-136249393D01*
X110394630Y-135740138D01*
X110004862Y-135350370D01*
X109495607Y-135139430D01*
X108944393Y-135139430D01*
X108435138Y-135350370D01*
X108045370Y-135740138D01*
X107865245Y-136175000D01*
X104868440Y-136175000D01*
X104868440Y-135919000D01*
X104819157Y-135671235D01*
X104678809Y-135461191D01*
X104468765Y-135320843D01*
X104221000Y-135271560D01*
X102189000Y-135271560D01*
X101941235Y-135320843D01*
X101731191Y-135461191D01*
X101590843Y-135671235D01*
X101541560Y-135919000D01*
X100710000Y-135919000D01*
X100710000Y-135051580D01*
X100768803Y-134640973D01*
X100919338Y-134309890D01*
X101156749Y-134034361D01*
X101461944Y-133836544D01*
X101833917Y-133725300D01*
X102039805Y-133710000D01*
X137949420Y-133710000D01*
X138360027Y-133768803D01*
G36*
X104902000Y-157353000D02*
X104922000Y-157353000D01*
X104922000Y-157607000D01*
X104902000Y-157607000D01*
X104902000Y-157627000D01*
X104648000Y-157627000D01*
X104648000Y-157607000D01*
X104628000Y-157607000D01*
X104628000Y-157353000D01*
X104648000Y-157353000D01*
X104648000Y-157333000D01*
X104902000Y-157333000D01*
X104902000Y-157353000D01*
X104902000Y-157353000D01*
G37*
X104902000Y-157353000D02*
X104922000Y-157353000D01*
X104922000Y-157607000D01*
X104902000Y-157607000D01*
X104902000Y-157627000D01*
X104648000Y-157627000D01*
X104648000Y-157607000D01*
X104628000Y-157607000D01*
X104628000Y-157353000D01*
X104648000Y-157353000D01*
X104648000Y-157333000D01*
X104902000Y-157333000D01*
X104902000Y-157353000D01*
G04 #@! TD*
M02*
