G04 #@! TF.GenerationSoftware,KiCad,Pcbnew,(5.0.0)*
G04 #@! TF.CreationDate,2019-04-22T16:32:08+09:00*
G04 #@! TF.ProjectId,USBi_Programmer,555342695F50726F6772616D6D65722E,rev?*
G04 #@! TF.SameCoordinates,Original*
G04 #@! TF.FileFunction,Legend,Bot*
G04 #@! TF.FilePolarity,Positive*
%FSLAX46Y46*%
G04 Gerber Fmt 4.6, Leading zero omitted, Abs format (unit mm)*
G04 Created by KiCad (PCBNEW (5.0.0)) date 04/22/19 16:32:08*
%MOMM*%
%LPD*%
G01*
G04 APERTURE LIST*
%ADD10C,0.200000*%
%ADD11C,0.120000*%
%ADD12C,0.150000*%
%ADD13O,1.900000X1.300000*%
%ADD14R,1.900000X1.300000*%
%ADD15C,1.901140*%
%ADD16R,2.400000X2.400000*%
%ADD17C,2.400000*%
%ADD18O,2.127200X2.127200*%
%ADD19R,2.127200X2.127200*%
%ADD20R,2.432000X2.432000*%
%ADD21O,2.432000X2.432000*%
%ADD22O,1.800000X1.800000*%
%ADD23C,1.800000*%
%ADD24C,4.100000*%
G04 APERTURE END LIST*
D10*
X103860523Y-141205000D02*
X103936714Y-141166904D01*
X104051000Y-141166904D01*
X104165285Y-141205000D01*
X104241476Y-141281190D01*
X104279571Y-141357380D01*
X104317666Y-141509761D01*
X104317666Y-141624047D01*
X104279571Y-141776428D01*
X104241476Y-141852619D01*
X104165285Y-141928809D01*
X104051000Y-141966904D01*
X103974809Y-141966904D01*
X103860523Y-141928809D01*
X103822428Y-141890714D01*
X103822428Y-141624047D01*
X103974809Y-141624047D01*
X103479571Y-141966904D02*
X103479571Y-141166904D01*
X103022428Y-141966904D01*
X103022428Y-141166904D01*
X102641476Y-141966904D02*
X102641476Y-141166904D01*
X102451000Y-141166904D01*
X102336714Y-141205000D01*
X102260523Y-141281190D01*
X102222428Y-141357380D01*
X102184333Y-141509761D01*
X102184333Y-141624047D01*
X102222428Y-141776428D01*
X102260523Y-141852619D01*
X102336714Y-141928809D01*
X102451000Y-141966904D01*
X102641476Y-141966904D01*
X105352857Y-138061571D02*
X105352857Y-137452047D01*
X105048095Y-137756809D02*
X105657619Y-137756809D01*
X105848095Y-136690142D02*
X105848095Y-137071095D01*
X105467142Y-137109190D01*
X105505238Y-137071095D01*
X105543333Y-136994904D01*
X105543333Y-136804428D01*
X105505238Y-136728238D01*
X105467142Y-136690142D01*
X105390952Y-136652047D01*
X105200476Y-136652047D01*
X105124285Y-136690142D01*
X105086190Y-136728238D01*
X105048095Y-136804428D01*
X105048095Y-136994904D01*
X105086190Y-137071095D01*
X105124285Y-137109190D01*
X105848095Y-136423476D02*
X105048095Y-136156809D01*
X105848095Y-135890142D01*
D11*
G04 #@! TO.C,R1*
X111760000Y-149615000D02*
X111760000Y-148545000D01*
X111760000Y-143755000D02*
X111760000Y-144825000D01*
X110900000Y-148545000D02*
X110900000Y-144825000D01*
X112620000Y-148545000D02*
X110900000Y-148545000D01*
X112620000Y-144825000D02*
X112620000Y-148545000D01*
X110900000Y-144825000D02*
X112620000Y-144825000D01*
G04 #@! TO.C,R2*
X113837000Y-162230000D02*
X113837000Y-160510000D01*
X113837000Y-160510000D02*
X117557000Y-160510000D01*
X117557000Y-160510000D02*
X117557000Y-162230000D01*
X117557000Y-162230000D02*
X113837000Y-162230000D01*
X112767000Y-161370000D02*
X113837000Y-161370000D01*
X118627000Y-161370000D02*
X117557000Y-161370000D01*
G04 #@! TO.C,R3*
X114099000Y-154657000D02*
X114099000Y-152937000D01*
X114099000Y-152937000D02*
X117819000Y-152937000D01*
X117819000Y-152937000D02*
X117819000Y-154657000D01*
X117819000Y-154657000D02*
X114099000Y-154657000D01*
X113029000Y-153797000D02*
X114099000Y-153797000D01*
X118889000Y-153797000D02*
X117819000Y-153797000D01*
G04 #@! TO.C,R4*
X113051000Y-157622000D02*
X114121000Y-157622000D01*
X118911000Y-157622000D02*
X117841000Y-157622000D01*
X114121000Y-156762000D02*
X117841000Y-156762000D01*
X114121000Y-158482000D02*
X114121000Y-156762000D01*
X117841000Y-158482000D02*
X114121000Y-158482000D01*
X117841000Y-156762000D02*
X117841000Y-158482000D01*
G04 #@! TO.C,R5*
X120487000Y-149564000D02*
X120487000Y-148494000D01*
X120487000Y-143704000D02*
X120487000Y-144774000D01*
X119627000Y-148494000D02*
X119627000Y-144774000D01*
X121347000Y-148494000D02*
X119627000Y-148494000D01*
X121347000Y-144774000D02*
X121347000Y-148494000D01*
X119627000Y-144774000D02*
X121347000Y-144774000D01*
G04 #@! TO.C,R6*
X116784000Y-149460000D02*
X116784000Y-148390000D01*
X116784000Y-143600000D02*
X116784000Y-144670000D01*
X115924000Y-148390000D02*
X115924000Y-144670000D01*
X117644000Y-148390000D02*
X115924000Y-148390000D01*
X117644000Y-144670000D02*
X117644000Y-148390000D01*
X115924000Y-144670000D02*
X117644000Y-144670000D01*
G04 #@! TO.C,R7*
X123981000Y-144825000D02*
X125701000Y-144825000D01*
X125701000Y-144825000D02*
X125701000Y-148545000D01*
X125701000Y-148545000D02*
X123981000Y-148545000D01*
X123981000Y-148545000D02*
X123981000Y-144825000D01*
X124841000Y-143755000D02*
X124841000Y-144825000D01*
X124841000Y-149615000D02*
X124841000Y-148545000D01*
G04 #@! TO.C,R8*
X123489000Y-167992000D02*
X123489000Y-166272000D01*
X123489000Y-166272000D02*
X127209000Y-166272000D01*
X127209000Y-166272000D02*
X127209000Y-167992000D01*
X127209000Y-167992000D02*
X123489000Y-167992000D01*
X122419000Y-167132000D02*
X123489000Y-167132000D01*
X128279000Y-167132000D02*
X127209000Y-167132000D01*
G04 #@! TO.C,R9*
X128735000Y-149615000D02*
X128735000Y-148545000D01*
X128735000Y-143755000D02*
X128735000Y-144825000D01*
X127875000Y-148545000D02*
X127875000Y-144825000D01*
X129595000Y-148545000D02*
X127875000Y-148545000D01*
X129595000Y-144825000D02*
X129595000Y-148545000D01*
X127875000Y-144825000D02*
X129595000Y-144825000D01*
G04 #@! TO.C,R1*
D12*
X110352380Y-146518333D02*
X109876190Y-146185000D01*
X110352380Y-145946904D02*
X109352380Y-145946904D01*
X109352380Y-146327857D01*
X109400000Y-146423095D01*
X109447619Y-146470714D01*
X109542857Y-146518333D01*
X109685714Y-146518333D01*
X109780952Y-146470714D01*
X109828571Y-146423095D01*
X109876190Y-146327857D01*
X109876190Y-145946904D01*
X110352380Y-147470714D02*
X110352380Y-146899285D01*
X110352380Y-147185000D02*
X109352380Y-147185000D01*
X109495238Y-147089761D01*
X109590476Y-146994523D01*
X109638095Y-146899285D01*
G04 #@! TO.C,R2*
X115863666Y-163682380D02*
X116197000Y-163206190D01*
X116435095Y-163682380D02*
X116435095Y-162682380D01*
X116054142Y-162682380D01*
X115958904Y-162730000D01*
X115911285Y-162777619D01*
X115863666Y-162872857D01*
X115863666Y-163015714D01*
X115911285Y-163110952D01*
X115958904Y-163158571D01*
X116054142Y-163206190D01*
X116435095Y-163206190D01*
X115482714Y-162777619D02*
X115435095Y-162730000D01*
X115339857Y-162682380D01*
X115101761Y-162682380D01*
X115006523Y-162730000D01*
X114958904Y-162777619D01*
X114911285Y-162872857D01*
X114911285Y-162968095D01*
X114958904Y-163110952D01*
X115530333Y-163682380D01*
X114911285Y-163682380D01*
G04 #@! TO.C,R3*
X115990666Y-156154380D02*
X116324000Y-155678190D01*
X116562095Y-156154380D02*
X116562095Y-155154380D01*
X116181142Y-155154380D01*
X116085904Y-155202000D01*
X116038285Y-155249619D01*
X115990666Y-155344857D01*
X115990666Y-155487714D01*
X116038285Y-155582952D01*
X116085904Y-155630571D01*
X116181142Y-155678190D01*
X116562095Y-155678190D01*
X115657333Y-155154380D02*
X115038285Y-155154380D01*
X115371619Y-155535333D01*
X115228761Y-155535333D01*
X115133523Y-155582952D01*
X115085904Y-155630571D01*
X115038285Y-155725809D01*
X115038285Y-155963904D01*
X115085904Y-156059142D01*
X115133523Y-156106761D01*
X115228761Y-156154380D01*
X115514476Y-156154380D01*
X115609714Y-156106761D01*
X115657333Y-156059142D01*
G04 #@! TO.C,R4*
X115609666Y-159964380D02*
X115943000Y-159488190D01*
X116181095Y-159964380D02*
X116181095Y-158964380D01*
X115800142Y-158964380D01*
X115704904Y-159012000D01*
X115657285Y-159059619D01*
X115609666Y-159154857D01*
X115609666Y-159297714D01*
X115657285Y-159392952D01*
X115704904Y-159440571D01*
X115800142Y-159488190D01*
X116181095Y-159488190D01*
X114752523Y-159297714D02*
X114752523Y-159964380D01*
X114990619Y-158916761D02*
X115228714Y-159631047D01*
X114609666Y-159631047D01*
G04 #@! TO.C,R5*
X119079380Y-146467333D02*
X118603190Y-146134000D01*
X119079380Y-145895904D02*
X118079380Y-145895904D01*
X118079380Y-146276857D01*
X118127000Y-146372095D01*
X118174619Y-146419714D01*
X118269857Y-146467333D01*
X118412714Y-146467333D01*
X118507952Y-146419714D01*
X118555571Y-146372095D01*
X118603190Y-146276857D01*
X118603190Y-145895904D01*
X118079380Y-147372095D02*
X118079380Y-146895904D01*
X118555571Y-146848285D01*
X118507952Y-146895904D01*
X118460333Y-146991142D01*
X118460333Y-147229238D01*
X118507952Y-147324476D01*
X118555571Y-147372095D01*
X118650809Y-147419714D01*
X118888904Y-147419714D01*
X118984142Y-147372095D01*
X119031761Y-147324476D01*
X119079380Y-147229238D01*
X119079380Y-146991142D01*
X119031761Y-146895904D01*
X118984142Y-146848285D01*
G04 #@! TO.C,R6*
X115376380Y-146363333D02*
X114900190Y-146030000D01*
X115376380Y-145791904D02*
X114376380Y-145791904D01*
X114376380Y-146172857D01*
X114424000Y-146268095D01*
X114471619Y-146315714D01*
X114566857Y-146363333D01*
X114709714Y-146363333D01*
X114804952Y-146315714D01*
X114852571Y-146268095D01*
X114900190Y-146172857D01*
X114900190Y-145791904D01*
X114376380Y-147220476D02*
X114376380Y-147030000D01*
X114424000Y-146934761D01*
X114471619Y-146887142D01*
X114614476Y-146791904D01*
X114804952Y-146744285D01*
X115185904Y-146744285D01*
X115281142Y-146791904D01*
X115328761Y-146839523D01*
X115376380Y-146934761D01*
X115376380Y-147125238D01*
X115328761Y-147220476D01*
X115281142Y-147268095D01*
X115185904Y-147315714D01*
X114947809Y-147315714D01*
X114852571Y-147268095D01*
X114804952Y-147220476D01*
X114757333Y-147125238D01*
X114757333Y-146934761D01*
X114804952Y-146839523D01*
X114852571Y-146791904D01*
X114947809Y-146744285D01*
G04 #@! TO.C,R7*
X123433380Y-146518333D02*
X122957190Y-146185000D01*
X123433380Y-145946904D02*
X122433380Y-145946904D01*
X122433380Y-146327857D01*
X122481000Y-146423095D01*
X122528619Y-146470714D01*
X122623857Y-146518333D01*
X122766714Y-146518333D01*
X122861952Y-146470714D01*
X122909571Y-146423095D01*
X122957190Y-146327857D01*
X122957190Y-145946904D01*
X122433380Y-146851666D02*
X122433380Y-147518333D01*
X123433380Y-147089761D01*
G04 #@! TO.C,R8*
X125515666Y-169444380D02*
X125849000Y-168968190D01*
X126087095Y-169444380D02*
X126087095Y-168444380D01*
X125706142Y-168444380D01*
X125610904Y-168492000D01*
X125563285Y-168539619D01*
X125515666Y-168634857D01*
X125515666Y-168777714D01*
X125563285Y-168872952D01*
X125610904Y-168920571D01*
X125706142Y-168968190D01*
X126087095Y-168968190D01*
X124944238Y-168872952D02*
X125039476Y-168825333D01*
X125087095Y-168777714D01*
X125134714Y-168682476D01*
X125134714Y-168634857D01*
X125087095Y-168539619D01*
X125039476Y-168492000D01*
X124944238Y-168444380D01*
X124753761Y-168444380D01*
X124658523Y-168492000D01*
X124610904Y-168539619D01*
X124563285Y-168634857D01*
X124563285Y-168682476D01*
X124610904Y-168777714D01*
X124658523Y-168825333D01*
X124753761Y-168872952D01*
X124944238Y-168872952D01*
X125039476Y-168920571D01*
X125087095Y-168968190D01*
X125134714Y-169063428D01*
X125134714Y-169253904D01*
X125087095Y-169349142D01*
X125039476Y-169396761D01*
X124944238Y-169444380D01*
X124753761Y-169444380D01*
X124658523Y-169396761D01*
X124610904Y-169349142D01*
X124563285Y-169253904D01*
X124563285Y-169063428D01*
X124610904Y-168968190D01*
X124658523Y-168920571D01*
X124753761Y-168872952D01*
G04 #@! TO.C,R9*
X127327380Y-146518333D02*
X126851190Y-146185000D01*
X127327380Y-145946904D02*
X126327380Y-145946904D01*
X126327380Y-146327857D01*
X126375000Y-146423095D01*
X126422619Y-146470714D01*
X126517857Y-146518333D01*
X126660714Y-146518333D01*
X126755952Y-146470714D01*
X126803571Y-146423095D01*
X126851190Y-146327857D01*
X126851190Y-145946904D01*
X127327380Y-146994523D02*
X127327380Y-147185000D01*
X127279761Y-147280238D01*
X127232142Y-147327857D01*
X127089285Y-147423095D01*
X126898809Y-147470714D01*
X126517857Y-147470714D01*
X126422619Y-147423095D01*
X126375000Y-147375476D01*
X126327380Y-147280238D01*
X126327380Y-147089761D01*
X126375000Y-146994523D01*
X126422619Y-146946904D01*
X126517857Y-146899285D01*
X126755952Y-146899285D01*
X126851190Y-146946904D01*
X126898809Y-146994523D01*
X126946428Y-147089761D01*
X126946428Y-147280238D01*
X126898809Y-147375476D01*
X126851190Y-147423095D01*
X126755952Y-147470714D01*
G04 #@! TD*
%LPC*%
D13*
G04 #@! TO.C,Q1*
X124206000Y-161798000D03*
X124206000Y-160528000D03*
D14*
X124206000Y-163068000D03*
G04 #@! TD*
D15*
G04 #@! TO.C,C1*
X109220000Y-139065000D03*
X109220000Y-136525000D03*
G04 #@! TD*
D16*
G04 #@! TO.C,D1*
X129779000Y-137811000D03*
D17*
X127239000Y-137811000D03*
G04 #@! TD*
D16*
G04 #@! TO.C,D2*
X123739000Y-137811000D03*
D17*
X121199000Y-137811000D03*
G04 #@! TD*
D16*
G04 #@! TO.C,D3*
X117739000Y-137811000D03*
D17*
X115199000Y-137811000D03*
G04 #@! TD*
D16*
G04 #@! TO.C,D4*
X135739000Y-137811000D03*
D17*
X133199000Y-137811000D03*
G04 #@! TD*
D15*
G04 #@! TO.C,C2*
X115062000Y-165862000D03*
X112522000Y-165862000D03*
G04 #@! TD*
D18*
G04 #@! TO.C,P1*
X107315000Y-167640000D03*
X104775000Y-167640000D03*
X107315000Y-165100000D03*
X104775000Y-165100000D03*
X107315000Y-162560000D03*
X104775000Y-162560000D03*
X107315000Y-160020000D03*
X104775000Y-160020000D03*
X107315000Y-157480000D03*
X104775000Y-157480000D03*
X107315000Y-154940000D03*
X104775000Y-154940000D03*
X107315000Y-152400000D03*
X104775000Y-152400000D03*
X107315000Y-149860000D03*
X104775000Y-149860000D03*
X107315000Y-147320000D03*
X104775000Y-147320000D03*
X107315000Y-144780000D03*
D19*
X104775000Y-144780000D03*
G04 #@! TD*
G04 #@! TO.C,P2*
X115062000Y-175768000D03*
D18*
X115062000Y-173228000D03*
X117602000Y-175768000D03*
X117602000Y-173228000D03*
X120142000Y-175768000D03*
X120142000Y-173228000D03*
X122682000Y-175768000D03*
X122682000Y-173228000D03*
X125222000Y-175768000D03*
X125222000Y-173228000D03*
G04 #@! TD*
D20*
G04 #@! TO.C,P3*
X103205000Y-136935000D03*
D21*
X103205000Y-139475000D03*
G04 #@! TD*
D19*
G04 #@! TO.C,P4*
X132715000Y-144780000D03*
D18*
X135255000Y-144780000D03*
X132715000Y-147320000D03*
X135255000Y-147320000D03*
X132715000Y-149860000D03*
X135255000Y-149860000D03*
X132715000Y-152400000D03*
X135255000Y-152400000D03*
X132715000Y-154940000D03*
X135255000Y-154940000D03*
X132715000Y-157480000D03*
X135255000Y-157480000D03*
X132715000Y-160020000D03*
X135255000Y-160020000D03*
X132715000Y-162560000D03*
X135255000Y-162560000D03*
X132715000Y-165100000D03*
X135255000Y-165100000D03*
X132715000Y-167640000D03*
X135255000Y-167640000D03*
G04 #@! TD*
D22*
G04 #@! TO.C,R1*
X111760000Y-150495000D03*
D23*
X111760000Y-142875000D03*
G04 #@! TD*
G04 #@! TO.C,R2*
X111887000Y-161370000D03*
D22*
X119507000Y-161370000D03*
G04 #@! TD*
D23*
G04 #@! TO.C,R3*
X112149000Y-153797000D03*
D22*
X119769000Y-153797000D03*
G04 #@! TD*
G04 #@! TO.C,R4*
X112171000Y-157622000D03*
D23*
X119791000Y-157622000D03*
G04 #@! TD*
D22*
G04 #@! TO.C,R5*
X120487000Y-150444000D03*
D23*
X120487000Y-142824000D03*
G04 #@! TD*
D22*
G04 #@! TO.C,R6*
X116784000Y-150340000D03*
D23*
X116784000Y-142720000D03*
G04 #@! TD*
G04 #@! TO.C,R7*
X124841000Y-142875000D03*
D22*
X124841000Y-150495000D03*
G04 #@! TD*
D23*
G04 #@! TO.C,R8*
X121539000Y-167132000D03*
D22*
X129159000Y-167132000D03*
G04 #@! TD*
G04 #@! TO.C,R9*
X128735000Y-150495000D03*
D23*
X128735000Y-142875000D03*
G04 #@! TD*
D14*
G04 #@! TO.C,Q2*
X123444000Y-154432000D03*
D13*
X123444000Y-156972000D03*
X123444000Y-155702000D03*
G04 #@! TD*
D24*
G04 #@! TO.C,REF\002A\002A*
X103759000Y-176530000D03*
G04 #@! TD*
G04 #@! TO.C,REF\002A\002A1*
X136271000Y-176530000D03*
G04 #@! TD*
M02*
