M48
;DRILL file {KiCad (5.0.0)} date 04/22/19 16:32:14
;FORMAT={-:-/ absolute / metric / decimal}
FMAT,2
METRIC,TZ
T1C0.400
T2C0.600
T3C0.700
T4C0.800
T5C1.001
T6C1.016
T7C3.700
%
G90
G05
M71
T1
X137.922Y-158.369
T2
X123.444Y-154.432
X123.444Y-155.702
X123.444Y-156.972
X124.206Y-160.528
X124.206Y-161.798
X124.206Y-163.068
T3
X121.539Y-167.132
X129.159Y-167.132
X120.487Y-142.824
X120.487Y-150.444
X111.887Y-161.37
X119.507Y-161.37
X124.841Y-142.875
X124.841Y-150.495
X112.171Y-157.622
X119.791Y-157.622
X128.735Y-142.875
X128.735Y-150.495
X116.784Y-142.72
X116.784Y-150.34
X111.76Y-142.875
X111.76Y-150.495
X112.149Y-153.797
X119.769Y-153.797
T4
X112.522Y-165.862
X115.062Y-165.862
X109.22Y-136.525
X109.22Y-139.065
T5
X127.239Y-137.811
X115.199Y-137.811
X117.739Y-137.811
X121.199Y-137.811
X123.739Y-137.811
X133.199Y-137.811
X135.739Y-137.811
X129.779Y-137.811
T6
X103.205Y-136.935
X103.205Y-139.475
X115.062Y-173.228
X115.062Y-175.768
X117.602Y-173.228
X117.602Y-175.768
X120.142Y-173.228
X120.142Y-175.768
X122.682Y-173.228
X122.682Y-175.768
X125.222Y-173.228
X125.222Y-175.768
X132.715Y-144.78
X132.715Y-147.32
X132.715Y-149.86
X132.715Y-152.4
X132.715Y-154.94
X132.715Y-157.48
X132.715Y-160.02
X132.715Y-162.56
X132.715Y-165.1
X132.715Y-167.64
X135.255Y-144.78
X135.255Y-147.32
X135.255Y-149.86
X135.255Y-152.4
X135.255Y-154.94
X135.255Y-157.48
X135.255Y-160.02
X135.255Y-162.56
X135.255Y-165.1
X135.255Y-167.64
X104.775Y-144.78
X104.775Y-147.32
X104.775Y-149.86
X104.775Y-152.4
X104.775Y-154.94
X104.775Y-157.48
X104.775Y-160.02
X104.775Y-162.56
X104.775Y-165.1
X104.775Y-167.64
X107.315Y-144.78
X107.315Y-147.32
X107.315Y-149.86
X107.315Y-152.4
X107.315Y-154.94
X107.315Y-157.48
X107.315Y-160.02
X107.315Y-162.56
X107.315Y-165.1
X107.315Y-167.64
T7
X136.271Y-176.53
X103.759Y-176.53
T0
M30
