G04 #@! TF.GenerationSoftware,KiCad,Pcbnew,(5.0.0)*
G04 #@! TF.CreationDate,2019-04-22T16:32:08+09:00*
G04 #@! TF.ProjectId,USBi_Programmer,555342695F50726F6772616D6D65722E,rev?*
G04 #@! TF.SameCoordinates,Original*
G04 #@! TF.FileFunction,Soldermask,Bot*
G04 #@! TF.FilePolarity,Negative*
%FSLAX46Y46*%
G04 Gerber Fmt 4.6, Leading zero omitted, Abs format (unit mm)*
G04 Created by KiCad (PCBNEW (5.0.0)) date 04/22/19 16:32:08*
%MOMM*%
%LPD*%
G01*
G04 APERTURE LIST*
%ADD10O,1.900000X1.300000*%
%ADD11R,1.900000X1.300000*%
%ADD12C,1.901140*%
%ADD13R,2.400000X2.400000*%
%ADD14C,2.400000*%
%ADD15O,2.127200X2.127200*%
%ADD16R,2.127200X2.127200*%
%ADD17R,2.432000X2.432000*%
%ADD18O,2.432000X2.432000*%
%ADD19O,1.800000X1.800000*%
%ADD20C,1.800000*%
%ADD21C,4.100000*%
G04 APERTURE END LIST*
D10*
G04 #@! TO.C,Q1*
X124206000Y-161798000D03*
X124206000Y-160528000D03*
D11*
X124206000Y-163068000D03*
G04 #@! TD*
D12*
G04 #@! TO.C,C1*
X109220000Y-139065000D03*
X109220000Y-136525000D03*
G04 #@! TD*
D13*
G04 #@! TO.C,D1*
X129779000Y-137811000D03*
D14*
X127239000Y-137811000D03*
G04 #@! TD*
D13*
G04 #@! TO.C,D2*
X123739000Y-137811000D03*
D14*
X121199000Y-137811000D03*
G04 #@! TD*
D13*
G04 #@! TO.C,D3*
X117739000Y-137811000D03*
D14*
X115199000Y-137811000D03*
G04 #@! TD*
D13*
G04 #@! TO.C,D4*
X135739000Y-137811000D03*
D14*
X133199000Y-137811000D03*
G04 #@! TD*
D12*
G04 #@! TO.C,C2*
X115062000Y-165862000D03*
X112522000Y-165862000D03*
G04 #@! TD*
D15*
G04 #@! TO.C,P1*
X107315000Y-167640000D03*
X104775000Y-167640000D03*
X107315000Y-165100000D03*
X104775000Y-165100000D03*
X107315000Y-162560000D03*
X104775000Y-162560000D03*
X107315000Y-160020000D03*
X104775000Y-160020000D03*
X107315000Y-157480000D03*
X104775000Y-157480000D03*
X107315000Y-154940000D03*
X104775000Y-154940000D03*
X107315000Y-152400000D03*
X104775000Y-152400000D03*
X107315000Y-149860000D03*
X104775000Y-149860000D03*
X107315000Y-147320000D03*
X104775000Y-147320000D03*
X107315000Y-144780000D03*
D16*
X104775000Y-144780000D03*
G04 #@! TD*
G04 #@! TO.C,P2*
X115062000Y-175768000D03*
D15*
X115062000Y-173228000D03*
X117602000Y-175768000D03*
X117602000Y-173228000D03*
X120142000Y-175768000D03*
X120142000Y-173228000D03*
X122682000Y-175768000D03*
X122682000Y-173228000D03*
X125222000Y-175768000D03*
X125222000Y-173228000D03*
G04 #@! TD*
D17*
G04 #@! TO.C,P3*
X103205000Y-136935000D03*
D18*
X103205000Y-139475000D03*
G04 #@! TD*
D16*
G04 #@! TO.C,P4*
X132715000Y-144780000D03*
D15*
X135255000Y-144780000D03*
X132715000Y-147320000D03*
X135255000Y-147320000D03*
X132715000Y-149860000D03*
X135255000Y-149860000D03*
X132715000Y-152400000D03*
X135255000Y-152400000D03*
X132715000Y-154940000D03*
X135255000Y-154940000D03*
X132715000Y-157480000D03*
X135255000Y-157480000D03*
X132715000Y-160020000D03*
X135255000Y-160020000D03*
X132715000Y-162560000D03*
X135255000Y-162560000D03*
X132715000Y-165100000D03*
X135255000Y-165100000D03*
X132715000Y-167640000D03*
X135255000Y-167640000D03*
G04 #@! TD*
D19*
G04 #@! TO.C,R1*
X111760000Y-150495000D03*
D20*
X111760000Y-142875000D03*
G04 #@! TD*
G04 #@! TO.C,R2*
X111887000Y-161370000D03*
D19*
X119507000Y-161370000D03*
G04 #@! TD*
D20*
G04 #@! TO.C,R3*
X112149000Y-153797000D03*
D19*
X119769000Y-153797000D03*
G04 #@! TD*
G04 #@! TO.C,R4*
X112171000Y-157622000D03*
D20*
X119791000Y-157622000D03*
G04 #@! TD*
D19*
G04 #@! TO.C,R5*
X120487000Y-150444000D03*
D20*
X120487000Y-142824000D03*
G04 #@! TD*
D19*
G04 #@! TO.C,R6*
X116784000Y-150340000D03*
D20*
X116784000Y-142720000D03*
G04 #@! TD*
G04 #@! TO.C,R7*
X124841000Y-142875000D03*
D19*
X124841000Y-150495000D03*
G04 #@! TD*
D20*
G04 #@! TO.C,R8*
X121539000Y-167132000D03*
D19*
X129159000Y-167132000D03*
G04 #@! TD*
G04 #@! TO.C,R9*
X128735000Y-150495000D03*
D20*
X128735000Y-142875000D03*
G04 #@! TD*
D11*
G04 #@! TO.C,Q2*
X123444000Y-154432000D03*
D10*
X123444000Y-156972000D03*
X123444000Y-155702000D03*
G04 #@! TD*
D21*
G04 #@! TO.C,REF\002A\002A*
X103759000Y-176530000D03*
G04 #@! TD*
G04 #@! TO.C,REF\002A\002A1*
X136271000Y-176530000D03*
G04 #@! TD*
M02*
