G04 #@! TF.GenerationSoftware,KiCad,Pcbnew,(5.0.0)*
G04 #@! TF.CreationDate,2019-04-22T16:32:08+09:00*
G04 #@! TF.ProjectId,USBi_Programmer,555342695F50726F6772616D6D65722E,rev?*
G04 #@! TF.SameCoordinates,Original*
G04 #@! TF.FileFunction,Legend,Top*
G04 #@! TF.FilePolarity,Positive*
%FSLAX46Y46*%
G04 Gerber Fmt 4.6, Leading zero omitted, Abs format (unit mm)*
G04 Created by KiCad (PCBNEW (5.0.0)) date 04/22/19 16:32:08*
%MOMM*%
%LPD*%
G01*
G04 APERTURE LIST*
%ADD10C,0.200000*%
%ADD11C,0.300000*%
%ADD12C,0.120000*%
%ADD13C,0.150000*%
%ADD14C,0.100000*%
%ADD15O,1.900000X1.300000*%
%ADD16R,1.900000X1.300000*%
%ADD17C,1.901140*%
%ADD18R,2.400000X2.400000*%
%ADD19C,2.400000*%
%ADD20O,2.127200X2.127200*%
%ADD21R,2.127200X2.127200*%
%ADD22R,2.432000X2.432000*%
%ADD23O,2.432000X2.432000*%
%ADD24R,0.740000X1.440000*%
%ADD25R,1.440000X0.740000*%
%ADD26O,1.800000X1.800000*%
%ADD27C,1.800000*%
%ADD28C,4.100000*%
%ADD29R,1.700000X1.900000*%
%ADD30R,1.900000X1.700000*%
G04 APERTURE END LIST*
D10*
X102362095Y-141613000D02*
X102266857Y-141565380D01*
X102124000Y-141565380D01*
X101981142Y-141613000D01*
X101885904Y-141708238D01*
X101838285Y-141803476D01*
X101790666Y-141993952D01*
X101790666Y-142136809D01*
X101838285Y-142327285D01*
X101885904Y-142422523D01*
X101981142Y-142517761D01*
X102124000Y-142565380D01*
X102219238Y-142565380D01*
X102362095Y-142517761D01*
X102409714Y-142470142D01*
X102409714Y-142136809D01*
X102219238Y-142136809D01*
X102838285Y-142565380D02*
X102838285Y-141565380D01*
X103409714Y-142565380D01*
X103409714Y-141565380D01*
X103885904Y-142565380D02*
X103885904Y-141565380D01*
X104124000Y-141565380D01*
X104266857Y-141613000D01*
X104362095Y-141708238D01*
X104409714Y-141803476D01*
X104457333Y-141993952D01*
X104457333Y-142136809D01*
X104409714Y-142327285D01*
X104362095Y-142422523D01*
X104266857Y-142517761D01*
X104124000Y-142565380D01*
X103885904Y-142565380D01*
X102092285Y-134437428D02*
X102854190Y-134437428D01*
X102473238Y-134818380D02*
X102473238Y-134056476D01*
X103806571Y-133818380D02*
X103330380Y-133818380D01*
X103282761Y-134294571D01*
X103330380Y-134246952D01*
X103425619Y-134199333D01*
X103663714Y-134199333D01*
X103758952Y-134246952D01*
X103806571Y-134294571D01*
X103854190Y-134389809D01*
X103854190Y-134627904D01*
X103806571Y-134723142D01*
X103758952Y-134770761D01*
X103663714Y-134818380D01*
X103425619Y-134818380D01*
X103330380Y-134770761D01*
X103282761Y-134723142D01*
X104139904Y-133818380D02*
X104473238Y-134818380D01*
X104806571Y-133818380D01*
D11*
X138624428Y-147114571D02*
X138624428Y-147686000D01*
X137624428Y-147328857D02*
X138910142Y-147328857D01*
X139053000Y-147400285D01*
X139124428Y-147543142D01*
X139124428Y-147686000D01*
X137624428Y-148186000D02*
X138624428Y-148186000D01*
X138338714Y-148186000D02*
X138481571Y-148257428D01*
X138553000Y-148328857D01*
X138624428Y-148471714D01*
X138624428Y-148614571D01*
X137695857Y-149686000D02*
X137624428Y-149543142D01*
X137624428Y-149257428D01*
X137695857Y-149114571D01*
X137838714Y-149043142D01*
X138410142Y-149043142D01*
X138553000Y-149114571D01*
X138624428Y-149257428D01*
X138624428Y-149543142D01*
X138553000Y-149686000D01*
X138410142Y-149757428D01*
X138267285Y-149757428D01*
X138124428Y-149043142D01*
X137695857Y-150971714D02*
X137624428Y-150828857D01*
X137624428Y-150543142D01*
X137695857Y-150400285D01*
X137838714Y-150328857D01*
X138410142Y-150328857D01*
X138553000Y-150400285D01*
X138624428Y-150543142D01*
X138624428Y-150828857D01*
X138553000Y-150971714D01*
X138410142Y-151043142D01*
X138267285Y-151043142D01*
X138124428Y-150328857D01*
X139124428Y-151686000D02*
X137910142Y-151686000D01*
X137767285Y-151757428D01*
X137695857Y-151828857D01*
X137624428Y-151971714D01*
X137624428Y-152257428D01*
X137695857Y-152400285D01*
X137767285Y-152471714D01*
X137910142Y-152543142D01*
X139124428Y-152543142D01*
X137695857Y-153186000D02*
X137624428Y-153400285D01*
X137624428Y-153757428D01*
X137695857Y-153900285D01*
X137767285Y-153971714D01*
X137910142Y-154043142D01*
X138053000Y-154043142D01*
X138195857Y-153971714D01*
X138267285Y-153900285D01*
X138338714Y-153757428D01*
X138410142Y-153471714D01*
X138481571Y-153328857D01*
X138553000Y-153257428D01*
X138695857Y-153186000D01*
X138838714Y-153186000D01*
X138981571Y-153257428D01*
X139053000Y-153328857D01*
X139124428Y-153471714D01*
X139124428Y-153828857D01*
X139053000Y-154043142D01*
X138410142Y-155186000D02*
X138338714Y-155400285D01*
X138267285Y-155471714D01*
X138124428Y-155543142D01*
X137910142Y-155543142D01*
X137767285Y-155471714D01*
X137695857Y-155400285D01*
X137624428Y-155257428D01*
X137624428Y-154686000D01*
X139124428Y-154686000D01*
X139124428Y-155186000D01*
X139053000Y-155328857D01*
X138981571Y-155400285D01*
X138838714Y-155471714D01*
X138695857Y-155471714D01*
X138553000Y-155400285D01*
X138481571Y-155328857D01*
X138410142Y-155186000D01*
X138410142Y-154686000D01*
X137624428Y-156186000D02*
X138624428Y-156186000D01*
X139124428Y-156186000D02*
X139053000Y-156114571D01*
X138981571Y-156186000D01*
X139053000Y-156257428D01*
X139124428Y-156186000D01*
X138981571Y-156186000D01*
X138624428Y-157900285D02*
X137624428Y-158257428D01*
X138624428Y-158614571D01*
X139124428Y-159471714D02*
X139124428Y-159614571D01*
X139053000Y-159757428D01*
X138981571Y-159828857D01*
X138838714Y-159900285D01*
X138553000Y-159971714D01*
X138195857Y-159971714D01*
X137910142Y-159900285D01*
X137767285Y-159828857D01*
X137695857Y-159757428D01*
X137624428Y-159614571D01*
X137624428Y-159471714D01*
X137695857Y-159328857D01*
X137767285Y-159257428D01*
X137910142Y-159186000D01*
X138195857Y-159114571D01*
X138553000Y-159114571D01*
X138838714Y-159186000D01*
X138981571Y-159257428D01*
X139053000Y-159328857D01*
X139124428Y-159471714D01*
X137767285Y-160614571D02*
X137695857Y-160686000D01*
X137624428Y-160614571D01*
X137695857Y-160543142D01*
X137767285Y-160614571D01*
X137624428Y-160614571D01*
X139124428Y-161186000D02*
X139124428Y-162114571D01*
X138553000Y-161614571D01*
X138553000Y-161828857D01*
X138481571Y-161971714D01*
X138410142Y-162043142D01*
X138267285Y-162114571D01*
X137910142Y-162114571D01*
X137767285Y-162043142D01*
X137695857Y-161971714D01*
X137624428Y-161828857D01*
X137624428Y-161400285D01*
X137695857Y-161257428D01*
X137767285Y-161186000D01*
X102048428Y-145765285D02*
X101048428Y-146051000D01*
X101762714Y-146336714D01*
X101048428Y-146622428D01*
X102048428Y-146908142D01*
X102048428Y-147336714D02*
X101048428Y-147622428D01*
X101762714Y-147908142D01*
X101048428Y-148193857D01*
X102048428Y-148479571D01*
X102048428Y-148908142D02*
X101048428Y-149193857D01*
X101762714Y-149479571D01*
X101048428Y-149765285D01*
X102048428Y-150051000D01*
X101191285Y-150622428D02*
X101119857Y-150693857D01*
X101048428Y-150622428D01*
X101119857Y-150551000D01*
X101191285Y-150622428D01*
X101048428Y-150622428D01*
X102048428Y-151122428D02*
X102048428Y-151693857D01*
X101048428Y-151336714D02*
X102334142Y-151336714D01*
X102477000Y-151408142D01*
X102548428Y-151551000D01*
X102548428Y-151693857D01*
X101048428Y-152193857D02*
X102048428Y-152193857D01*
X101762714Y-152193857D02*
X101905571Y-152265285D01*
X101977000Y-152336714D01*
X102048428Y-152479571D01*
X102048428Y-152622428D01*
X101119857Y-153693857D02*
X101048428Y-153551000D01*
X101048428Y-153265285D01*
X101119857Y-153122428D01*
X101262714Y-153051000D01*
X101834142Y-153051000D01*
X101977000Y-153122428D01*
X102048428Y-153265285D01*
X102048428Y-153551000D01*
X101977000Y-153693857D01*
X101834142Y-153765285D01*
X101691285Y-153765285D01*
X101548428Y-153051000D01*
X101119857Y-154979571D02*
X101048428Y-154836714D01*
X101048428Y-154551000D01*
X101119857Y-154408142D01*
X101262714Y-154336714D01*
X101834142Y-154336714D01*
X101977000Y-154408142D01*
X102048428Y-154551000D01*
X102048428Y-154836714D01*
X101977000Y-154979571D01*
X101834142Y-155051000D01*
X101691285Y-155051000D01*
X101548428Y-154336714D01*
X101048428Y-156336714D02*
X102548428Y-156336714D01*
X101119857Y-156336714D02*
X101048428Y-156193857D01*
X101048428Y-155908142D01*
X101119857Y-155765285D01*
X101191285Y-155693857D01*
X101334142Y-155622428D01*
X101762714Y-155622428D01*
X101905571Y-155693857D01*
X101977000Y-155765285D01*
X102048428Y-155908142D01*
X102048428Y-156193857D01*
X101977000Y-156336714D01*
X101119857Y-156979571D02*
X101048428Y-157122428D01*
X101048428Y-157408142D01*
X101119857Y-157551000D01*
X101262714Y-157622428D01*
X101334142Y-157622428D01*
X101477000Y-157551000D01*
X101548428Y-157408142D01*
X101548428Y-157193857D01*
X101619857Y-157051000D01*
X101762714Y-156979571D01*
X101834142Y-156979571D01*
X101977000Y-157051000D01*
X102048428Y-157193857D01*
X102048428Y-157408142D01*
X101977000Y-157551000D01*
X102048428Y-158265285D02*
X100548428Y-158265285D01*
X101977000Y-158265285D02*
X102048428Y-158408142D01*
X102048428Y-158693857D01*
X101977000Y-158836714D01*
X101905571Y-158908142D01*
X101762714Y-158979571D01*
X101334142Y-158979571D01*
X101191285Y-158908142D01*
X101119857Y-158836714D01*
X101048428Y-158693857D01*
X101048428Y-158408142D01*
X101119857Y-158265285D01*
X101191285Y-159622428D02*
X101119857Y-159693857D01*
X101048428Y-159622428D01*
X101119857Y-159551000D01*
X101191285Y-159622428D01*
X101048428Y-159622428D01*
X101119857Y-160979571D02*
X101048428Y-160836714D01*
X101048428Y-160551000D01*
X101119857Y-160408142D01*
X101191285Y-160336714D01*
X101334142Y-160265285D01*
X101762714Y-160265285D01*
X101905571Y-160336714D01*
X101977000Y-160408142D01*
X102048428Y-160551000D01*
X102048428Y-160836714D01*
X101977000Y-160979571D01*
X101119857Y-162265285D02*
X101048428Y-162122428D01*
X101048428Y-161836714D01*
X101119857Y-161693857D01*
X101191285Y-161622428D01*
X101334142Y-161551000D01*
X101762714Y-161551000D01*
X101905571Y-161622428D01*
X101977000Y-161693857D01*
X102048428Y-161836714D01*
X102048428Y-162122428D01*
X101977000Y-162265285D01*
D10*
X104326000Y-170519047D02*
X104326000Y-171895238D01*
X104392666Y-172057142D01*
X104459333Y-172138095D01*
X104592666Y-172219047D01*
X104859333Y-172219047D01*
X104992666Y-172138095D01*
X105059333Y-172057142D01*
X105126000Y-171895238D01*
X105126000Y-170519047D01*
X105726000Y-172138095D02*
X105926000Y-172219047D01*
X106259333Y-172219047D01*
X106392666Y-172138095D01*
X106459333Y-172057142D01*
X106526000Y-171895238D01*
X106526000Y-171733333D01*
X106459333Y-171571428D01*
X106392666Y-171490476D01*
X106259333Y-171409523D01*
X105992666Y-171328571D01*
X105859333Y-171247619D01*
X105792666Y-171166666D01*
X105726000Y-171004761D01*
X105726000Y-170842857D01*
X105792666Y-170680952D01*
X105859333Y-170600000D01*
X105992666Y-170519047D01*
X106326000Y-170519047D01*
X106526000Y-170600000D01*
X107592666Y-171328571D02*
X107792666Y-171409523D01*
X107859333Y-171490476D01*
X107926000Y-171652380D01*
X107926000Y-171895238D01*
X107859333Y-172057142D01*
X107792666Y-172138095D01*
X107659333Y-172219047D01*
X107126000Y-172219047D01*
X107126000Y-170519047D01*
X107592666Y-170519047D01*
X107726000Y-170600000D01*
X107792666Y-170680952D01*
X107859333Y-170842857D01*
X107859333Y-171004761D01*
X107792666Y-171166666D01*
X107726000Y-171247619D01*
X107592666Y-171328571D01*
X107126000Y-171328571D01*
X108526000Y-172219047D02*
X108526000Y-171085714D01*
X108526000Y-170519047D02*
X108459333Y-170600000D01*
X108526000Y-170680952D01*
X108592666Y-170600000D01*
X108526000Y-170519047D01*
X108526000Y-170680952D01*
X127420809Y-134881880D02*
X127420809Y-133881880D01*
X127849380Y-133977119D02*
X127897000Y-133929500D01*
X127992238Y-133881880D01*
X128230333Y-133881880D01*
X128325571Y-133929500D01*
X128373190Y-133977119D01*
X128420809Y-134072357D01*
X128420809Y-134167595D01*
X128373190Y-134310452D01*
X127801761Y-134881880D01*
X128420809Y-134881880D01*
X129420809Y-134786642D02*
X129373190Y-134834261D01*
X129230333Y-134881880D01*
X129135095Y-134881880D01*
X128992238Y-134834261D01*
X128897000Y-134739023D01*
X128849380Y-134643785D01*
X128801761Y-134453309D01*
X128801761Y-134310452D01*
X128849380Y-134119976D01*
X128897000Y-134024738D01*
X128992238Y-133929500D01*
X129135095Y-133881880D01*
X129230333Y-133881880D01*
X129373190Y-133929500D01*
X129420809Y-133977119D01*
X121301000Y-133993000D02*
X121205761Y-133945380D01*
X121062904Y-133945380D01*
X120920047Y-133993000D01*
X120824809Y-134088238D01*
X120777190Y-134183476D01*
X120729571Y-134373952D01*
X120729571Y-134516809D01*
X120777190Y-134707285D01*
X120824809Y-134802523D01*
X120920047Y-134897761D01*
X121062904Y-134945380D01*
X121158142Y-134945380D01*
X121301000Y-134897761D01*
X121348619Y-134850142D01*
X121348619Y-134516809D01*
X121158142Y-134516809D01*
X121777190Y-134945380D02*
X121777190Y-133945380D01*
X122158142Y-133945380D01*
X122253380Y-133993000D01*
X122301000Y-134040619D01*
X122348619Y-134135857D01*
X122348619Y-134278714D01*
X122301000Y-134373952D01*
X122253380Y-134421571D01*
X122158142Y-134469190D01*
X121777190Y-134469190D01*
X122777190Y-134945380D02*
X122777190Y-133945380D01*
X123443857Y-133945380D02*
X123634333Y-133945380D01*
X123729571Y-133993000D01*
X123824809Y-134088238D01*
X123872428Y-134278714D01*
X123872428Y-134612047D01*
X123824809Y-134802523D01*
X123729571Y-134897761D01*
X123634333Y-134945380D01*
X123443857Y-134945380D01*
X123348619Y-134897761D01*
X123253380Y-134802523D01*
X123205761Y-134612047D01*
X123205761Y-134278714D01*
X123253380Y-134088238D01*
X123348619Y-133993000D01*
X123443857Y-133945380D01*
X115338190Y-134915761D02*
X115481047Y-134963380D01*
X115719142Y-134963380D01*
X115814380Y-134915761D01*
X115862000Y-134868142D01*
X115909619Y-134772904D01*
X115909619Y-134677666D01*
X115862000Y-134582428D01*
X115814380Y-134534809D01*
X115719142Y-134487190D01*
X115528666Y-134439571D01*
X115433428Y-134391952D01*
X115385809Y-134344333D01*
X115338190Y-134249095D01*
X115338190Y-134153857D01*
X115385809Y-134058619D01*
X115433428Y-134011000D01*
X115528666Y-133963380D01*
X115766761Y-133963380D01*
X115909619Y-134011000D01*
X116338190Y-134963380D02*
X116338190Y-133963380D01*
X116719142Y-133963380D01*
X116814380Y-134011000D01*
X116862000Y-134058619D01*
X116909619Y-134153857D01*
X116909619Y-134296714D01*
X116862000Y-134391952D01*
X116814380Y-134439571D01*
X116719142Y-134487190D01*
X116338190Y-134487190D01*
X117338190Y-134963380D02*
X117338190Y-133963380D01*
X132905666Y-135072380D02*
X132905666Y-134072380D01*
X133286619Y-134072380D01*
X133381857Y-134120000D01*
X133429476Y-134167619D01*
X133477095Y-134262857D01*
X133477095Y-134405714D01*
X133429476Y-134500952D01*
X133381857Y-134548571D01*
X133286619Y-134596190D01*
X132905666Y-134596190D01*
X133810428Y-134072380D02*
X134048523Y-135072380D01*
X134239000Y-134358095D01*
X134429476Y-135072380D01*
X134667571Y-134072380D01*
X135619952Y-135072380D02*
X135286619Y-134596190D01*
X135048523Y-135072380D02*
X135048523Y-134072380D01*
X135429476Y-134072380D01*
X135524714Y-134120000D01*
X135572333Y-134167619D01*
X135619952Y-134262857D01*
X135619952Y-134405714D01*
X135572333Y-134500952D01*
X135524714Y-134548571D01*
X135429476Y-134596190D01*
X135048523Y-134596190D01*
D12*
G04 #@! TO.C,Q1*
X126056000Y-163598000D02*
X126056000Y-159998000D01*
X126044478Y-163636478D02*
G75*
G02X121606000Y-161798000I-1838478J1838478D01*
G01*
X126044478Y-159959522D02*
G75*
G03X121606000Y-161798000I-1838478J-1838478D01*
G01*
D13*
G04 #@! TO.C,C1*
X110919260Y-136794240D02*
X110919260Y-137294620D01*
X110919260Y-136794240D02*
X111419640Y-136794240D01*
X110919260Y-136293860D02*
X110919260Y-136794240D01*
X110919260Y-136794240D02*
X110520480Y-136794240D01*
X110520480Y-136794240D02*
X110418880Y-136794240D01*
X112369600Y-137795000D02*
G75*
G03X112369600Y-137795000I-3149600J0D01*
G01*
G04 #@! TO.C,D1*
X129978000Y-136497000D02*
X129978000Y-136697000D01*
X129978000Y-139091000D02*
X129978000Y-138911000D01*
X126750256Y-138780643D02*
G75*
G03X129978000Y-139097000I1727744J1003643D01*
G01*
X127425994Y-138910068D02*
G75*
G03X129529000Y-138911000I1052006J1133068D01*
G01*
X129965220Y-136470274D02*
G75*
G03X126728000Y-136817000I-1497220J-1306726D01*
G01*
X129491889Y-136697747D02*
G75*
G03X127444000Y-136717000I-1013889J-1079253D01*
G01*
G04 #@! TO.C,D2*
X123938000Y-136497000D02*
X123938000Y-136697000D01*
X123938000Y-139091000D02*
X123938000Y-138911000D01*
X120710256Y-138780643D02*
G75*
G03X123938000Y-139097000I1727744J1003643D01*
G01*
X121385994Y-138910068D02*
G75*
G03X123489000Y-138911000I1052006J1133068D01*
G01*
X123925220Y-136470274D02*
G75*
G03X120688000Y-136817000I-1497220J-1306726D01*
G01*
X123451889Y-136697747D02*
G75*
G03X121404000Y-136717000I-1013889J-1079253D01*
G01*
G04 #@! TO.C,D3*
X117938000Y-136497000D02*
X117938000Y-136697000D01*
X117938000Y-139091000D02*
X117938000Y-138911000D01*
X114710256Y-138780643D02*
G75*
G03X117938000Y-139097000I1727744J1003643D01*
G01*
X115385994Y-138910068D02*
G75*
G03X117489000Y-138911000I1052006J1133068D01*
G01*
X117925220Y-136470274D02*
G75*
G03X114688000Y-136817000I-1497220J-1306726D01*
G01*
X117451889Y-136697747D02*
G75*
G03X115404000Y-136717000I-1013889J-1079253D01*
G01*
G04 #@! TO.C,D4*
X135938000Y-136497000D02*
X135938000Y-136697000D01*
X135938000Y-139091000D02*
X135938000Y-138911000D01*
X132710256Y-138780643D02*
G75*
G03X135938000Y-139097000I1727744J1003643D01*
G01*
X133385994Y-138910068D02*
G75*
G03X135489000Y-138911000I1052006J1133068D01*
G01*
X135925220Y-136470274D02*
G75*
G03X132688000Y-136817000I-1497220J-1306726D01*
G01*
X135451889Y-136697747D02*
G75*
G03X133404000Y-136717000I-1013889J-1079253D01*
G01*
G04 #@! TO.C,C2*
X112791240Y-164162740D02*
X113291620Y-164162740D01*
X112791240Y-164162740D02*
X112791240Y-163662360D01*
X112290860Y-164162740D02*
X112791240Y-164162740D01*
X112791240Y-164162740D02*
X112791240Y-164561520D01*
X112791240Y-164561520D02*
X112791240Y-164663120D01*
X116941600Y-165862000D02*
G75*
G03X116941600Y-165862000I-3149600J0D01*
G01*
G04 #@! TO.C,P1*
X103225000Y-143230000D02*
X103225000Y-144780000D01*
X106045000Y-146050000D02*
X103505000Y-146050000D01*
X106045000Y-143510000D02*
X106045000Y-146050000D01*
X104775000Y-143230000D02*
X103225000Y-143230000D01*
X108585000Y-143510000D02*
X106045000Y-143510000D01*
X108585000Y-168910000D02*
X103505000Y-168910000D01*
X103505000Y-146050000D02*
X103505000Y-168910000D01*
X108585000Y-168910000D02*
X108585000Y-143510000D01*
D12*
G04 #@! TO.C,P2*
X109712000Y-169823000D02*
X130572000Y-169823000D01*
X130572000Y-169823000D02*
X130572000Y-179173000D01*
X130572000Y-179173000D02*
X109712000Y-179173000D01*
X109712000Y-179173000D02*
X109712000Y-169823000D01*
X109462000Y-179423000D02*
X112002000Y-179423000D01*
X109462000Y-179423000D02*
X109462000Y-176883000D01*
D13*
G04 #@! TO.C,P3*
X104475000Y-138205000D02*
X104475000Y-140745000D01*
X104755000Y-135385000D02*
X104755000Y-136935000D01*
X104475000Y-138205000D02*
X101935000Y-138205000D01*
X101655000Y-136935000D02*
X101655000Y-135385000D01*
X101655000Y-135385000D02*
X104755000Y-135385000D01*
X101935000Y-138205000D02*
X101935000Y-140745000D01*
X101935000Y-140745000D02*
X104475000Y-140745000D01*
G04 #@! TO.C,P4*
X136525000Y-168910000D02*
X136525000Y-143510000D01*
X131445000Y-146050000D02*
X131445000Y-168910000D01*
X136525000Y-168910000D02*
X131445000Y-168910000D01*
X136525000Y-143510000D02*
X133985000Y-143510000D01*
X132715000Y-143230000D02*
X131165000Y-143230000D01*
X133985000Y-143510000D02*
X133985000Y-146050000D01*
X133985000Y-146050000D02*
X131445000Y-146050000D01*
X131165000Y-143230000D02*
X131165000Y-144780000D01*
D14*
G04 #@! TO.C,Q3*
X126874000Y-160719000D02*
X127174000Y-160719000D01*
X126874000Y-161094000D02*
X126874000Y-160719000D01*
X130174000Y-160719000D02*
X130174000Y-161169000D01*
X129874000Y-160719000D02*
X130174000Y-160719000D01*
X129949000Y-160719000D02*
X129824000Y-160719000D01*
X130174000Y-162369000D02*
X129824000Y-162369000D01*
X130174000Y-161894000D02*
X130174000Y-162369000D01*
X127199000Y-162369000D02*
X127199000Y-163144000D01*
X127149000Y-162369000D02*
X127199000Y-162369000D01*
X126874000Y-161994000D02*
X127149000Y-162369000D01*
X126874000Y-161719000D02*
X126874000Y-161994000D01*
G04 #@! TO.C,Q4*
X128699000Y-157606000D02*
X128974000Y-157606000D01*
X128974000Y-157606000D02*
X129349000Y-157331000D01*
X129349000Y-157331000D02*
X129349000Y-157281000D01*
X129349000Y-157281000D02*
X130124000Y-157281000D01*
X128874000Y-154306000D02*
X129349000Y-154306000D01*
X129349000Y-154306000D02*
X129349000Y-154656000D01*
X127699000Y-154531000D02*
X127699000Y-154656000D01*
X127699000Y-154606000D02*
X127699000Y-154306000D01*
X127699000Y-154306000D02*
X128149000Y-154306000D01*
X128074000Y-157606000D02*
X127699000Y-157606000D01*
X127699000Y-157606000D02*
X127699000Y-157306000D01*
D12*
G04 #@! TO.C,Q2*
X121605522Y-157540478D02*
G75*
G03X126044000Y-155702000I1838478J1838478D01*
G01*
X121605522Y-153863522D02*
G75*
G02X126044000Y-155702000I1838478J-1838478D01*
G01*
X121594000Y-153902000D02*
X121594000Y-157502000D01*
G04 #@! TO.C,R10*
X112640000Y-146212000D02*
X112640000Y-147412000D01*
X110880000Y-147412000D02*
X110880000Y-146212000D01*
G04 #@! TO.C,R11*
X116297000Y-162250000D02*
X115097000Y-162250000D01*
X115097000Y-160490000D02*
X116297000Y-160490000D01*
G04 #@! TO.C,R12*
X116559000Y-154525000D02*
X115359000Y-154525000D01*
X115359000Y-152765000D02*
X116559000Y-152765000D01*
G04 #@! TO.C,R13*
X121367000Y-146085000D02*
X121367000Y-147285000D01*
X119607000Y-147285000D02*
X119607000Y-146085000D01*
G04 #@! TO.C,R14*
X124368000Y-166252000D02*
X125568000Y-166252000D01*
X125568000Y-168012000D02*
X124368000Y-168012000D01*
G04 #@! TO.C,R15*
X116581000Y-158502000D02*
X115381000Y-158502000D01*
X115381000Y-156742000D02*
X116581000Y-156742000D01*
G04 #@! TO.C,R16*
X115904000Y-147130000D02*
X115904000Y-145930000D01*
X117664000Y-145930000D02*
X117664000Y-147130000D01*
G04 #@! TO.C,R17*
X125721000Y-146085000D02*
X125721000Y-147285000D01*
X123961000Y-147285000D02*
X123961000Y-146085000D01*
G04 #@! TO.C,R18*
X127855000Y-147412000D02*
X127855000Y-146212000D01*
X129615000Y-146212000D02*
X129615000Y-147412000D01*
G04 #@! TO.C,Q1*
D13*
X120427761Y-164758619D02*
X120332523Y-164711000D01*
X120237285Y-164615761D01*
X120094428Y-164472904D01*
X119999190Y-164425285D01*
X119903952Y-164425285D01*
X119951571Y-164663380D02*
X119856333Y-164615761D01*
X119761095Y-164520523D01*
X119713476Y-164330047D01*
X119713476Y-163996714D01*
X119761095Y-163806238D01*
X119856333Y-163711000D01*
X119951571Y-163663380D01*
X120142047Y-163663380D01*
X120237285Y-163711000D01*
X120332523Y-163806238D01*
X120380142Y-163996714D01*
X120380142Y-164330047D01*
X120332523Y-164520523D01*
X120237285Y-164615761D01*
X120142047Y-164663380D01*
X119951571Y-164663380D01*
X121332523Y-164663380D02*
X120761095Y-164663380D01*
X121046809Y-164663380D02*
X121046809Y-163663380D01*
X120951571Y-163806238D01*
X120856333Y-163901476D01*
X120761095Y-163949095D01*
G04 #@! TO.C,C1*
X113006142Y-140628666D02*
X113053761Y-140676285D01*
X113101380Y-140819142D01*
X113101380Y-140914380D01*
X113053761Y-141057238D01*
X112958523Y-141152476D01*
X112863285Y-141200095D01*
X112672809Y-141247714D01*
X112529952Y-141247714D01*
X112339476Y-141200095D01*
X112244238Y-141152476D01*
X112149000Y-141057238D01*
X112101380Y-140914380D01*
X112101380Y-140819142D01*
X112149000Y-140676285D01*
X112196619Y-140628666D01*
X113101380Y-139676285D02*
X113101380Y-140247714D01*
X113101380Y-139962000D02*
X112101380Y-139962000D01*
X112244238Y-140057238D01*
X112339476Y-140152476D01*
X112387095Y-140247714D01*
G04 #@! TO.C,D1*
X127838604Y-141240680D02*
X127838604Y-140240680D01*
X128076700Y-140240680D01*
X128219557Y-140288300D01*
X128314795Y-140383538D01*
X128362414Y-140478776D01*
X128410033Y-140669252D01*
X128410033Y-140812109D01*
X128362414Y-141002585D01*
X128314795Y-141097823D01*
X128219557Y-141193061D01*
X128076700Y-141240680D01*
X127838604Y-141240680D01*
X129362414Y-141240680D02*
X128790985Y-141240680D01*
X129076700Y-141240680D02*
X129076700Y-140240680D01*
X128981461Y-140383538D01*
X128886223Y-140478776D01*
X128790985Y-140526395D01*
X131207095Y-136523380D02*
X131207095Y-135523380D01*
X131778523Y-136523380D02*
X131349952Y-135951952D01*
X131778523Y-135523380D02*
X131207095Y-136094809D01*
G04 #@! TO.C,D2*
X121800904Y-141255380D02*
X121800904Y-140255380D01*
X122039000Y-140255380D01*
X122181857Y-140303000D01*
X122277095Y-140398238D01*
X122324714Y-140493476D01*
X122372333Y-140683952D01*
X122372333Y-140826809D01*
X122324714Y-141017285D01*
X122277095Y-141112523D01*
X122181857Y-141207761D01*
X122039000Y-141255380D01*
X121800904Y-141255380D01*
X122753285Y-140350619D02*
X122800904Y-140303000D01*
X122896142Y-140255380D01*
X123134238Y-140255380D01*
X123229476Y-140303000D01*
X123277095Y-140350619D01*
X123324714Y-140445857D01*
X123324714Y-140541095D01*
X123277095Y-140683952D01*
X122705666Y-141255380D01*
X123324714Y-141255380D01*
X125167095Y-136523380D02*
X125167095Y-135523380D01*
X125738523Y-136523380D02*
X125309952Y-135951952D01*
X125738523Y-135523380D02*
X125167095Y-136094809D01*
G04 #@! TO.C,D3*
X115709704Y-141227980D02*
X115709704Y-140227980D01*
X115947800Y-140227980D01*
X116090657Y-140275600D01*
X116185895Y-140370838D01*
X116233514Y-140466076D01*
X116281133Y-140656552D01*
X116281133Y-140799409D01*
X116233514Y-140989885D01*
X116185895Y-141085123D01*
X116090657Y-141180361D01*
X115947800Y-141227980D01*
X115709704Y-141227980D01*
X116614466Y-140227980D02*
X117233514Y-140227980D01*
X116900180Y-140608933D01*
X117043038Y-140608933D01*
X117138276Y-140656552D01*
X117185895Y-140704171D01*
X117233514Y-140799409D01*
X117233514Y-141037504D01*
X117185895Y-141132742D01*
X117138276Y-141180361D01*
X117043038Y-141227980D01*
X116757323Y-141227980D01*
X116662085Y-141180361D01*
X116614466Y-141132742D01*
X119157095Y-136543380D02*
X119157095Y-135543380D01*
X119728523Y-136543380D02*
X119299952Y-135971952D01*
X119728523Y-135543380D02*
X119157095Y-136114809D01*
G04 #@! TO.C,D4*
X133531904Y-141291480D02*
X133531904Y-140291480D01*
X133770000Y-140291480D01*
X133912857Y-140339100D01*
X134008095Y-140434338D01*
X134055714Y-140529576D01*
X134103333Y-140720052D01*
X134103333Y-140862909D01*
X134055714Y-141053385D01*
X134008095Y-141148623D01*
X133912857Y-141243861D01*
X133770000Y-141291480D01*
X133531904Y-141291480D01*
X134960476Y-140624814D02*
X134960476Y-141291480D01*
X134722380Y-140243861D02*
X134484285Y-140958147D01*
X135103333Y-140958147D01*
X137167095Y-136523380D02*
X137167095Y-135523380D01*
X137738523Y-136523380D02*
X137309952Y-135951952D01*
X137738523Y-135523380D02*
X137167095Y-136094809D01*
G04 #@! TO.C,C2*
X117435333Y-168759142D02*
X117387714Y-168806761D01*
X117244857Y-168854380D01*
X117149619Y-168854380D01*
X117006761Y-168806761D01*
X116911523Y-168711523D01*
X116863904Y-168616285D01*
X116816285Y-168425809D01*
X116816285Y-168282952D01*
X116863904Y-168092476D01*
X116911523Y-167997238D01*
X117006761Y-167902000D01*
X117149619Y-167854380D01*
X117244857Y-167854380D01*
X117387714Y-167902000D01*
X117435333Y-167949619D01*
X117816285Y-167949619D02*
X117863904Y-167902000D01*
X117959142Y-167854380D01*
X118197238Y-167854380D01*
X118292476Y-167902000D01*
X118340095Y-167949619D01*
X118387714Y-168044857D01*
X118387714Y-168140095D01*
X118340095Y-168282952D01*
X117768666Y-168854380D01*
X118387714Y-168854380D01*
G04 #@! TO.C,P1*
X107211904Y-142819380D02*
X107211904Y-141819380D01*
X107592857Y-141819380D01*
X107688095Y-141867000D01*
X107735714Y-141914619D01*
X107783333Y-142009857D01*
X107783333Y-142152714D01*
X107735714Y-142247952D01*
X107688095Y-142295571D01*
X107592857Y-142343190D01*
X107211904Y-142343190D01*
X108735714Y-142819380D02*
X108164285Y-142819380D01*
X108450000Y-142819380D02*
X108450000Y-141819380D01*
X108354761Y-141962238D01*
X108259523Y-142057476D01*
X108164285Y-142105095D01*
G04 #@! TO.C,P2*
X132278380Y-173585095D02*
X131278380Y-173585095D01*
X131278380Y-173204142D01*
X131326000Y-173108904D01*
X131373619Y-173061285D01*
X131468857Y-173013666D01*
X131611714Y-173013666D01*
X131706952Y-173061285D01*
X131754571Y-173108904D01*
X131802190Y-173204142D01*
X131802190Y-173585095D01*
X131373619Y-172632714D02*
X131326000Y-172585095D01*
X131278380Y-172489857D01*
X131278380Y-172251761D01*
X131326000Y-172156523D01*
X131373619Y-172108904D01*
X131468857Y-172061285D01*
X131564095Y-172061285D01*
X131706952Y-172108904D01*
X132278380Y-172680333D01*
X132278380Y-172061285D01*
G04 #@! TO.C,P3*
X106243380Y-141200095D02*
X105243380Y-141200095D01*
X105243380Y-140819142D01*
X105291000Y-140723904D01*
X105338619Y-140676285D01*
X105433857Y-140628666D01*
X105576714Y-140628666D01*
X105671952Y-140676285D01*
X105719571Y-140723904D01*
X105767190Y-140819142D01*
X105767190Y-141200095D01*
X105243380Y-140295333D02*
X105243380Y-139676285D01*
X105624333Y-140009619D01*
X105624333Y-139866761D01*
X105671952Y-139771523D01*
X105719571Y-139723904D01*
X105814809Y-139676285D01*
X106052904Y-139676285D01*
X106148142Y-139723904D01*
X106195761Y-139771523D01*
X106243380Y-139866761D01*
X106243380Y-140152476D01*
X106195761Y-140247714D01*
X106148142Y-140295333D01*
G04 #@! TO.C,P4*
X134897904Y-170886380D02*
X134897904Y-169886380D01*
X135278857Y-169886380D01*
X135374095Y-169934000D01*
X135421714Y-169981619D01*
X135469333Y-170076857D01*
X135469333Y-170219714D01*
X135421714Y-170314952D01*
X135374095Y-170362571D01*
X135278857Y-170410190D01*
X134897904Y-170410190D01*
X136326476Y-170219714D02*
X136326476Y-170886380D01*
X136088380Y-169838761D02*
X135850285Y-170553047D01*
X136469333Y-170553047D01*
G04 #@! TO.C,Q3*
X128428761Y-164758619D02*
X128333523Y-164711000D01*
X128238285Y-164615761D01*
X128095428Y-164472904D01*
X128000190Y-164425285D01*
X127904952Y-164425285D01*
X127952571Y-164663380D02*
X127857333Y-164615761D01*
X127762095Y-164520523D01*
X127714476Y-164330047D01*
X127714476Y-163996714D01*
X127762095Y-163806238D01*
X127857333Y-163711000D01*
X127952571Y-163663380D01*
X128143047Y-163663380D01*
X128238285Y-163711000D01*
X128333523Y-163806238D01*
X128381142Y-163996714D01*
X128381142Y-164330047D01*
X128333523Y-164520523D01*
X128238285Y-164615761D01*
X128143047Y-164663380D01*
X127952571Y-164663380D01*
X128714476Y-163663380D02*
X129333523Y-163663380D01*
X129000190Y-164044333D01*
X129143047Y-164044333D01*
X129238285Y-164091952D01*
X129285904Y-164139571D01*
X129333523Y-164234809D01*
X129333523Y-164472904D01*
X129285904Y-164568142D01*
X129238285Y-164615761D01*
X129143047Y-164663380D01*
X128857333Y-164663380D01*
X128762095Y-164615761D01*
X128714476Y-164568142D01*
G04 #@! TO.C,Q4*
X128555761Y-153582619D02*
X128460523Y-153535000D01*
X128365285Y-153439761D01*
X128222428Y-153296904D01*
X128127190Y-153249285D01*
X128031952Y-153249285D01*
X128079571Y-153487380D02*
X127984333Y-153439761D01*
X127889095Y-153344523D01*
X127841476Y-153154047D01*
X127841476Y-152820714D01*
X127889095Y-152630238D01*
X127984333Y-152535000D01*
X128079571Y-152487380D01*
X128270047Y-152487380D01*
X128365285Y-152535000D01*
X128460523Y-152630238D01*
X128508142Y-152820714D01*
X128508142Y-153154047D01*
X128460523Y-153344523D01*
X128365285Y-153439761D01*
X128270047Y-153487380D01*
X128079571Y-153487380D01*
X129365285Y-152820714D02*
X129365285Y-153487380D01*
X129127190Y-152439761D02*
X128889095Y-153154047D01*
X129508142Y-153154047D01*
G04 #@! TO.C,Q2*
X122332761Y-152820619D02*
X122237523Y-152773000D01*
X122142285Y-152677761D01*
X121999428Y-152534904D01*
X121904190Y-152487285D01*
X121808952Y-152487285D01*
X121856571Y-152725380D02*
X121761333Y-152677761D01*
X121666095Y-152582523D01*
X121618476Y-152392047D01*
X121618476Y-152058714D01*
X121666095Y-151868238D01*
X121761333Y-151773000D01*
X121856571Y-151725380D01*
X122047047Y-151725380D01*
X122142285Y-151773000D01*
X122237523Y-151868238D01*
X122285142Y-152058714D01*
X122285142Y-152392047D01*
X122237523Y-152582523D01*
X122142285Y-152677761D01*
X122047047Y-152725380D01*
X121856571Y-152725380D01*
X122666095Y-151820619D02*
X122713714Y-151773000D01*
X122808952Y-151725380D01*
X123047047Y-151725380D01*
X123142285Y-151773000D01*
X123189904Y-151820619D01*
X123237523Y-151915857D01*
X123237523Y-152011095D01*
X123189904Y-152153952D01*
X122618476Y-152725380D01*
X123237523Y-152725380D01*
G04 #@! TO.C,R10*
X114117380Y-149232857D02*
X113641190Y-149566190D01*
X114117380Y-149804285D02*
X113117380Y-149804285D01*
X113117380Y-149423333D01*
X113165000Y-149328095D01*
X113212619Y-149280476D01*
X113307857Y-149232857D01*
X113450714Y-149232857D01*
X113545952Y-149280476D01*
X113593571Y-149328095D01*
X113641190Y-149423333D01*
X113641190Y-149804285D01*
X114117380Y-148280476D02*
X114117380Y-148851904D01*
X114117380Y-148566190D02*
X113117380Y-148566190D01*
X113260238Y-148661428D01*
X113355476Y-148756666D01*
X113403095Y-148851904D01*
X113117380Y-147661428D02*
X113117380Y-147566190D01*
X113165000Y-147470952D01*
X113212619Y-147423333D01*
X113307857Y-147375714D01*
X113498333Y-147328095D01*
X113736428Y-147328095D01*
X113926904Y-147375714D01*
X114022142Y-147423333D01*
X114069761Y-147470952D01*
X114117380Y-147566190D01*
X114117380Y-147661428D01*
X114069761Y-147756666D01*
X114022142Y-147804285D01*
X113926904Y-147851904D01*
X113736428Y-147899523D01*
X113498333Y-147899523D01*
X113307857Y-147851904D01*
X113212619Y-147804285D01*
X113165000Y-147756666D01*
X113117380Y-147661428D01*
G04 #@! TO.C,R11*
X115435142Y-160091380D02*
X115101809Y-159615190D01*
X114863714Y-160091380D02*
X114863714Y-159091380D01*
X115244666Y-159091380D01*
X115339904Y-159139000D01*
X115387523Y-159186619D01*
X115435142Y-159281857D01*
X115435142Y-159424714D01*
X115387523Y-159519952D01*
X115339904Y-159567571D01*
X115244666Y-159615190D01*
X114863714Y-159615190D01*
X116387523Y-160091380D02*
X115816095Y-160091380D01*
X116101809Y-160091380D02*
X116101809Y-159091380D01*
X116006571Y-159234238D01*
X115911333Y-159329476D01*
X115816095Y-159377095D01*
X117339904Y-160091380D02*
X116768476Y-160091380D01*
X117054190Y-160091380D02*
X117054190Y-159091380D01*
X116958952Y-159234238D01*
X116863714Y-159329476D01*
X116768476Y-159377095D01*
G04 #@! TO.C,R12*
X115689142Y-152471380D02*
X115355809Y-151995190D01*
X115117714Y-152471380D02*
X115117714Y-151471380D01*
X115498666Y-151471380D01*
X115593904Y-151519000D01*
X115641523Y-151566619D01*
X115689142Y-151661857D01*
X115689142Y-151804714D01*
X115641523Y-151899952D01*
X115593904Y-151947571D01*
X115498666Y-151995190D01*
X115117714Y-151995190D01*
X116641523Y-152471380D02*
X116070095Y-152471380D01*
X116355809Y-152471380D02*
X116355809Y-151471380D01*
X116260571Y-151614238D01*
X116165333Y-151709476D01*
X116070095Y-151757095D01*
X117022476Y-151566619D02*
X117070095Y-151519000D01*
X117165333Y-151471380D01*
X117403428Y-151471380D01*
X117498666Y-151519000D01*
X117546285Y-151566619D01*
X117593904Y-151661857D01*
X117593904Y-151757095D01*
X117546285Y-151899952D01*
X116974857Y-152471380D01*
X117593904Y-152471380D01*
G04 #@! TO.C,R13*
X119070380Y-147327857D02*
X118594190Y-147661190D01*
X119070380Y-147899285D02*
X118070380Y-147899285D01*
X118070380Y-147518333D01*
X118118000Y-147423095D01*
X118165619Y-147375476D01*
X118260857Y-147327857D01*
X118403714Y-147327857D01*
X118498952Y-147375476D01*
X118546571Y-147423095D01*
X118594190Y-147518333D01*
X118594190Y-147899285D01*
X119070380Y-146375476D02*
X119070380Y-146946904D01*
X119070380Y-146661190D02*
X118070380Y-146661190D01*
X118213238Y-146756428D01*
X118308476Y-146851666D01*
X118356095Y-146946904D01*
X118070380Y-146042142D02*
X118070380Y-145423095D01*
X118451333Y-145756428D01*
X118451333Y-145613571D01*
X118498952Y-145518333D01*
X118546571Y-145470714D01*
X118641809Y-145423095D01*
X118879904Y-145423095D01*
X118975142Y-145470714D01*
X119022761Y-145518333D01*
X119070380Y-145613571D01*
X119070380Y-145899285D01*
X119022761Y-145994523D01*
X118975142Y-146042142D01*
G04 #@! TO.C,R14*
X124452142Y-165806380D02*
X124118809Y-165330190D01*
X123880714Y-165806380D02*
X123880714Y-164806380D01*
X124261666Y-164806380D01*
X124356904Y-164854000D01*
X124404523Y-164901619D01*
X124452142Y-164996857D01*
X124452142Y-165139714D01*
X124404523Y-165234952D01*
X124356904Y-165282571D01*
X124261666Y-165330190D01*
X123880714Y-165330190D01*
X125404523Y-165806380D02*
X124833095Y-165806380D01*
X125118809Y-165806380D02*
X125118809Y-164806380D01*
X125023571Y-164949238D01*
X124928333Y-165044476D01*
X124833095Y-165092095D01*
X126261666Y-165139714D02*
X126261666Y-165806380D01*
X126023571Y-164758761D02*
X125785476Y-165473047D01*
X126404523Y-165473047D01*
G04 #@! TO.C,R15*
X115435142Y-156281380D02*
X115101809Y-155805190D01*
X114863714Y-156281380D02*
X114863714Y-155281380D01*
X115244666Y-155281380D01*
X115339904Y-155329000D01*
X115387523Y-155376619D01*
X115435142Y-155471857D01*
X115435142Y-155614714D01*
X115387523Y-155709952D01*
X115339904Y-155757571D01*
X115244666Y-155805190D01*
X114863714Y-155805190D01*
X116387523Y-156281380D02*
X115816095Y-156281380D01*
X116101809Y-156281380D02*
X116101809Y-155281380D01*
X116006571Y-155424238D01*
X115911333Y-155519476D01*
X115816095Y-155567095D01*
X117292285Y-155281380D02*
X116816095Y-155281380D01*
X116768476Y-155757571D01*
X116816095Y-155709952D01*
X116911333Y-155662333D01*
X117149428Y-155662333D01*
X117244666Y-155709952D01*
X117292285Y-155757571D01*
X117339904Y-155852809D01*
X117339904Y-156090904D01*
X117292285Y-156186142D01*
X117244666Y-156233761D01*
X117149428Y-156281380D01*
X116911333Y-156281380D01*
X116816095Y-156233761D01*
X116768476Y-156186142D01*
G04 #@! TO.C,R16*
X115260380Y-144279857D02*
X114784190Y-144613190D01*
X115260380Y-144851285D02*
X114260380Y-144851285D01*
X114260380Y-144470333D01*
X114308000Y-144375095D01*
X114355619Y-144327476D01*
X114450857Y-144279857D01*
X114593714Y-144279857D01*
X114688952Y-144327476D01*
X114736571Y-144375095D01*
X114784190Y-144470333D01*
X114784190Y-144851285D01*
X115260380Y-143327476D02*
X115260380Y-143898904D01*
X115260380Y-143613190D02*
X114260380Y-143613190D01*
X114403238Y-143708428D01*
X114498476Y-143803666D01*
X114546095Y-143898904D01*
X114260380Y-142470333D02*
X114260380Y-142660809D01*
X114308000Y-142756047D01*
X114355619Y-142803666D01*
X114498476Y-142898904D01*
X114688952Y-142946523D01*
X115069904Y-142946523D01*
X115165142Y-142898904D01*
X115212761Y-142851285D01*
X115260380Y-142756047D01*
X115260380Y-142565571D01*
X115212761Y-142470333D01*
X115165142Y-142422714D01*
X115069904Y-142375095D01*
X114831809Y-142375095D01*
X114736571Y-142422714D01*
X114688952Y-142470333D01*
X114641333Y-142565571D01*
X114641333Y-142756047D01*
X114688952Y-142851285D01*
X114736571Y-142898904D01*
X114831809Y-142946523D01*
G04 #@! TO.C,R17*
X123261380Y-147581857D02*
X122785190Y-147915190D01*
X123261380Y-148153285D02*
X122261380Y-148153285D01*
X122261380Y-147772333D01*
X122309000Y-147677095D01*
X122356619Y-147629476D01*
X122451857Y-147581857D01*
X122594714Y-147581857D01*
X122689952Y-147629476D01*
X122737571Y-147677095D01*
X122785190Y-147772333D01*
X122785190Y-148153285D01*
X123261380Y-146629476D02*
X123261380Y-147200904D01*
X123261380Y-146915190D02*
X122261380Y-146915190D01*
X122404238Y-147010428D01*
X122499476Y-147105666D01*
X122547095Y-147200904D01*
X122261380Y-146296142D02*
X122261380Y-145629476D01*
X123261380Y-146058047D01*
G04 #@! TO.C,R18*
X127198380Y-147708857D02*
X126722190Y-148042190D01*
X127198380Y-148280285D02*
X126198380Y-148280285D01*
X126198380Y-147899333D01*
X126246000Y-147804095D01*
X126293619Y-147756476D01*
X126388857Y-147708857D01*
X126531714Y-147708857D01*
X126626952Y-147756476D01*
X126674571Y-147804095D01*
X126722190Y-147899333D01*
X126722190Y-148280285D01*
X127198380Y-146756476D02*
X127198380Y-147327904D01*
X127198380Y-147042190D02*
X126198380Y-147042190D01*
X126341238Y-147137428D01*
X126436476Y-147232666D01*
X126484095Y-147327904D01*
X126626952Y-146185047D02*
X126579333Y-146280285D01*
X126531714Y-146327904D01*
X126436476Y-146375523D01*
X126388857Y-146375523D01*
X126293619Y-146327904D01*
X126246000Y-146280285D01*
X126198380Y-146185047D01*
X126198380Y-145994571D01*
X126246000Y-145899333D01*
X126293619Y-145851714D01*
X126388857Y-145804095D01*
X126436476Y-145804095D01*
X126531714Y-145851714D01*
X126579333Y-145899333D01*
X126626952Y-145994571D01*
X126626952Y-146185047D01*
X126674571Y-146280285D01*
X126722190Y-146327904D01*
X126817428Y-146375523D01*
X127007904Y-146375523D01*
X127103142Y-146327904D01*
X127150761Y-146280285D01*
X127198380Y-146185047D01*
X127198380Y-145994571D01*
X127150761Y-145899333D01*
X127103142Y-145851714D01*
X127007904Y-145804095D01*
X126817428Y-145804095D01*
X126722190Y-145851714D01*
X126674571Y-145899333D01*
X126626952Y-145994571D01*
G04 #@! TD*
%LPC*%
D15*
G04 #@! TO.C,Q1*
X124206000Y-161798000D03*
X124206000Y-160528000D03*
D16*
X124206000Y-163068000D03*
G04 #@! TD*
D17*
G04 #@! TO.C,C1*
X109220000Y-139065000D03*
X109220000Y-136525000D03*
G04 #@! TD*
D18*
G04 #@! TO.C,D1*
X129779000Y-137811000D03*
D19*
X127239000Y-137811000D03*
G04 #@! TD*
D18*
G04 #@! TO.C,D2*
X123739000Y-137811000D03*
D19*
X121199000Y-137811000D03*
G04 #@! TD*
D18*
G04 #@! TO.C,D3*
X117739000Y-137811000D03*
D19*
X115199000Y-137811000D03*
G04 #@! TD*
D18*
G04 #@! TO.C,D4*
X135739000Y-137811000D03*
D19*
X133199000Y-137811000D03*
G04 #@! TD*
D17*
G04 #@! TO.C,C2*
X115062000Y-165862000D03*
X112522000Y-165862000D03*
G04 #@! TD*
D20*
G04 #@! TO.C,P1*
X107315000Y-167640000D03*
X104775000Y-167640000D03*
X107315000Y-165100000D03*
X104775000Y-165100000D03*
X107315000Y-162560000D03*
X104775000Y-162560000D03*
X107315000Y-160020000D03*
X104775000Y-160020000D03*
X107315000Y-157480000D03*
X104775000Y-157480000D03*
X107315000Y-154940000D03*
X104775000Y-154940000D03*
X107315000Y-152400000D03*
X104775000Y-152400000D03*
X107315000Y-149860000D03*
X104775000Y-149860000D03*
X107315000Y-147320000D03*
X104775000Y-147320000D03*
X107315000Y-144780000D03*
D21*
X104775000Y-144780000D03*
G04 #@! TD*
G04 #@! TO.C,P2*
X115062000Y-175768000D03*
D20*
X115062000Y-173228000D03*
X117602000Y-175768000D03*
X117602000Y-173228000D03*
X120142000Y-175768000D03*
X120142000Y-173228000D03*
X122682000Y-175768000D03*
X122682000Y-173228000D03*
X125222000Y-175768000D03*
X125222000Y-173228000D03*
G04 #@! TD*
D22*
G04 #@! TO.C,P3*
X103205000Y-136935000D03*
D23*
X103205000Y-139475000D03*
G04 #@! TD*
D21*
G04 #@! TO.C,P4*
X132715000Y-144780000D03*
D20*
X135255000Y-144780000D03*
X132715000Y-147320000D03*
X135255000Y-147320000D03*
X132715000Y-149860000D03*
X135255000Y-149860000D03*
X132715000Y-152400000D03*
X135255000Y-152400000D03*
X132715000Y-154940000D03*
X135255000Y-154940000D03*
X132715000Y-157480000D03*
X135255000Y-157480000D03*
X132715000Y-160020000D03*
X135255000Y-160020000D03*
X132715000Y-162560000D03*
X135255000Y-162560000D03*
X132715000Y-165100000D03*
X135255000Y-165100000D03*
X132715000Y-167640000D03*
X135255000Y-167640000D03*
G04 #@! TD*
D24*
G04 #@! TO.C,Q3*
X127574000Y-162594000D03*
X129474000Y-162594000D03*
X128524000Y-160494000D03*
G04 #@! TD*
D25*
G04 #@! TO.C,Q4*
X127474000Y-155956000D03*
X129574000Y-155006000D03*
X129574000Y-156906000D03*
G04 #@! TD*
D26*
G04 #@! TO.C,R1*
X111760000Y-150495000D03*
D27*
X111760000Y-142875000D03*
G04 #@! TD*
G04 #@! TO.C,R2*
X111887000Y-161370000D03*
D26*
X119507000Y-161370000D03*
G04 #@! TD*
D27*
G04 #@! TO.C,R3*
X112149000Y-153797000D03*
D26*
X119769000Y-153797000D03*
G04 #@! TD*
G04 #@! TO.C,R4*
X112171000Y-157622000D03*
D27*
X119791000Y-157622000D03*
G04 #@! TD*
D26*
G04 #@! TO.C,R5*
X120487000Y-150444000D03*
D27*
X120487000Y-142824000D03*
G04 #@! TD*
D26*
G04 #@! TO.C,R6*
X116784000Y-150340000D03*
D27*
X116784000Y-142720000D03*
G04 #@! TD*
G04 #@! TO.C,R7*
X124841000Y-142875000D03*
D26*
X124841000Y-150495000D03*
G04 #@! TD*
D27*
G04 #@! TO.C,R8*
X121539000Y-167132000D03*
D26*
X129159000Y-167132000D03*
G04 #@! TD*
G04 #@! TO.C,R9*
X128735000Y-150495000D03*
D27*
X128735000Y-142875000D03*
G04 #@! TD*
D16*
G04 #@! TO.C,Q2*
X123444000Y-154432000D03*
D15*
X123444000Y-156972000D03*
X123444000Y-155702000D03*
G04 #@! TD*
D28*
G04 #@! TO.C,REF\002A\002A*
X103759000Y-176530000D03*
G04 #@! TD*
G04 #@! TO.C,REF\002A\002A1*
X136271000Y-176530000D03*
G04 #@! TD*
D29*
G04 #@! TO.C,R10*
X111760000Y-148162000D03*
X111760000Y-145462000D03*
G04 #@! TD*
D30*
G04 #@! TO.C,R11*
X114347000Y-161370000D03*
X117047000Y-161370000D03*
G04 #@! TD*
G04 #@! TO.C,R12*
X114609000Y-153645000D03*
X117309000Y-153645000D03*
G04 #@! TD*
D29*
G04 #@! TO.C,R13*
X120487000Y-148035000D03*
X120487000Y-145335000D03*
G04 #@! TD*
D30*
G04 #@! TO.C,R14*
X126318000Y-167132000D03*
X123618000Y-167132000D03*
G04 #@! TD*
G04 #@! TO.C,R15*
X114631000Y-157622000D03*
X117331000Y-157622000D03*
G04 #@! TD*
D29*
G04 #@! TO.C,R16*
X116784000Y-145180000D03*
X116784000Y-147880000D03*
G04 #@! TD*
G04 #@! TO.C,R17*
X124841000Y-148035000D03*
X124841000Y-145335000D03*
G04 #@! TD*
G04 #@! TO.C,R18*
X128735000Y-145462000D03*
X128735000Y-148162000D03*
G04 #@! TD*
M02*
