M48
; DRILL file {KiCad (5.1.0-0)} date Saturday, 11 May 2019 at 20:49:12
; FORMAT={-:-/ absolute / metric / decimal}
; #@! TF.CreationDate,2019-05-11T20:49:12+09:00
; #@! TF.GenerationSoftware,Kicad,Pcbnew,(5.1.0-0)
FMAT,2
METRIC
T1C0.600
T2C0.800
T3C0.900
T4C1.001
T5C1.016
T6C3.700
%
G90
G05
T1
X123.444Y-154.432
X123.444Y-155.702
X123.444Y-156.972
X124.206Y-160.528
X124.206Y-161.798
X124.206Y-163.068
T2
X109.22Y-136.525
X109.22Y-139.065
X112.522Y-165.544
X115.062Y-165.544
T3
X121.199Y-137.811
X123.739Y-137.811
X115.199Y-137.811
X117.739Y-137.811
X133.199Y-137.811
X135.739Y-137.811
X127.239Y-137.811
X129.779Y-137.811
T4
X112.201Y-160.782
X119.701Y-160.782
X124.714Y-142.681
X124.714Y-150.181
X112.074Y-153.797
X119.574Y-153.797
X120.777Y-142.618
X120.777Y-150.118
X116.586Y-142.554
X116.586Y-150.054
X112.09Y-157.353
X119.59Y-157.353
X128.524Y-142.681
X128.524Y-150.181
X120.52Y-167.005
X128.02Y-167.005
X111.76Y-142.681
X111.76Y-150.181
T5
X103.205Y-136.935
X103.205Y-139.475
X115.062Y-172.72
X115.062Y-175.26
X117.602Y-172.72
X117.602Y-175.26
X120.142Y-172.72
X120.142Y-175.26
X122.682Y-172.72
X122.682Y-175.26
X125.222Y-172.72
X125.222Y-175.26
X132.715Y-144.78
X132.715Y-147.32
X132.715Y-149.86
X132.715Y-152.4
X132.715Y-154.94
X132.715Y-157.48
X132.715Y-160.02
X132.715Y-162.56
X132.715Y-165.1
X132.715Y-167.64
X135.255Y-144.78
X135.255Y-147.32
X135.255Y-149.86
X135.255Y-152.4
X135.255Y-154.94
X135.255Y-157.48
X135.255Y-160.02
X135.255Y-162.56
X135.255Y-165.1
X135.255Y-167.64
X104.775Y-144.78
X104.775Y-147.32
X104.775Y-149.86
X104.775Y-152.4
X104.775Y-154.94
X104.775Y-157.48
X104.775Y-160.02
X104.775Y-162.56
X104.775Y-165.1
X104.775Y-167.64
X107.315Y-144.78
X107.315Y-147.32
X107.315Y-149.86
X107.315Y-152.4
X107.315Y-154.94
X107.315Y-157.48
X107.315Y-160.02
X107.315Y-162.56
X107.315Y-165.1
X107.315Y-167.64
T6
X136.271Y-176.53
X103.759Y-176.53
T0
M30
