G04 #@! TF.GenerationSoftware,KiCad,Pcbnew,(5.1.0-0)*
G04 #@! TF.CreationDate,2019-05-11T20:48:41+09:00*
G04 #@! TF.ProjectId,USBi_Programmer,55534269-5f50-4726-9f67-72616d6d6572,rev?*
G04 #@! TF.SameCoordinates,Original*
G04 #@! TF.FileFunction,Legend,Top*
G04 #@! TF.FilePolarity,Positive*
%FSLAX46Y46*%
G04 Gerber Fmt 4.6, Leading zero omitted, Abs format (unit mm)*
G04 Created by KiCad (PCBNEW (5.1.0-0)) date 2019-05-11 20:48:41*
%MOMM*%
%LPD*%
G04 APERTURE LIST*
%ADD10C,0.200000*%
%ADD11C,0.300000*%
%ADD12C,0.120000*%
%ADD13C,0.150000*%
%ADD14C,0.100000*%
%ADD15O,1.900000X1.300000*%
%ADD16R,1.900000X1.300000*%
%ADD17C,1.901140*%
%ADD18O,2.127200X2.127200*%
%ADD19R,2.127200X2.127200*%
%ADD20R,2.432000X2.432000*%
%ADD21O,2.432000X2.432000*%
%ADD22R,0.740000X1.440000*%
%ADD23R,1.440000X0.740000*%
%ADD24C,4.100000*%
%ADD25C,2.200000*%
%ADD26R,2.200000X2.200000*%
%ADD27C,2.398980*%
%ADD28C,1.400000*%
%ADD29C,1.200000*%
%ADD30C,1.300000*%
G04 APERTURE END LIST*
D10*
X102362095Y-141613000D02*
X102266857Y-141565380D01*
X102124000Y-141565380D01*
X101981142Y-141613000D01*
X101885904Y-141708238D01*
X101838285Y-141803476D01*
X101790666Y-141993952D01*
X101790666Y-142136809D01*
X101838285Y-142327285D01*
X101885904Y-142422523D01*
X101981142Y-142517761D01*
X102124000Y-142565380D01*
X102219238Y-142565380D01*
X102362095Y-142517761D01*
X102409714Y-142470142D01*
X102409714Y-142136809D01*
X102219238Y-142136809D01*
X102838285Y-142565380D02*
X102838285Y-141565380D01*
X103409714Y-142565380D01*
X103409714Y-141565380D01*
X103885904Y-142565380D02*
X103885904Y-141565380D01*
X104124000Y-141565380D01*
X104266857Y-141613000D01*
X104362095Y-141708238D01*
X104409714Y-141803476D01*
X104457333Y-141993952D01*
X104457333Y-142136809D01*
X104409714Y-142327285D01*
X104362095Y-142422523D01*
X104266857Y-142517761D01*
X104124000Y-142565380D01*
X103885904Y-142565380D01*
X102092285Y-134437428D02*
X102854190Y-134437428D01*
X102473238Y-134818380D02*
X102473238Y-134056476D01*
X103806571Y-133818380D02*
X103330380Y-133818380D01*
X103282761Y-134294571D01*
X103330380Y-134246952D01*
X103425619Y-134199333D01*
X103663714Y-134199333D01*
X103758952Y-134246952D01*
X103806571Y-134294571D01*
X103854190Y-134389809D01*
X103854190Y-134627904D01*
X103806571Y-134723142D01*
X103758952Y-134770761D01*
X103663714Y-134818380D01*
X103425619Y-134818380D01*
X103330380Y-134770761D01*
X103282761Y-134723142D01*
X104139904Y-133818380D02*
X104473238Y-134818380D01*
X104806571Y-133818380D01*
D11*
X138624428Y-147114571D02*
X138624428Y-147686000D01*
X137624428Y-147328857D02*
X138910142Y-147328857D01*
X139053000Y-147400285D01*
X139124428Y-147543142D01*
X139124428Y-147686000D01*
X137624428Y-148186000D02*
X138624428Y-148186000D01*
X138338714Y-148186000D02*
X138481571Y-148257428D01*
X138553000Y-148328857D01*
X138624428Y-148471714D01*
X138624428Y-148614571D01*
X137695857Y-149686000D02*
X137624428Y-149543142D01*
X137624428Y-149257428D01*
X137695857Y-149114571D01*
X137838714Y-149043142D01*
X138410142Y-149043142D01*
X138553000Y-149114571D01*
X138624428Y-149257428D01*
X138624428Y-149543142D01*
X138553000Y-149686000D01*
X138410142Y-149757428D01*
X138267285Y-149757428D01*
X138124428Y-149043142D01*
X137695857Y-150971714D02*
X137624428Y-150828857D01*
X137624428Y-150543142D01*
X137695857Y-150400285D01*
X137838714Y-150328857D01*
X138410142Y-150328857D01*
X138553000Y-150400285D01*
X138624428Y-150543142D01*
X138624428Y-150828857D01*
X138553000Y-150971714D01*
X138410142Y-151043142D01*
X138267285Y-151043142D01*
X138124428Y-150328857D01*
X139124428Y-151686000D02*
X137910142Y-151686000D01*
X137767285Y-151757428D01*
X137695857Y-151828857D01*
X137624428Y-151971714D01*
X137624428Y-152257428D01*
X137695857Y-152400285D01*
X137767285Y-152471714D01*
X137910142Y-152543142D01*
X139124428Y-152543142D01*
X137695857Y-153186000D02*
X137624428Y-153400285D01*
X137624428Y-153757428D01*
X137695857Y-153900285D01*
X137767285Y-153971714D01*
X137910142Y-154043142D01*
X138053000Y-154043142D01*
X138195857Y-153971714D01*
X138267285Y-153900285D01*
X138338714Y-153757428D01*
X138410142Y-153471714D01*
X138481571Y-153328857D01*
X138553000Y-153257428D01*
X138695857Y-153186000D01*
X138838714Y-153186000D01*
X138981571Y-153257428D01*
X139053000Y-153328857D01*
X139124428Y-153471714D01*
X139124428Y-153828857D01*
X139053000Y-154043142D01*
X138410142Y-155186000D02*
X138338714Y-155400285D01*
X138267285Y-155471714D01*
X138124428Y-155543142D01*
X137910142Y-155543142D01*
X137767285Y-155471714D01*
X137695857Y-155400285D01*
X137624428Y-155257428D01*
X137624428Y-154686000D01*
X139124428Y-154686000D01*
X139124428Y-155186000D01*
X139053000Y-155328857D01*
X138981571Y-155400285D01*
X138838714Y-155471714D01*
X138695857Y-155471714D01*
X138553000Y-155400285D01*
X138481571Y-155328857D01*
X138410142Y-155186000D01*
X138410142Y-154686000D01*
X137624428Y-156186000D02*
X138624428Y-156186000D01*
X139124428Y-156186000D02*
X139053000Y-156114571D01*
X138981571Y-156186000D01*
X139053000Y-156257428D01*
X139124428Y-156186000D01*
X138981571Y-156186000D01*
X138624428Y-157900285D02*
X137624428Y-158257428D01*
X138624428Y-158614571D01*
X139124428Y-159471714D02*
X139124428Y-159614571D01*
X139053000Y-159757428D01*
X138981571Y-159828857D01*
X138838714Y-159900285D01*
X138553000Y-159971714D01*
X138195857Y-159971714D01*
X137910142Y-159900285D01*
X137767285Y-159828857D01*
X137695857Y-159757428D01*
X137624428Y-159614571D01*
X137624428Y-159471714D01*
X137695857Y-159328857D01*
X137767285Y-159257428D01*
X137910142Y-159186000D01*
X138195857Y-159114571D01*
X138553000Y-159114571D01*
X138838714Y-159186000D01*
X138981571Y-159257428D01*
X139053000Y-159328857D01*
X139124428Y-159471714D01*
X137767285Y-160614571D02*
X137695857Y-160686000D01*
X137624428Y-160614571D01*
X137695857Y-160543142D01*
X137767285Y-160614571D01*
X137624428Y-160614571D01*
X138624428Y-161971714D02*
X137624428Y-161971714D01*
X139195857Y-161614571D02*
X138124428Y-161257428D01*
X138124428Y-162186000D01*
X102048428Y-145765285D02*
X101048428Y-146051000D01*
X101762714Y-146336714D01*
X101048428Y-146622428D01*
X102048428Y-146908142D01*
X102048428Y-147336714D02*
X101048428Y-147622428D01*
X101762714Y-147908142D01*
X101048428Y-148193857D01*
X102048428Y-148479571D01*
X102048428Y-148908142D02*
X101048428Y-149193857D01*
X101762714Y-149479571D01*
X101048428Y-149765285D01*
X102048428Y-150051000D01*
X101191285Y-150622428D02*
X101119857Y-150693857D01*
X101048428Y-150622428D01*
X101119857Y-150551000D01*
X101191285Y-150622428D01*
X101048428Y-150622428D01*
X102048428Y-151122428D02*
X102048428Y-151693857D01*
X101048428Y-151336714D02*
X102334142Y-151336714D01*
X102477000Y-151408142D01*
X102548428Y-151551000D01*
X102548428Y-151693857D01*
X101048428Y-152193857D02*
X102048428Y-152193857D01*
X101762714Y-152193857D02*
X101905571Y-152265285D01*
X101977000Y-152336714D01*
X102048428Y-152479571D01*
X102048428Y-152622428D01*
X101119857Y-153693857D02*
X101048428Y-153551000D01*
X101048428Y-153265285D01*
X101119857Y-153122428D01*
X101262714Y-153051000D01*
X101834142Y-153051000D01*
X101977000Y-153122428D01*
X102048428Y-153265285D01*
X102048428Y-153551000D01*
X101977000Y-153693857D01*
X101834142Y-153765285D01*
X101691285Y-153765285D01*
X101548428Y-153051000D01*
X101119857Y-154979571D02*
X101048428Y-154836714D01*
X101048428Y-154551000D01*
X101119857Y-154408142D01*
X101262714Y-154336714D01*
X101834142Y-154336714D01*
X101977000Y-154408142D01*
X102048428Y-154551000D01*
X102048428Y-154836714D01*
X101977000Y-154979571D01*
X101834142Y-155051000D01*
X101691285Y-155051000D01*
X101548428Y-154336714D01*
X101048428Y-156336714D02*
X102548428Y-156336714D01*
X101119857Y-156336714D02*
X101048428Y-156193857D01*
X101048428Y-155908142D01*
X101119857Y-155765285D01*
X101191285Y-155693857D01*
X101334142Y-155622428D01*
X101762714Y-155622428D01*
X101905571Y-155693857D01*
X101977000Y-155765285D01*
X102048428Y-155908142D01*
X102048428Y-156193857D01*
X101977000Y-156336714D01*
X101119857Y-156979571D02*
X101048428Y-157122428D01*
X101048428Y-157408142D01*
X101119857Y-157551000D01*
X101262714Y-157622428D01*
X101334142Y-157622428D01*
X101477000Y-157551000D01*
X101548428Y-157408142D01*
X101548428Y-157193857D01*
X101619857Y-157051000D01*
X101762714Y-156979571D01*
X101834142Y-156979571D01*
X101977000Y-157051000D01*
X102048428Y-157193857D01*
X102048428Y-157408142D01*
X101977000Y-157551000D01*
X102048428Y-158265285D02*
X100548428Y-158265285D01*
X101977000Y-158265285D02*
X102048428Y-158408142D01*
X102048428Y-158693857D01*
X101977000Y-158836714D01*
X101905571Y-158908142D01*
X101762714Y-158979571D01*
X101334142Y-158979571D01*
X101191285Y-158908142D01*
X101119857Y-158836714D01*
X101048428Y-158693857D01*
X101048428Y-158408142D01*
X101119857Y-158265285D01*
X101191285Y-159622428D02*
X101119857Y-159693857D01*
X101048428Y-159622428D01*
X101119857Y-159551000D01*
X101191285Y-159622428D01*
X101048428Y-159622428D01*
X101119857Y-160979571D02*
X101048428Y-160836714D01*
X101048428Y-160551000D01*
X101119857Y-160408142D01*
X101191285Y-160336714D01*
X101334142Y-160265285D01*
X101762714Y-160265285D01*
X101905571Y-160336714D01*
X101977000Y-160408142D01*
X102048428Y-160551000D01*
X102048428Y-160836714D01*
X101977000Y-160979571D01*
X101119857Y-162265285D02*
X101048428Y-162122428D01*
X101048428Y-161836714D01*
X101119857Y-161693857D01*
X101191285Y-161622428D01*
X101334142Y-161551000D01*
X101762714Y-161551000D01*
X101905571Y-161622428D01*
X101977000Y-161693857D01*
X102048428Y-161836714D01*
X102048428Y-162122428D01*
X101977000Y-162265285D01*
D10*
X104326000Y-170519047D02*
X104326000Y-171895238D01*
X104392666Y-172057142D01*
X104459333Y-172138095D01*
X104592666Y-172219047D01*
X104859333Y-172219047D01*
X104992666Y-172138095D01*
X105059333Y-172057142D01*
X105126000Y-171895238D01*
X105126000Y-170519047D01*
X105726000Y-172138095D02*
X105926000Y-172219047D01*
X106259333Y-172219047D01*
X106392666Y-172138095D01*
X106459333Y-172057142D01*
X106526000Y-171895238D01*
X106526000Y-171733333D01*
X106459333Y-171571428D01*
X106392666Y-171490476D01*
X106259333Y-171409523D01*
X105992666Y-171328571D01*
X105859333Y-171247619D01*
X105792666Y-171166666D01*
X105726000Y-171004761D01*
X105726000Y-170842857D01*
X105792666Y-170680952D01*
X105859333Y-170600000D01*
X105992666Y-170519047D01*
X106326000Y-170519047D01*
X106526000Y-170600000D01*
X107592666Y-171328571D02*
X107792666Y-171409523D01*
X107859333Y-171490476D01*
X107926000Y-171652380D01*
X107926000Y-171895238D01*
X107859333Y-172057142D01*
X107792666Y-172138095D01*
X107659333Y-172219047D01*
X107126000Y-172219047D01*
X107126000Y-170519047D01*
X107592666Y-170519047D01*
X107726000Y-170600000D01*
X107792666Y-170680952D01*
X107859333Y-170842857D01*
X107859333Y-171004761D01*
X107792666Y-171166666D01*
X107726000Y-171247619D01*
X107592666Y-171328571D01*
X107126000Y-171328571D01*
X108526000Y-172219047D02*
X108526000Y-171085714D01*
X108526000Y-170519047D02*
X108459333Y-170600000D01*
X108526000Y-170680952D01*
X108592666Y-170600000D01*
X108526000Y-170519047D01*
X108526000Y-170680952D01*
X127420809Y-134881880D02*
X127420809Y-133881880D01*
X127849380Y-133977119D02*
X127897000Y-133929500D01*
X127992238Y-133881880D01*
X128230333Y-133881880D01*
X128325571Y-133929500D01*
X128373190Y-133977119D01*
X128420809Y-134072357D01*
X128420809Y-134167595D01*
X128373190Y-134310452D01*
X127801761Y-134881880D01*
X128420809Y-134881880D01*
X129420809Y-134786642D02*
X129373190Y-134834261D01*
X129230333Y-134881880D01*
X129135095Y-134881880D01*
X128992238Y-134834261D01*
X128897000Y-134739023D01*
X128849380Y-134643785D01*
X128801761Y-134453309D01*
X128801761Y-134310452D01*
X128849380Y-134119976D01*
X128897000Y-134024738D01*
X128992238Y-133929500D01*
X129135095Y-133881880D01*
X129230333Y-133881880D01*
X129373190Y-133929500D01*
X129420809Y-133977119D01*
X121301000Y-133993000D02*
X121205761Y-133945380D01*
X121062904Y-133945380D01*
X120920047Y-133993000D01*
X120824809Y-134088238D01*
X120777190Y-134183476D01*
X120729571Y-134373952D01*
X120729571Y-134516809D01*
X120777190Y-134707285D01*
X120824809Y-134802523D01*
X120920047Y-134897761D01*
X121062904Y-134945380D01*
X121158142Y-134945380D01*
X121301000Y-134897761D01*
X121348619Y-134850142D01*
X121348619Y-134516809D01*
X121158142Y-134516809D01*
X121777190Y-134945380D02*
X121777190Y-133945380D01*
X122158142Y-133945380D01*
X122253380Y-133993000D01*
X122301000Y-134040619D01*
X122348619Y-134135857D01*
X122348619Y-134278714D01*
X122301000Y-134373952D01*
X122253380Y-134421571D01*
X122158142Y-134469190D01*
X121777190Y-134469190D01*
X122777190Y-134945380D02*
X122777190Y-133945380D01*
X123443857Y-133945380D02*
X123634333Y-133945380D01*
X123729571Y-133993000D01*
X123824809Y-134088238D01*
X123872428Y-134278714D01*
X123872428Y-134612047D01*
X123824809Y-134802523D01*
X123729571Y-134897761D01*
X123634333Y-134945380D01*
X123443857Y-134945380D01*
X123348619Y-134897761D01*
X123253380Y-134802523D01*
X123205761Y-134612047D01*
X123205761Y-134278714D01*
X123253380Y-134088238D01*
X123348619Y-133993000D01*
X123443857Y-133945380D01*
X115338190Y-134915761D02*
X115481047Y-134963380D01*
X115719142Y-134963380D01*
X115814380Y-134915761D01*
X115862000Y-134868142D01*
X115909619Y-134772904D01*
X115909619Y-134677666D01*
X115862000Y-134582428D01*
X115814380Y-134534809D01*
X115719142Y-134487190D01*
X115528666Y-134439571D01*
X115433428Y-134391952D01*
X115385809Y-134344333D01*
X115338190Y-134249095D01*
X115338190Y-134153857D01*
X115385809Y-134058619D01*
X115433428Y-134011000D01*
X115528666Y-133963380D01*
X115766761Y-133963380D01*
X115909619Y-134011000D01*
X116338190Y-134963380D02*
X116338190Y-133963380D01*
X116719142Y-133963380D01*
X116814380Y-134011000D01*
X116862000Y-134058619D01*
X116909619Y-134153857D01*
X116909619Y-134296714D01*
X116862000Y-134391952D01*
X116814380Y-134439571D01*
X116719142Y-134487190D01*
X116338190Y-134487190D01*
X117338190Y-134963380D02*
X117338190Y-133963380D01*
X132905666Y-135072380D02*
X132905666Y-134072380D01*
X133286619Y-134072380D01*
X133381857Y-134120000D01*
X133429476Y-134167619D01*
X133477095Y-134262857D01*
X133477095Y-134405714D01*
X133429476Y-134500952D01*
X133381857Y-134548571D01*
X133286619Y-134596190D01*
X132905666Y-134596190D01*
X133810428Y-134072380D02*
X134048523Y-135072380D01*
X134239000Y-134358095D01*
X134429476Y-135072380D01*
X134667571Y-134072380D01*
X135619952Y-135072380D02*
X135286619Y-134596190D01*
X135048523Y-135072380D02*
X135048523Y-134072380D01*
X135429476Y-134072380D01*
X135524714Y-134120000D01*
X135572333Y-134167619D01*
X135619952Y-134262857D01*
X135619952Y-134405714D01*
X135572333Y-134500952D01*
X135524714Y-134548571D01*
X135429476Y-134596190D01*
X135048523Y-134596190D01*
D12*
X126056000Y-163598000D02*
X126056000Y-159998000D01*
X126044478Y-163636478D02*
G75*
G02X121606000Y-161798000I-1838478J1838478D01*
G01*
X126044478Y-159959522D02*
G75*
G03X121606000Y-161798000I-1838478J-1838478D01*
G01*
D13*
X110919260Y-136794240D02*
X110919260Y-137294620D01*
X110919260Y-136794240D02*
X111419640Y-136794240D01*
X110919260Y-136293860D02*
X110919260Y-136794240D01*
X110919260Y-136794240D02*
X110520480Y-136794240D01*
X110520480Y-136794240D02*
X110418880Y-136794240D01*
X112369600Y-137795000D02*
G75*
G03X112369600Y-137795000I-3149600J0D01*
G01*
X112791240Y-163844740D02*
X113291620Y-163844740D01*
X112791240Y-163844740D02*
X112791240Y-163344360D01*
X112290860Y-163844740D02*
X112791240Y-163844740D01*
X112791240Y-163844740D02*
X112791240Y-164243520D01*
X112791240Y-164243520D02*
X112791240Y-164345120D01*
X116941600Y-165544000D02*
G75*
G03X116941600Y-165544000I-3149600J0D01*
G01*
X103225000Y-143230000D02*
X103225000Y-144780000D01*
X106045000Y-146050000D02*
X103505000Y-146050000D01*
X106045000Y-143510000D02*
X106045000Y-146050000D01*
X104775000Y-143230000D02*
X103225000Y-143230000D01*
X108585000Y-143510000D02*
X106045000Y-143510000D01*
X108585000Y-168910000D02*
X103505000Y-168910000D01*
X103505000Y-146050000D02*
X103505000Y-168910000D01*
X108585000Y-168910000D02*
X108585000Y-143510000D01*
X104475000Y-138205000D02*
X104475000Y-140745000D01*
X104755000Y-135385000D02*
X104755000Y-136935000D01*
X104475000Y-138205000D02*
X101935000Y-138205000D01*
X101655000Y-136935000D02*
X101655000Y-135385000D01*
X101655000Y-135385000D02*
X104755000Y-135385000D01*
X101935000Y-138205000D02*
X101935000Y-140745000D01*
X101935000Y-140745000D02*
X104475000Y-140745000D01*
X136525000Y-168910000D02*
X136525000Y-143510000D01*
X131445000Y-146050000D02*
X131445000Y-168910000D01*
X136525000Y-168910000D02*
X131445000Y-168910000D01*
X136525000Y-143510000D02*
X133985000Y-143510000D01*
X132715000Y-143230000D02*
X131165000Y-143230000D01*
X133985000Y-143510000D02*
X133985000Y-146050000D01*
X133985000Y-146050000D02*
X131445000Y-146050000D01*
X131165000Y-143230000D02*
X131165000Y-144780000D01*
D14*
X126874000Y-160719000D02*
X127174000Y-160719000D01*
X126874000Y-161094000D02*
X126874000Y-160719000D01*
X130174000Y-160719000D02*
X130174000Y-161169000D01*
X129874000Y-160719000D02*
X130174000Y-160719000D01*
X129949000Y-160719000D02*
X129824000Y-160719000D01*
X130174000Y-162369000D02*
X129824000Y-162369000D01*
X130174000Y-161894000D02*
X130174000Y-162369000D01*
X127199000Y-162369000D02*
X127199000Y-163144000D01*
X127149000Y-162369000D02*
X127199000Y-162369000D01*
X126874000Y-161994000D02*
X127149000Y-162369000D01*
X126874000Y-161719000D02*
X126874000Y-161994000D01*
X128699000Y-157606000D02*
X128974000Y-157606000D01*
X128974000Y-157606000D02*
X129349000Y-157331000D01*
X129349000Y-157331000D02*
X129349000Y-157281000D01*
X129349000Y-157281000D02*
X130124000Y-157281000D01*
X128874000Y-154306000D02*
X129349000Y-154306000D01*
X129349000Y-154306000D02*
X129349000Y-154656000D01*
X127699000Y-154531000D02*
X127699000Y-154656000D01*
X127699000Y-154606000D02*
X127699000Y-154306000D01*
X127699000Y-154306000D02*
X128149000Y-154306000D01*
X128074000Y-157606000D02*
X127699000Y-157606000D01*
X127699000Y-157606000D02*
X127699000Y-157306000D01*
D12*
X121605522Y-157540478D02*
G75*
G03X126044000Y-155702000I1838478J1838478D01*
G01*
X121605522Y-153863522D02*
G75*
G02X126044000Y-155702000I1838478J-1838478D01*
G01*
X121594000Y-153902000D02*
X121594000Y-157502000D01*
X130069000Y-136731000D02*
X130069000Y-136575000D01*
X130069000Y-139047000D02*
X130069000Y-138891000D01*
X127467870Y-136731163D02*
G75*
G02X129549961Y-136731000I1041130J-1079837D01*
G01*
X127467870Y-138890837D02*
G75*
G03X129549961Y-138891000I1041130J1079837D01*
G01*
X126836665Y-136732392D02*
G75*
G02X130069000Y-136575484I1672335J-1078608D01*
G01*
X126836665Y-138889608D02*
G75*
G03X130069000Y-139046516I1672335J1078608D01*
G01*
X120796665Y-138889608D02*
G75*
G03X124029000Y-139046516I1672335J1078608D01*
G01*
X120796665Y-136732392D02*
G75*
G02X124029000Y-136575484I1672335J-1078608D01*
G01*
X121427870Y-138890837D02*
G75*
G03X123509961Y-138891000I1041130J1079837D01*
G01*
X121427870Y-136731163D02*
G75*
G02X123509961Y-136731000I1041130J-1079837D01*
G01*
X124029000Y-139047000D02*
X124029000Y-138891000D01*
X124029000Y-136731000D02*
X124029000Y-136575000D01*
X118029000Y-136731000D02*
X118029000Y-136575000D01*
X118029000Y-139047000D02*
X118029000Y-138891000D01*
X115427870Y-136731163D02*
G75*
G02X117509961Y-136731000I1041130J-1079837D01*
G01*
X115427870Y-138890837D02*
G75*
G03X117509961Y-138891000I1041130J1079837D01*
G01*
X114796665Y-136732392D02*
G75*
G02X118029000Y-136575484I1672335J-1078608D01*
G01*
X114796665Y-138889608D02*
G75*
G03X118029000Y-139046516I1672335J1078608D01*
G01*
X132796665Y-138889608D02*
G75*
G03X136029000Y-139046516I1672335J1078608D01*
G01*
X132796665Y-136732392D02*
G75*
G02X136029000Y-136575484I1672335J-1078608D01*
G01*
X133427870Y-138890837D02*
G75*
G03X135509961Y-138891000I1041130J1079837D01*
G01*
X133427870Y-136731163D02*
G75*
G02X135509961Y-136731000I1041130J-1079837D01*
G01*
X136029000Y-139047000D02*
X136029000Y-138891000D01*
X136029000Y-136731000D02*
X136029000Y-136575000D01*
D13*
X109982000Y-169440000D02*
X130302000Y-169440000D01*
X110522000Y-169990000D02*
X129742000Y-169990000D01*
X109982000Y-178540000D02*
X130302000Y-178540000D01*
X110522000Y-177990000D02*
X117892000Y-177990000D01*
X122392000Y-177990000D02*
X129742000Y-177990000D01*
X117892000Y-177990000D02*
X117892000Y-178540000D01*
X122392000Y-177990000D02*
X122392000Y-178540000D01*
X109982000Y-169440000D02*
X109982000Y-178540000D01*
X110522000Y-169990000D02*
X110522000Y-177990000D01*
X130302000Y-169440000D02*
X130302000Y-178540000D01*
X129742000Y-169990000D02*
X129742000Y-177990000D01*
X109982000Y-169440000D02*
X110522000Y-169990000D01*
X130302000Y-169440000D02*
X129742000Y-169990000D01*
X109982000Y-178540000D02*
X110522000Y-177990000D01*
X130302000Y-178540000D02*
X129742000Y-177990000D01*
X112207040Y-146431000D02*
X112207040Y-146530060D01*
X112207040Y-146431000D02*
X112207040Y-146331940D01*
X111312960Y-146431000D02*
X111312960Y-146331940D01*
X111312960Y-146530060D02*
X111312960Y-146431000D01*
X111312960Y-146431000D02*
X111312960Y-146530060D01*
X115951000Y-161229040D02*
X116050060Y-161229040D01*
X116050060Y-161229040D02*
X115951000Y-161229040D01*
X115951000Y-161229040D02*
X115851940Y-161229040D01*
X115951000Y-160334960D02*
X115851940Y-160334960D01*
X115951000Y-160334960D02*
X116050060Y-160334960D01*
X115824000Y-153349960D02*
X115724940Y-153349960D01*
X115724940Y-153349960D02*
X115824000Y-153349960D01*
X115824000Y-153349960D02*
X115923060Y-153349960D01*
X115824000Y-154244040D02*
X115923060Y-154244040D01*
X115824000Y-154244040D02*
X115724940Y-154244040D01*
X115840000Y-156905960D02*
X115939060Y-156905960D01*
X115840000Y-156905960D02*
X115740940Y-156905960D01*
X115840000Y-157800040D02*
X115740940Y-157800040D01*
X115939060Y-157800040D02*
X115840000Y-157800040D01*
X115840000Y-157800040D02*
X115939060Y-157800040D01*
X121224040Y-146368000D02*
X121224040Y-146467060D01*
X121224040Y-146368000D02*
X121224040Y-146268940D01*
X120329960Y-146368000D02*
X120329960Y-146268940D01*
X120329960Y-146467060D02*
X120329960Y-146368000D01*
X120329960Y-146368000D02*
X120329960Y-146467060D01*
X116138960Y-146304000D02*
X116138960Y-146403060D01*
X116138960Y-146403060D02*
X116138960Y-146304000D01*
X116138960Y-146304000D02*
X116138960Y-146204940D01*
X117033040Y-146304000D02*
X117033040Y-146204940D01*
X117033040Y-146304000D02*
X117033040Y-146403060D01*
X125161040Y-146431000D02*
X125161040Y-146530060D01*
X125161040Y-146431000D02*
X125161040Y-146331940D01*
X124266960Y-146431000D02*
X124266960Y-146331940D01*
X124266960Y-146530060D02*
X124266960Y-146431000D01*
X124266960Y-146431000D02*
X124266960Y-146530060D01*
X124270000Y-167452040D02*
X124170940Y-167452040D01*
X124270000Y-167452040D02*
X124369060Y-167452040D01*
X124270000Y-166557960D02*
X124369060Y-166557960D01*
X124170940Y-166557960D02*
X124270000Y-166557960D01*
X124270000Y-166557960D02*
X124170940Y-166557960D01*
X128076960Y-146431000D02*
X128076960Y-146530060D01*
X128076960Y-146530060D02*
X128076960Y-146431000D01*
X128076960Y-146431000D02*
X128076960Y-146331940D01*
X128971040Y-146431000D02*
X128971040Y-146331940D01*
X128971040Y-146431000D02*
X128971040Y-146530060D01*
X121261119Y-164052238D02*
X121213500Y-164147476D01*
X121118261Y-164242714D01*
X120975404Y-164385571D01*
X120927785Y-164480809D01*
X120927785Y-164576047D01*
X121165880Y-164528428D02*
X121118261Y-164623666D01*
X121023023Y-164718904D01*
X120832547Y-164766523D01*
X120499214Y-164766523D01*
X120308738Y-164718904D01*
X120213500Y-164623666D01*
X120165880Y-164528428D01*
X120165880Y-164337952D01*
X120213500Y-164242714D01*
X120308738Y-164147476D01*
X120499214Y-164099857D01*
X120832547Y-164099857D01*
X121023023Y-164147476D01*
X121118261Y-164242714D01*
X121165880Y-164337952D01*
X121165880Y-164528428D01*
X121165880Y-163147476D02*
X121165880Y-163718904D01*
X121165880Y-163433190D02*
X120165880Y-163433190D01*
X120308738Y-163528428D01*
X120403976Y-163623666D01*
X120451595Y-163718904D01*
X113133142Y-140247666D02*
X113180761Y-140295285D01*
X113228380Y-140438142D01*
X113228380Y-140533380D01*
X113180761Y-140676238D01*
X113085523Y-140771476D01*
X112990285Y-140819095D01*
X112799809Y-140866714D01*
X112656952Y-140866714D01*
X112466476Y-140819095D01*
X112371238Y-140771476D01*
X112276000Y-140676238D01*
X112228380Y-140533380D01*
X112228380Y-140438142D01*
X112276000Y-140295285D01*
X112323619Y-140247666D01*
X113228380Y-139295285D02*
X113228380Y-139866714D01*
X113228380Y-139581000D02*
X112228380Y-139581000D01*
X112371238Y-139676238D01*
X112466476Y-139771476D01*
X112514095Y-139866714D01*
X110402642Y-163615666D02*
X110450261Y-163663285D01*
X110497880Y-163806142D01*
X110497880Y-163901380D01*
X110450261Y-164044238D01*
X110355023Y-164139476D01*
X110259785Y-164187095D01*
X110069309Y-164234714D01*
X109926452Y-164234714D01*
X109735976Y-164187095D01*
X109640738Y-164139476D01*
X109545500Y-164044238D01*
X109497880Y-163901380D01*
X109497880Y-163806142D01*
X109545500Y-163663285D01*
X109593119Y-163615666D01*
X109593119Y-163234714D02*
X109545500Y-163187095D01*
X109497880Y-163091857D01*
X109497880Y-162853761D01*
X109545500Y-162758523D01*
X109593119Y-162710904D01*
X109688357Y-162663285D01*
X109783595Y-162663285D01*
X109926452Y-162710904D01*
X110497880Y-163282333D01*
X110497880Y-162663285D01*
X107211904Y-142819380D02*
X107211904Y-141819380D01*
X107592857Y-141819380D01*
X107688095Y-141867000D01*
X107735714Y-141914619D01*
X107783333Y-142009857D01*
X107783333Y-142152714D01*
X107735714Y-142247952D01*
X107688095Y-142295571D01*
X107592857Y-142343190D01*
X107211904Y-142343190D01*
X108735714Y-142819380D02*
X108164285Y-142819380D01*
X108450000Y-142819380D02*
X108450000Y-141819380D01*
X108354761Y-141962238D01*
X108259523Y-142057476D01*
X108164285Y-142105095D01*
X106243380Y-141200095D02*
X105243380Y-141200095D01*
X105243380Y-140819142D01*
X105291000Y-140723904D01*
X105338619Y-140676285D01*
X105433857Y-140628666D01*
X105576714Y-140628666D01*
X105671952Y-140676285D01*
X105719571Y-140723904D01*
X105767190Y-140819142D01*
X105767190Y-141200095D01*
X105243380Y-140295333D02*
X105243380Y-139676285D01*
X105624333Y-140009619D01*
X105624333Y-139866761D01*
X105671952Y-139771523D01*
X105719571Y-139723904D01*
X105814809Y-139676285D01*
X106052904Y-139676285D01*
X106148142Y-139723904D01*
X106195761Y-139771523D01*
X106243380Y-139866761D01*
X106243380Y-140152476D01*
X106195761Y-140247714D01*
X106148142Y-140295333D01*
X134897904Y-170886380D02*
X134897904Y-169886380D01*
X135278857Y-169886380D01*
X135374095Y-169934000D01*
X135421714Y-169981619D01*
X135469333Y-170076857D01*
X135469333Y-170219714D01*
X135421714Y-170314952D01*
X135374095Y-170362571D01*
X135278857Y-170410190D01*
X134897904Y-170410190D01*
X136326476Y-170219714D02*
X136326476Y-170886380D01*
X136088380Y-169838761D02*
X135850285Y-170553047D01*
X136469333Y-170553047D01*
X128428761Y-164758619D02*
X128333523Y-164711000D01*
X128238285Y-164615761D01*
X128095428Y-164472904D01*
X128000190Y-164425285D01*
X127904952Y-164425285D01*
X127952571Y-164663380D02*
X127857333Y-164615761D01*
X127762095Y-164520523D01*
X127714476Y-164330047D01*
X127714476Y-163996714D01*
X127762095Y-163806238D01*
X127857333Y-163711000D01*
X127952571Y-163663380D01*
X128143047Y-163663380D01*
X128238285Y-163711000D01*
X128333523Y-163806238D01*
X128381142Y-163996714D01*
X128381142Y-164330047D01*
X128333523Y-164520523D01*
X128238285Y-164615761D01*
X128143047Y-164663380D01*
X127952571Y-164663380D01*
X128714476Y-163663380D02*
X129333523Y-163663380D01*
X129000190Y-164044333D01*
X129143047Y-164044333D01*
X129238285Y-164091952D01*
X129285904Y-164139571D01*
X129333523Y-164234809D01*
X129333523Y-164472904D01*
X129285904Y-164568142D01*
X129238285Y-164615761D01*
X129143047Y-164663380D01*
X128857333Y-164663380D01*
X128762095Y-164615761D01*
X128714476Y-164568142D01*
X128555761Y-153582619D02*
X128460523Y-153535000D01*
X128365285Y-153439761D01*
X128222428Y-153296904D01*
X128127190Y-153249285D01*
X128031952Y-153249285D01*
X128079571Y-153487380D02*
X127984333Y-153439761D01*
X127889095Y-153344523D01*
X127841476Y-153154047D01*
X127841476Y-152820714D01*
X127889095Y-152630238D01*
X127984333Y-152535000D01*
X128079571Y-152487380D01*
X128270047Y-152487380D01*
X128365285Y-152535000D01*
X128460523Y-152630238D01*
X128508142Y-152820714D01*
X128508142Y-153154047D01*
X128460523Y-153344523D01*
X128365285Y-153439761D01*
X128270047Y-153487380D01*
X128079571Y-153487380D01*
X129365285Y-152820714D02*
X129365285Y-153487380D01*
X129127190Y-152439761D02*
X128889095Y-153154047D01*
X129508142Y-153154047D01*
X121761261Y-152820619D02*
X121666023Y-152773000D01*
X121570785Y-152677761D01*
X121427928Y-152534904D01*
X121332690Y-152487285D01*
X121237452Y-152487285D01*
X121285071Y-152725380D02*
X121189833Y-152677761D01*
X121094595Y-152582523D01*
X121046976Y-152392047D01*
X121046976Y-152058714D01*
X121094595Y-151868238D01*
X121189833Y-151773000D01*
X121285071Y-151725380D01*
X121475547Y-151725380D01*
X121570785Y-151773000D01*
X121666023Y-151868238D01*
X121713642Y-152058714D01*
X121713642Y-152392047D01*
X121666023Y-152582523D01*
X121570785Y-152677761D01*
X121475547Y-152725380D01*
X121285071Y-152725380D01*
X122094595Y-151820619D02*
X122142214Y-151773000D01*
X122237452Y-151725380D01*
X122475547Y-151725380D01*
X122570785Y-151773000D01*
X122618404Y-151820619D01*
X122666023Y-151915857D01*
X122666023Y-152011095D01*
X122618404Y-152153952D01*
X122046976Y-152725380D01*
X122666023Y-152725380D01*
X127770904Y-141223380D02*
X127770904Y-140223380D01*
X128009000Y-140223380D01*
X128151857Y-140271000D01*
X128247095Y-140366238D01*
X128294714Y-140461476D01*
X128342333Y-140651952D01*
X128342333Y-140794809D01*
X128294714Y-140985285D01*
X128247095Y-141080523D01*
X128151857Y-141175761D01*
X128009000Y-141223380D01*
X127770904Y-141223380D01*
X129294714Y-141223380D02*
X128723285Y-141223380D01*
X129009000Y-141223380D02*
X129009000Y-140223380D01*
X128913761Y-140366238D01*
X128818523Y-140461476D01*
X128723285Y-140509095D01*
X121730904Y-141223380D02*
X121730904Y-140223380D01*
X121969000Y-140223380D01*
X122111857Y-140271000D01*
X122207095Y-140366238D01*
X122254714Y-140461476D01*
X122302333Y-140651952D01*
X122302333Y-140794809D01*
X122254714Y-140985285D01*
X122207095Y-141080523D01*
X122111857Y-141175761D01*
X121969000Y-141223380D01*
X121730904Y-141223380D01*
X122683285Y-140318619D02*
X122730904Y-140271000D01*
X122826142Y-140223380D01*
X123064238Y-140223380D01*
X123159476Y-140271000D01*
X123207095Y-140318619D01*
X123254714Y-140413857D01*
X123254714Y-140509095D01*
X123207095Y-140651952D01*
X122635666Y-141223380D01*
X123254714Y-141223380D01*
X115730904Y-141223380D02*
X115730904Y-140223380D01*
X115969000Y-140223380D01*
X116111857Y-140271000D01*
X116207095Y-140366238D01*
X116254714Y-140461476D01*
X116302333Y-140651952D01*
X116302333Y-140794809D01*
X116254714Y-140985285D01*
X116207095Y-141080523D01*
X116111857Y-141175761D01*
X115969000Y-141223380D01*
X115730904Y-141223380D01*
X116635666Y-140223380D02*
X117254714Y-140223380D01*
X116921380Y-140604333D01*
X117064238Y-140604333D01*
X117159476Y-140651952D01*
X117207095Y-140699571D01*
X117254714Y-140794809D01*
X117254714Y-141032904D01*
X117207095Y-141128142D01*
X117159476Y-141175761D01*
X117064238Y-141223380D01*
X116778523Y-141223380D01*
X116683285Y-141175761D01*
X116635666Y-141128142D01*
X133730904Y-141223380D02*
X133730904Y-140223380D01*
X133969000Y-140223380D01*
X134111857Y-140271000D01*
X134207095Y-140366238D01*
X134254714Y-140461476D01*
X134302333Y-140651952D01*
X134302333Y-140794809D01*
X134254714Y-140985285D01*
X134207095Y-141080523D01*
X134111857Y-141175761D01*
X133969000Y-141223380D01*
X133730904Y-141223380D01*
X135159476Y-140556714D02*
X135159476Y-141223380D01*
X134921380Y-140175761D02*
X134683285Y-140890047D01*
X135302333Y-140890047D01*
X107084904Y-173997880D02*
X107084904Y-172997880D01*
X107465857Y-172997880D01*
X107561095Y-173045500D01*
X107608714Y-173093119D01*
X107656333Y-173188357D01*
X107656333Y-173331214D01*
X107608714Y-173426452D01*
X107561095Y-173474071D01*
X107465857Y-173521690D01*
X107084904Y-173521690D01*
X108037285Y-173093119D02*
X108084904Y-173045500D01*
X108180142Y-172997880D01*
X108418238Y-172997880D01*
X108513476Y-173045500D01*
X108561095Y-173093119D01*
X108608714Y-173188357D01*
X108608714Y-173283595D01*
X108561095Y-173426452D01*
X107989666Y-173997880D01*
X108608714Y-173997880D01*
X113863380Y-146661166D02*
X113387190Y-146994500D01*
X113863380Y-147232595D02*
X112863380Y-147232595D01*
X112863380Y-146851642D01*
X112911000Y-146756404D01*
X112958619Y-146708785D01*
X113053857Y-146661166D01*
X113196714Y-146661166D01*
X113291952Y-146708785D01*
X113339571Y-146756404D01*
X113387190Y-146851642D01*
X113387190Y-147232595D01*
X113863380Y-145708785D02*
X113863380Y-146280214D01*
X113863380Y-145994500D02*
X112863380Y-145994500D01*
X113006238Y-146089738D01*
X113101476Y-146184976D01*
X113149095Y-146280214D01*
X115657333Y-159837380D02*
X115324000Y-159361190D01*
X115085904Y-159837380D02*
X115085904Y-158837380D01*
X115466857Y-158837380D01*
X115562095Y-158885000D01*
X115609714Y-158932619D01*
X115657333Y-159027857D01*
X115657333Y-159170714D01*
X115609714Y-159265952D01*
X115562095Y-159313571D01*
X115466857Y-159361190D01*
X115085904Y-159361190D01*
X116038285Y-158932619D02*
X116085904Y-158885000D01*
X116181142Y-158837380D01*
X116419238Y-158837380D01*
X116514476Y-158885000D01*
X116562095Y-158932619D01*
X116609714Y-159027857D01*
X116609714Y-159123095D01*
X116562095Y-159265952D01*
X115990666Y-159837380D01*
X116609714Y-159837380D01*
X115593833Y-152852380D02*
X115260500Y-152376190D01*
X115022404Y-152852380D02*
X115022404Y-151852380D01*
X115403357Y-151852380D01*
X115498595Y-151900000D01*
X115546214Y-151947619D01*
X115593833Y-152042857D01*
X115593833Y-152185714D01*
X115546214Y-152280952D01*
X115498595Y-152328571D01*
X115403357Y-152376190D01*
X115022404Y-152376190D01*
X115927166Y-151852380D02*
X116546214Y-151852380D01*
X116212880Y-152233333D01*
X116355738Y-152233333D01*
X116450976Y-152280952D01*
X116498595Y-152328571D01*
X116546214Y-152423809D01*
X116546214Y-152661904D01*
X116498595Y-152757142D01*
X116450976Y-152804761D01*
X116355738Y-152852380D01*
X116070023Y-152852380D01*
X115974785Y-152804761D01*
X115927166Y-152757142D01*
X115546333Y-156393380D02*
X115213000Y-155917190D01*
X114974904Y-156393380D02*
X114974904Y-155393380D01*
X115355857Y-155393380D01*
X115451095Y-155441000D01*
X115498714Y-155488619D01*
X115546333Y-155583857D01*
X115546333Y-155726714D01*
X115498714Y-155821952D01*
X115451095Y-155869571D01*
X115355857Y-155917190D01*
X114974904Y-155917190D01*
X116403476Y-155726714D02*
X116403476Y-156393380D01*
X116165380Y-155345761D02*
X115927285Y-156060047D01*
X116546333Y-156060047D01*
X122880380Y-146700166D02*
X122404190Y-147033500D01*
X122880380Y-147271595D02*
X121880380Y-147271595D01*
X121880380Y-146890642D01*
X121928000Y-146795404D01*
X121975619Y-146747785D01*
X122070857Y-146700166D01*
X122213714Y-146700166D01*
X122308952Y-146747785D01*
X122356571Y-146795404D01*
X122404190Y-146890642D01*
X122404190Y-147271595D01*
X121880380Y-145795404D02*
X121880380Y-146271595D01*
X122356571Y-146319214D01*
X122308952Y-146271595D01*
X122261333Y-146176357D01*
X122261333Y-145938261D01*
X122308952Y-145843023D01*
X122356571Y-145795404D01*
X122451809Y-145747785D01*
X122689904Y-145747785D01*
X122785142Y-145795404D01*
X122832761Y-145843023D01*
X122880380Y-145938261D01*
X122880380Y-146176357D01*
X122832761Y-146271595D01*
X122785142Y-146319214D01*
X118689380Y-146788166D02*
X118213190Y-147121500D01*
X118689380Y-147359595D02*
X117689380Y-147359595D01*
X117689380Y-146978642D01*
X117737000Y-146883404D01*
X117784619Y-146835785D01*
X117879857Y-146788166D01*
X118022714Y-146788166D01*
X118117952Y-146835785D01*
X118165571Y-146883404D01*
X118213190Y-146978642D01*
X118213190Y-147359595D01*
X117689380Y-145931023D02*
X117689380Y-146121500D01*
X117737000Y-146216738D01*
X117784619Y-146264357D01*
X117927476Y-146359595D01*
X118117952Y-146407214D01*
X118498904Y-146407214D01*
X118594142Y-146359595D01*
X118641761Y-146311976D01*
X118689380Y-146216738D01*
X118689380Y-146026261D01*
X118641761Y-145931023D01*
X118594142Y-145883404D01*
X118498904Y-145835785D01*
X118260809Y-145835785D01*
X118165571Y-145883404D01*
X118117952Y-145931023D01*
X118070333Y-146026261D01*
X118070333Y-146216738D01*
X118117952Y-146311976D01*
X118165571Y-146359595D01*
X118260809Y-146407214D01*
X126817380Y-146661166D02*
X126341190Y-146994500D01*
X126817380Y-147232595D02*
X125817380Y-147232595D01*
X125817380Y-146851642D01*
X125865000Y-146756404D01*
X125912619Y-146708785D01*
X126007857Y-146661166D01*
X126150714Y-146661166D01*
X126245952Y-146708785D01*
X126293571Y-146756404D01*
X126341190Y-146851642D01*
X126341190Y-147232595D01*
X125817380Y-146327833D02*
X125817380Y-145661166D01*
X126817380Y-146089738D01*
X124166833Y-165996880D02*
X123833500Y-165520690D01*
X123595404Y-165996880D02*
X123595404Y-164996880D01*
X123976357Y-164996880D01*
X124071595Y-165044500D01*
X124119214Y-165092119D01*
X124166833Y-165187357D01*
X124166833Y-165330214D01*
X124119214Y-165425452D01*
X124071595Y-165473071D01*
X123976357Y-165520690D01*
X123595404Y-165520690D01*
X124738261Y-165425452D02*
X124643023Y-165377833D01*
X124595404Y-165330214D01*
X124547785Y-165234976D01*
X124547785Y-165187357D01*
X124595404Y-165092119D01*
X124643023Y-165044500D01*
X124738261Y-164996880D01*
X124928738Y-164996880D01*
X125023976Y-165044500D01*
X125071595Y-165092119D01*
X125119214Y-165187357D01*
X125119214Y-165234976D01*
X125071595Y-165330214D01*
X125023976Y-165377833D01*
X124928738Y-165425452D01*
X124738261Y-165425452D01*
X124643023Y-165473071D01*
X124595404Y-165520690D01*
X124547785Y-165615928D01*
X124547785Y-165806404D01*
X124595404Y-165901642D01*
X124643023Y-165949261D01*
X124738261Y-165996880D01*
X124928738Y-165996880D01*
X125023976Y-165949261D01*
X125071595Y-165901642D01*
X125119214Y-165806404D01*
X125119214Y-165615928D01*
X125071595Y-165520690D01*
X125023976Y-165473071D01*
X124928738Y-165425452D01*
X130627380Y-146661166D02*
X130151190Y-146994500D01*
X130627380Y-147232595D02*
X129627380Y-147232595D01*
X129627380Y-146851642D01*
X129675000Y-146756404D01*
X129722619Y-146708785D01*
X129817857Y-146661166D01*
X129960714Y-146661166D01*
X130055952Y-146708785D01*
X130103571Y-146756404D01*
X130151190Y-146851642D01*
X130151190Y-147232595D01*
X130627380Y-146184976D02*
X130627380Y-145994500D01*
X130579761Y-145899261D01*
X130532142Y-145851642D01*
X130389285Y-145756404D01*
X130198809Y-145708785D01*
X129817857Y-145708785D01*
X129722619Y-145756404D01*
X129675000Y-145804023D01*
X129627380Y-145899261D01*
X129627380Y-146089738D01*
X129675000Y-146184976D01*
X129722619Y-146232595D01*
X129817857Y-146280214D01*
X130055952Y-146280214D01*
X130151190Y-146232595D01*
X130198809Y-146184976D01*
X130246428Y-146089738D01*
X130246428Y-145899261D01*
X130198809Y-145804023D01*
X130151190Y-145756404D01*
X130055952Y-145708785D01*
%LPC*%
D15*
X124206000Y-161798000D03*
X124206000Y-160528000D03*
D16*
X124206000Y-163068000D03*
D17*
X109220000Y-139065000D03*
X109220000Y-136525000D03*
X115062000Y-165544000D03*
X112522000Y-165544000D03*
D18*
X107315000Y-167640000D03*
X104775000Y-167640000D03*
X107315000Y-165100000D03*
X104775000Y-165100000D03*
X107315000Y-162560000D03*
X104775000Y-162560000D03*
X107315000Y-160020000D03*
X104775000Y-160020000D03*
X107315000Y-157480000D03*
X104775000Y-157480000D03*
X107315000Y-154940000D03*
X104775000Y-154940000D03*
X107315000Y-152400000D03*
X104775000Y-152400000D03*
X107315000Y-149860000D03*
X104775000Y-149860000D03*
X107315000Y-147320000D03*
X104775000Y-147320000D03*
X107315000Y-144780000D03*
D19*
X104775000Y-144780000D03*
D20*
X103205000Y-136935000D03*
D21*
X103205000Y-139475000D03*
D19*
X132715000Y-144780000D03*
D18*
X135255000Y-144780000D03*
X132715000Y-147320000D03*
X135255000Y-147320000D03*
X132715000Y-149860000D03*
X135255000Y-149860000D03*
X132715000Y-152400000D03*
X135255000Y-152400000D03*
X132715000Y-154940000D03*
X135255000Y-154940000D03*
X132715000Y-157480000D03*
X135255000Y-157480000D03*
X132715000Y-160020000D03*
X135255000Y-160020000D03*
X132715000Y-162560000D03*
X135255000Y-162560000D03*
X132715000Y-165100000D03*
X135255000Y-165100000D03*
X132715000Y-167640000D03*
X135255000Y-167640000D03*
D22*
X127574000Y-162594000D03*
X129474000Y-162594000D03*
X128524000Y-160494000D03*
D23*
X127474000Y-155956000D03*
X129574000Y-155006000D03*
X129574000Y-156906000D03*
D16*
X123444000Y-154432000D03*
D15*
X123444000Y-156972000D03*
X123444000Y-155702000D03*
D24*
X103759000Y-176530000D03*
X136271000Y-176530000D03*
D25*
X127239000Y-137811000D03*
D26*
X129779000Y-137811000D03*
X123739000Y-137811000D03*
D25*
X121199000Y-137811000D03*
X115199000Y-137811000D03*
D26*
X117739000Y-137811000D03*
X135739000Y-137811000D03*
D25*
X133199000Y-137811000D03*
D19*
X115062000Y-175260000D03*
D18*
X115062000Y-172720000D03*
X117602000Y-175260000D03*
X117602000Y-172720000D03*
X120142000Y-175260000D03*
X120142000Y-172720000D03*
X122682000Y-175260000D03*
X122682000Y-172720000D03*
X125222000Y-175260000D03*
X125222000Y-172720000D03*
D13*
G36*
X112418530Y-148984398D02*
G01*
X112476749Y-148993034D01*
X112533842Y-149007335D01*
X112589257Y-149027163D01*
X112642463Y-149052327D01*
X112692945Y-149082585D01*
X112740219Y-149117646D01*
X112783829Y-149157171D01*
X112823354Y-149200781D01*
X112858415Y-149248055D01*
X112888673Y-149298537D01*
X112913837Y-149351743D01*
X112933665Y-149407158D01*
X112947966Y-149464251D01*
X112956602Y-149522470D01*
X112959490Y-149581255D01*
X112959490Y-150780745D01*
X112956602Y-150839530D01*
X112947966Y-150897749D01*
X112933665Y-150954842D01*
X112913837Y-151010257D01*
X112888673Y-151063463D01*
X112858415Y-151113945D01*
X112823354Y-151161219D01*
X112783829Y-151204829D01*
X112740219Y-151244354D01*
X112692945Y-151279415D01*
X112642463Y-151309673D01*
X112589257Y-151334837D01*
X112533842Y-151354665D01*
X112476749Y-151368966D01*
X112418530Y-151377602D01*
X112359745Y-151380490D01*
X111160255Y-151380490D01*
X111101470Y-151377602D01*
X111043251Y-151368966D01*
X110986158Y-151354665D01*
X110930743Y-151334837D01*
X110877537Y-151309673D01*
X110827055Y-151279415D01*
X110779781Y-151244354D01*
X110736171Y-151204829D01*
X110696646Y-151161219D01*
X110661585Y-151113945D01*
X110631327Y-151063463D01*
X110606163Y-151010257D01*
X110586335Y-150954842D01*
X110572034Y-150897749D01*
X110563398Y-150839530D01*
X110560510Y-150780745D01*
X110560510Y-149581255D01*
X110563398Y-149522470D01*
X110572034Y-149464251D01*
X110586335Y-149407158D01*
X110606163Y-149351743D01*
X110631327Y-149298537D01*
X110661585Y-149248055D01*
X110696646Y-149200781D01*
X110736171Y-149157171D01*
X110779781Y-149117646D01*
X110827055Y-149082585D01*
X110877537Y-149052327D01*
X110930743Y-149027163D01*
X110986158Y-149007335D01*
X111043251Y-148993034D01*
X111101470Y-148984398D01*
X111160255Y-148981510D01*
X112359745Y-148981510D01*
X112418530Y-148984398D01*
X112418530Y-148984398D01*
G37*
D27*
X111760000Y-150181000D03*
D13*
G36*
X112418530Y-141484398D02*
G01*
X112476749Y-141493034D01*
X112533842Y-141507335D01*
X112589257Y-141527163D01*
X112642463Y-141552327D01*
X112692945Y-141582585D01*
X112740219Y-141617646D01*
X112783829Y-141657171D01*
X112823354Y-141700781D01*
X112858415Y-141748055D01*
X112888673Y-141798537D01*
X112913837Y-141851743D01*
X112933665Y-141907158D01*
X112947966Y-141964251D01*
X112956602Y-142022470D01*
X112959490Y-142081255D01*
X112959490Y-143280745D01*
X112956602Y-143339530D01*
X112947966Y-143397749D01*
X112933665Y-143454842D01*
X112913837Y-143510257D01*
X112888673Y-143563463D01*
X112858415Y-143613945D01*
X112823354Y-143661219D01*
X112783829Y-143704829D01*
X112740219Y-143744354D01*
X112692945Y-143779415D01*
X112642463Y-143809673D01*
X112589257Y-143834837D01*
X112533842Y-143854665D01*
X112476749Y-143868966D01*
X112418530Y-143877602D01*
X112359745Y-143880490D01*
X111160255Y-143880490D01*
X111101470Y-143877602D01*
X111043251Y-143868966D01*
X110986158Y-143854665D01*
X110930743Y-143834837D01*
X110877537Y-143809673D01*
X110827055Y-143779415D01*
X110779781Y-143744354D01*
X110736171Y-143704829D01*
X110696646Y-143661219D01*
X110661585Y-143613945D01*
X110631327Y-143563463D01*
X110606163Y-143510257D01*
X110586335Y-143454842D01*
X110572034Y-143397749D01*
X110563398Y-143339530D01*
X110560510Y-143280745D01*
X110560510Y-142081255D01*
X110563398Y-142022470D01*
X110572034Y-141964251D01*
X110586335Y-141907158D01*
X110606163Y-141851743D01*
X110631327Y-141798537D01*
X110661585Y-141748055D01*
X110696646Y-141700781D01*
X110736171Y-141657171D01*
X110779781Y-141617646D01*
X110827055Y-141582585D01*
X110877537Y-141552327D01*
X110930743Y-141527163D01*
X110986158Y-141507335D01*
X111043251Y-141493034D01*
X111101470Y-141484398D01*
X111160255Y-141481510D01*
X112359745Y-141481510D01*
X112418530Y-141484398D01*
X112418530Y-141484398D01*
G37*
D27*
X111760000Y-142681000D03*
D28*
X111760000Y-147431000D03*
D13*
G36*
X112855407Y-148131000D02*
G01*
X110664593Y-148131000D01*
X111224593Y-146731000D01*
X112295407Y-146731000D01*
X112855407Y-148131000D01*
X112855407Y-148131000D01*
G37*
D28*
X111760000Y-145431000D03*
D13*
G36*
X110664593Y-144731000D02*
G01*
X112855407Y-144731000D01*
X112295407Y-146131000D01*
X111224593Y-146131000D01*
X110664593Y-144731000D01*
X110664593Y-144731000D01*
G37*
G36*
X112489405Y-144082445D02*
G01*
X112518527Y-144086764D01*
X112547085Y-144093918D01*
X112574805Y-144103836D01*
X112601419Y-144116424D01*
X112626671Y-144131559D01*
X112650318Y-144149097D01*
X112672132Y-144168868D01*
X112691903Y-144190682D01*
X112709441Y-144214329D01*
X112724576Y-144239581D01*
X112737164Y-144266195D01*
X112747082Y-144293915D01*
X112754236Y-144322473D01*
X112758555Y-144351595D01*
X112760000Y-144381000D01*
X112760000Y-144981000D01*
X112758555Y-145010405D01*
X112754236Y-145039527D01*
X112747082Y-145068085D01*
X112737164Y-145095805D01*
X112724576Y-145122419D01*
X112709441Y-145147671D01*
X112691903Y-145171318D01*
X112672132Y-145193132D01*
X112650318Y-145212903D01*
X112626671Y-145230441D01*
X112601419Y-145245576D01*
X112574805Y-145258164D01*
X112547085Y-145268082D01*
X112518527Y-145275236D01*
X112489405Y-145279555D01*
X112460000Y-145281000D01*
X111060000Y-145281000D01*
X111030595Y-145279555D01*
X111001473Y-145275236D01*
X110972915Y-145268082D01*
X110945195Y-145258164D01*
X110918581Y-145245576D01*
X110893329Y-145230441D01*
X110869682Y-145212903D01*
X110847868Y-145193132D01*
X110828097Y-145171318D01*
X110810559Y-145147671D01*
X110795424Y-145122419D01*
X110782836Y-145095805D01*
X110772918Y-145068085D01*
X110765764Y-145039527D01*
X110761445Y-145010405D01*
X110760000Y-144981000D01*
X110760000Y-144381000D01*
X110761445Y-144351595D01*
X110765764Y-144322473D01*
X110772918Y-144293915D01*
X110782836Y-144266195D01*
X110795424Y-144239581D01*
X110810559Y-144214329D01*
X110828097Y-144190682D01*
X110847868Y-144168868D01*
X110869682Y-144149097D01*
X110893329Y-144131559D01*
X110918581Y-144116424D01*
X110945195Y-144103836D01*
X110972915Y-144093918D01*
X111001473Y-144086764D01*
X111030595Y-144082445D01*
X111060000Y-144081000D01*
X112460000Y-144081000D01*
X112489405Y-144082445D01*
X112489405Y-144082445D01*
G37*
D29*
X111760000Y-144681000D03*
D13*
G36*
X112466856Y-147532565D02*
G01*
X112498404Y-147537245D01*
X112529343Y-147544994D01*
X112559372Y-147555739D01*
X112588204Y-147569376D01*
X112615560Y-147585772D01*
X112641178Y-147604772D01*
X112664810Y-147626190D01*
X112686228Y-147649822D01*
X112705228Y-147675440D01*
X112721624Y-147702796D01*
X112735261Y-147731628D01*
X112746006Y-147761657D01*
X112753755Y-147792596D01*
X112758435Y-147824144D01*
X112760000Y-147856000D01*
X112760000Y-148506000D01*
X112758435Y-148537856D01*
X112753755Y-148569404D01*
X112746006Y-148600343D01*
X112735261Y-148630372D01*
X112721624Y-148659204D01*
X112705228Y-148686560D01*
X112686228Y-148712178D01*
X112664810Y-148735810D01*
X112641178Y-148757228D01*
X112615560Y-148776228D01*
X112588204Y-148792624D01*
X112559372Y-148806261D01*
X112529343Y-148817006D01*
X112498404Y-148824755D01*
X112466856Y-148829435D01*
X112435000Y-148831000D01*
X111085000Y-148831000D01*
X111053144Y-148829435D01*
X111021596Y-148824755D01*
X110990657Y-148817006D01*
X110960628Y-148806261D01*
X110931796Y-148792624D01*
X110904440Y-148776228D01*
X110878822Y-148757228D01*
X110855190Y-148735810D01*
X110833772Y-148712178D01*
X110814772Y-148686560D01*
X110798376Y-148659204D01*
X110784739Y-148630372D01*
X110773994Y-148600343D01*
X110766245Y-148569404D01*
X110761565Y-148537856D01*
X110760000Y-148506000D01*
X110760000Y-147856000D01*
X110761565Y-147824144D01*
X110766245Y-147792596D01*
X110773994Y-147761657D01*
X110784739Y-147731628D01*
X110798376Y-147702796D01*
X110814772Y-147675440D01*
X110833772Y-147649822D01*
X110855190Y-147626190D01*
X110878822Y-147604772D01*
X110904440Y-147585772D01*
X110931796Y-147569376D01*
X110960628Y-147555739D01*
X110990657Y-147544994D01*
X111021596Y-147537245D01*
X111053144Y-147532565D01*
X111085000Y-147531000D01*
X112435000Y-147531000D01*
X112466856Y-147532565D01*
X112466856Y-147532565D01*
G37*
D30*
X111760000Y-148181000D03*
D13*
G36*
X118057856Y-159783565D02*
G01*
X118089404Y-159788245D01*
X118120343Y-159795994D01*
X118150372Y-159806739D01*
X118179204Y-159820376D01*
X118206560Y-159836772D01*
X118232178Y-159855772D01*
X118255810Y-159877190D01*
X118277228Y-159900822D01*
X118296228Y-159926440D01*
X118312624Y-159953796D01*
X118326261Y-159982628D01*
X118337006Y-160012657D01*
X118344755Y-160043596D01*
X118349435Y-160075144D01*
X118351000Y-160107000D01*
X118351000Y-161457000D01*
X118349435Y-161488856D01*
X118344755Y-161520404D01*
X118337006Y-161551343D01*
X118326261Y-161581372D01*
X118312624Y-161610204D01*
X118296228Y-161637560D01*
X118277228Y-161663178D01*
X118255810Y-161686810D01*
X118232178Y-161708228D01*
X118206560Y-161727228D01*
X118179204Y-161743624D01*
X118150372Y-161757261D01*
X118120343Y-161768006D01*
X118089404Y-161775755D01*
X118057856Y-161780435D01*
X118026000Y-161782000D01*
X117376000Y-161782000D01*
X117344144Y-161780435D01*
X117312596Y-161775755D01*
X117281657Y-161768006D01*
X117251628Y-161757261D01*
X117222796Y-161743624D01*
X117195440Y-161727228D01*
X117169822Y-161708228D01*
X117146190Y-161686810D01*
X117124772Y-161663178D01*
X117105772Y-161637560D01*
X117089376Y-161610204D01*
X117075739Y-161581372D01*
X117064994Y-161551343D01*
X117057245Y-161520404D01*
X117052565Y-161488856D01*
X117051000Y-161457000D01*
X117051000Y-160107000D01*
X117052565Y-160075144D01*
X117057245Y-160043596D01*
X117064994Y-160012657D01*
X117075739Y-159982628D01*
X117089376Y-159953796D01*
X117105772Y-159926440D01*
X117124772Y-159900822D01*
X117146190Y-159877190D01*
X117169822Y-159855772D01*
X117195440Y-159836772D01*
X117222796Y-159820376D01*
X117251628Y-159806739D01*
X117281657Y-159795994D01*
X117312596Y-159788245D01*
X117344144Y-159783565D01*
X117376000Y-159782000D01*
X118026000Y-159782000D01*
X118057856Y-159783565D01*
X118057856Y-159783565D01*
G37*
D30*
X117701000Y-160782000D03*
D13*
G36*
X114530405Y-159783445D02*
G01*
X114559527Y-159787764D01*
X114588085Y-159794918D01*
X114615805Y-159804836D01*
X114642419Y-159817424D01*
X114667671Y-159832559D01*
X114691318Y-159850097D01*
X114713132Y-159869868D01*
X114732903Y-159891682D01*
X114750441Y-159915329D01*
X114765576Y-159940581D01*
X114778164Y-159967195D01*
X114788082Y-159994915D01*
X114795236Y-160023473D01*
X114799555Y-160052595D01*
X114801000Y-160082000D01*
X114801000Y-161482000D01*
X114799555Y-161511405D01*
X114795236Y-161540527D01*
X114788082Y-161569085D01*
X114778164Y-161596805D01*
X114765576Y-161623419D01*
X114750441Y-161648671D01*
X114732903Y-161672318D01*
X114713132Y-161694132D01*
X114691318Y-161713903D01*
X114667671Y-161731441D01*
X114642419Y-161746576D01*
X114615805Y-161759164D01*
X114588085Y-161769082D01*
X114559527Y-161776236D01*
X114530405Y-161780555D01*
X114501000Y-161782000D01*
X113901000Y-161782000D01*
X113871595Y-161780555D01*
X113842473Y-161776236D01*
X113813915Y-161769082D01*
X113786195Y-161759164D01*
X113759581Y-161746576D01*
X113734329Y-161731441D01*
X113710682Y-161713903D01*
X113688868Y-161694132D01*
X113669097Y-161672318D01*
X113651559Y-161648671D01*
X113636424Y-161623419D01*
X113623836Y-161596805D01*
X113613918Y-161569085D01*
X113606764Y-161540527D01*
X113602445Y-161511405D01*
X113601000Y-161482000D01*
X113601000Y-160082000D01*
X113602445Y-160052595D01*
X113606764Y-160023473D01*
X113613918Y-159994915D01*
X113623836Y-159967195D01*
X113636424Y-159940581D01*
X113651559Y-159915329D01*
X113669097Y-159891682D01*
X113688868Y-159869868D01*
X113710682Y-159850097D01*
X113734329Y-159832559D01*
X113759581Y-159817424D01*
X113786195Y-159804836D01*
X113813915Y-159794918D01*
X113842473Y-159787764D01*
X113871595Y-159783445D01*
X113901000Y-159782000D01*
X114501000Y-159782000D01*
X114530405Y-159783445D01*
X114530405Y-159783445D01*
G37*
D29*
X114201000Y-160782000D03*
D28*
X114951000Y-160782000D03*
D13*
G36*
X114251000Y-161877407D02*
G01*
X114251000Y-159686593D01*
X115651000Y-160246593D01*
X115651000Y-161317407D01*
X114251000Y-161877407D01*
X114251000Y-161877407D01*
G37*
D28*
X116951000Y-160782000D03*
D13*
G36*
X117651000Y-159686593D02*
G01*
X117651000Y-161877407D01*
X116251000Y-161317407D01*
X116251000Y-160246593D01*
X117651000Y-159686593D01*
X117651000Y-159686593D01*
G37*
G36*
X112859530Y-159585398D02*
G01*
X112917749Y-159594034D01*
X112974842Y-159608335D01*
X113030257Y-159628163D01*
X113083463Y-159653327D01*
X113133945Y-159683585D01*
X113181219Y-159718646D01*
X113224829Y-159758171D01*
X113264354Y-159801781D01*
X113299415Y-159849055D01*
X113329673Y-159899537D01*
X113354837Y-159952743D01*
X113374665Y-160008158D01*
X113388966Y-160065251D01*
X113397602Y-160123470D01*
X113400490Y-160182255D01*
X113400490Y-161381745D01*
X113397602Y-161440530D01*
X113388966Y-161498749D01*
X113374665Y-161555842D01*
X113354837Y-161611257D01*
X113329673Y-161664463D01*
X113299415Y-161714945D01*
X113264354Y-161762219D01*
X113224829Y-161805829D01*
X113181219Y-161845354D01*
X113133945Y-161880415D01*
X113083463Y-161910673D01*
X113030257Y-161935837D01*
X112974842Y-161955665D01*
X112917749Y-161969966D01*
X112859530Y-161978602D01*
X112800745Y-161981490D01*
X111601255Y-161981490D01*
X111542470Y-161978602D01*
X111484251Y-161969966D01*
X111427158Y-161955665D01*
X111371743Y-161935837D01*
X111318537Y-161910673D01*
X111268055Y-161880415D01*
X111220781Y-161845354D01*
X111177171Y-161805829D01*
X111137646Y-161762219D01*
X111102585Y-161714945D01*
X111072327Y-161664463D01*
X111047163Y-161611257D01*
X111027335Y-161555842D01*
X111013034Y-161498749D01*
X111004398Y-161440530D01*
X111001510Y-161381745D01*
X111001510Y-160182255D01*
X111004398Y-160123470D01*
X111013034Y-160065251D01*
X111027335Y-160008158D01*
X111047163Y-159952743D01*
X111072327Y-159899537D01*
X111102585Y-159849055D01*
X111137646Y-159801781D01*
X111177171Y-159758171D01*
X111220781Y-159718646D01*
X111268055Y-159683585D01*
X111318537Y-159653327D01*
X111371743Y-159628163D01*
X111427158Y-159608335D01*
X111484251Y-159594034D01*
X111542470Y-159585398D01*
X111601255Y-159582510D01*
X112800745Y-159582510D01*
X112859530Y-159585398D01*
X112859530Y-159585398D01*
G37*
D27*
X112201000Y-160782000D03*
D13*
G36*
X120359530Y-159585398D02*
G01*
X120417749Y-159594034D01*
X120474842Y-159608335D01*
X120530257Y-159628163D01*
X120583463Y-159653327D01*
X120633945Y-159683585D01*
X120681219Y-159718646D01*
X120724829Y-159758171D01*
X120764354Y-159801781D01*
X120799415Y-159849055D01*
X120829673Y-159899537D01*
X120854837Y-159952743D01*
X120874665Y-160008158D01*
X120888966Y-160065251D01*
X120897602Y-160123470D01*
X120900490Y-160182255D01*
X120900490Y-161381745D01*
X120897602Y-161440530D01*
X120888966Y-161498749D01*
X120874665Y-161555842D01*
X120854837Y-161611257D01*
X120829673Y-161664463D01*
X120799415Y-161714945D01*
X120764354Y-161762219D01*
X120724829Y-161805829D01*
X120681219Y-161845354D01*
X120633945Y-161880415D01*
X120583463Y-161910673D01*
X120530257Y-161935837D01*
X120474842Y-161955665D01*
X120417749Y-161969966D01*
X120359530Y-161978602D01*
X120300745Y-161981490D01*
X119101255Y-161981490D01*
X119042470Y-161978602D01*
X118984251Y-161969966D01*
X118927158Y-161955665D01*
X118871743Y-161935837D01*
X118818537Y-161910673D01*
X118768055Y-161880415D01*
X118720781Y-161845354D01*
X118677171Y-161805829D01*
X118637646Y-161762219D01*
X118602585Y-161714945D01*
X118572327Y-161664463D01*
X118547163Y-161611257D01*
X118527335Y-161555842D01*
X118513034Y-161498749D01*
X118504398Y-161440530D01*
X118501510Y-161381745D01*
X118501510Y-160182255D01*
X118504398Y-160123470D01*
X118513034Y-160065251D01*
X118527335Y-160008158D01*
X118547163Y-159952743D01*
X118572327Y-159899537D01*
X118602585Y-159849055D01*
X118637646Y-159801781D01*
X118677171Y-159758171D01*
X118720781Y-159718646D01*
X118768055Y-159683585D01*
X118818537Y-159653327D01*
X118871743Y-159628163D01*
X118927158Y-159608335D01*
X118984251Y-159594034D01*
X119042470Y-159585398D01*
X119101255Y-159582510D01*
X120300745Y-159582510D01*
X120359530Y-159585398D01*
X120359530Y-159585398D01*
G37*
D27*
X119701000Y-160782000D03*
D13*
G36*
X114430856Y-152798565D02*
G01*
X114462404Y-152803245D01*
X114493343Y-152810994D01*
X114523372Y-152821739D01*
X114552204Y-152835376D01*
X114579560Y-152851772D01*
X114605178Y-152870772D01*
X114628810Y-152892190D01*
X114650228Y-152915822D01*
X114669228Y-152941440D01*
X114685624Y-152968796D01*
X114699261Y-152997628D01*
X114710006Y-153027657D01*
X114717755Y-153058596D01*
X114722435Y-153090144D01*
X114724000Y-153122000D01*
X114724000Y-154472000D01*
X114722435Y-154503856D01*
X114717755Y-154535404D01*
X114710006Y-154566343D01*
X114699261Y-154596372D01*
X114685624Y-154625204D01*
X114669228Y-154652560D01*
X114650228Y-154678178D01*
X114628810Y-154701810D01*
X114605178Y-154723228D01*
X114579560Y-154742228D01*
X114552204Y-154758624D01*
X114523372Y-154772261D01*
X114493343Y-154783006D01*
X114462404Y-154790755D01*
X114430856Y-154795435D01*
X114399000Y-154797000D01*
X113749000Y-154797000D01*
X113717144Y-154795435D01*
X113685596Y-154790755D01*
X113654657Y-154783006D01*
X113624628Y-154772261D01*
X113595796Y-154758624D01*
X113568440Y-154742228D01*
X113542822Y-154723228D01*
X113519190Y-154701810D01*
X113497772Y-154678178D01*
X113478772Y-154652560D01*
X113462376Y-154625204D01*
X113448739Y-154596372D01*
X113437994Y-154566343D01*
X113430245Y-154535404D01*
X113425565Y-154503856D01*
X113424000Y-154472000D01*
X113424000Y-153122000D01*
X113425565Y-153090144D01*
X113430245Y-153058596D01*
X113437994Y-153027657D01*
X113448739Y-152997628D01*
X113462376Y-152968796D01*
X113478772Y-152941440D01*
X113497772Y-152915822D01*
X113519190Y-152892190D01*
X113542822Y-152870772D01*
X113568440Y-152851772D01*
X113595796Y-152835376D01*
X113624628Y-152821739D01*
X113654657Y-152810994D01*
X113685596Y-152803245D01*
X113717144Y-152798565D01*
X113749000Y-152797000D01*
X114399000Y-152797000D01*
X114430856Y-152798565D01*
X114430856Y-152798565D01*
G37*
D30*
X114074000Y-153797000D03*
D13*
G36*
X117903405Y-152798445D02*
G01*
X117932527Y-152802764D01*
X117961085Y-152809918D01*
X117988805Y-152819836D01*
X118015419Y-152832424D01*
X118040671Y-152847559D01*
X118064318Y-152865097D01*
X118086132Y-152884868D01*
X118105903Y-152906682D01*
X118123441Y-152930329D01*
X118138576Y-152955581D01*
X118151164Y-152982195D01*
X118161082Y-153009915D01*
X118168236Y-153038473D01*
X118172555Y-153067595D01*
X118174000Y-153097000D01*
X118174000Y-154497000D01*
X118172555Y-154526405D01*
X118168236Y-154555527D01*
X118161082Y-154584085D01*
X118151164Y-154611805D01*
X118138576Y-154638419D01*
X118123441Y-154663671D01*
X118105903Y-154687318D01*
X118086132Y-154709132D01*
X118064318Y-154728903D01*
X118040671Y-154746441D01*
X118015419Y-154761576D01*
X117988805Y-154774164D01*
X117961085Y-154784082D01*
X117932527Y-154791236D01*
X117903405Y-154795555D01*
X117874000Y-154797000D01*
X117274000Y-154797000D01*
X117244595Y-154795555D01*
X117215473Y-154791236D01*
X117186915Y-154784082D01*
X117159195Y-154774164D01*
X117132581Y-154761576D01*
X117107329Y-154746441D01*
X117083682Y-154728903D01*
X117061868Y-154709132D01*
X117042097Y-154687318D01*
X117024559Y-154663671D01*
X117009424Y-154638419D01*
X116996836Y-154611805D01*
X116986918Y-154584085D01*
X116979764Y-154555527D01*
X116975445Y-154526405D01*
X116974000Y-154497000D01*
X116974000Y-153097000D01*
X116975445Y-153067595D01*
X116979764Y-153038473D01*
X116986918Y-153009915D01*
X116996836Y-152982195D01*
X117009424Y-152955581D01*
X117024559Y-152930329D01*
X117042097Y-152906682D01*
X117061868Y-152884868D01*
X117083682Y-152865097D01*
X117107329Y-152847559D01*
X117132581Y-152832424D01*
X117159195Y-152819836D01*
X117186915Y-152809918D01*
X117215473Y-152802764D01*
X117244595Y-152798445D01*
X117274000Y-152797000D01*
X117874000Y-152797000D01*
X117903405Y-152798445D01*
X117903405Y-152798445D01*
G37*
D29*
X117574000Y-153797000D03*
D28*
X116824000Y-153797000D03*
D13*
G36*
X117524000Y-152701593D02*
G01*
X117524000Y-154892407D01*
X116124000Y-154332407D01*
X116124000Y-153261593D01*
X117524000Y-152701593D01*
X117524000Y-152701593D01*
G37*
D28*
X114824000Y-153797000D03*
D13*
G36*
X114124000Y-154892407D02*
G01*
X114124000Y-152701593D01*
X115524000Y-153261593D01*
X115524000Y-154332407D01*
X114124000Y-154892407D01*
X114124000Y-154892407D01*
G37*
G36*
X120232530Y-152600398D02*
G01*
X120290749Y-152609034D01*
X120347842Y-152623335D01*
X120403257Y-152643163D01*
X120456463Y-152668327D01*
X120506945Y-152698585D01*
X120554219Y-152733646D01*
X120597829Y-152773171D01*
X120637354Y-152816781D01*
X120672415Y-152864055D01*
X120702673Y-152914537D01*
X120727837Y-152967743D01*
X120747665Y-153023158D01*
X120761966Y-153080251D01*
X120770602Y-153138470D01*
X120773490Y-153197255D01*
X120773490Y-154396745D01*
X120770602Y-154455530D01*
X120761966Y-154513749D01*
X120747665Y-154570842D01*
X120727837Y-154626257D01*
X120702673Y-154679463D01*
X120672415Y-154729945D01*
X120637354Y-154777219D01*
X120597829Y-154820829D01*
X120554219Y-154860354D01*
X120506945Y-154895415D01*
X120456463Y-154925673D01*
X120403257Y-154950837D01*
X120347842Y-154970665D01*
X120290749Y-154984966D01*
X120232530Y-154993602D01*
X120173745Y-154996490D01*
X118974255Y-154996490D01*
X118915470Y-154993602D01*
X118857251Y-154984966D01*
X118800158Y-154970665D01*
X118744743Y-154950837D01*
X118691537Y-154925673D01*
X118641055Y-154895415D01*
X118593781Y-154860354D01*
X118550171Y-154820829D01*
X118510646Y-154777219D01*
X118475585Y-154729945D01*
X118445327Y-154679463D01*
X118420163Y-154626257D01*
X118400335Y-154570842D01*
X118386034Y-154513749D01*
X118377398Y-154455530D01*
X118374510Y-154396745D01*
X118374510Y-153197255D01*
X118377398Y-153138470D01*
X118386034Y-153080251D01*
X118400335Y-153023158D01*
X118420163Y-152967743D01*
X118445327Y-152914537D01*
X118475585Y-152864055D01*
X118510646Y-152816781D01*
X118550171Y-152773171D01*
X118593781Y-152733646D01*
X118641055Y-152698585D01*
X118691537Y-152668327D01*
X118744743Y-152643163D01*
X118800158Y-152623335D01*
X118857251Y-152609034D01*
X118915470Y-152600398D01*
X118974255Y-152597510D01*
X120173745Y-152597510D01*
X120232530Y-152600398D01*
X120232530Y-152600398D01*
G37*
D27*
X119574000Y-153797000D03*
D13*
G36*
X112732530Y-152600398D02*
G01*
X112790749Y-152609034D01*
X112847842Y-152623335D01*
X112903257Y-152643163D01*
X112956463Y-152668327D01*
X113006945Y-152698585D01*
X113054219Y-152733646D01*
X113097829Y-152773171D01*
X113137354Y-152816781D01*
X113172415Y-152864055D01*
X113202673Y-152914537D01*
X113227837Y-152967743D01*
X113247665Y-153023158D01*
X113261966Y-153080251D01*
X113270602Y-153138470D01*
X113273490Y-153197255D01*
X113273490Y-154396745D01*
X113270602Y-154455530D01*
X113261966Y-154513749D01*
X113247665Y-154570842D01*
X113227837Y-154626257D01*
X113202673Y-154679463D01*
X113172415Y-154729945D01*
X113137354Y-154777219D01*
X113097829Y-154820829D01*
X113054219Y-154860354D01*
X113006945Y-154895415D01*
X112956463Y-154925673D01*
X112903257Y-154950837D01*
X112847842Y-154970665D01*
X112790749Y-154984966D01*
X112732530Y-154993602D01*
X112673745Y-154996490D01*
X111474255Y-154996490D01*
X111415470Y-154993602D01*
X111357251Y-154984966D01*
X111300158Y-154970665D01*
X111244743Y-154950837D01*
X111191537Y-154925673D01*
X111141055Y-154895415D01*
X111093781Y-154860354D01*
X111050171Y-154820829D01*
X111010646Y-154777219D01*
X110975585Y-154729945D01*
X110945327Y-154679463D01*
X110920163Y-154626257D01*
X110900335Y-154570842D01*
X110886034Y-154513749D01*
X110877398Y-154455530D01*
X110874510Y-154396745D01*
X110874510Y-153197255D01*
X110877398Y-153138470D01*
X110886034Y-153080251D01*
X110900335Y-153023158D01*
X110920163Y-152967743D01*
X110945327Y-152914537D01*
X110975585Y-152864055D01*
X111010646Y-152816781D01*
X111050171Y-152773171D01*
X111093781Y-152733646D01*
X111141055Y-152698585D01*
X111191537Y-152668327D01*
X111244743Y-152643163D01*
X111300158Y-152623335D01*
X111357251Y-152609034D01*
X111415470Y-152600398D01*
X111474255Y-152597510D01*
X112673745Y-152597510D01*
X112732530Y-152600398D01*
X112732530Y-152600398D01*
G37*
D27*
X112074000Y-153797000D03*
D13*
G36*
X120248530Y-156156398D02*
G01*
X120306749Y-156165034D01*
X120363842Y-156179335D01*
X120419257Y-156199163D01*
X120472463Y-156224327D01*
X120522945Y-156254585D01*
X120570219Y-156289646D01*
X120613829Y-156329171D01*
X120653354Y-156372781D01*
X120688415Y-156420055D01*
X120718673Y-156470537D01*
X120743837Y-156523743D01*
X120763665Y-156579158D01*
X120777966Y-156636251D01*
X120786602Y-156694470D01*
X120789490Y-156753255D01*
X120789490Y-157952745D01*
X120786602Y-158011530D01*
X120777966Y-158069749D01*
X120763665Y-158126842D01*
X120743837Y-158182257D01*
X120718673Y-158235463D01*
X120688415Y-158285945D01*
X120653354Y-158333219D01*
X120613829Y-158376829D01*
X120570219Y-158416354D01*
X120522945Y-158451415D01*
X120472463Y-158481673D01*
X120419257Y-158506837D01*
X120363842Y-158526665D01*
X120306749Y-158540966D01*
X120248530Y-158549602D01*
X120189745Y-158552490D01*
X118990255Y-158552490D01*
X118931470Y-158549602D01*
X118873251Y-158540966D01*
X118816158Y-158526665D01*
X118760743Y-158506837D01*
X118707537Y-158481673D01*
X118657055Y-158451415D01*
X118609781Y-158416354D01*
X118566171Y-158376829D01*
X118526646Y-158333219D01*
X118491585Y-158285945D01*
X118461327Y-158235463D01*
X118436163Y-158182257D01*
X118416335Y-158126842D01*
X118402034Y-158069749D01*
X118393398Y-158011530D01*
X118390510Y-157952745D01*
X118390510Y-156753255D01*
X118393398Y-156694470D01*
X118402034Y-156636251D01*
X118416335Y-156579158D01*
X118436163Y-156523743D01*
X118461327Y-156470537D01*
X118491585Y-156420055D01*
X118526646Y-156372781D01*
X118566171Y-156329171D01*
X118609781Y-156289646D01*
X118657055Y-156254585D01*
X118707537Y-156224327D01*
X118760743Y-156199163D01*
X118816158Y-156179335D01*
X118873251Y-156165034D01*
X118931470Y-156156398D01*
X118990255Y-156153510D01*
X120189745Y-156153510D01*
X120248530Y-156156398D01*
X120248530Y-156156398D01*
G37*
D27*
X119590000Y-157353000D03*
D13*
G36*
X112748530Y-156156398D02*
G01*
X112806749Y-156165034D01*
X112863842Y-156179335D01*
X112919257Y-156199163D01*
X112972463Y-156224327D01*
X113022945Y-156254585D01*
X113070219Y-156289646D01*
X113113829Y-156329171D01*
X113153354Y-156372781D01*
X113188415Y-156420055D01*
X113218673Y-156470537D01*
X113243837Y-156523743D01*
X113263665Y-156579158D01*
X113277966Y-156636251D01*
X113286602Y-156694470D01*
X113289490Y-156753255D01*
X113289490Y-157952745D01*
X113286602Y-158011530D01*
X113277966Y-158069749D01*
X113263665Y-158126842D01*
X113243837Y-158182257D01*
X113218673Y-158235463D01*
X113188415Y-158285945D01*
X113153354Y-158333219D01*
X113113829Y-158376829D01*
X113070219Y-158416354D01*
X113022945Y-158451415D01*
X112972463Y-158481673D01*
X112919257Y-158506837D01*
X112863842Y-158526665D01*
X112806749Y-158540966D01*
X112748530Y-158549602D01*
X112689745Y-158552490D01*
X111490255Y-158552490D01*
X111431470Y-158549602D01*
X111373251Y-158540966D01*
X111316158Y-158526665D01*
X111260743Y-158506837D01*
X111207537Y-158481673D01*
X111157055Y-158451415D01*
X111109781Y-158416354D01*
X111066171Y-158376829D01*
X111026646Y-158333219D01*
X110991585Y-158285945D01*
X110961327Y-158235463D01*
X110936163Y-158182257D01*
X110916335Y-158126842D01*
X110902034Y-158069749D01*
X110893398Y-158011530D01*
X110890510Y-157952745D01*
X110890510Y-156753255D01*
X110893398Y-156694470D01*
X110902034Y-156636251D01*
X110916335Y-156579158D01*
X110936163Y-156523743D01*
X110961327Y-156470537D01*
X110991585Y-156420055D01*
X111026646Y-156372781D01*
X111066171Y-156329171D01*
X111109781Y-156289646D01*
X111157055Y-156254585D01*
X111207537Y-156224327D01*
X111260743Y-156199163D01*
X111316158Y-156179335D01*
X111373251Y-156165034D01*
X111431470Y-156156398D01*
X111490255Y-156153510D01*
X112689745Y-156153510D01*
X112748530Y-156156398D01*
X112748530Y-156156398D01*
G37*
D27*
X112090000Y-157353000D03*
D28*
X116840000Y-157353000D03*
D13*
G36*
X117540000Y-156257593D02*
G01*
X117540000Y-158448407D01*
X116140000Y-157888407D01*
X116140000Y-156817593D01*
X117540000Y-156257593D01*
X117540000Y-156257593D01*
G37*
D28*
X114840000Y-157353000D03*
D13*
G36*
X114140000Y-158448407D02*
G01*
X114140000Y-156257593D01*
X115540000Y-156817593D01*
X115540000Y-157888407D01*
X114140000Y-158448407D01*
X114140000Y-158448407D01*
G37*
G36*
X114419405Y-156354445D02*
G01*
X114448527Y-156358764D01*
X114477085Y-156365918D01*
X114504805Y-156375836D01*
X114531419Y-156388424D01*
X114556671Y-156403559D01*
X114580318Y-156421097D01*
X114602132Y-156440868D01*
X114621903Y-156462682D01*
X114639441Y-156486329D01*
X114654576Y-156511581D01*
X114667164Y-156538195D01*
X114677082Y-156565915D01*
X114684236Y-156594473D01*
X114688555Y-156623595D01*
X114690000Y-156653000D01*
X114690000Y-158053000D01*
X114688555Y-158082405D01*
X114684236Y-158111527D01*
X114677082Y-158140085D01*
X114667164Y-158167805D01*
X114654576Y-158194419D01*
X114639441Y-158219671D01*
X114621903Y-158243318D01*
X114602132Y-158265132D01*
X114580318Y-158284903D01*
X114556671Y-158302441D01*
X114531419Y-158317576D01*
X114504805Y-158330164D01*
X114477085Y-158340082D01*
X114448527Y-158347236D01*
X114419405Y-158351555D01*
X114390000Y-158353000D01*
X113790000Y-158353000D01*
X113760595Y-158351555D01*
X113731473Y-158347236D01*
X113702915Y-158340082D01*
X113675195Y-158330164D01*
X113648581Y-158317576D01*
X113623329Y-158302441D01*
X113599682Y-158284903D01*
X113577868Y-158265132D01*
X113558097Y-158243318D01*
X113540559Y-158219671D01*
X113525424Y-158194419D01*
X113512836Y-158167805D01*
X113502918Y-158140085D01*
X113495764Y-158111527D01*
X113491445Y-158082405D01*
X113490000Y-158053000D01*
X113490000Y-156653000D01*
X113491445Y-156623595D01*
X113495764Y-156594473D01*
X113502918Y-156565915D01*
X113512836Y-156538195D01*
X113525424Y-156511581D01*
X113540559Y-156486329D01*
X113558097Y-156462682D01*
X113577868Y-156440868D01*
X113599682Y-156421097D01*
X113623329Y-156403559D01*
X113648581Y-156388424D01*
X113675195Y-156375836D01*
X113702915Y-156365918D01*
X113731473Y-156358764D01*
X113760595Y-156354445D01*
X113790000Y-156353000D01*
X114390000Y-156353000D01*
X114419405Y-156354445D01*
X114419405Y-156354445D01*
G37*
D29*
X114090000Y-157353000D03*
D13*
G36*
X117946856Y-156354565D02*
G01*
X117978404Y-156359245D01*
X118009343Y-156366994D01*
X118039372Y-156377739D01*
X118068204Y-156391376D01*
X118095560Y-156407772D01*
X118121178Y-156426772D01*
X118144810Y-156448190D01*
X118166228Y-156471822D01*
X118185228Y-156497440D01*
X118201624Y-156524796D01*
X118215261Y-156553628D01*
X118226006Y-156583657D01*
X118233755Y-156614596D01*
X118238435Y-156646144D01*
X118240000Y-156678000D01*
X118240000Y-158028000D01*
X118238435Y-158059856D01*
X118233755Y-158091404D01*
X118226006Y-158122343D01*
X118215261Y-158152372D01*
X118201624Y-158181204D01*
X118185228Y-158208560D01*
X118166228Y-158234178D01*
X118144810Y-158257810D01*
X118121178Y-158279228D01*
X118095560Y-158298228D01*
X118068204Y-158314624D01*
X118039372Y-158328261D01*
X118009343Y-158339006D01*
X117978404Y-158346755D01*
X117946856Y-158351435D01*
X117915000Y-158353000D01*
X117265000Y-158353000D01*
X117233144Y-158351435D01*
X117201596Y-158346755D01*
X117170657Y-158339006D01*
X117140628Y-158328261D01*
X117111796Y-158314624D01*
X117084440Y-158298228D01*
X117058822Y-158279228D01*
X117035190Y-158257810D01*
X117013772Y-158234178D01*
X116994772Y-158208560D01*
X116978376Y-158181204D01*
X116964739Y-158152372D01*
X116953994Y-158122343D01*
X116946245Y-158091404D01*
X116941565Y-158059856D01*
X116940000Y-158028000D01*
X116940000Y-156678000D01*
X116941565Y-156646144D01*
X116946245Y-156614596D01*
X116953994Y-156583657D01*
X116964739Y-156553628D01*
X116978376Y-156524796D01*
X116994772Y-156497440D01*
X117013772Y-156471822D01*
X117035190Y-156448190D01*
X117058822Y-156426772D01*
X117084440Y-156407772D01*
X117111796Y-156391376D01*
X117140628Y-156377739D01*
X117170657Y-156366994D01*
X117201596Y-156359245D01*
X117233144Y-156354565D01*
X117265000Y-156353000D01*
X117915000Y-156353000D01*
X117946856Y-156354565D01*
X117946856Y-156354565D01*
G37*
D30*
X117590000Y-157353000D03*
D13*
G36*
X121435530Y-148921398D02*
G01*
X121493749Y-148930034D01*
X121550842Y-148944335D01*
X121606257Y-148964163D01*
X121659463Y-148989327D01*
X121709945Y-149019585D01*
X121757219Y-149054646D01*
X121800829Y-149094171D01*
X121840354Y-149137781D01*
X121875415Y-149185055D01*
X121905673Y-149235537D01*
X121930837Y-149288743D01*
X121950665Y-149344158D01*
X121964966Y-149401251D01*
X121973602Y-149459470D01*
X121976490Y-149518255D01*
X121976490Y-150717745D01*
X121973602Y-150776530D01*
X121964966Y-150834749D01*
X121950665Y-150891842D01*
X121930837Y-150947257D01*
X121905673Y-151000463D01*
X121875415Y-151050945D01*
X121840354Y-151098219D01*
X121800829Y-151141829D01*
X121757219Y-151181354D01*
X121709945Y-151216415D01*
X121659463Y-151246673D01*
X121606257Y-151271837D01*
X121550842Y-151291665D01*
X121493749Y-151305966D01*
X121435530Y-151314602D01*
X121376745Y-151317490D01*
X120177255Y-151317490D01*
X120118470Y-151314602D01*
X120060251Y-151305966D01*
X120003158Y-151291665D01*
X119947743Y-151271837D01*
X119894537Y-151246673D01*
X119844055Y-151216415D01*
X119796781Y-151181354D01*
X119753171Y-151141829D01*
X119713646Y-151098219D01*
X119678585Y-151050945D01*
X119648327Y-151000463D01*
X119623163Y-150947257D01*
X119603335Y-150891842D01*
X119589034Y-150834749D01*
X119580398Y-150776530D01*
X119577510Y-150717745D01*
X119577510Y-149518255D01*
X119580398Y-149459470D01*
X119589034Y-149401251D01*
X119603335Y-149344158D01*
X119623163Y-149288743D01*
X119648327Y-149235537D01*
X119678585Y-149185055D01*
X119713646Y-149137781D01*
X119753171Y-149094171D01*
X119796781Y-149054646D01*
X119844055Y-149019585D01*
X119894537Y-148989327D01*
X119947743Y-148964163D01*
X120003158Y-148944335D01*
X120060251Y-148930034D01*
X120118470Y-148921398D01*
X120177255Y-148918510D01*
X121376745Y-148918510D01*
X121435530Y-148921398D01*
X121435530Y-148921398D01*
G37*
D27*
X120777000Y-150118000D03*
D13*
G36*
X121435530Y-141421398D02*
G01*
X121493749Y-141430034D01*
X121550842Y-141444335D01*
X121606257Y-141464163D01*
X121659463Y-141489327D01*
X121709945Y-141519585D01*
X121757219Y-141554646D01*
X121800829Y-141594171D01*
X121840354Y-141637781D01*
X121875415Y-141685055D01*
X121905673Y-141735537D01*
X121930837Y-141788743D01*
X121950665Y-141844158D01*
X121964966Y-141901251D01*
X121973602Y-141959470D01*
X121976490Y-142018255D01*
X121976490Y-143217745D01*
X121973602Y-143276530D01*
X121964966Y-143334749D01*
X121950665Y-143391842D01*
X121930837Y-143447257D01*
X121905673Y-143500463D01*
X121875415Y-143550945D01*
X121840354Y-143598219D01*
X121800829Y-143641829D01*
X121757219Y-143681354D01*
X121709945Y-143716415D01*
X121659463Y-143746673D01*
X121606257Y-143771837D01*
X121550842Y-143791665D01*
X121493749Y-143805966D01*
X121435530Y-143814602D01*
X121376745Y-143817490D01*
X120177255Y-143817490D01*
X120118470Y-143814602D01*
X120060251Y-143805966D01*
X120003158Y-143791665D01*
X119947743Y-143771837D01*
X119894537Y-143746673D01*
X119844055Y-143716415D01*
X119796781Y-143681354D01*
X119753171Y-143641829D01*
X119713646Y-143598219D01*
X119678585Y-143550945D01*
X119648327Y-143500463D01*
X119623163Y-143447257D01*
X119603335Y-143391842D01*
X119589034Y-143334749D01*
X119580398Y-143276530D01*
X119577510Y-143217745D01*
X119577510Y-142018255D01*
X119580398Y-141959470D01*
X119589034Y-141901251D01*
X119603335Y-141844158D01*
X119623163Y-141788743D01*
X119648327Y-141735537D01*
X119678585Y-141685055D01*
X119713646Y-141637781D01*
X119753171Y-141594171D01*
X119796781Y-141554646D01*
X119844055Y-141519585D01*
X119894537Y-141489327D01*
X119947743Y-141464163D01*
X120003158Y-141444335D01*
X120060251Y-141430034D01*
X120118470Y-141421398D01*
X120177255Y-141418510D01*
X121376745Y-141418510D01*
X121435530Y-141421398D01*
X121435530Y-141421398D01*
G37*
D27*
X120777000Y-142618000D03*
D28*
X120777000Y-147368000D03*
D13*
G36*
X121872407Y-148068000D02*
G01*
X119681593Y-148068000D01*
X120241593Y-146668000D01*
X121312407Y-146668000D01*
X121872407Y-148068000D01*
X121872407Y-148068000D01*
G37*
D28*
X120777000Y-145368000D03*
D13*
G36*
X119681593Y-144668000D02*
G01*
X121872407Y-144668000D01*
X121312407Y-146068000D01*
X120241593Y-146068000D01*
X119681593Y-144668000D01*
X119681593Y-144668000D01*
G37*
G36*
X121506405Y-144019445D02*
G01*
X121535527Y-144023764D01*
X121564085Y-144030918D01*
X121591805Y-144040836D01*
X121618419Y-144053424D01*
X121643671Y-144068559D01*
X121667318Y-144086097D01*
X121689132Y-144105868D01*
X121708903Y-144127682D01*
X121726441Y-144151329D01*
X121741576Y-144176581D01*
X121754164Y-144203195D01*
X121764082Y-144230915D01*
X121771236Y-144259473D01*
X121775555Y-144288595D01*
X121777000Y-144318000D01*
X121777000Y-144918000D01*
X121775555Y-144947405D01*
X121771236Y-144976527D01*
X121764082Y-145005085D01*
X121754164Y-145032805D01*
X121741576Y-145059419D01*
X121726441Y-145084671D01*
X121708903Y-145108318D01*
X121689132Y-145130132D01*
X121667318Y-145149903D01*
X121643671Y-145167441D01*
X121618419Y-145182576D01*
X121591805Y-145195164D01*
X121564085Y-145205082D01*
X121535527Y-145212236D01*
X121506405Y-145216555D01*
X121477000Y-145218000D01*
X120077000Y-145218000D01*
X120047595Y-145216555D01*
X120018473Y-145212236D01*
X119989915Y-145205082D01*
X119962195Y-145195164D01*
X119935581Y-145182576D01*
X119910329Y-145167441D01*
X119886682Y-145149903D01*
X119864868Y-145130132D01*
X119845097Y-145108318D01*
X119827559Y-145084671D01*
X119812424Y-145059419D01*
X119799836Y-145032805D01*
X119789918Y-145005085D01*
X119782764Y-144976527D01*
X119778445Y-144947405D01*
X119777000Y-144918000D01*
X119777000Y-144318000D01*
X119778445Y-144288595D01*
X119782764Y-144259473D01*
X119789918Y-144230915D01*
X119799836Y-144203195D01*
X119812424Y-144176581D01*
X119827559Y-144151329D01*
X119845097Y-144127682D01*
X119864868Y-144105868D01*
X119886682Y-144086097D01*
X119910329Y-144068559D01*
X119935581Y-144053424D01*
X119962195Y-144040836D01*
X119989915Y-144030918D01*
X120018473Y-144023764D01*
X120047595Y-144019445D01*
X120077000Y-144018000D01*
X121477000Y-144018000D01*
X121506405Y-144019445D01*
X121506405Y-144019445D01*
G37*
D29*
X120777000Y-144618000D03*
D13*
G36*
X121483856Y-147469565D02*
G01*
X121515404Y-147474245D01*
X121546343Y-147481994D01*
X121576372Y-147492739D01*
X121605204Y-147506376D01*
X121632560Y-147522772D01*
X121658178Y-147541772D01*
X121681810Y-147563190D01*
X121703228Y-147586822D01*
X121722228Y-147612440D01*
X121738624Y-147639796D01*
X121752261Y-147668628D01*
X121763006Y-147698657D01*
X121770755Y-147729596D01*
X121775435Y-147761144D01*
X121777000Y-147793000D01*
X121777000Y-148443000D01*
X121775435Y-148474856D01*
X121770755Y-148506404D01*
X121763006Y-148537343D01*
X121752261Y-148567372D01*
X121738624Y-148596204D01*
X121722228Y-148623560D01*
X121703228Y-148649178D01*
X121681810Y-148672810D01*
X121658178Y-148694228D01*
X121632560Y-148713228D01*
X121605204Y-148729624D01*
X121576372Y-148743261D01*
X121546343Y-148754006D01*
X121515404Y-148761755D01*
X121483856Y-148766435D01*
X121452000Y-148768000D01*
X120102000Y-148768000D01*
X120070144Y-148766435D01*
X120038596Y-148761755D01*
X120007657Y-148754006D01*
X119977628Y-148743261D01*
X119948796Y-148729624D01*
X119921440Y-148713228D01*
X119895822Y-148694228D01*
X119872190Y-148672810D01*
X119850772Y-148649178D01*
X119831772Y-148623560D01*
X119815376Y-148596204D01*
X119801739Y-148567372D01*
X119790994Y-148537343D01*
X119783245Y-148506404D01*
X119778565Y-148474856D01*
X119777000Y-148443000D01*
X119777000Y-147793000D01*
X119778565Y-147761144D01*
X119783245Y-147729596D01*
X119790994Y-147698657D01*
X119801739Y-147668628D01*
X119815376Y-147639796D01*
X119831772Y-147612440D01*
X119850772Y-147586822D01*
X119872190Y-147563190D01*
X119895822Y-147541772D01*
X119921440Y-147522772D01*
X119948796Y-147506376D01*
X119977628Y-147492739D01*
X120007657Y-147481994D01*
X120038596Y-147474245D01*
X120070144Y-147469565D01*
X120102000Y-147468000D01*
X121452000Y-147468000D01*
X121483856Y-147469565D01*
X121483856Y-147469565D01*
G37*
D30*
X120777000Y-148118000D03*
D13*
G36*
X117292856Y-147405565D02*
G01*
X117324404Y-147410245D01*
X117355343Y-147417994D01*
X117385372Y-147428739D01*
X117414204Y-147442376D01*
X117441560Y-147458772D01*
X117467178Y-147477772D01*
X117490810Y-147499190D01*
X117512228Y-147522822D01*
X117531228Y-147548440D01*
X117547624Y-147575796D01*
X117561261Y-147604628D01*
X117572006Y-147634657D01*
X117579755Y-147665596D01*
X117584435Y-147697144D01*
X117586000Y-147729000D01*
X117586000Y-148379000D01*
X117584435Y-148410856D01*
X117579755Y-148442404D01*
X117572006Y-148473343D01*
X117561261Y-148503372D01*
X117547624Y-148532204D01*
X117531228Y-148559560D01*
X117512228Y-148585178D01*
X117490810Y-148608810D01*
X117467178Y-148630228D01*
X117441560Y-148649228D01*
X117414204Y-148665624D01*
X117385372Y-148679261D01*
X117355343Y-148690006D01*
X117324404Y-148697755D01*
X117292856Y-148702435D01*
X117261000Y-148704000D01*
X115911000Y-148704000D01*
X115879144Y-148702435D01*
X115847596Y-148697755D01*
X115816657Y-148690006D01*
X115786628Y-148679261D01*
X115757796Y-148665624D01*
X115730440Y-148649228D01*
X115704822Y-148630228D01*
X115681190Y-148608810D01*
X115659772Y-148585178D01*
X115640772Y-148559560D01*
X115624376Y-148532204D01*
X115610739Y-148503372D01*
X115599994Y-148473343D01*
X115592245Y-148442404D01*
X115587565Y-148410856D01*
X115586000Y-148379000D01*
X115586000Y-147729000D01*
X115587565Y-147697144D01*
X115592245Y-147665596D01*
X115599994Y-147634657D01*
X115610739Y-147604628D01*
X115624376Y-147575796D01*
X115640772Y-147548440D01*
X115659772Y-147522822D01*
X115681190Y-147499190D01*
X115704822Y-147477772D01*
X115730440Y-147458772D01*
X115757796Y-147442376D01*
X115786628Y-147428739D01*
X115816657Y-147417994D01*
X115847596Y-147410245D01*
X115879144Y-147405565D01*
X115911000Y-147404000D01*
X117261000Y-147404000D01*
X117292856Y-147405565D01*
X117292856Y-147405565D01*
G37*
D30*
X116586000Y-148054000D03*
D13*
G36*
X117315405Y-143955445D02*
G01*
X117344527Y-143959764D01*
X117373085Y-143966918D01*
X117400805Y-143976836D01*
X117427419Y-143989424D01*
X117452671Y-144004559D01*
X117476318Y-144022097D01*
X117498132Y-144041868D01*
X117517903Y-144063682D01*
X117535441Y-144087329D01*
X117550576Y-144112581D01*
X117563164Y-144139195D01*
X117573082Y-144166915D01*
X117580236Y-144195473D01*
X117584555Y-144224595D01*
X117586000Y-144254000D01*
X117586000Y-144854000D01*
X117584555Y-144883405D01*
X117580236Y-144912527D01*
X117573082Y-144941085D01*
X117563164Y-144968805D01*
X117550576Y-144995419D01*
X117535441Y-145020671D01*
X117517903Y-145044318D01*
X117498132Y-145066132D01*
X117476318Y-145085903D01*
X117452671Y-145103441D01*
X117427419Y-145118576D01*
X117400805Y-145131164D01*
X117373085Y-145141082D01*
X117344527Y-145148236D01*
X117315405Y-145152555D01*
X117286000Y-145154000D01*
X115886000Y-145154000D01*
X115856595Y-145152555D01*
X115827473Y-145148236D01*
X115798915Y-145141082D01*
X115771195Y-145131164D01*
X115744581Y-145118576D01*
X115719329Y-145103441D01*
X115695682Y-145085903D01*
X115673868Y-145066132D01*
X115654097Y-145044318D01*
X115636559Y-145020671D01*
X115621424Y-144995419D01*
X115608836Y-144968805D01*
X115598918Y-144941085D01*
X115591764Y-144912527D01*
X115587445Y-144883405D01*
X115586000Y-144854000D01*
X115586000Y-144254000D01*
X115587445Y-144224595D01*
X115591764Y-144195473D01*
X115598918Y-144166915D01*
X115608836Y-144139195D01*
X115621424Y-144112581D01*
X115636559Y-144087329D01*
X115654097Y-144063682D01*
X115673868Y-144041868D01*
X115695682Y-144022097D01*
X115719329Y-144004559D01*
X115744581Y-143989424D01*
X115771195Y-143976836D01*
X115798915Y-143966918D01*
X115827473Y-143959764D01*
X115856595Y-143955445D01*
X115886000Y-143954000D01*
X117286000Y-143954000D01*
X117315405Y-143955445D01*
X117315405Y-143955445D01*
G37*
D29*
X116586000Y-144554000D03*
D28*
X116586000Y-145304000D03*
D13*
G36*
X115490593Y-144604000D02*
G01*
X117681407Y-144604000D01*
X117121407Y-146004000D01*
X116050593Y-146004000D01*
X115490593Y-144604000D01*
X115490593Y-144604000D01*
G37*
D28*
X116586000Y-147304000D03*
D13*
G36*
X117681407Y-148004000D02*
G01*
X115490593Y-148004000D01*
X116050593Y-146604000D01*
X117121407Y-146604000D01*
X117681407Y-148004000D01*
X117681407Y-148004000D01*
G37*
G36*
X117244530Y-141357398D02*
G01*
X117302749Y-141366034D01*
X117359842Y-141380335D01*
X117415257Y-141400163D01*
X117468463Y-141425327D01*
X117518945Y-141455585D01*
X117566219Y-141490646D01*
X117609829Y-141530171D01*
X117649354Y-141573781D01*
X117684415Y-141621055D01*
X117714673Y-141671537D01*
X117739837Y-141724743D01*
X117759665Y-141780158D01*
X117773966Y-141837251D01*
X117782602Y-141895470D01*
X117785490Y-141954255D01*
X117785490Y-143153745D01*
X117782602Y-143212530D01*
X117773966Y-143270749D01*
X117759665Y-143327842D01*
X117739837Y-143383257D01*
X117714673Y-143436463D01*
X117684415Y-143486945D01*
X117649354Y-143534219D01*
X117609829Y-143577829D01*
X117566219Y-143617354D01*
X117518945Y-143652415D01*
X117468463Y-143682673D01*
X117415257Y-143707837D01*
X117359842Y-143727665D01*
X117302749Y-143741966D01*
X117244530Y-143750602D01*
X117185745Y-143753490D01*
X115986255Y-143753490D01*
X115927470Y-143750602D01*
X115869251Y-143741966D01*
X115812158Y-143727665D01*
X115756743Y-143707837D01*
X115703537Y-143682673D01*
X115653055Y-143652415D01*
X115605781Y-143617354D01*
X115562171Y-143577829D01*
X115522646Y-143534219D01*
X115487585Y-143486945D01*
X115457327Y-143436463D01*
X115432163Y-143383257D01*
X115412335Y-143327842D01*
X115398034Y-143270749D01*
X115389398Y-143212530D01*
X115386510Y-143153745D01*
X115386510Y-141954255D01*
X115389398Y-141895470D01*
X115398034Y-141837251D01*
X115412335Y-141780158D01*
X115432163Y-141724743D01*
X115457327Y-141671537D01*
X115487585Y-141621055D01*
X115522646Y-141573781D01*
X115562171Y-141530171D01*
X115605781Y-141490646D01*
X115653055Y-141455585D01*
X115703537Y-141425327D01*
X115756743Y-141400163D01*
X115812158Y-141380335D01*
X115869251Y-141366034D01*
X115927470Y-141357398D01*
X115986255Y-141354510D01*
X117185745Y-141354510D01*
X117244530Y-141357398D01*
X117244530Y-141357398D01*
G37*
D27*
X116586000Y-142554000D03*
D13*
G36*
X117244530Y-148857398D02*
G01*
X117302749Y-148866034D01*
X117359842Y-148880335D01*
X117415257Y-148900163D01*
X117468463Y-148925327D01*
X117518945Y-148955585D01*
X117566219Y-148990646D01*
X117609829Y-149030171D01*
X117649354Y-149073781D01*
X117684415Y-149121055D01*
X117714673Y-149171537D01*
X117739837Y-149224743D01*
X117759665Y-149280158D01*
X117773966Y-149337251D01*
X117782602Y-149395470D01*
X117785490Y-149454255D01*
X117785490Y-150653745D01*
X117782602Y-150712530D01*
X117773966Y-150770749D01*
X117759665Y-150827842D01*
X117739837Y-150883257D01*
X117714673Y-150936463D01*
X117684415Y-150986945D01*
X117649354Y-151034219D01*
X117609829Y-151077829D01*
X117566219Y-151117354D01*
X117518945Y-151152415D01*
X117468463Y-151182673D01*
X117415257Y-151207837D01*
X117359842Y-151227665D01*
X117302749Y-151241966D01*
X117244530Y-151250602D01*
X117185745Y-151253490D01*
X115986255Y-151253490D01*
X115927470Y-151250602D01*
X115869251Y-151241966D01*
X115812158Y-151227665D01*
X115756743Y-151207837D01*
X115703537Y-151182673D01*
X115653055Y-151152415D01*
X115605781Y-151117354D01*
X115562171Y-151077829D01*
X115522646Y-151034219D01*
X115487585Y-150986945D01*
X115457327Y-150936463D01*
X115432163Y-150883257D01*
X115412335Y-150827842D01*
X115398034Y-150770749D01*
X115389398Y-150712530D01*
X115386510Y-150653745D01*
X115386510Y-149454255D01*
X115389398Y-149395470D01*
X115398034Y-149337251D01*
X115412335Y-149280158D01*
X115432163Y-149224743D01*
X115457327Y-149171537D01*
X115487585Y-149121055D01*
X115522646Y-149073781D01*
X115562171Y-149030171D01*
X115605781Y-148990646D01*
X115653055Y-148955585D01*
X115703537Y-148925327D01*
X115756743Y-148900163D01*
X115812158Y-148880335D01*
X115869251Y-148866034D01*
X115927470Y-148857398D01*
X115986255Y-148854510D01*
X117185745Y-148854510D01*
X117244530Y-148857398D01*
X117244530Y-148857398D01*
G37*
D27*
X116586000Y-150054000D03*
D13*
G36*
X125372530Y-148984398D02*
G01*
X125430749Y-148993034D01*
X125487842Y-149007335D01*
X125543257Y-149027163D01*
X125596463Y-149052327D01*
X125646945Y-149082585D01*
X125694219Y-149117646D01*
X125737829Y-149157171D01*
X125777354Y-149200781D01*
X125812415Y-149248055D01*
X125842673Y-149298537D01*
X125867837Y-149351743D01*
X125887665Y-149407158D01*
X125901966Y-149464251D01*
X125910602Y-149522470D01*
X125913490Y-149581255D01*
X125913490Y-150780745D01*
X125910602Y-150839530D01*
X125901966Y-150897749D01*
X125887665Y-150954842D01*
X125867837Y-151010257D01*
X125842673Y-151063463D01*
X125812415Y-151113945D01*
X125777354Y-151161219D01*
X125737829Y-151204829D01*
X125694219Y-151244354D01*
X125646945Y-151279415D01*
X125596463Y-151309673D01*
X125543257Y-151334837D01*
X125487842Y-151354665D01*
X125430749Y-151368966D01*
X125372530Y-151377602D01*
X125313745Y-151380490D01*
X124114255Y-151380490D01*
X124055470Y-151377602D01*
X123997251Y-151368966D01*
X123940158Y-151354665D01*
X123884743Y-151334837D01*
X123831537Y-151309673D01*
X123781055Y-151279415D01*
X123733781Y-151244354D01*
X123690171Y-151204829D01*
X123650646Y-151161219D01*
X123615585Y-151113945D01*
X123585327Y-151063463D01*
X123560163Y-151010257D01*
X123540335Y-150954842D01*
X123526034Y-150897749D01*
X123517398Y-150839530D01*
X123514510Y-150780745D01*
X123514510Y-149581255D01*
X123517398Y-149522470D01*
X123526034Y-149464251D01*
X123540335Y-149407158D01*
X123560163Y-149351743D01*
X123585327Y-149298537D01*
X123615585Y-149248055D01*
X123650646Y-149200781D01*
X123690171Y-149157171D01*
X123733781Y-149117646D01*
X123781055Y-149082585D01*
X123831537Y-149052327D01*
X123884743Y-149027163D01*
X123940158Y-149007335D01*
X123997251Y-148993034D01*
X124055470Y-148984398D01*
X124114255Y-148981510D01*
X125313745Y-148981510D01*
X125372530Y-148984398D01*
X125372530Y-148984398D01*
G37*
D27*
X124714000Y-150181000D03*
D13*
G36*
X125372530Y-141484398D02*
G01*
X125430749Y-141493034D01*
X125487842Y-141507335D01*
X125543257Y-141527163D01*
X125596463Y-141552327D01*
X125646945Y-141582585D01*
X125694219Y-141617646D01*
X125737829Y-141657171D01*
X125777354Y-141700781D01*
X125812415Y-141748055D01*
X125842673Y-141798537D01*
X125867837Y-141851743D01*
X125887665Y-141907158D01*
X125901966Y-141964251D01*
X125910602Y-142022470D01*
X125913490Y-142081255D01*
X125913490Y-143280745D01*
X125910602Y-143339530D01*
X125901966Y-143397749D01*
X125887665Y-143454842D01*
X125867837Y-143510257D01*
X125842673Y-143563463D01*
X125812415Y-143613945D01*
X125777354Y-143661219D01*
X125737829Y-143704829D01*
X125694219Y-143744354D01*
X125646945Y-143779415D01*
X125596463Y-143809673D01*
X125543257Y-143834837D01*
X125487842Y-143854665D01*
X125430749Y-143868966D01*
X125372530Y-143877602D01*
X125313745Y-143880490D01*
X124114255Y-143880490D01*
X124055470Y-143877602D01*
X123997251Y-143868966D01*
X123940158Y-143854665D01*
X123884743Y-143834837D01*
X123831537Y-143809673D01*
X123781055Y-143779415D01*
X123733781Y-143744354D01*
X123690171Y-143704829D01*
X123650646Y-143661219D01*
X123615585Y-143613945D01*
X123585327Y-143563463D01*
X123560163Y-143510257D01*
X123540335Y-143454842D01*
X123526034Y-143397749D01*
X123517398Y-143339530D01*
X123514510Y-143280745D01*
X123514510Y-142081255D01*
X123517398Y-142022470D01*
X123526034Y-141964251D01*
X123540335Y-141907158D01*
X123560163Y-141851743D01*
X123585327Y-141798537D01*
X123615585Y-141748055D01*
X123650646Y-141700781D01*
X123690171Y-141657171D01*
X123733781Y-141617646D01*
X123781055Y-141582585D01*
X123831537Y-141552327D01*
X123884743Y-141527163D01*
X123940158Y-141507335D01*
X123997251Y-141493034D01*
X124055470Y-141484398D01*
X124114255Y-141481510D01*
X125313745Y-141481510D01*
X125372530Y-141484398D01*
X125372530Y-141484398D01*
G37*
D27*
X124714000Y-142681000D03*
D28*
X124714000Y-147431000D03*
D13*
G36*
X125809407Y-148131000D02*
G01*
X123618593Y-148131000D01*
X124178593Y-146731000D01*
X125249407Y-146731000D01*
X125809407Y-148131000D01*
X125809407Y-148131000D01*
G37*
D28*
X124714000Y-145431000D03*
D13*
G36*
X123618593Y-144731000D02*
G01*
X125809407Y-144731000D01*
X125249407Y-146131000D01*
X124178593Y-146131000D01*
X123618593Y-144731000D01*
X123618593Y-144731000D01*
G37*
G36*
X125443405Y-144082445D02*
G01*
X125472527Y-144086764D01*
X125501085Y-144093918D01*
X125528805Y-144103836D01*
X125555419Y-144116424D01*
X125580671Y-144131559D01*
X125604318Y-144149097D01*
X125626132Y-144168868D01*
X125645903Y-144190682D01*
X125663441Y-144214329D01*
X125678576Y-144239581D01*
X125691164Y-144266195D01*
X125701082Y-144293915D01*
X125708236Y-144322473D01*
X125712555Y-144351595D01*
X125714000Y-144381000D01*
X125714000Y-144981000D01*
X125712555Y-145010405D01*
X125708236Y-145039527D01*
X125701082Y-145068085D01*
X125691164Y-145095805D01*
X125678576Y-145122419D01*
X125663441Y-145147671D01*
X125645903Y-145171318D01*
X125626132Y-145193132D01*
X125604318Y-145212903D01*
X125580671Y-145230441D01*
X125555419Y-145245576D01*
X125528805Y-145258164D01*
X125501085Y-145268082D01*
X125472527Y-145275236D01*
X125443405Y-145279555D01*
X125414000Y-145281000D01*
X124014000Y-145281000D01*
X123984595Y-145279555D01*
X123955473Y-145275236D01*
X123926915Y-145268082D01*
X123899195Y-145258164D01*
X123872581Y-145245576D01*
X123847329Y-145230441D01*
X123823682Y-145212903D01*
X123801868Y-145193132D01*
X123782097Y-145171318D01*
X123764559Y-145147671D01*
X123749424Y-145122419D01*
X123736836Y-145095805D01*
X123726918Y-145068085D01*
X123719764Y-145039527D01*
X123715445Y-145010405D01*
X123714000Y-144981000D01*
X123714000Y-144381000D01*
X123715445Y-144351595D01*
X123719764Y-144322473D01*
X123726918Y-144293915D01*
X123736836Y-144266195D01*
X123749424Y-144239581D01*
X123764559Y-144214329D01*
X123782097Y-144190682D01*
X123801868Y-144168868D01*
X123823682Y-144149097D01*
X123847329Y-144131559D01*
X123872581Y-144116424D01*
X123899195Y-144103836D01*
X123926915Y-144093918D01*
X123955473Y-144086764D01*
X123984595Y-144082445D01*
X124014000Y-144081000D01*
X125414000Y-144081000D01*
X125443405Y-144082445D01*
X125443405Y-144082445D01*
G37*
D29*
X124714000Y-144681000D03*
D13*
G36*
X125420856Y-147532565D02*
G01*
X125452404Y-147537245D01*
X125483343Y-147544994D01*
X125513372Y-147555739D01*
X125542204Y-147569376D01*
X125569560Y-147585772D01*
X125595178Y-147604772D01*
X125618810Y-147626190D01*
X125640228Y-147649822D01*
X125659228Y-147675440D01*
X125675624Y-147702796D01*
X125689261Y-147731628D01*
X125700006Y-147761657D01*
X125707755Y-147792596D01*
X125712435Y-147824144D01*
X125714000Y-147856000D01*
X125714000Y-148506000D01*
X125712435Y-148537856D01*
X125707755Y-148569404D01*
X125700006Y-148600343D01*
X125689261Y-148630372D01*
X125675624Y-148659204D01*
X125659228Y-148686560D01*
X125640228Y-148712178D01*
X125618810Y-148735810D01*
X125595178Y-148757228D01*
X125569560Y-148776228D01*
X125542204Y-148792624D01*
X125513372Y-148806261D01*
X125483343Y-148817006D01*
X125452404Y-148824755D01*
X125420856Y-148829435D01*
X125389000Y-148831000D01*
X124039000Y-148831000D01*
X124007144Y-148829435D01*
X123975596Y-148824755D01*
X123944657Y-148817006D01*
X123914628Y-148806261D01*
X123885796Y-148792624D01*
X123858440Y-148776228D01*
X123832822Y-148757228D01*
X123809190Y-148735810D01*
X123787772Y-148712178D01*
X123768772Y-148686560D01*
X123752376Y-148659204D01*
X123738739Y-148630372D01*
X123727994Y-148600343D01*
X123720245Y-148569404D01*
X123715565Y-148537856D01*
X123714000Y-148506000D01*
X123714000Y-147856000D01*
X123715565Y-147824144D01*
X123720245Y-147792596D01*
X123727994Y-147761657D01*
X123738739Y-147731628D01*
X123752376Y-147702796D01*
X123768772Y-147675440D01*
X123787772Y-147649822D01*
X123809190Y-147626190D01*
X123832822Y-147604772D01*
X123858440Y-147585772D01*
X123885796Y-147569376D01*
X123914628Y-147555739D01*
X123944657Y-147544994D01*
X123975596Y-147537245D01*
X124007144Y-147532565D01*
X124039000Y-147531000D01*
X125389000Y-147531000D01*
X125420856Y-147532565D01*
X125420856Y-147532565D01*
G37*
D30*
X124714000Y-148181000D03*
D13*
G36*
X121178530Y-165808398D02*
G01*
X121236749Y-165817034D01*
X121293842Y-165831335D01*
X121349257Y-165851163D01*
X121402463Y-165876327D01*
X121452945Y-165906585D01*
X121500219Y-165941646D01*
X121543829Y-165981171D01*
X121583354Y-166024781D01*
X121618415Y-166072055D01*
X121648673Y-166122537D01*
X121673837Y-166175743D01*
X121693665Y-166231158D01*
X121707966Y-166288251D01*
X121716602Y-166346470D01*
X121719490Y-166405255D01*
X121719490Y-167604745D01*
X121716602Y-167663530D01*
X121707966Y-167721749D01*
X121693665Y-167778842D01*
X121673837Y-167834257D01*
X121648673Y-167887463D01*
X121618415Y-167937945D01*
X121583354Y-167985219D01*
X121543829Y-168028829D01*
X121500219Y-168068354D01*
X121452945Y-168103415D01*
X121402463Y-168133673D01*
X121349257Y-168158837D01*
X121293842Y-168178665D01*
X121236749Y-168192966D01*
X121178530Y-168201602D01*
X121119745Y-168204490D01*
X119920255Y-168204490D01*
X119861470Y-168201602D01*
X119803251Y-168192966D01*
X119746158Y-168178665D01*
X119690743Y-168158837D01*
X119637537Y-168133673D01*
X119587055Y-168103415D01*
X119539781Y-168068354D01*
X119496171Y-168028829D01*
X119456646Y-167985219D01*
X119421585Y-167937945D01*
X119391327Y-167887463D01*
X119366163Y-167834257D01*
X119346335Y-167778842D01*
X119332034Y-167721749D01*
X119323398Y-167663530D01*
X119320510Y-167604745D01*
X119320510Y-166405255D01*
X119323398Y-166346470D01*
X119332034Y-166288251D01*
X119346335Y-166231158D01*
X119366163Y-166175743D01*
X119391327Y-166122537D01*
X119421585Y-166072055D01*
X119456646Y-166024781D01*
X119496171Y-165981171D01*
X119539781Y-165941646D01*
X119587055Y-165906585D01*
X119637537Y-165876327D01*
X119690743Y-165851163D01*
X119746158Y-165831335D01*
X119803251Y-165817034D01*
X119861470Y-165808398D01*
X119920255Y-165805510D01*
X121119745Y-165805510D01*
X121178530Y-165808398D01*
X121178530Y-165808398D01*
G37*
D27*
X120520000Y-167005000D03*
D13*
G36*
X128678530Y-165808398D02*
G01*
X128736749Y-165817034D01*
X128793842Y-165831335D01*
X128849257Y-165851163D01*
X128902463Y-165876327D01*
X128952945Y-165906585D01*
X129000219Y-165941646D01*
X129043829Y-165981171D01*
X129083354Y-166024781D01*
X129118415Y-166072055D01*
X129148673Y-166122537D01*
X129173837Y-166175743D01*
X129193665Y-166231158D01*
X129207966Y-166288251D01*
X129216602Y-166346470D01*
X129219490Y-166405255D01*
X129219490Y-167604745D01*
X129216602Y-167663530D01*
X129207966Y-167721749D01*
X129193665Y-167778842D01*
X129173837Y-167834257D01*
X129148673Y-167887463D01*
X129118415Y-167937945D01*
X129083354Y-167985219D01*
X129043829Y-168028829D01*
X129000219Y-168068354D01*
X128952945Y-168103415D01*
X128902463Y-168133673D01*
X128849257Y-168158837D01*
X128793842Y-168178665D01*
X128736749Y-168192966D01*
X128678530Y-168201602D01*
X128619745Y-168204490D01*
X127420255Y-168204490D01*
X127361470Y-168201602D01*
X127303251Y-168192966D01*
X127246158Y-168178665D01*
X127190743Y-168158837D01*
X127137537Y-168133673D01*
X127087055Y-168103415D01*
X127039781Y-168068354D01*
X126996171Y-168028829D01*
X126956646Y-167985219D01*
X126921585Y-167937945D01*
X126891327Y-167887463D01*
X126866163Y-167834257D01*
X126846335Y-167778842D01*
X126832034Y-167721749D01*
X126823398Y-167663530D01*
X126820510Y-167604745D01*
X126820510Y-166405255D01*
X126823398Y-166346470D01*
X126832034Y-166288251D01*
X126846335Y-166231158D01*
X126866163Y-166175743D01*
X126891327Y-166122537D01*
X126921585Y-166072055D01*
X126956646Y-166024781D01*
X126996171Y-165981171D01*
X127039781Y-165941646D01*
X127087055Y-165906585D01*
X127137537Y-165876327D01*
X127190743Y-165851163D01*
X127246158Y-165831335D01*
X127303251Y-165817034D01*
X127361470Y-165808398D01*
X127420255Y-165805510D01*
X128619745Y-165805510D01*
X128678530Y-165808398D01*
X128678530Y-165808398D01*
G37*
D27*
X128020000Y-167005000D03*
D28*
X123270000Y-167005000D03*
D13*
G36*
X122570000Y-168100407D02*
G01*
X122570000Y-165909593D01*
X123970000Y-166469593D01*
X123970000Y-167540407D01*
X122570000Y-168100407D01*
X122570000Y-168100407D01*
G37*
D28*
X125270000Y-167005000D03*
D13*
G36*
X125970000Y-165909593D02*
G01*
X125970000Y-168100407D01*
X124570000Y-167540407D01*
X124570000Y-166469593D01*
X125970000Y-165909593D01*
X125970000Y-165909593D01*
G37*
G36*
X126349405Y-166006445D02*
G01*
X126378527Y-166010764D01*
X126407085Y-166017918D01*
X126434805Y-166027836D01*
X126461419Y-166040424D01*
X126486671Y-166055559D01*
X126510318Y-166073097D01*
X126532132Y-166092868D01*
X126551903Y-166114682D01*
X126569441Y-166138329D01*
X126584576Y-166163581D01*
X126597164Y-166190195D01*
X126607082Y-166217915D01*
X126614236Y-166246473D01*
X126618555Y-166275595D01*
X126620000Y-166305000D01*
X126620000Y-167705000D01*
X126618555Y-167734405D01*
X126614236Y-167763527D01*
X126607082Y-167792085D01*
X126597164Y-167819805D01*
X126584576Y-167846419D01*
X126569441Y-167871671D01*
X126551903Y-167895318D01*
X126532132Y-167917132D01*
X126510318Y-167936903D01*
X126486671Y-167954441D01*
X126461419Y-167969576D01*
X126434805Y-167982164D01*
X126407085Y-167992082D01*
X126378527Y-167999236D01*
X126349405Y-168003555D01*
X126320000Y-168005000D01*
X125720000Y-168005000D01*
X125690595Y-168003555D01*
X125661473Y-167999236D01*
X125632915Y-167992082D01*
X125605195Y-167982164D01*
X125578581Y-167969576D01*
X125553329Y-167954441D01*
X125529682Y-167936903D01*
X125507868Y-167917132D01*
X125488097Y-167895318D01*
X125470559Y-167871671D01*
X125455424Y-167846419D01*
X125442836Y-167819805D01*
X125432918Y-167792085D01*
X125425764Y-167763527D01*
X125421445Y-167734405D01*
X125420000Y-167705000D01*
X125420000Y-166305000D01*
X125421445Y-166275595D01*
X125425764Y-166246473D01*
X125432918Y-166217915D01*
X125442836Y-166190195D01*
X125455424Y-166163581D01*
X125470559Y-166138329D01*
X125488097Y-166114682D01*
X125507868Y-166092868D01*
X125529682Y-166073097D01*
X125553329Y-166055559D01*
X125578581Y-166040424D01*
X125605195Y-166027836D01*
X125632915Y-166017918D01*
X125661473Y-166010764D01*
X125690595Y-166006445D01*
X125720000Y-166005000D01*
X126320000Y-166005000D01*
X126349405Y-166006445D01*
X126349405Y-166006445D01*
G37*
D29*
X126020000Y-167005000D03*
D13*
G36*
X122876856Y-166006565D02*
G01*
X122908404Y-166011245D01*
X122939343Y-166018994D01*
X122969372Y-166029739D01*
X122998204Y-166043376D01*
X123025560Y-166059772D01*
X123051178Y-166078772D01*
X123074810Y-166100190D01*
X123096228Y-166123822D01*
X123115228Y-166149440D01*
X123131624Y-166176796D01*
X123145261Y-166205628D01*
X123156006Y-166235657D01*
X123163755Y-166266596D01*
X123168435Y-166298144D01*
X123170000Y-166330000D01*
X123170000Y-167680000D01*
X123168435Y-167711856D01*
X123163755Y-167743404D01*
X123156006Y-167774343D01*
X123145261Y-167804372D01*
X123131624Y-167833204D01*
X123115228Y-167860560D01*
X123096228Y-167886178D01*
X123074810Y-167909810D01*
X123051178Y-167931228D01*
X123025560Y-167950228D01*
X122998204Y-167966624D01*
X122969372Y-167980261D01*
X122939343Y-167991006D01*
X122908404Y-167998755D01*
X122876856Y-168003435D01*
X122845000Y-168005000D01*
X122195000Y-168005000D01*
X122163144Y-168003435D01*
X122131596Y-167998755D01*
X122100657Y-167991006D01*
X122070628Y-167980261D01*
X122041796Y-167966624D01*
X122014440Y-167950228D01*
X121988822Y-167931228D01*
X121965190Y-167909810D01*
X121943772Y-167886178D01*
X121924772Y-167860560D01*
X121908376Y-167833204D01*
X121894739Y-167804372D01*
X121883994Y-167774343D01*
X121876245Y-167743404D01*
X121871565Y-167711856D01*
X121870000Y-167680000D01*
X121870000Y-166330000D01*
X121871565Y-166298144D01*
X121876245Y-166266596D01*
X121883994Y-166235657D01*
X121894739Y-166205628D01*
X121908376Y-166176796D01*
X121924772Y-166149440D01*
X121943772Y-166123822D01*
X121965190Y-166100190D01*
X121988822Y-166078772D01*
X122014440Y-166059772D01*
X122041796Y-166043376D01*
X122070628Y-166029739D01*
X122100657Y-166018994D01*
X122131596Y-166011245D01*
X122163144Y-166006565D01*
X122195000Y-166005000D01*
X122845000Y-166005000D01*
X122876856Y-166006565D01*
X122876856Y-166006565D01*
G37*
D30*
X122520000Y-167005000D03*
D13*
G36*
X129230856Y-147532565D02*
G01*
X129262404Y-147537245D01*
X129293343Y-147544994D01*
X129323372Y-147555739D01*
X129352204Y-147569376D01*
X129379560Y-147585772D01*
X129405178Y-147604772D01*
X129428810Y-147626190D01*
X129450228Y-147649822D01*
X129469228Y-147675440D01*
X129485624Y-147702796D01*
X129499261Y-147731628D01*
X129510006Y-147761657D01*
X129517755Y-147792596D01*
X129522435Y-147824144D01*
X129524000Y-147856000D01*
X129524000Y-148506000D01*
X129522435Y-148537856D01*
X129517755Y-148569404D01*
X129510006Y-148600343D01*
X129499261Y-148630372D01*
X129485624Y-148659204D01*
X129469228Y-148686560D01*
X129450228Y-148712178D01*
X129428810Y-148735810D01*
X129405178Y-148757228D01*
X129379560Y-148776228D01*
X129352204Y-148792624D01*
X129323372Y-148806261D01*
X129293343Y-148817006D01*
X129262404Y-148824755D01*
X129230856Y-148829435D01*
X129199000Y-148831000D01*
X127849000Y-148831000D01*
X127817144Y-148829435D01*
X127785596Y-148824755D01*
X127754657Y-148817006D01*
X127724628Y-148806261D01*
X127695796Y-148792624D01*
X127668440Y-148776228D01*
X127642822Y-148757228D01*
X127619190Y-148735810D01*
X127597772Y-148712178D01*
X127578772Y-148686560D01*
X127562376Y-148659204D01*
X127548739Y-148630372D01*
X127537994Y-148600343D01*
X127530245Y-148569404D01*
X127525565Y-148537856D01*
X127524000Y-148506000D01*
X127524000Y-147856000D01*
X127525565Y-147824144D01*
X127530245Y-147792596D01*
X127537994Y-147761657D01*
X127548739Y-147731628D01*
X127562376Y-147702796D01*
X127578772Y-147675440D01*
X127597772Y-147649822D01*
X127619190Y-147626190D01*
X127642822Y-147604772D01*
X127668440Y-147585772D01*
X127695796Y-147569376D01*
X127724628Y-147555739D01*
X127754657Y-147544994D01*
X127785596Y-147537245D01*
X127817144Y-147532565D01*
X127849000Y-147531000D01*
X129199000Y-147531000D01*
X129230856Y-147532565D01*
X129230856Y-147532565D01*
G37*
D30*
X128524000Y-148181000D03*
D13*
G36*
X129253405Y-144082445D02*
G01*
X129282527Y-144086764D01*
X129311085Y-144093918D01*
X129338805Y-144103836D01*
X129365419Y-144116424D01*
X129390671Y-144131559D01*
X129414318Y-144149097D01*
X129436132Y-144168868D01*
X129455903Y-144190682D01*
X129473441Y-144214329D01*
X129488576Y-144239581D01*
X129501164Y-144266195D01*
X129511082Y-144293915D01*
X129518236Y-144322473D01*
X129522555Y-144351595D01*
X129524000Y-144381000D01*
X129524000Y-144981000D01*
X129522555Y-145010405D01*
X129518236Y-145039527D01*
X129511082Y-145068085D01*
X129501164Y-145095805D01*
X129488576Y-145122419D01*
X129473441Y-145147671D01*
X129455903Y-145171318D01*
X129436132Y-145193132D01*
X129414318Y-145212903D01*
X129390671Y-145230441D01*
X129365419Y-145245576D01*
X129338805Y-145258164D01*
X129311085Y-145268082D01*
X129282527Y-145275236D01*
X129253405Y-145279555D01*
X129224000Y-145281000D01*
X127824000Y-145281000D01*
X127794595Y-145279555D01*
X127765473Y-145275236D01*
X127736915Y-145268082D01*
X127709195Y-145258164D01*
X127682581Y-145245576D01*
X127657329Y-145230441D01*
X127633682Y-145212903D01*
X127611868Y-145193132D01*
X127592097Y-145171318D01*
X127574559Y-145147671D01*
X127559424Y-145122419D01*
X127546836Y-145095805D01*
X127536918Y-145068085D01*
X127529764Y-145039527D01*
X127525445Y-145010405D01*
X127524000Y-144981000D01*
X127524000Y-144381000D01*
X127525445Y-144351595D01*
X127529764Y-144322473D01*
X127536918Y-144293915D01*
X127546836Y-144266195D01*
X127559424Y-144239581D01*
X127574559Y-144214329D01*
X127592097Y-144190682D01*
X127611868Y-144168868D01*
X127633682Y-144149097D01*
X127657329Y-144131559D01*
X127682581Y-144116424D01*
X127709195Y-144103836D01*
X127736915Y-144093918D01*
X127765473Y-144086764D01*
X127794595Y-144082445D01*
X127824000Y-144081000D01*
X129224000Y-144081000D01*
X129253405Y-144082445D01*
X129253405Y-144082445D01*
G37*
D29*
X128524000Y-144681000D03*
D28*
X128524000Y-145431000D03*
D13*
G36*
X127428593Y-144731000D02*
G01*
X129619407Y-144731000D01*
X129059407Y-146131000D01*
X127988593Y-146131000D01*
X127428593Y-144731000D01*
X127428593Y-144731000D01*
G37*
D28*
X128524000Y-147431000D03*
D13*
G36*
X129619407Y-148131000D02*
G01*
X127428593Y-148131000D01*
X127988593Y-146731000D01*
X129059407Y-146731000D01*
X129619407Y-148131000D01*
X129619407Y-148131000D01*
G37*
G36*
X129182530Y-141484398D02*
G01*
X129240749Y-141493034D01*
X129297842Y-141507335D01*
X129353257Y-141527163D01*
X129406463Y-141552327D01*
X129456945Y-141582585D01*
X129504219Y-141617646D01*
X129547829Y-141657171D01*
X129587354Y-141700781D01*
X129622415Y-141748055D01*
X129652673Y-141798537D01*
X129677837Y-141851743D01*
X129697665Y-141907158D01*
X129711966Y-141964251D01*
X129720602Y-142022470D01*
X129723490Y-142081255D01*
X129723490Y-143280745D01*
X129720602Y-143339530D01*
X129711966Y-143397749D01*
X129697665Y-143454842D01*
X129677837Y-143510257D01*
X129652673Y-143563463D01*
X129622415Y-143613945D01*
X129587354Y-143661219D01*
X129547829Y-143704829D01*
X129504219Y-143744354D01*
X129456945Y-143779415D01*
X129406463Y-143809673D01*
X129353257Y-143834837D01*
X129297842Y-143854665D01*
X129240749Y-143868966D01*
X129182530Y-143877602D01*
X129123745Y-143880490D01*
X127924255Y-143880490D01*
X127865470Y-143877602D01*
X127807251Y-143868966D01*
X127750158Y-143854665D01*
X127694743Y-143834837D01*
X127641537Y-143809673D01*
X127591055Y-143779415D01*
X127543781Y-143744354D01*
X127500171Y-143704829D01*
X127460646Y-143661219D01*
X127425585Y-143613945D01*
X127395327Y-143563463D01*
X127370163Y-143510257D01*
X127350335Y-143454842D01*
X127336034Y-143397749D01*
X127327398Y-143339530D01*
X127324510Y-143280745D01*
X127324510Y-142081255D01*
X127327398Y-142022470D01*
X127336034Y-141964251D01*
X127350335Y-141907158D01*
X127370163Y-141851743D01*
X127395327Y-141798537D01*
X127425585Y-141748055D01*
X127460646Y-141700781D01*
X127500171Y-141657171D01*
X127543781Y-141617646D01*
X127591055Y-141582585D01*
X127641537Y-141552327D01*
X127694743Y-141527163D01*
X127750158Y-141507335D01*
X127807251Y-141493034D01*
X127865470Y-141484398D01*
X127924255Y-141481510D01*
X129123745Y-141481510D01*
X129182530Y-141484398D01*
X129182530Y-141484398D01*
G37*
D27*
X128524000Y-142681000D03*
D13*
G36*
X129182530Y-148984398D02*
G01*
X129240749Y-148993034D01*
X129297842Y-149007335D01*
X129353257Y-149027163D01*
X129406463Y-149052327D01*
X129456945Y-149082585D01*
X129504219Y-149117646D01*
X129547829Y-149157171D01*
X129587354Y-149200781D01*
X129622415Y-149248055D01*
X129652673Y-149298537D01*
X129677837Y-149351743D01*
X129697665Y-149407158D01*
X129711966Y-149464251D01*
X129720602Y-149522470D01*
X129723490Y-149581255D01*
X129723490Y-150780745D01*
X129720602Y-150839530D01*
X129711966Y-150897749D01*
X129697665Y-150954842D01*
X129677837Y-151010257D01*
X129652673Y-151063463D01*
X129622415Y-151113945D01*
X129587354Y-151161219D01*
X129547829Y-151204829D01*
X129504219Y-151244354D01*
X129456945Y-151279415D01*
X129406463Y-151309673D01*
X129353257Y-151334837D01*
X129297842Y-151354665D01*
X129240749Y-151368966D01*
X129182530Y-151377602D01*
X129123745Y-151380490D01*
X127924255Y-151380490D01*
X127865470Y-151377602D01*
X127807251Y-151368966D01*
X127750158Y-151354665D01*
X127694743Y-151334837D01*
X127641537Y-151309673D01*
X127591055Y-151279415D01*
X127543781Y-151244354D01*
X127500171Y-151204829D01*
X127460646Y-151161219D01*
X127425585Y-151113945D01*
X127395327Y-151063463D01*
X127370163Y-151010257D01*
X127350335Y-150954842D01*
X127336034Y-150897749D01*
X127327398Y-150839530D01*
X127324510Y-150780745D01*
X127324510Y-149581255D01*
X127327398Y-149522470D01*
X127336034Y-149464251D01*
X127350335Y-149407158D01*
X127370163Y-149351743D01*
X127395327Y-149298537D01*
X127425585Y-149248055D01*
X127460646Y-149200781D01*
X127500171Y-149157171D01*
X127543781Y-149117646D01*
X127591055Y-149082585D01*
X127641537Y-149052327D01*
X127694743Y-149027163D01*
X127750158Y-149007335D01*
X127807251Y-148993034D01*
X127865470Y-148984398D01*
X127924255Y-148981510D01*
X129123745Y-148981510D01*
X129182530Y-148984398D01*
X129182530Y-148984398D01*
G37*
D27*
X128524000Y-150181000D03*
M02*
